%TF.GenerationSoftware,KiCad,Pcbnew,8.0.3*%
%TF.CreationDate,2024-07-06T18:06:20+05:30*%
%TF.ProjectId,nrf528_board,6e726635-3238-45f6-926f-6172642e6b69,rev?*%
%TF.SameCoordinates,Original*%
%TF.FileFunction,Legend,Top*%
%TF.FilePolarity,Positive*%
%FSLAX46Y46*%
G04 Gerber Fmt 4.6, Leading zero omitted, Abs format (unit mm)*
G04 Created by KiCad (PCBNEW 8.0.3) date 2024-07-06 18:06:20*
%MOMM*%
%LPD*%
G01*
G04 APERTURE LIST*
%ADD10C,0.150000*%
%ADD11C,0.100000*%
%ADD12C,0.130000*%
%ADD13C,0.125000*%
%ADD14C,0.120000*%
%ADD15C,0.127000*%
%ADD16C,0.200000*%
G04 APERTURE END LIST*
D10*
G36*
X137898950Y-74977389D02*
G01*
X137773131Y-75002832D01*
X137773118Y-74997995D01*
X137782813Y-74978174D01*
X137801390Y-74968683D01*
X137880315Y-74968274D01*
X137898950Y-74977389D01*
G37*
G36*
X139076614Y-75443771D02*
G01*
X135662969Y-75443771D01*
X135662969Y-74950914D01*
X135737969Y-74950914D01*
X135738560Y-75038978D01*
X135738457Y-75045166D01*
X135738608Y-75045999D01*
X135738611Y-75046417D01*
X135738836Y-75047260D01*
X135740208Y-75054818D01*
X135769253Y-75168563D01*
X135770655Y-75175412D01*
X135771539Y-75177514D01*
X135771777Y-75178445D01*
X135772412Y-75179588D01*
X135774459Y-75184455D01*
X135800422Y-75235270D01*
X135800821Y-75236758D01*
X135803962Y-75242198D01*
X135807982Y-75250066D01*
X135809480Y-75251755D01*
X135810611Y-75253714D01*
X135817079Y-75261090D01*
X135873937Y-75317148D01*
X135878115Y-75321859D01*
X135879932Y-75323058D01*
X135881598Y-75324701D01*
X135888148Y-75328483D01*
X135894455Y-75332647D01*
X135897533Y-75333902D01*
X135898553Y-75334491D01*
X135899788Y-75334822D01*
X135903538Y-75336351D01*
X135982776Y-75362200D01*
X135984268Y-75363062D01*
X135990691Y-75364783D01*
X135998741Y-75367409D01*
X136000998Y-75367544D01*
X136003180Y-75368129D01*
X136012969Y-75368771D01*
X136063356Y-75368287D01*
X136064795Y-75368582D01*
X136070904Y-75368215D01*
X136079901Y-75368129D01*
X136082082Y-75367544D01*
X136084339Y-75367409D01*
X136093829Y-75364922D01*
X136178339Y-75336149D01*
X136184527Y-75334491D01*
X136186419Y-75333398D01*
X136188626Y-75332647D01*
X136194932Y-75328483D01*
X136201483Y-75324701D01*
X136203989Y-75322503D01*
X136204965Y-75321859D01*
X136205808Y-75320908D01*
X136208859Y-75318233D01*
X136243899Y-75282285D01*
X136253689Y-75265329D01*
X136258757Y-75246418D01*
X136258757Y-75226838D01*
X136253689Y-75207926D01*
X136243899Y-75190971D01*
X136230055Y-75177127D01*
X136213100Y-75167337D01*
X136194188Y-75162269D01*
X136174608Y-75162269D01*
X136155697Y-75167337D01*
X136138741Y-75177127D01*
X136131365Y-75183595D01*
X136115744Y-75199620D01*
X136059188Y-75218875D01*
X136026178Y-75219192D01*
X135968244Y-75200292D01*
X135932213Y-75164769D01*
X135912764Y-75126703D01*
X135887920Y-75029411D01*
X135887467Y-74962003D01*
X135904161Y-74893771D01*
X136366541Y-74893771D01*
X136367159Y-75206203D01*
X136366730Y-75213373D01*
X136367178Y-75215564D01*
X136367183Y-75217846D01*
X136369139Y-75225147D01*
X136370655Y-75232555D01*
X136371946Y-75235625D01*
X136372250Y-75236758D01*
X136372887Y-75237862D01*
X136374459Y-75241598D01*
X136401514Y-75294551D01*
X136402665Y-75298002D01*
X136405373Y-75302104D01*
X136407982Y-75307209D01*
X136410969Y-75310577D01*
X136413454Y-75314341D01*
X136417438Y-75317874D01*
X136420972Y-75321859D01*
X136424735Y-75324343D01*
X136428103Y-75327330D01*
X136436571Y-75332282D01*
X136437289Y-75332633D01*
X136437310Y-75332647D01*
X136437332Y-75332654D01*
X136493326Y-75360043D01*
X136498554Y-75363062D01*
X136500637Y-75363620D01*
X136502757Y-75364657D01*
X136510164Y-75366172D01*
X136517466Y-75368129D01*
X136520790Y-75368347D01*
X136521939Y-75368582D01*
X136523210Y-75368505D01*
X136527255Y-75368771D01*
X136611943Y-75368201D01*
X136618285Y-75368582D01*
X136620422Y-75368144D01*
X136622758Y-75368129D01*
X136630059Y-75366172D01*
X136637467Y-75364657D01*
X136640537Y-75363365D01*
X136641670Y-75363062D01*
X136642774Y-75362424D01*
X136646510Y-75360853D01*
X136656932Y-75355527D01*
X136669983Y-75363062D01*
X136688895Y-75368129D01*
X136708473Y-75368129D01*
X136727385Y-75363062D01*
X136744341Y-75353273D01*
X136758186Y-75339428D01*
X136767975Y-75322472D01*
X136773042Y-75303560D01*
X136773684Y-75293771D01*
X136773057Y-74893771D01*
X136909398Y-74893771D01*
X136910040Y-75303560D01*
X136915107Y-75322472D01*
X136924896Y-75339428D01*
X136938741Y-75353273D01*
X136955697Y-75363062D01*
X136974609Y-75368129D01*
X136994187Y-75368129D01*
X137013099Y-75363062D01*
X137030055Y-75353273D01*
X137043900Y-75339428D01*
X137053689Y-75322472D01*
X137058756Y-75303560D01*
X137059398Y-75293771D01*
X137058978Y-75026267D01*
X137073820Y-74995925D01*
X137085194Y-74984257D01*
X137115825Y-74968606D01*
X137165615Y-74968129D01*
X137184527Y-74963062D01*
X137201483Y-74953273D01*
X137215328Y-74939428D01*
X137225117Y-74922472D01*
X137230184Y-74903560D01*
X137230184Y-74893771D01*
X137280827Y-74893771D01*
X137281469Y-75303560D01*
X137286536Y-75322472D01*
X137296325Y-75339428D01*
X137310170Y-75353273D01*
X137327126Y-75363062D01*
X137346038Y-75368129D01*
X137365616Y-75368129D01*
X137384528Y-75363062D01*
X137401484Y-75353273D01*
X137415329Y-75339428D01*
X137425118Y-75322472D01*
X137430185Y-75303560D01*
X137430827Y-75293771D01*
X137430407Y-75026267D01*
X137445249Y-74995925D01*
X137456623Y-74984257D01*
X137465962Y-74979485D01*
X137623684Y-74979485D01*
X137623999Y-75096444D01*
X137623850Y-75098755D01*
X137624007Y-75099541D01*
X137624295Y-75206337D01*
X137623873Y-75213374D01*
X137624319Y-75215557D01*
X137624326Y-75217846D01*
X137626284Y-75225154D01*
X137627799Y-75232556D01*
X137629088Y-75235622D01*
X137629393Y-75236758D01*
X137630031Y-75237863D01*
X137631602Y-75241598D01*
X137658659Y-75294554D01*
X137659809Y-75298002D01*
X137662515Y-75302100D01*
X137665126Y-75307210D01*
X137668115Y-75310580D01*
X137670598Y-75314341D01*
X137674581Y-75317873D01*
X137678116Y-75321859D01*
X137681878Y-75324343D01*
X137685247Y-75327330D01*
X137693715Y-75332282D01*
X137694437Y-75332635D01*
X137694455Y-75332647D01*
X137694474Y-75332653D01*
X137750470Y-75360043D01*
X137755698Y-75363062D01*
X137757781Y-75363620D01*
X137759901Y-75364657D01*
X137767308Y-75366172D01*
X137774610Y-75368129D01*
X137777934Y-75368347D01*
X137779083Y-75368582D01*
X137780354Y-75368505D01*
X137784399Y-75368771D01*
X137897401Y-75368186D01*
X137904000Y-75368582D01*
X137906155Y-75368140D01*
X137908473Y-75368129D01*
X137915774Y-75366172D01*
X137923182Y-75364657D01*
X137926252Y-75363365D01*
X137927385Y-75363062D01*
X137928489Y-75362424D01*
X137932225Y-75360853D01*
X137997836Y-75327330D01*
X138012486Y-75314340D01*
X138023274Y-75298002D01*
X138029466Y-75279427D01*
X138030639Y-75259883D01*
X138026713Y-75240702D01*
X138017958Y-75223191D01*
X138004968Y-75208541D01*
X137988630Y-75197753D01*
X137970055Y-75191561D01*
X137950511Y-75190389D01*
X137931329Y-75194314D01*
X137922287Y-75198118D01*
X137881692Y-75218858D01*
X137802767Y-75219267D01*
X137783088Y-75209641D01*
X137773638Y-75191146D01*
X137773541Y-75155151D01*
X137991945Y-75110986D01*
X137994188Y-75110986D01*
X138001092Y-75109136D01*
X138008580Y-75107622D01*
X138010752Y-75106547D01*
X138013100Y-75105919D01*
X138019510Y-75102218D01*
X138026131Y-75098945D01*
X138027951Y-75097344D01*
X138030056Y-75096130D01*
X138035291Y-75090894D01*
X138040838Y-75086020D01*
X138042182Y-75084003D01*
X138043901Y-75082285D01*
X138047602Y-75075874D01*
X138051699Y-75069729D01*
X138052476Y-75067431D01*
X138053690Y-75065329D01*
X138055603Y-75058187D01*
X138057973Y-75051183D01*
X138058129Y-75048760D01*
X138058757Y-75046417D01*
X138059399Y-75036628D01*
X138058856Y-74980063D01*
X138059210Y-74974168D01*
X138058779Y-74972065D01*
X138058757Y-74969696D01*
X138056798Y-74962387D01*
X138055284Y-74954986D01*
X138053993Y-74951918D01*
X138053690Y-74950784D01*
X138053052Y-74949679D01*
X138051481Y-74945943D01*
X138024824Y-74893771D01*
X138166542Y-74893771D01*
X138167184Y-75303560D01*
X138172251Y-75322472D01*
X138182040Y-75339428D01*
X138195885Y-75353273D01*
X138212841Y-75363062D01*
X138231753Y-75368129D01*
X138251331Y-75368129D01*
X138270243Y-75363062D01*
X138287199Y-75353273D01*
X138301044Y-75339428D01*
X138310833Y-75322472D01*
X138315900Y-75303560D01*
X138316542Y-75293771D01*
X138316055Y-74983087D01*
X138344300Y-74968656D01*
X138394689Y-74968317D01*
X138414280Y-74977900D01*
X138423718Y-74996371D01*
X138424327Y-75303560D01*
X138429394Y-75322472D01*
X138439183Y-75339428D01*
X138453028Y-75353273D01*
X138469984Y-75363062D01*
X138488896Y-75368129D01*
X138508474Y-75368129D01*
X138527386Y-75363062D01*
X138544342Y-75353273D01*
X138558187Y-75339428D01*
X138567976Y-75322472D01*
X138573043Y-75303560D01*
X138573685Y-75293771D01*
X138573066Y-74981337D01*
X138573496Y-74974168D01*
X138573047Y-74971976D01*
X138573043Y-74969696D01*
X138571084Y-74962387D01*
X138569570Y-74954986D01*
X138568279Y-74951918D01*
X138567976Y-74950784D01*
X138567338Y-74949679D01*
X138565767Y-74945943D01*
X138538709Y-74892986D01*
X138537560Y-74889540D01*
X138534853Y-74885441D01*
X138534108Y-74883982D01*
X138624326Y-74883982D01*
X138624326Y-74903560D01*
X138629393Y-74922472D01*
X138639182Y-74939428D01*
X138653027Y-74953273D01*
X138669983Y-74963062D01*
X138688895Y-74968129D01*
X138698684Y-74968771D01*
X138709735Y-74968741D01*
X138710026Y-75206060D01*
X138709588Y-75213373D01*
X138710038Y-75215573D01*
X138710041Y-75217846D01*
X138711997Y-75225147D01*
X138713513Y-75232555D01*
X138714804Y-75235625D01*
X138715108Y-75236758D01*
X138715745Y-75237862D01*
X138717317Y-75241598D01*
X138744372Y-75294551D01*
X138745523Y-75298002D01*
X138748231Y-75302104D01*
X138750840Y-75307209D01*
X138753827Y-75310577D01*
X138756312Y-75314341D01*
X138760296Y-75317874D01*
X138763830Y-75321859D01*
X138767593Y-75324343D01*
X138770961Y-75327330D01*
X138779429Y-75332282D01*
X138780147Y-75332633D01*
X138780168Y-75332647D01*
X138780190Y-75332654D01*
X138836184Y-75360043D01*
X138841412Y-75363062D01*
X138843495Y-75363620D01*
X138845615Y-75364657D01*
X138853022Y-75366172D01*
X138860324Y-75368129D01*
X138863648Y-75368347D01*
X138864797Y-75368582D01*
X138866068Y-75368505D01*
X138870113Y-75368771D01*
X138937045Y-75368129D01*
X138955957Y-75363062D01*
X138972913Y-75353273D01*
X138986758Y-75339428D01*
X138996547Y-75322472D01*
X139001614Y-75303560D01*
X139001614Y-75283982D01*
X138996547Y-75265070D01*
X138986758Y-75248114D01*
X138972913Y-75234269D01*
X138955957Y-75224480D01*
X138937045Y-75219413D01*
X138927256Y-75218771D01*
X138888232Y-75219145D01*
X138868801Y-75209641D01*
X138859378Y-75191197D01*
X138859105Y-74968338D01*
X138937045Y-74968129D01*
X138955957Y-74963062D01*
X138972913Y-74953273D01*
X138986758Y-74939428D01*
X138996547Y-74922472D01*
X139001614Y-74903560D01*
X139001614Y-74883982D01*
X138996547Y-74865070D01*
X138986758Y-74848114D01*
X138972913Y-74834269D01*
X138955957Y-74824480D01*
X138937045Y-74819413D01*
X138927256Y-74818771D01*
X138858922Y-74818955D01*
X138858757Y-74683982D01*
X138853690Y-74665070D01*
X138843901Y-74648114D01*
X138830056Y-74634269D01*
X138813100Y-74624480D01*
X138794188Y-74619413D01*
X138774610Y-74619413D01*
X138755698Y-74624480D01*
X138738742Y-74634269D01*
X138724897Y-74648114D01*
X138715108Y-74665070D01*
X138710041Y-74683982D01*
X138709399Y-74693771D01*
X138709552Y-74819357D01*
X138688895Y-74819413D01*
X138669983Y-74824480D01*
X138653027Y-74834269D01*
X138639182Y-74848114D01*
X138629393Y-74865070D01*
X138624326Y-74883982D01*
X138534108Y-74883982D01*
X138532243Y-74880332D01*
X138529254Y-74876962D01*
X138526772Y-74873202D01*
X138522787Y-74869669D01*
X138519253Y-74865683D01*
X138515490Y-74863198D01*
X138512122Y-74860212D01*
X138503654Y-74855260D01*
X138502931Y-74854906D01*
X138502914Y-74854895D01*
X138502894Y-74854888D01*
X138446898Y-74827498D01*
X138441671Y-74824480D01*
X138439587Y-74823921D01*
X138437468Y-74822885D01*
X138430060Y-74821369D01*
X138422759Y-74819413D01*
X138419434Y-74819194D01*
X138418286Y-74818960D01*
X138417014Y-74819036D01*
X138412970Y-74818771D01*
X138328281Y-74819340D01*
X138321940Y-74818960D01*
X138319802Y-74819397D01*
X138317467Y-74819413D01*
X138310165Y-74821369D01*
X138302758Y-74822885D01*
X138299688Y-74824176D01*
X138298555Y-74824480D01*
X138297448Y-74825118D01*
X138293716Y-74826689D01*
X138283293Y-74832014D01*
X138270243Y-74824480D01*
X138251331Y-74819413D01*
X138231753Y-74819413D01*
X138212841Y-74824480D01*
X138195885Y-74834269D01*
X138182040Y-74848114D01*
X138172251Y-74865070D01*
X138167184Y-74883982D01*
X138166542Y-74893771D01*
X138024824Y-74893771D01*
X138024423Y-74892986D01*
X138023274Y-74889540D01*
X138020567Y-74885441D01*
X138017957Y-74880332D01*
X138014968Y-74876962D01*
X138012486Y-74873202D01*
X138008501Y-74869669D01*
X138004967Y-74865683D01*
X138001204Y-74863198D01*
X137997836Y-74860212D01*
X137989368Y-74855260D01*
X137988645Y-74854906D01*
X137988628Y-74854895D01*
X137988608Y-74854888D01*
X137932612Y-74827498D01*
X137927385Y-74824480D01*
X137925301Y-74823921D01*
X137923182Y-74822885D01*
X137915774Y-74821369D01*
X137908473Y-74819413D01*
X137905148Y-74819194D01*
X137904000Y-74818960D01*
X137902728Y-74819036D01*
X137898684Y-74818771D01*
X137785681Y-74819355D01*
X137779083Y-74818960D01*
X137776927Y-74819401D01*
X137774610Y-74819413D01*
X137767308Y-74821369D01*
X137759901Y-74822885D01*
X137756831Y-74824176D01*
X137755698Y-74824480D01*
X137754591Y-74825118D01*
X137750859Y-74826689D01*
X137697903Y-74853745D01*
X137694455Y-74854895D01*
X137690354Y-74857602D01*
X137685247Y-74860212D01*
X137681878Y-74863198D01*
X137678116Y-74865683D01*
X137674581Y-74869668D01*
X137670598Y-74873201D01*
X137668115Y-74876961D01*
X137665126Y-74880332D01*
X137660174Y-74888801D01*
X137659822Y-74889519D01*
X137659809Y-74889540D01*
X137659801Y-74889562D01*
X137632414Y-74945549D01*
X137629393Y-74950784D01*
X137628834Y-74952869D01*
X137627799Y-74954986D01*
X137626284Y-74962387D01*
X137624326Y-74969696D01*
X137624108Y-74973019D01*
X137623873Y-74974168D01*
X137623949Y-74975440D01*
X137623684Y-74979485D01*
X137465962Y-74979485D01*
X137487254Y-74968606D01*
X137537044Y-74968129D01*
X137555956Y-74963062D01*
X137572912Y-74953273D01*
X137586757Y-74939428D01*
X137596546Y-74922472D01*
X137601613Y-74903560D01*
X137601613Y-74883982D01*
X137596546Y-74865070D01*
X137586757Y-74848114D01*
X137572912Y-74834269D01*
X137555956Y-74824480D01*
X137537044Y-74819413D01*
X137527255Y-74818771D01*
X137470690Y-74819313D01*
X137464795Y-74818960D01*
X137462692Y-74819390D01*
X137460323Y-74819413D01*
X137453022Y-74821369D01*
X137445614Y-74822885D01*
X137442543Y-74824176D01*
X137441411Y-74824480D01*
X137440306Y-74825117D01*
X137436571Y-74826689D01*
X137408332Y-74841117D01*
X137401484Y-74834269D01*
X137384528Y-74824480D01*
X137365616Y-74819413D01*
X137346038Y-74819413D01*
X137327126Y-74824480D01*
X137310170Y-74834269D01*
X137296325Y-74848114D01*
X137286536Y-74865070D01*
X137281469Y-74883982D01*
X137280827Y-74893771D01*
X137230184Y-74893771D01*
X137230184Y-74883982D01*
X137225117Y-74865070D01*
X137215328Y-74848114D01*
X137201483Y-74834269D01*
X137184527Y-74824480D01*
X137165615Y-74819413D01*
X137155826Y-74818771D01*
X137099261Y-74819313D01*
X137093366Y-74818960D01*
X137091263Y-74819390D01*
X137088894Y-74819413D01*
X137081593Y-74821369D01*
X137074185Y-74822885D01*
X137071114Y-74824176D01*
X137069982Y-74824480D01*
X137068877Y-74825117D01*
X137065142Y-74826689D01*
X137036903Y-74841117D01*
X137030055Y-74834269D01*
X137013099Y-74824480D01*
X136994187Y-74819413D01*
X136974609Y-74819413D01*
X136955697Y-74824480D01*
X136938741Y-74834269D01*
X136924896Y-74848114D01*
X136915107Y-74865070D01*
X136910040Y-74883982D01*
X136909398Y-74893771D01*
X136773057Y-74893771D01*
X136773042Y-74883982D01*
X136767975Y-74865070D01*
X136758186Y-74848114D01*
X136744341Y-74834269D01*
X136727385Y-74824480D01*
X136708473Y-74819413D01*
X136688895Y-74819413D01*
X136669983Y-74824480D01*
X136653027Y-74834269D01*
X136639182Y-74848114D01*
X136629393Y-74865070D01*
X136624326Y-74883982D01*
X136623684Y-74893771D01*
X136624170Y-75204454D01*
X136595925Y-75218885D01*
X136545535Y-75219224D01*
X136525943Y-75209641D01*
X136516507Y-75191171D01*
X136515899Y-74883982D01*
X136510832Y-74865070D01*
X136501043Y-74848114D01*
X136487198Y-74834269D01*
X136470242Y-74824480D01*
X136451330Y-74819413D01*
X136431752Y-74819413D01*
X136412840Y-74824480D01*
X136395884Y-74834269D01*
X136382039Y-74848114D01*
X136372250Y-74865070D01*
X136367183Y-74883982D01*
X136366541Y-74893771D01*
X135904161Y-74893771D01*
X135911249Y-74864799D01*
X135930875Y-74824677D01*
X135967001Y-74788035D01*
X136023892Y-74768666D01*
X136056901Y-74768349D01*
X136115045Y-74787317D01*
X136138741Y-74810415D01*
X136155697Y-74820205D01*
X136174608Y-74825273D01*
X136194188Y-74825273D01*
X136213100Y-74820205D01*
X136230055Y-74810415D01*
X136243899Y-74796571D01*
X136253689Y-74779616D01*
X136258757Y-74760704D01*
X136258757Y-74741124D01*
X136253689Y-74722213D01*
X136243899Y-74705257D01*
X136237431Y-74697881D01*
X136208577Y-74669756D01*
X136204965Y-74665683D01*
X136203209Y-74664523D01*
X136201483Y-74662841D01*
X136194932Y-74659058D01*
X136188626Y-74654895D01*
X136185544Y-74653638D01*
X136184527Y-74653051D01*
X136183291Y-74652719D01*
X136179542Y-74651191D01*
X136100305Y-74625341D01*
X136098813Y-74624480D01*
X136092383Y-74622757D01*
X136084339Y-74620133D01*
X136082082Y-74619997D01*
X136079901Y-74619413D01*
X136070112Y-74618771D01*
X136019723Y-74619254D01*
X136018285Y-74618960D01*
X136012174Y-74619326D01*
X136003180Y-74619413D01*
X136000998Y-74619997D01*
X135998741Y-74620133D01*
X135989252Y-74622620D01*
X135904739Y-74651393D01*
X135898553Y-74653051D01*
X135896658Y-74654144D01*
X135894455Y-74654895D01*
X135888148Y-74659058D01*
X135881598Y-74662841D01*
X135879094Y-74665036D01*
X135878115Y-74665683D01*
X135877268Y-74666637D01*
X135874222Y-74669309D01*
X135822365Y-74721906D01*
X135820972Y-74722826D01*
X135816628Y-74727725D01*
X135810611Y-74733828D01*
X135809480Y-74735786D01*
X135807982Y-74737476D01*
X135803030Y-74745944D01*
X135774818Y-74803617D01*
X135771777Y-74809097D01*
X135771087Y-74811245D01*
X135770655Y-74812130D01*
X135770392Y-74813410D01*
X135768780Y-74818438D01*
X135740362Y-74934587D01*
X135738611Y-74941125D01*
X135738555Y-74941974D01*
X135738457Y-74942376D01*
X135738471Y-74943249D01*
X135737969Y-74950914D01*
X135662969Y-74950914D01*
X135662969Y-74543771D01*
X139076614Y-74543771D01*
X139076614Y-75443771D01*
G37*
D11*
G36*
X123440493Y-74302353D02*
G01*
X123466903Y-74307248D01*
X123490342Y-74315405D01*
X123513932Y-74329046D01*
X123533478Y-74347128D01*
X123538329Y-74353188D01*
X123551003Y-74374475D01*
X123560860Y-74400426D01*
X123566923Y-74425613D01*
X123571031Y-74454038D01*
X123572908Y-74479109D01*
X123573534Y-74506252D01*
X123573494Y-74513233D01*
X123572538Y-74539867D01*
X123570308Y-74564440D01*
X123565727Y-74592258D01*
X123559154Y-74616856D01*
X123548639Y-74642124D01*
X123532745Y-74665743D01*
X123530155Y-74668620D01*
X123509718Y-74686206D01*
X123485249Y-74699315D01*
X123461066Y-74706988D01*
X123433921Y-74711373D01*
X123409036Y-74712515D01*
X123403189Y-74712444D01*
X123377896Y-74709584D01*
X123377896Y-74300722D01*
X123411113Y-74300722D01*
X123440493Y-74302353D01*
G37*
G36*
X123932937Y-74557421D02*
G01*
X123814724Y-74557421D01*
X123871388Y-74373140D01*
X123932937Y-74557421D01*
G37*
G36*
X123997367Y-69262353D02*
G01*
X124023777Y-69267248D01*
X124047215Y-69275405D01*
X124070806Y-69289046D01*
X124090352Y-69307128D01*
X124095202Y-69313188D01*
X124107876Y-69334475D01*
X124117734Y-69360426D01*
X124123797Y-69385613D01*
X124127904Y-69414038D01*
X124129782Y-69439109D01*
X124130408Y-69466252D01*
X124130368Y-69473233D01*
X124129412Y-69499867D01*
X124127181Y-69524440D01*
X124122601Y-69552258D01*
X124116028Y-69576856D01*
X124105512Y-69602124D01*
X124089619Y-69625743D01*
X124087029Y-69628620D01*
X124066592Y-69646206D01*
X124042122Y-69659315D01*
X124017940Y-69666988D01*
X123990794Y-69671373D01*
X123965910Y-69672515D01*
X123960062Y-69672444D01*
X123934769Y-69669584D01*
X123934769Y-69260722D01*
X123967986Y-69260722D01*
X123997367Y-69262353D01*
G37*
G36*
X124256306Y-77320556D02*
G01*
X122836907Y-77320556D01*
X122836907Y-76814005D01*
X122892463Y-76814005D01*
X122912224Y-76817134D01*
X122936528Y-76823282D01*
X122960973Y-76833300D01*
X122960973Y-77219204D01*
X122946254Y-77226556D01*
X122922512Y-77234015D01*
X122896615Y-77238499D01*
X122892463Y-77265000D01*
X123087613Y-77265000D01*
X123091154Y-77238499D01*
X123072586Y-77235614D01*
X123047611Y-77229569D01*
X123023255Y-77219204D01*
X123023255Y-76833300D01*
X123038755Y-76825997D01*
X123062337Y-76818544D01*
X123086880Y-76814005D01*
X123118998Y-76814005D01*
X123138767Y-76817134D01*
X123163107Y-76823282D01*
X123187630Y-76833300D01*
X123187630Y-77219204D01*
X123172912Y-77226556D01*
X123149170Y-77234015D01*
X123123272Y-77238499D01*
X123118998Y-77265000D01*
X123298517Y-77265000D01*
X123301325Y-77238499D01*
X123283060Y-77235614D01*
X123258491Y-77229569D01*
X123234525Y-77219204D01*
X123234525Y-76896926D01*
X123469242Y-77265000D01*
X123500261Y-77265000D01*
X123500261Y-76833300D01*
X123515819Y-76825701D01*
X123539659Y-76818214D01*
X123564619Y-76814005D01*
X123564719Y-76812903D01*
X123568161Y-76788237D01*
X123609193Y-76788237D01*
X123609193Y-76908039D01*
X123620307Y-76908649D01*
X123640457Y-76908649D01*
X123640852Y-76896926D01*
X123644629Y-76871887D01*
X123652405Y-76848703D01*
X123665736Y-76825118D01*
X123677995Y-76823852D01*
X123704857Y-76821963D01*
X123731704Y-76820997D01*
X123757693Y-76820722D01*
X123757693Y-77219204D01*
X123743694Y-77226556D01*
X123720369Y-77234015D01*
X123694312Y-77238499D01*
X123690038Y-77265000D01*
X123883478Y-77265000D01*
X123883612Y-77263190D01*
X123886898Y-77238499D01*
X123866549Y-77235141D01*
X123842508Y-77228928D01*
X123819975Y-77219204D01*
X123819975Y-76820722D01*
X123834250Y-76820847D01*
X123859766Y-76821704D01*
X123885049Y-76823371D01*
X123910101Y-76825851D01*
X123915919Y-76835940D01*
X123925374Y-76859176D01*
X123931396Y-76883576D01*
X123934769Y-76908039D01*
X123950034Y-76908649D01*
X123964811Y-76908649D01*
X123964811Y-76786772D01*
X123953939Y-76787194D01*
X123927353Y-76787721D01*
X123899990Y-76787996D01*
X123872327Y-76788146D01*
X123847015Y-76788215D01*
X123818876Y-76788237D01*
X123804218Y-76788237D01*
X123775523Y-76788237D01*
X123747657Y-76788237D01*
X123720618Y-76788237D01*
X123694408Y-76788237D01*
X123669026Y-76788237D01*
X123638463Y-76788237D01*
X123609193Y-76788237D01*
X123568161Y-76788237D01*
X123390718Y-76788237D01*
X123390545Y-76789305D01*
X123387299Y-76814005D01*
X123407136Y-76817409D01*
X123430798Y-76823635D01*
X123453367Y-76833300D01*
X123453367Y-77128468D01*
X123236601Y-76788237D01*
X123122540Y-76788237D01*
X123122440Y-76789354D01*
X123118998Y-76814005D01*
X123086880Y-76814005D01*
X123087054Y-76812945D01*
X123090422Y-76788237D01*
X122895882Y-76788237D01*
X122895797Y-76789354D01*
X122892463Y-76814005D01*
X122836907Y-76814005D01*
X122836907Y-74597965D01*
X122910170Y-74597965D01*
X122910170Y-74714958D01*
X122920810Y-74721331D01*
X122943374Y-74731004D01*
X122967568Y-74738527D01*
X122984042Y-74742572D01*
X123010380Y-74747194D01*
X123036200Y-74748907D01*
X123058256Y-74748052D01*
X123082802Y-74744766D01*
X123108791Y-74737818D01*
X123131929Y-74727515D01*
X123152215Y-74713859D01*
X123154875Y-74711636D01*
X123173113Y-74692143D01*
X123185947Y-74669596D01*
X123193377Y-74643996D01*
X123195446Y-74619092D01*
X123193240Y-74594484D01*
X123185716Y-74569812D01*
X123172854Y-74547651D01*
X123157791Y-74529786D01*
X123139046Y-74512945D01*
X123118021Y-74499047D01*
X123097935Y-74487829D01*
X123075814Y-74475848D01*
X123053663Y-74464242D01*
X123038200Y-74455465D01*
X123017237Y-74440753D01*
X122998953Y-74424187D01*
X122993658Y-74418214D01*
X122980685Y-74395567D01*
X122976360Y-74370209D01*
X122976446Y-74366436D01*
X122982530Y-74340907D01*
X122998220Y-74320261D01*
X123006953Y-74313621D01*
X123031136Y-74303469D01*
X123056106Y-74300722D01*
X123066967Y-74301229D01*
X123091496Y-74307291D01*
X123111915Y-74321482D01*
X123126417Y-74343109D01*
X123135433Y-74366355D01*
X123141957Y-74392191D01*
X123155635Y-74394267D01*
X123171510Y-74392191D01*
X123181769Y-74296936D01*
X123170958Y-74291685D01*
X123247714Y-74291685D01*
X123268261Y-74294898D01*
X123292625Y-74300837D01*
X123315614Y-74310125D01*
X123315614Y-74702379D01*
X123300375Y-74709344D01*
X123299507Y-74709584D01*
X123276515Y-74715938D01*
X123251988Y-74719965D01*
X123248447Y-74745000D01*
X123396702Y-74745000D01*
X123674040Y-74745000D01*
X123836339Y-74745000D01*
X123839148Y-74718255D01*
X123820580Y-74715364D01*
X123795605Y-74709286D01*
X123771249Y-74698838D01*
X123803489Y-74589905D01*
X123944905Y-74589905D01*
X123980565Y-74698838D01*
X123965846Y-74706249D01*
X123942104Y-74713757D01*
X123916207Y-74718255D01*
X123912665Y-74745000D01*
X124087665Y-74745000D01*
X124090474Y-74718499D01*
X124066038Y-74712149D01*
X124044312Y-74700669D01*
X123900087Y-74268237D01*
X123858077Y-74268237D01*
X123770406Y-74557421D01*
X123727163Y-74700059D01*
X123724836Y-74701719D01*
X123702480Y-74712565D01*
X123677459Y-74718499D01*
X123674040Y-74745000D01*
X123396702Y-74745000D01*
X123404478Y-74744944D01*
X123434318Y-74743622D01*
X123462140Y-74740537D01*
X123487943Y-74735688D01*
X123511727Y-74729076D01*
X123538618Y-74718332D01*
X123562355Y-74704833D01*
X123582937Y-74688579D01*
X123586687Y-74684979D01*
X123603647Y-74664980D01*
X123617632Y-74641654D01*
X123628641Y-74615001D01*
X123635306Y-74591283D01*
X123640067Y-74565435D01*
X123642924Y-74537458D01*
X123643876Y-74507351D01*
X123642930Y-74477206D01*
X123640090Y-74449176D01*
X123635358Y-74423259D01*
X123626781Y-74393837D01*
X123615246Y-74367718D01*
X123600754Y-74344902D01*
X123583304Y-74325390D01*
X123579458Y-74321874D01*
X123558434Y-74305967D01*
X123534416Y-74292851D01*
X123507405Y-74282526D01*
X123483641Y-74276275D01*
X123457961Y-74271810D01*
X123430366Y-74269130D01*
X123400854Y-74268237D01*
X123251256Y-74268237D01*
X123247714Y-74291685D01*
X123170958Y-74291685D01*
X123158746Y-74285754D01*
X123132848Y-74277318D01*
X123108362Y-74272273D01*
X123081763Y-74269246D01*
X123053053Y-74268237D01*
X123049213Y-74268270D01*
X123023606Y-74270344D01*
X122997060Y-74276664D01*
X122973414Y-74287197D01*
X122952669Y-74301943D01*
X122939554Y-74315249D01*
X122924970Y-74337882D01*
X122916490Y-74363721D01*
X122914078Y-74389382D01*
X122916285Y-74413966D01*
X122923808Y-74438557D01*
X122936671Y-74460579D01*
X122951786Y-74478150D01*
X122970533Y-74494697D01*
X122991503Y-74508328D01*
X123011565Y-74519217D01*
X123033606Y-74530781D01*
X123055617Y-74541912D01*
X123071088Y-74550300D01*
X123092091Y-74564571D01*
X123110450Y-74580868D01*
X123118169Y-74589856D01*
X123129415Y-74611921D01*
X123133164Y-74637533D01*
X123132323Y-74649744D01*
X123124726Y-74673581D01*
X123109228Y-74693831D01*
X123094461Y-74704752D01*
X123070505Y-74713753D01*
X123044260Y-74716423D01*
X123019444Y-74714825D01*
X122994241Y-74709376D01*
X122971231Y-74700059D01*
X122969188Y-74695296D01*
X122960794Y-74670827D01*
X122954436Y-74644908D01*
X122949724Y-74619012D01*
X122946318Y-74594424D01*
X122935411Y-74594704D01*
X122910170Y-74597965D01*
X122836907Y-74597965D01*
X122836907Y-72077965D01*
X122910170Y-72077965D01*
X122910170Y-72194958D01*
X122920810Y-72201331D01*
X122943374Y-72211004D01*
X122967568Y-72218527D01*
X122984042Y-72222572D01*
X123010380Y-72227194D01*
X123036200Y-72228907D01*
X123058256Y-72228052D01*
X123082802Y-72224766D01*
X123108791Y-72217818D01*
X123131929Y-72207515D01*
X123152215Y-72193859D01*
X123154875Y-72191636D01*
X123173113Y-72172143D01*
X123185947Y-72149596D01*
X123193377Y-72123996D01*
X123195446Y-72099092D01*
X123193240Y-72074484D01*
X123185716Y-72049812D01*
X123172854Y-72027651D01*
X123157791Y-72009786D01*
X123139046Y-71992945D01*
X123133724Y-71989427D01*
X123260903Y-71989427D01*
X123261291Y-72011874D01*
X123263013Y-72040043D01*
X123266113Y-72066201D01*
X123271925Y-72096070D01*
X123279889Y-72122796D01*
X123290007Y-72146380D01*
X123304989Y-72170533D01*
X123316762Y-72184215D01*
X123337241Y-72201317D01*
X123361104Y-72214314D01*
X123388349Y-72223207D01*
X123413638Y-72227482D01*
X123441277Y-72228907D01*
X123456814Y-72228314D01*
X123483655Y-72224256D01*
X123509047Y-72216353D01*
X123532990Y-72204605D01*
X123546248Y-72196179D01*
X123566207Y-72181036D01*
X123572282Y-72175897D01*
X123589776Y-72158688D01*
X123564619Y-72131821D01*
X123553503Y-72144468D01*
X123534443Y-72159858D01*
X123512718Y-72172487D01*
X123490962Y-72181632D01*
X123466673Y-72187779D01*
X123442009Y-72189829D01*
X123418454Y-72187526D01*
X123395083Y-72179256D01*
X123373316Y-72162763D01*
X123357990Y-72141713D01*
X123348901Y-72121733D01*
X123341692Y-72097881D01*
X123336364Y-72070156D01*
X123333361Y-72044093D01*
X123331663Y-72015342D01*
X123331245Y-71990404D01*
X123331481Y-71971503D01*
X123332924Y-71942090D01*
X123335679Y-71915289D01*
X123340717Y-71886575D01*
X123347643Y-71861622D01*
X123358112Y-71837264D01*
X123371245Y-71817802D01*
X123389632Y-71801413D01*
X123414624Y-71790438D01*
X123440666Y-71787316D01*
X123444586Y-71787367D01*
X123469303Y-71790583D01*
X123491713Y-71800383D01*
X123501888Y-71809170D01*
X123511008Y-71832868D01*
X123508851Y-71848483D01*
X123497941Y-71870725D01*
X123498215Y-71871469D01*
X123513695Y-71890509D01*
X123516660Y-71892341D01*
X123541050Y-71898325D01*
X123549690Y-71897030D01*
X123569138Y-71881960D01*
X123577486Y-71866286D01*
X123581350Y-71842149D01*
X123581195Y-71837135D01*
X123574820Y-71811504D01*
X123560909Y-71791058D01*
X123541782Y-71774982D01*
X123540202Y-71774127D01*
X123649494Y-71774127D01*
X123669170Y-71777264D01*
X123693085Y-71783447D01*
X123716660Y-71793545D01*
X123716660Y-72181646D01*
X123704624Y-72187875D01*
X123679822Y-72195651D01*
X123653768Y-72199965D01*
X123649494Y-72225000D01*
X123962857Y-72225000D01*
X123962857Y-72104710D01*
X123948203Y-72102512D01*
X123936845Y-72104588D01*
X123935734Y-72110716D01*
X123929669Y-72136568D01*
X123920892Y-72161985D01*
X123908757Y-72185921D01*
X123778942Y-72185921D01*
X123778942Y-71793545D01*
X123794353Y-71786232D01*
X123817967Y-71778736D01*
X123842690Y-71774127D01*
X123846231Y-71748237D01*
X123653035Y-71748237D01*
X123652862Y-71749313D01*
X123649494Y-71774127D01*
X123540202Y-71774127D01*
X123517893Y-71762054D01*
X123493917Y-71754114D01*
X123467362Y-71749517D01*
X123442009Y-71748237D01*
X123425119Y-71748758D01*
X123398839Y-71751939D01*
X123370389Y-71759574D01*
X123345304Y-71771374D01*
X123323586Y-71787338D01*
X123305233Y-71807466D01*
X123292462Y-71827494D01*
X123281856Y-71850633D01*
X123273414Y-71876886D01*
X123267137Y-71906251D01*
X123263674Y-71931984D01*
X123261596Y-71959710D01*
X123260903Y-71989427D01*
X123133724Y-71989427D01*
X123118021Y-71979047D01*
X123097935Y-71967829D01*
X123075814Y-71955848D01*
X123053663Y-71944242D01*
X123038200Y-71935465D01*
X123017237Y-71920753D01*
X122998953Y-71904187D01*
X122993658Y-71898214D01*
X122980685Y-71875567D01*
X122976360Y-71850209D01*
X122976446Y-71846436D01*
X122982530Y-71820907D01*
X122998220Y-71800261D01*
X123006953Y-71793621D01*
X123031136Y-71783469D01*
X123056106Y-71780722D01*
X123066967Y-71781229D01*
X123091496Y-71787291D01*
X123111915Y-71801482D01*
X123126417Y-71823109D01*
X123135433Y-71846355D01*
X123141957Y-71872191D01*
X123155635Y-71874267D01*
X123171510Y-71872191D01*
X123181769Y-71776936D01*
X123158746Y-71765754D01*
X123132848Y-71757318D01*
X123108362Y-71752273D01*
X123081763Y-71749246D01*
X123053053Y-71748237D01*
X123049213Y-71748270D01*
X123023606Y-71750344D01*
X122997060Y-71756664D01*
X122973414Y-71767197D01*
X122952669Y-71781943D01*
X122939554Y-71795249D01*
X122924970Y-71817882D01*
X122916490Y-71843721D01*
X122914078Y-71869382D01*
X122916285Y-71893966D01*
X122923808Y-71918557D01*
X122936671Y-71940579D01*
X122951786Y-71958150D01*
X122970533Y-71974697D01*
X122991503Y-71988328D01*
X123011565Y-71999217D01*
X123033606Y-72010781D01*
X123055617Y-72021912D01*
X123071088Y-72030300D01*
X123092091Y-72044571D01*
X123110450Y-72060868D01*
X123118169Y-72069856D01*
X123129415Y-72091921D01*
X123133164Y-72117533D01*
X123132323Y-72129744D01*
X123124726Y-72153581D01*
X123109228Y-72173831D01*
X123094461Y-72184752D01*
X123070505Y-72193753D01*
X123044260Y-72196423D01*
X123019444Y-72194825D01*
X122994241Y-72189376D01*
X122971231Y-72180059D01*
X122969188Y-72175296D01*
X122960794Y-72150827D01*
X122954436Y-72124908D01*
X122949724Y-72099012D01*
X122946318Y-72074424D01*
X122935411Y-72074704D01*
X122910170Y-72077965D01*
X122836907Y-72077965D01*
X122836907Y-69469061D01*
X122914078Y-69469061D01*
X122914459Y-69490466D01*
X122916153Y-69517497D01*
X122919201Y-69542803D01*
X122924917Y-69572009D01*
X122932749Y-69598521D01*
X122942698Y-69622337D01*
X122957431Y-69647358D01*
X122960199Y-69651145D01*
X122979215Y-69671341D01*
X123002370Y-69687209D01*
X123024828Y-69697126D01*
X123050160Y-69704039D01*
X123078366Y-69707946D01*
X123103000Y-69708907D01*
X123118799Y-69708590D01*
X123144209Y-69706648D01*
X123173181Y-69701988D01*
X123200497Y-69694787D01*
X123226155Y-69685044D01*
X123250157Y-69672759D01*
X123250157Y-69478464D01*
X123118754Y-69478464D01*
X123116067Y-69507041D01*
X123137728Y-69509292D01*
X123163475Y-69513959D01*
X123187875Y-69521817D01*
X123187875Y-69643939D01*
X123176298Y-69651397D01*
X123153851Y-69661637D01*
X123129337Y-69667781D01*
X123102756Y-69669829D01*
X123085176Y-69668867D01*
X123058112Y-69662556D01*
X123035759Y-69650354D01*
X123018115Y-69632262D01*
X123005181Y-69608279D01*
X123000996Y-69596969D01*
X122993697Y-69571846D01*
X122988817Y-69545875D01*
X122986314Y-69522099D01*
X122984850Y-69495437D01*
X122984420Y-69468695D01*
X122984850Y-69441887D01*
X122986138Y-69417489D01*
X122988817Y-69391392D01*
X122990773Y-69379296D01*
X122996809Y-69353678D01*
X123005303Y-69328866D01*
X123008488Y-69321578D01*
X123022670Y-69299589D01*
X123041573Y-69283070D01*
X123052779Y-69276932D01*
X123076349Y-69269532D01*
X123101290Y-69267316D01*
X123109900Y-69267509D01*
X123134929Y-69270797D01*
X123158199Y-69279651D01*
X123169598Y-69287975D01*
X123179815Y-69311158D01*
X123177658Y-69326796D01*
X123166748Y-69349870D01*
X123182379Y-69369410D01*
X123185287Y-69371213D01*
X123209490Y-69377103D01*
X123217161Y-69376134D01*
X123237700Y-69361594D01*
X123247042Y-69343001D01*
X123250157Y-69318241D01*
X123249788Y-69311362D01*
X123241847Y-69287028D01*
X123226587Y-69267805D01*
X123208137Y-69254005D01*
X123319766Y-69254005D01*
X123339534Y-69257134D01*
X123363874Y-69263282D01*
X123388398Y-69273300D01*
X123388398Y-69659204D01*
X123373679Y-69666556D01*
X123349937Y-69674015D01*
X123324040Y-69678499D01*
X123319766Y-69705000D01*
X123499284Y-69705000D01*
X123502093Y-69678499D01*
X123483828Y-69675614D01*
X123459258Y-69669569D01*
X123435293Y-69659204D01*
X123435293Y-69336926D01*
X123670010Y-69705000D01*
X123701029Y-69705000D01*
X123701029Y-69273300D01*
X123716587Y-69265701D01*
X123740426Y-69258214D01*
X123765387Y-69254005D01*
X123765487Y-69252903D01*
X123765657Y-69251685D01*
X123804588Y-69251685D01*
X123825135Y-69254898D01*
X123849498Y-69260837D01*
X123872487Y-69270125D01*
X123872487Y-69662379D01*
X123857248Y-69669344D01*
X123856380Y-69669584D01*
X123833389Y-69675938D01*
X123808862Y-69679965D01*
X123805321Y-69705000D01*
X123953576Y-69705000D01*
X123961351Y-69704944D01*
X123991192Y-69703622D01*
X124019014Y-69700537D01*
X124044817Y-69695688D01*
X124068601Y-69689076D01*
X124095492Y-69678332D01*
X124119229Y-69664833D01*
X124139811Y-69648579D01*
X124143560Y-69644979D01*
X124160521Y-69624980D01*
X124174506Y-69601654D01*
X124185515Y-69575001D01*
X124192180Y-69551283D01*
X124196941Y-69525435D01*
X124199798Y-69497458D01*
X124200750Y-69467351D01*
X124199803Y-69437206D01*
X124196964Y-69409176D01*
X124192232Y-69383259D01*
X124183655Y-69353837D01*
X124172120Y-69327718D01*
X124157627Y-69304902D01*
X124140177Y-69285390D01*
X124136332Y-69281874D01*
X124115308Y-69265967D01*
X124091290Y-69252851D01*
X124064279Y-69242526D01*
X124040515Y-69236275D01*
X124014835Y-69231810D01*
X123987239Y-69229130D01*
X123957728Y-69228237D01*
X123808129Y-69228237D01*
X123804588Y-69251685D01*
X123765657Y-69251685D01*
X123768928Y-69228237D01*
X123591486Y-69228237D01*
X123591312Y-69229305D01*
X123588066Y-69254005D01*
X123607904Y-69257409D01*
X123631565Y-69263635D01*
X123654134Y-69273300D01*
X123654134Y-69568468D01*
X123437369Y-69228237D01*
X123323307Y-69228237D01*
X123323208Y-69229354D01*
X123319766Y-69254005D01*
X123208137Y-69254005D01*
X123205974Y-69252387D01*
X123181854Y-69240757D01*
X123158390Y-69233802D01*
X123132349Y-69229629D01*
X123103733Y-69228237D01*
X123079259Y-69229207D01*
X123051189Y-69233145D01*
X123025922Y-69240112D01*
X122999300Y-69252471D01*
X122976714Y-69269192D01*
X122958164Y-69290275D01*
X122945464Y-69310965D01*
X122934916Y-69334339D01*
X122926521Y-69360396D01*
X122920278Y-69389136D01*
X122916834Y-69414060D01*
X122914767Y-69440702D01*
X122914078Y-69469061D01*
X122836907Y-69469061D01*
X122836907Y-66966158D01*
X122921894Y-66966158D01*
X122921894Y-67005237D01*
X123046946Y-67005237D01*
X123046946Y-67130289D01*
X123086025Y-67130289D01*
X123086025Y-67098049D01*
X123325383Y-67098049D01*
X123329871Y-67123925D01*
X123343335Y-67146309D01*
X123363363Y-67163628D01*
X123365769Y-67165184D01*
X123389681Y-67176959D01*
X123414342Y-67184069D01*
X123438550Y-67187698D01*
X123465212Y-67188907D01*
X123480848Y-67188280D01*
X123506612Y-67184160D01*
X123530342Y-67176195D01*
X123552039Y-67164385D01*
X123571702Y-67148729D01*
X123581691Y-67138277D01*
X123595968Y-67118166D01*
X123606165Y-67095741D01*
X123612283Y-67071002D01*
X123614323Y-67043949D01*
X123614170Y-67035991D01*
X123611241Y-67009737D01*
X123604583Y-66985972D01*
X123592409Y-66961861D01*
X123575366Y-66941001D01*
X123570411Y-66936328D01*
X123548590Y-66920651D01*
X123523563Y-66909797D01*
X123499034Y-66904257D01*
X123472051Y-66902411D01*
X123445456Y-66903955D01*
X123419236Y-66908587D01*
X123395725Y-66915478D01*
X123395725Y-66877864D01*
X123650715Y-66877864D01*
X123658246Y-66879556D01*
X123682383Y-66888555D01*
X123700174Y-66907418D01*
X123801168Y-67185000D01*
X123848063Y-67185000D01*
X123954553Y-66898869D01*
X123955795Y-66896525D01*
X123976953Y-66884040D01*
X124001448Y-66877742D01*
X124003524Y-66856737D01*
X123870533Y-66856737D01*
X123868457Y-66877864D01*
X123887130Y-66882375D01*
X123910467Y-66893251D01*
X123836217Y-67117466D01*
X123761967Y-66893251D01*
X123780563Y-66883279D01*
X123805443Y-66877742D01*
X123807519Y-66856737D01*
X123650715Y-66856737D01*
X123650715Y-66877864D01*
X123395725Y-66877864D01*
X123395725Y-66762948D01*
X123581350Y-66762948D01*
X123587090Y-66718740D01*
X123572801Y-66708237D01*
X123554185Y-66708237D01*
X123529611Y-66708237D01*
X123504540Y-66708237D01*
X123480111Y-66708237D01*
X123465497Y-66708237D01*
X123439967Y-66708237D01*
X123414496Y-66708237D01*
X123389084Y-66708237D01*
X123363729Y-66708237D01*
X123348831Y-66718007D01*
X123348831Y-66939902D01*
X123371912Y-66963471D01*
X123389202Y-66953760D01*
X123411909Y-66943937D01*
X123436980Y-66937155D01*
X123461549Y-66934895D01*
X123486712Y-66937721D01*
X123509930Y-66947359D01*
X123528471Y-66963838D01*
X123535261Y-66973458D01*
X123545389Y-66996150D01*
X123550568Y-67020510D01*
X123552041Y-67045293D01*
X123551950Y-67051766D01*
X123549299Y-67078653D01*
X123542048Y-67104222D01*
X123528838Y-67127114D01*
X123510704Y-67143801D01*
X123488039Y-67153561D01*
X123463503Y-67156423D01*
X123461614Y-67156407D01*
X123436025Y-67152240D01*
X123414410Y-67139692D01*
X123400396Y-67120336D01*
X123395725Y-67095729D01*
X123396088Y-67090403D01*
X123403297Y-67066420D01*
X123392503Y-67059884D01*
X123368370Y-67054940D01*
X123358837Y-67055658D01*
X123336741Y-67066420D01*
X123331251Y-67073563D01*
X123325383Y-67098049D01*
X123086025Y-67098049D01*
X123086025Y-67005237D01*
X123211078Y-67005237D01*
X123211078Y-66966158D01*
X123086025Y-66966158D01*
X123086025Y-66841106D01*
X123046946Y-66841106D01*
X123046946Y-66966158D01*
X122921894Y-66966158D01*
X122836907Y-66966158D01*
X122836907Y-66652681D01*
X124256306Y-66652681D01*
X124256306Y-77320556D01*
G37*
D10*
G36*
X132675552Y-74687249D02*
G01*
X132711581Y-74722772D01*
X132731031Y-74760839D01*
X132755875Y-74858130D01*
X132756328Y-74925538D01*
X132732546Y-75022742D01*
X132712920Y-75062864D01*
X132676794Y-75099506D01*
X132620078Y-75118816D01*
X132562891Y-75119056D01*
X132562416Y-74668457D01*
X132617241Y-74668227D01*
X132675552Y-74687249D01*
G37*
G36*
X132980827Y-75343771D02*
G01*
X128367183Y-75343771D01*
X128367183Y-74955411D01*
X128442183Y-74955411D01*
X128442183Y-74974989D01*
X128447250Y-74993901D01*
X128457039Y-75010857D01*
X128470884Y-75024702D01*
X128487840Y-75034491D01*
X128506752Y-75039558D01*
X128516541Y-75040200D01*
X128670529Y-75039988D01*
X128670754Y-75203560D01*
X128675821Y-75222472D01*
X128685610Y-75239428D01*
X128699455Y-75253273D01*
X128716411Y-75263062D01*
X128735323Y-75268129D01*
X128754901Y-75268129D01*
X128773813Y-75263062D01*
X128790769Y-75253273D01*
X128804614Y-75239428D01*
X128814403Y-75222472D01*
X128819470Y-75203560D01*
X128820112Y-75193771D01*
X128819900Y-75039782D01*
X128983473Y-75039558D01*
X129002385Y-75034491D01*
X129019341Y-75024702D01*
X129033186Y-75010857D01*
X129042975Y-74993901D01*
X129048042Y-74974989D01*
X129048042Y-74955411D01*
X129042975Y-74936499D01*
X129033186Y-74919543D01*
X129019341Y-74905698D01*
X129002385Y-74895909D01*
X128983473Y-74890842D01*
X128973684Y-74890200D01*
X128819694Y-74890411D01*
X128819470Y-74726839D01*
X128814403Y-74707927D01*
X128804614Y-74690971D01*
X128790769Y-74677126D01*
X128773813Y-74667337D01*
X128754901Y-74662270D01*
X128735323Y-74662270D01*
X128716411Y-74667337D01*
X128699455Y-74677126D01*
X128685610Y-74690971D01*
X128675821Y-74707927D01*
X128670754Y-74726839D01*
X128670112Y-74736628D01*
X128670323Y-74890617D01*
X128506752Y-74890842D01*
X128487840Y-74895909D01*
X128470884Y-74905698D01*
X128457039Y-74919543D01*
X128447250Y-74936499D01*
X128442183Y-74955411D01*
X128367183Y-74955411D01*
X128367183Y-74588455D01*
X129098872Y-74588455D01*
X129100045Y-74607998D01*
X129102532Y-74617488D01*
X129301749Y-75213155D01*
X129302796Y-75218269D01*
X129304801Y-75222279D01*
X129306237Y-75226572D01*
X129309166Y-75231009D01*
X129311553Y-75235782D01*
X129314544Y-75239155D01*
X129317024Y-75242911D01*
X129321009Y-75246445D01*
X129324543Y-75250430D01*
X129328299Y-75252910D01*
X129331673Y-75255902D01*
X129336442Y-75258286D01*
X129340882Y-75261218D01*
X129345150Y-75262640D01*
X129349185Y-75264658D01*
X129354410Y-75265727D01*
X129359456Y-75267409D01*
X129363946Y-75267678D01*
X129368367Y-75268583D01*
X129373689Y-75268263D01*
X129378999Y-75268582D01*
X129383411Y-75267679D01*
X129387911Y-75267409D01*
X129392959Y-75265726D01*
X129398181Y-75264658D01*
X129402214Y-75262641D01*
X129406484Y-75261218D01*
X129410927Y-75258284D01*
X129415694Y-75255901D01*
X129419062Y-75252913D01*
X129422823Y-75250431D01*
X129426359Y-75246442D01*
X129430342Y-75242911D01*
X129432821Y-75239155D01*
X129435813Y-75235782D01*
X129438197Y-75231013D01*
X129441130Y-75226572D01*
X129444274Y-75218859D01*
X129444570Y-75218269D01*
X129444624Y-75218000D01*
X129444834Y-75217488D01*
X129547634Y-74908057D01*
X129670112Y-74908057D01*
X129670713Y-75077919D01*
X129670301Y-75084802D01*
X129670745Y-75086975D01*
X129670754Y-75089274D01*
X129672712Y-75096582D01*
X129674227Y-75103984D01*
X129675516Y-75107050D01*
X129675821Y-75108186D01*
X129676459Y-75109291D01*
X129678030Y-75113026D01*
X129703995Y-75163844D01*
X129704393Y-75165328D01*
X129707527Y-75170756D01*
X129711554Y-75178638D01*
X129713053Y-75180328D01*
X129714182Y-75182284D01*
X129720650Y-75189660D01*
X129744923Y-75213321D01*
X129745597Y-75214341D01*
X129749723Y-75217999D01*
X129756597Y-75224700D01*
X129758554Y-75225830D01*
X129760246Y-75227330D01*
X129768714Y-75232282D01*
X129825469Y-75260043D01*
X129830697Y-75263062D01*
X129832780Y-75263620D01*
X129834900Y-75264657D01*
X129842307Y-75266172D01*
X129849609Y-75268129D01*
X129852933Y-75268347D01*
X129854082Y-75268582D01*
X129855353Y-75268505D01*
X129859398Y-75268771D01*
X129972401Y-75268186D01*
X129979000Y-75268582D01*
X129981155Y-75268140D01*
X129983473Y-75268129D01*
X129990774Y-75266172D01*
X129998182Y-75264657D01*
X130001252Y-75263365D01*
X130002385Y-75263062D01*
X130003489Y-75262424D01*
X130007225Y-75260853D01*
X130072836Y-75227330D01*
X130087486Y-75214340D01*
X130098274Y-75198002D01*
X130104466Y-75179427D01*
X130105639Y-75159883D01*
X130101713Y-75140702D01*
X130092958Y-75123191D01*
X130079968Y-75108541D01*
X130063630Y-75097753D01*
X130045055Y-75091561D01*
X130025511Y-75090389D01*
X130006329Y-75094314D01*
X129997287Y-75098118D01*
X129956692Y-75118858D01*
X129877766Y-75119267D01*
X129847267Y-75104348D01*
X129835600Y-75092976D01*
X129820051Y-75062545D01*
X129819570Y-74926518D01*
X129828600Y-74908057D01*
X130184398Y-74908057D01*
X130184999Y-75077919D01*
X130184587Y-75084802D01*
X130185031Y-75086975D01*
X130185040Y-75089274D01*
X130186998Y-75096582D01*
X130188513Y-75103984D01*
X130189802Y-75107050D01*
X130190107Y-75108186D01*
X130190745Y-75109291D01*
X130192316Y-75113026D01*
X130218281Y-75163844D01*
X130218679Y-75165328D01*
X130221813Y-75170756D01*
X130225840Y-75178638D01*
X130227339Y-75180328D01*
X130228468Y-75182284D01*
X130234936Y-75189660D01*
X130259209Y-75213321D01*
X130259883Y-75214341D01*
X130264009Y-75217999D01*
X130270883Y-75224700D01*
X130272840Y-75225830D01*
X130274532Y-75227330D01*
X130283000Y-75232282D01*
X130339755Y-75260043D01*
X130344983Y-75263062D01*
X130347066Y-75263620D01*
X130349186Y-75264657D01*
X130356593Y-75266172D01*
X130363895Y-75268129D01*
X130367219Y-75268347D01*
X130368368Y-75268582D01*
X130369639Y-75268505D01*
X130373684Y-75268771D01*
X130486687Y-75268186D01*
X130493286Y-75268582D01*
X130495441Y-75268140D01*
X130497759Y-75268129D01*
X130505060Y-75266172D01*
X130512468Y-75264657D01*
X130515538Y-75263365D01*
X130516671Y-75263062D01*
X130517775Y-75262424D01*
X130521511Y-75260853D01*
X130587122Y-75227330D01*
X130601772Y-75214340D01*
X130612560Y-75198002D01*
X130618752Y-75179427D01*
X130619925Y-75159883D01*
X130615999Y-75140702D01*
X130607244Y-75123191D01*
X130594254Y-75108541D01*
X130577916Y-75097753D01*
X130559341Y-75091561D01*
X130539797Y-75090389D01*
X130520615Y-75094314D01*
X130511573Y-75098118D01*
X130470978Y-75118858D01*
X130392052Y-75119267D01*
X130361553Y-75104348D01*
X130349886Y-75092976D01*
X130334337Y-75062545D01*
X130333856Y-74926518D01*
X130348820Y-74895926D01*
X130360195Y-74884256D01*
X130390675Y-74868683D01*
X130469601Y-74868274D01*
X130520615Y-74893228D01*
X130539797Y-74897153D01*
X130559341Y-74895981D01*
X130577916Y-74889789D01*
X130594254Y-74879001D01*
X130607244Y-74864351D01*
X130613962Y-74850914D01*
X131155827Y-74850914D01*
X131156418Y-74938978D01*
X131156315Y-74945166D01*
X131156466Y-74945999D01*
X131156469Y-74946417D01*
X131156694Y-74947260D01*
X131158066Y-74954818D01*
X131187111Y-75068563D01*
X131188513Y-75075412D01*
X131189397Y-75077514D01*
X131189635Y-75078445D01*
X131190270Y-75079588D01*
X131192317Y-75084455D01*
X131218280Y-75135270D01*
X131218679Y-75136758D01*
X131221820Y-75142198D01*
X131225840Y-75150066D01*
X131227338Y-75151755D01*
X131228469Y-75153714D01*
X131234937Y-75161090D01*
X131291795Y-75217148D01*
X131295973Y-75221859D01*
X131297790Y-75223058D01*
X131299456Y-75224701D01*
X131306006Y-75228483D01*
X131312313Y-75232647D01*
X131315391Y-75233902D01*
X131316411Y-75234491D01*
X131317646Y-75234822D01*
X131321396Y-75236351D01*
X131400634Y-75262200D01*
X131402126Y-75263062D01*
X131408549Y-75264783D01*
X131416599Y-75267409D01*
X131418856Y-75267544D01*
X131421038Y-75268129D01*
X131430827Y-75268771D01*
X131481214Y-75268287D01*
X131482653Y-75268582D01*
X131488762Y-75268215D01*
X131497759Y-75268129D01*
X131499940Y-75267544D01*
X131502197Y-75267409D01*
X131511687Y-75264922D01*
X131596197Y-75236149D01*
X131602385Y-75234491D01*
X131604277Y-75233398D01*
X131606484Y-75232647D01*
X131612790Y-75228483D01*
X131619341Y-75224701D01*
X131621847Y-75222503D01*
X131622823Y-75221859D01*
X131623666Y-75220908D01*
X131626717Y-75218233D01*
X131661718Y-75182324D01*
X131661758Y-75182285D01*
X131671547Y-75165329D01*
X131673006Y-75159883D01*
X131676615Y-75146418D01*
X131676615Y-75146401D01*
X131677256Y-75136628D01*
X131676614Y-74926839D01*
X131671547Y-74907927D01*
X131661758Y-74890971D01*
X131647913Y-74877126D01*
X131630957Y-74867337D01*
X131612045Y-74862270D01*
X131602256Y-74861628D01*
X131478181Y-74862270D01*
X131459269Y-74867337D01*
X131442313Y-74877126D01*
X131428468Y-74890971D01*
X131418679Y-74907927D01*
X131413612Y-74926839D01*
X131413612Y-74946417D01*
X131418679Y-74965329D01*
X131428468Y-74982285D01*
X131442313Y-74996130D01*
X131459269Y-75005919D01*
X131478181Y-75010986D01*
X131487970Y-75011628D01*
X131527484Y-75011423D01*
X131527760Y-75101609D01*
X131477046Y-75118875D01*
X131444036Y-75119192D01*
X131386102Y-75100292D01*
X131350071Y-75064769D01*
X131330622Y-75026703D01*
X131305778Y-74929411D01*
X131305325Y-74862003D01*
X131329107Y-74764799D01*
X131348733Y-74724677D01*
X131384859Y-74688035D01*
X131441656Y-74668698D01*
X131498261Y-74668317D01*
X131549186Y-74693228D01*
X131568367Y-74697153D01*
X131587911Y-74695981D01*
X131606486Y-74689789D01*
X131622825Y-74679001D01*
X131635814Y-74664352D01*
X131644570Y-74646840D01*
X131648496Y-74627659D01*
X131647323Y-74608115D01*
X131642541Y-74593771D01*
X131784399Y-74593771D01*
X131785041Y-75203560D01*
X131790108Y-75222472D01*
X131799897Y-75239428D01*
X131813742Y-75253273D01*
X131830698Y-75263062D01*
X131849610Y-75268129D01*
X131869188Y-75268129D01*
X131888100Y-75263062D01*
X131905056Y-75253273D01*
X131918901Y-75239428D01*
X131928690Y-75222472D01*
X131933757Y-75203560D01*
X131934399Y-75193771D01*
X131934063Y-74875081D01*
X132132938Y-75222374D01*
X132132965Y-75222472D01*
X132136618Y-75228799D01*
X132142552Y-75239162D01*
X132142668Y-75239279D01*
X132142754Y-75239428D01*
X132149608Y-75246282D01*
X132156334Y-75253069D01*
X132156480Y-75253154D01*
X132156599Y-75253273D01*
X132164841Y-75258031D01*
X132173246Y-75262934D01*
X132173411Y-75262979D01*
X132173555Y-75263062D01*
X132182641Y-75265496D01*
X132192136Y-75268086D01*
X132192309Y-75268086D01*
X132192467Y-75268129D01*
X132201925Y-75268129D01*
X132211715Y-75268172D01*
X132211878Y-75268129D01*
X132212045Y-75268129D01*
X132221280Y-75265654D01*
X132230649Y-75263189D01*
X132230795Y-75263105D01*
X132230957Y-75263062D01*
X132239351Y-75258215D01*
X132247647Y-75253475D01*
X132247764Y-75253358D01*
X132247913Y-75253273D01*
X132254767Y-75246418D01*
X132261554Y-75239693D01*
X132261639Y-75239546D01*
X132261758Y-75239428D01*
X132266516Y-75231185D01*
X132271419Y-75222781D01*
X132271464Y-75222615D01*
X132271547Y-75222472D01*
X132273981Y-75213385D01*
X132276571Y-75203891D01*
X132276571Y-75203717D01*
X132276614Y-75203560D01*
X132277256Y-75193771D01*
X132276624Y-74593771D01*
X132412970Y-74593771D01*
X132413612Y-75203560D01*
X132418679Y-75222472D01*
X132428468Y-75239428D01*
X132442313Y-75253273D01*
X132459269Y-75263062D01*
X132478181Y-75268129D01*
X132487970Y-75268771D01*
X132623645Y-75268200D01*
X132625510Y-75268582D01*
X132632488Y-75268163D01*
X132640616Y-75268129D01*
X132642797Y-75267544D01*
X132645054Y-75267409D01*
X132654544Y-75264922D01*
X132739054Y-75236149D01*
X132745242Y-75234491D01*
X132747134Y-75233398D01*
X132749341Y-75232647D01*
X132755647Y-75228483D01*
X132762198Y-75224701D01*
X132764704Y-75222503D01*
X132765680Y-75221859D01*
X132766523Y-75220908D01*
X132769574Y-75218233D01*
X132821431Y-75165634D01*
X132822825Y-75164715D01*
X132827168Y-75159816D01*
X132833185Y-75153714D01*
X132834315Y-75151755D01*
X132835814Y-75150066D01*
X132840766Y-75141598D01*
X132868975Y-75083926D01*
X132872019Y-75078445D01*
X132872708Y-75076296D01*
X132873141Y-75075412D01*
X132873403Y-75074131D01*
X132875016Y-75069104D01*
X132903433Y-74952954D01*
X132905185Y-74946417D01*
X132905240Y-74945567D01*
X132905339Y-74945166D01*
X132905324Y-74944292D01*
X132905827Y-74936628D01*
X132905235Y-74848555D01*
X132905339Y-74842376D01*
X132905187Y-74841542D01*
X132905185Y-74841125D01*
X132904959Y-74840282D01*
X132903588Y-74832723D01*
X132874542Y-74718978D01*
X132873141Y-74712130D01*
X132872256Y-74710028D01*
X132872019Y-74709097D01*
X132871383Y-74707951D01*
X132869337Y-74703088D01*
X132843374Y-74652273D01*
X132842975Y-74650783D01*
X132839830Y-74645336D01*
X132835814Y-74637476D01*
X132834315Y-74635786D01*
X132833185Y-74633828D01*
X132826717Y-74626452D01*
X132769853Y-74570388D01*
X132765680Y-74565683D01*
X132763865Y-74564484D01*
X132762198Y-74562841D01*
X132755647Y-74559058D01*
X132749341Y-74554895D01*
X132746259Y-74553638D01*
X132745242Y-74553051D01*
X132744006Y-74552719D01*
X132740257Y-74551191D01*
X132661020Y-74525341D01*
X132659528Y-74524480D01*
X132653098Y-74522757D01*
X132645054Y-74520133D01*
X132642797Y-74519997D01*
X132640616Y-74519413D01*
X132630827Y-74518771D01*
X132478181Y-74519413D01*
X132459269Y-74524480D01*
X132442313Y-74534269D01*
X132428468Y-74548114D01*
X132418679Y-74565070D01*
X132413612Y-74583982D01*
X132412970Y-74593771D01*
X132276624Y-74593771D01*
X132276614Y-74583982D01*
X132271547Y-74565070D01*
X132261758Y-74548114D01*
X132247913Y-74534269D01*
X132230957Y-74524480D01*
X132212045Y-74519413D01*
X132192467Y-74519413D01*
X132173555Y-74524480D01*
X132156599Y-74534269D01*
X132142754Y-74548114D01*
X132132965Y-74565070D01*
X132127898Y-74583982D01*
X132127256Y-74593771D01*
X132127591Y-74912460D01*
X131928716Y-74565167D01*
X131928690Y-74565070D01*
X131925036Y-74558742D01*
X131919103Y-74548380D01*
X131918986Y-74548262D01*
X131918901Y-74548114D01*
X131911989Y-74541202D01*
X131905321Y-74534474D01*
X131905176Y-74534389D01*
X131905056Y-74534269D01*
X131896731Y-74529462D01*
X131888409Y-74524608D01*
X131888243Y-74524562D01*
X131888100Y-74524480D01*
X131878908Y-74522017D01*
X131869519Y-74519457D01*
X131869349Y-74519456D01*
X131869188Y-74519413D01*
X131859617Y-74519413D01*
X131849940Y-74519370D01*
X131849777Y-74519413D01*
X131849610Y-74519413D01*
X131840374Y-74521887D01*
X131831006Y-74524353D01*
X131830859Y-74524436D01*
X131830698Y-74524480D01*
X131822303Y-74529326D01*
X131814008Y-74534067D01*
X131813890Y-74534183D01*
X131813742Y-74534269D01*
X131806830Y-74541180D01*
X131800102Y-74547849D01*
X131800017Y-74547993D01*
X131799897Y-74548114D01*
X131795090Y-74556438D01*
X131790236Y-74564761D01*
X131790190Y-74564926D01*
X131790108Y-74565070D01*
X131787645Y-74574261D01*
X131785085Y-74583651D01*
X131785084Y-74583820D01*
X131785041Y-74583982D01*
X131784399Y-74593771D01*
X131642541Y-74593771D01*
X131641131Y-74589540D01*
X131630343Y-74573202D01*
X131615694Y-74560212D01*
X131607225Y-74555260D01*
X131550471Y-74527498D01*
X131545243Y-74524480D01*
X131543159Y-74523921D01*
X131541040Y-74522885D01*
X131533631Y-74521369D01*
X131526331Y-74519413D01*
X131523007Y-74519195D01*
X131521859Y-74518960D01*
X131520586Y-74519036D01*
X131516542Y-74518771D01*
X131437806Y-74519300D01*
X131436143Y-74518960D01*
X131429548Y-74519355D01*
X131421038Y-74519413D01*
X131418856Y-74519997D01*
X131416599Y-74520133D01*
X131407110Y-74522620D01*
X131322597Y-74551393D01*
X131316411Y-74553051D01*
X131314516Y-74554144D01*
X131312313Y-74554895D01*
X131306006Y-74559058D01*
X131299456Y-74562841D01*
X131296952Y-74565036D01*
X131295973Y-74565683D01*
X131295126Y-74566637D01*
X131292080Y-74569309D01*
X131240223Y-74621906D01*
X131238830Y-74622826D01*
X131234486Y-74627725D01*
X131228469Y-74633828D01*
X131227338Y-74635786D01*
X131225840Y-74637476D01*
X131220888Y-74645944D01*
X131192676Y-74703617D01*
X131189635Y-74709097D01*
X131188945Y-74711245D01*
X131188513Y-74712130D01*
X131188250Y-74713410D01*
X131186638Y-74718438D01*
X131158220Y-74834587D01*
X131156469Y-74841125D01*
X131156413Y-74841974D01*
X131156315Y-74842376D01*
X131156329Y-74843249D01*
X131155827Y-74850914D01*
X130613962Y-74850914D01*
X130615999Y-74846840D01*
X130619925Y-74827659D01*
X130618752Y-74808115D01*
X130612560Y-74789540D01*
X130601772Y-74773202D01*
X130587122Y-74760212D01*
X130578654Y-74755260D01*
X130521898Y-74727498D01*
X130516671Y-74724480D01*
X130514587Y-74723921D01*
X130512468Y-74722885D01*
X130505060Y-74721369D01*
X130497759Y-74719413D01*
X130494434Y-74719194D01*
X130493286Y-74718960D01*
X130492014Y-74719036D01*
X130487970Y-74718771D01*
X130374966Y-74719355D01*
X130368368Y-74718960D01*
X130366212Y-74719401D01*
X130363895Y-74719413D01*
X130356593Y-74721369D01*
X130349186Y-74722885D01*
X130346116Y-74724176D01*
X130344983Y-74724480D01*
X130343876Y-74725118D01*
X130340144Y-74726689D01*
X130289326Y-74752653D01*
X130287838Y-74753052D01*
X130282399Y-74756192D01*
X130274532Y-74760212D01*
X130272840Y-74761711D01*
X130270883Y-74762842D01*
X130263507Y-74769310D01*
X130239847Y-74793582D01*
X130238830Y-74794255D01*
X130235172Y-74798379D01*
X130228468Y-74805258D01*
X130227339Y-74807213D01*
X130225840Y-74808904D01*
X130220888Y-74817373D01*
X130193128Y-74874121D01*
X130190107Y-74879356D01*
X130189548Y-74881441D01*
X130188513Y-74883558D01*
X130186998Y-74890959D01*
X130185040Y-74898268D01*
X130184822Y-74901591D01*
X130184587Y-74902740D01*
X130184663Y-74904012D01*
X130184398Y-74908057D01*
X129828600Y-74908057D01*
X129834534Y-74895926D01*
X129845909Y-74884256D01*
X129876389Y-74868683D01*
X129955315Y-74868274D01*
X130006329Y-74893228D01*
X130025511Y-74897153D01*
X130045055Y-74895981D01*
X130063630Y-74889789D01*
X130079968Y-74879001D01*
X130092958Y-74864351D01*
X130101713Y-74846840D01*
X130105639Y-74827659D01*
X130104466Y-74808115D01*
X130098274Y-74789540D01*
X130087486Y-74773202D01*
X130072836Y-74760212D01*
X130064368Y-74755260D01*
X130007612Y-74727498D01*
X130002385Y-74724480D01*
X130000301Y-74723921D01*
X129998182Y-74722885D01*
X129990774Y-74721369D01*
X129983473Y-74719413D01*
X129980148Y-74719194D01*
X129979000Y-74718960D01*
X129977728Y-74719036D01*
X129973684Y-74718771D01*
X129860680Y-74719355D01*
X129854082Y-74718960D01*
X129851926Y-74719401D01*
X129849609Y-74719413D01*
X129842307Y-74721369D01*
X129834900Y-74722885D01*
X129831830Y-74724176D01*
X129830697Y-74724480D01*
X129829590Y-74725118D01*
X129825858Y-74726689D01*
X129775040Y-74752653D01*
X129773552Y-74753052D01*
X129768113Y-74756192D01*
X129760246Y-74760212D01*
X129758554Y-74761711D01*
X129756597Y-74762842D01*
X129749221Y-74769310D01*
X129725561Y-74793582D01*
X129724544Y-74794255D01*
X129720886Y-74798379D01*
X129714182Y-74805258D01*
X129713053Y-74807213D01*
X129711554Y-74808904D01*
X129706602Y-74817373D01*
X129678842Y-74874121D01*
X129675821Y-74879356D01*
X129675262Y-74881441D01*
X129674227Y-74883558D01*
X129672712Y-74890959D01*
X129670754Y-74898268D01*
X129670536Y-74901591D01*
X129670301Y-74902740D01*
X129670377Y-74904012D01*
X129670112Y-74908057D01*
X129547634Y-74908057D01*
X129647321Y-74607998D01*
X129648494Y-74588454D01*
X129644570Y-74569273D01*
X129635813Y-74551760D01*
X129622823Y-74537111D01*
X129606484Y-74526324D01*
X129587911Y-74520133D01*
X129568367Y-74518959D01*
X129549185Y-74522884D01*
X129531673Y-74531640D01*
X129517024Y-74544631D01*
X129506237Y-74560970D01*
X129502532Y-74570053D01*
X129373780Y-74957599D01*
X129241130Y-74560970D01*
X129230342Y-74544631D01*
X129215694Y-74531641D01*
X129198181Y-74522884D01*
X129178999Y-74518960D01*
X129159456Y-74520133D01*
X129140882Y-74526324D01*
X129124543Y-74537112D01*
X129111553Y-74551760D01*
X129102796Y-74569273D01*
X129098872Y-74588455D01*
X128367183Y-74588455D01*
X128367183Y-74443771D01*
X132980827Y-74443771D01*
X132980827Y-75343771D01*
G37*
D12*
X135350406Y-73166666D02*
X135383740Y-73199999D01*
X135383740Y-73199999D02*
X135417073Y-73299999D01*
X135417073Y-73299999D02*
X135417073Y-73366666D01*
X135417073Y-73366666D02*
X135383740Y-73466666D01*
X135383740Y-73466666D02*
X135317073Y-73533333D01*
X135317073Y-73533333D02*
X135250406Y-73566666D01*
X135250406Y-73566666D02*
X135117073Y-73599999D01*
X135117073Y-73599999D02*
X135017073Y-73599999D01*
X135017073Y-73599999D02*
X134883740Y-73566666D01*
X134883740Y-73566666D02*
X134817073Y-73533333D01*
X134817073Y-73533333D02*
X134750406Y-73466666D01*
X134750406Y-73466666D02*
X134717073Y-73366666D01*
X134717073Y-73366666D02*
X134717073Y-73299999D01*
X134717073Y-73299999D02*
X134750406Y-73199999D01*
X134750406Y-73199999D02*
X134783740Y-73166666D01*
X134717073Y-72933333D02*
X134717073Y-72499999D01*
X134717073Y-72499999D02*
X134983740Y-72733333D01*
X134983740Y-72733333D02*
X134983740Y-72633333D01*
X134983740Y-72633333D02*
X135017073Y-72566666D01*
X135017073Y-72566666D02*
X135050406Y-72533333D01*
X135050406Y-72533333D02*
X135117073Y-72499999D01*
X135117073Y-72499999D02*
X135283740Y-72499999D01*
X135283740Y-72499999D02*
X135350406Y-72533333D01*
X135350406Y-72533333D02*
X135383740Y-72566666D01*
X135383740Y-72566666D02*
X135417073Y-72633333D01*
X135417073Y-72633333D02*
X135417073Y-72833333D01*
X135417073Y-72833333D02*
X135383740Y-72899999D01*
X135383740Y-72899999D02*
X135350406Y-72933333D01*
X133466666Y-77142073D02*
X133466666Y-77642073D01*
X133466666Y-77642073D02*
X133433333Y-77742073D01*
X133433333Y-77742073D02*
X133366666Y-77808740D01*
X133366666Y-77808740D02*
X133266666Y-77842073D01*
X133266666Y-77842073D02*
X133200000Y-77842073D01*
X133733333Y-77142073D02*
X134199999Y-77142073D01*
X134199999Y-77142073D02*
X133899999Y-77842073D01*
X123883333Y-64667073D02*
X123883333Y-65167073D01*
X123883333Y-65167073D02*
X123850000Y-65267073D01*
X123850000Y-65267073D02*
X123783333Y-65333740D01*
X123783333Y-65333740D02*
X123683333Y-65367073D01*
X123683333Y-65367073D02*
X123616667Y-65367073D01*
X124583333Y-65367073D02*
X124183333Y-65367073D01*
X124383333Y-65367073D02*
X124383333Y-64667073D01*
X124383333Y-64667073D02*
X124316666Y-64767073D01*
X124316666Y-64767073D02*
X124250000Y-64833740D01*
X124250000Y-64833740D02*
X124183333Y-64867073D01*
X124850000Y-64733740D02*
X124883333Y-64700406D01*
X124883333Y-64700406D02*
X124950000Y-64667073D01*
X124950000Y-64667073D02*
X125116667Y-64667073D01*
X125116667Y-64667073D02*
X125183333Y-64700406D01*
X125183333Y-64700406D02*
X125216667Y-64733740D01*
X125216667Y-64733740D02*
X125250000Y-64800406D01*
X125250000Y-64800406D02*
X125250000Y-64867073D01*
X125250000Y-64867073D02*
X125216667Y-64967073D01*
X125216667Y-64967073D02*
X124816667Y-65367073D01*
X124816667Y-65367073D02*
X125250000Y-65367073D01*
D13*
X145558333Y-48699809D02*
X145558333Y-49056952D01*
X145558333Y-49056952D02*
X145534524Y-49128380D01*
X145534524Y-49128380D02*
X145486905Y-49176000D01*
X145486905Y-49176000D02*
X145415476Y-49199809D01*
X145415476Y-49199809D02*
X145367857Y-49199809D01*
X145796428Y-49199809D02*
X145796428Y-48699809D01*
X145796428Y-48699809D02*
X145986904Y-48699809D01*
X145986904Y-48699809D02*
X146034523Y-48723619D01*
X146034523Y-48723619D02*
X146058333Y-48747428D01*
X146058333Y-48747428D02*
X146082142Y-48795047D01*
X146082142Y-48795047D02*
X146082142Y-48866476D01*
X146082142Y-48866476D02*
X146058333Y-48914095D01*
X146058333Y-48914095D02*
X146034523Y-48937904D01*
X146034523Y-48937904D02*
X145986904Y-48961714D01*
X145986904Y-48961714D02*
X145796428Y-48961714D01*
X146272619Y-48747428D02*
X146296428Y-48723619D01*
X146296428Y-48723619D02*
X146344047Y-48699809D01*
X146344047Y-48699809D02*
X146463095Y-48699809D01*
X146463095Y-48699809D02*
X146510714Y-48723619D01*
X146510714Y-48723619D02*
X146534523Y-48747428D01*
X146534523Y-48747428D02*
X146558333Y-48795047D01*
X146558333Y-48795047D02*
X146558333Y-48842666D01*
X146558333Y-48842666D02*
X146534523Y-48914095D01*
X146534523Y-48914095D02*
X146248809Y-49199809D01*
X146248809Y-49199809D02*
X146558333Y-49199809D01*
D12*
X138483333Y-57350406D02*
X138450000Y-57383740D01*
X138450000Y-57383740D02*
X138350000Y-57417073D01*
X138350000Y-57417073D02*
X138283333Y-57417073D01*
X138283333Y-57417073D02*
X138183333Y-57383740D01*
X138183333Y-57383740D02*
X138116667Y-57317073D01*
X138116667Y-57317073D02*
X138083333Y-57250406D01*
X138083333Y-57250406D02*
X138050000Y-57117073D01*
X138050000Y-57117073D02*
X138050000Y-57017073D01*
X138050000Y-57017073D02*
X138083333Y-56883740D01*
X138083333Y-56883740D02*
X138116667Y-56817073D01*
X138116667Y-56817073D02*
X138183333Y-56750406D01*
X138183333Y-56750406D02*
X138283333Y-56717073D01*
X138283333Y-56717073D02*
X138350000Y-56717073D01*
X138350000Y-56717073D02*
X138450000Y-56750406D01*
X138450000Y-56750406D02*
X138483333Y-56783740D01*
X139083333Y-56717073D02*
X138950000Y-56717073D01*
X138950000Y-56717073D02*
X138883333Y-56750406D01*
X138883333Y-56750406D02*
X138850000Y-56783740D01*
X138850000Y-56783740D02*
X138783333Y-56883740D01*
X138783333Y-56883740D02*
X138750000Y-57017073D01*
X138750000Y-57017073D02*
X138750000Y-57283740D01*
X138750000Y-57283740D02*
X138783333Y-57350406D01*
X138783333Y-57350406D02*
X138816667Y-57383740D01*
X138816667Y-57383740D02*
X138883333Y-57417073D01*
X138883333Y-57417073D02*
X139016667Y-57417073D01*
X139016667Y-57417073D02*
X139083333Y-57383740D01*
X139083333Y-57383740D02*
X139116667Y-57350406D01*
X139116667Y-57350406D02*
X139150000Y-57283740D01*
X139150000Y-57283740D02*
X139150000Y-57117073D01*
X139150000Y-57117073D02*
X139116667Y-57050406D01*
X139116667Y-57050406D02*
X139083333Y-57017073D01*
X139083333Y-57017073D02*
X139016667Y-56983740D01*
X139016667Y-56983740D02*
X138883333Y-56983740D01*
X138883333Y-56983740D02*
X138816667Y-57017073D01*
X138816667Y-57017073D02*
X138783333Y-57050406D01*
X138783333Y-57050406D02*
X138750000Y-57117073D01*
X145667073Y-59808333D02*
X146167073Y-59808333D01*
X146167073Y-59808333D02*
X146267073Y-59841666D01*
X146267073Y-59841666D02*
X146333740Y-59908333D01*
X146333740Y-59908333D02*
X146367073Y-60008333D01*
X146367073Y-60008333D02*
X146367073Y-60075000D01*
X146367073Y-59475000D02*
X145667073Y-59475000D01*
X145667073Y-59475000D02*
X145667073Y-59208333D01*
X145667073Y-59208333D02*
X145700406Y-59141667D01*
X145700406Y-59141667D02*
X145733740Y-59108333D01*
X145733740Y-59108333D02*
X145800406Y-59075000D01*
X145800406Y-59075000D02*
X145900406Y-59075000D01*
X145900406Y-59075000D02*
X145967073Y-59108333D01*
X145967073Y-59108333D02*
X146000406Y-59141667D01*
X146000406Y-59141667D02*
X146033740Y-59208333D01*
X146033740Y-59208333D02*
X146033740Y-59475000D01*
X146367073Y-58408333D02*
X146367073Y-58808333D01*
X146367073Y-58608333D02*
X145667073Y-58608333D01*
X145667073Y-58608333D02*
X145767073Y-58675000D01*
X145767073Y-58675000D02*
X145833740Y-58741667D01*
X145833740Y-58741667D02*
X145867073Y-58808333D01*
X140991666Y-51792073D02*
X140991666Y-52358740D01*
X140991666Y-52358740D02*
X141025000Y-52425406D01*
X141025000Y-52425406D02*
X141058333Y-52458740D01*
X141058333Y-52458740D02*
X141125000Y-52492073D01*
X141125000Y-52492073D02*
X141258333Y-52492073D01*
X141258333Y-52492073D02*
X141325000Y-52458740D01*
X141325000Y-52458740D02*
X141358333Y-52425406D01*
X141358333Y-52425406D02*
X141391666Y-52358740D01*
X141391666Y-52358740D02*
X141391666Y-51792073D01*
X142091666Y-52492073D02*
X141691666Y-52492073D01*
X141891666Y-52492073D02*
X141891666Y-51792073D01*
X141891666Y-51792073D02*
X141824999Y-51892073D01*
X141824999Y-51892073D02*
X141758333Y-51958740D01*
X141758333Y-51958740D02*
X141691666Y-51992073D01*
X123792073Y-50266666D02*
X123092073Y-50266666D01*
X123092073Y-50266666D02*
X123092073Y-50099999D01*
X123092073Y-50099999D02*
X123125406Y-49999999D01*
X123125406Y-49999999D02*
X123192073Y-49933333D01*
X123192073Y-49933333D02*
X123258740Y-49899999D01*
X123258740Y-49899999D02*
X123392073Y-49866666D01*
X123392073Y-49866666D02*
X123492073Y-49866666D01*
X123492073Y-49866666D02*
X123625406Y-49899999D01*
X123625406Y-49899999D02*
X123692073Y-49933333D01*
X123692073Y-49933333D02*
X123758740Y-49999999D01*
X123758740Y-49999999D02*
X123792073Y-50099999D01*
X123792073Y-50099999D02*
X123792073Y-50266666D01*
X123792073Y-49199999D02*
X123792073Y-49599999D01*
X123792073Y-49399999D02*
X123092073Y-49399999D01*
X123092073Y-49399999D02*
X123192073Y-49466666D01*
X123192073Y-49466666D02*
X123258740Y-49533333D01*
X123258740Y-49533333D02*
X123292073Y-49599999D01*
X139916666Y-77217073D02*
X139916666Y-77717073D01*
X139916666Y-77717073D02*
X139883333Y-77817073D01*
X139883333Y-77817073D02*
X139816666Y-77883740D01*
X139816666Y-77883740D02*
X139716666Y-77917073D01*
X139716666Y-77917073D02*
X139650000Y-77917073D01*
X140583333Y-77217073D02*
X140249999Y-77217073D01*
X140249999Y-77217073D02*
X140216666Y-77550406D01*
X140216666Y-77550406D02*
X140249999Y-77517073D01*
X140249999Y-77517073D02*
X140316666Y-77483740D01*
X140316666Y-77483740D02*
X140483333Y-77483740D01*
X140483333Y-77483740D02*
X140549999Y-77517073D01*
X140549999Y-77517073D02*
X140583333Y-77550406D01*
X140583333Y-77550406D02*
X140616666Y-77617073D01*
X140616666Y-77617073D02*
X140616666Y-77783740D01*
X140616666Y-77783740D02*
X140583333Y-77850406D01*
X140583333Y-77850406D02*
X140549999Y-77883740D01*
X140549999Y-77883740D02*
X140483333Y-77917073D01*
X140483333Y-77917073D02*
X140316666Y-77917073D01*
X140316666Y-77917073D02*
X140249999Y-77883740D01*
X140249999Y-77883740D02*
X140216666Y-77850406D01*
X127341667Y-64983740D02*
X127341667Y-65317073D01*
X127108333Y-64617073D02*
X127341667Y-64983740D01*
X127341667Y-64983740D02*
X127575000Y-64617073D01*
X128175000Y-65317073D02*
X127775000Y-65317073D01*
X127975000Y-65317073D02*
X127975000Y-64617073D01*
X127975000Y-64617073D02*
X127908333Y-64717073D01*
X127908333Y-64717073D02*
X127841667Y-64783740D01*
X127841667Y-64783740D02*
X127775000Y-64817073D01*
X131517073Y-73158333D02*
X132083740Y-73158333D01*
X132083740Y-73158333D02*
X132150406Y-73125000D01*
X132150406Y-73125000D02*
X132183740Y-73091666D01*
X132183740Y-73091666D02*
X132217073Y-73025000D01*
X132217073Y-73025000D02*
X132217073Y-72891666D01*
X132217073Y-72891666D02*
X132183740Y-72825000D01*
X132183740Y-72825000D02*
X132150406Y-72791666D01*
X132150406Y-72791666D02*
X132083740Y-72758333D01*
X132083740Y-72758333D02*
X131517073Y-72758333D01*
X131583740Y-72458333D02*
X131550406Y-72425000D01*
X131550406Y-72425000D02*
X131517073Y-72358333D01*
X131517073Y-72358333D02*
X131517073Y-72191667D01*
X131517073Y-72191667D02*
X131550406Y-72125000D01*
X131550406Y-72125000D02*
X131583740Y-72091667D01*
X131583740Y-72091667D02*
X131650406Y-72058333D01*
X131650406Y-72058333D02*
X131717073Y-72058333D01*
X131717073Y-72058333D02*
X131817073Y-72091667D01*
X131817073Y-72091667D02*
X132217073Y-72491667D01*
X132217073Y-72491667D02*
X132217073Y-72058333D01*
X131341666Y-65342073D02*
X131341666Y-65842073D01*
X131341666Y-65842073D02*
X131308333Y-65942073D01*
X131308333Y-65942073D02*
X131241666Y-66008740D01*
X131241666Y-66008740D02*
X131141666Y-66042073D01*
X131141666Y-66042073D02*
X131075000Y-66042073D01*
X131674999Y-66042073D02*
X131674999Y-65342073D01*
X131674999Y-65342073D02*
X131941666Y-65342073D01*
X131941666Y-65342073D02*
X132008333Y-65375406D01*
X132008333Y-65375406D02*
X132041666Y-65408740D01*
X132041666Y-65408740D02*
X132074999Y-65475406D01*
X132074999Y-65475406D02*
X132074999Y-65575406D01*
X132074999Y-65575406D02*
X132041666Y-65642073D01*
X132041666Y-65642073D02*
X132008333Y-65675406D01*
X132008333Y-65675406D02*
X131941666Y-65708740D01*
X131941666Y-65708740D02*
X131674999Y-65708740D01*
X132408333Y-66042073D02*
X132541666Y-66042073D01*
X132541666Y-66042073D02*
X132608333Y-66008740D01*
X132608333Y-66008740D02*
X132641666Y-65975406D01*
X132641666Y-65975406D02*
X132708333Y-65875406D01*
X132708333Y-65875406D02*
X132741666Y-65742073D01*
X132741666Y-65742073D02*
X132741666Y-65475406D01*
X132741666Y-65475406D02*
X132708333Y-65408740D01*
X132708333Y-65408740D02*
X132674999Y-65375406D01*
X132674999Y-65375406D02*
X132608333Y-65342073D01*
X132608333Y-65342073D02*
X132474999Y-65342073D01*
X132474999Y-65342073D02*
X132408333Y-65375406D01*
X132408333Y-65375406D02*
X132374999Y-65408740D01*
X132374999Y-65408740D02*
X132341666Y-65475406D01*
X132341666Y-65475406D02*
X132341666Y-65642073D01*
X132341666Y-65642073D02*
X132374999Y-65708740D01*
X132374999Y-65708740D02*
X132408333Y-65742073D01*
X132408333Y-65742073D02*
X132474999Y-65775406D01*
X132474999Y-65775406D02*
X132608333Y-65775406D01*
X132608333Y-65775406D02*
X132674999Y-65742073D01*
X132674999Y-65742073D02*
X132708333Y-65708740D01*
X132708333Y-65708740D02*
X132741666Y-65642073D01*
X129200406Y-73166666D02*
X129233740Y-73199999D01*
X129233740Y-73199999D02*
X129267073Y-73299999D01*
X129267073Y-73299999D02*
X129267073Y-73366666D01*
X129267073Y-73366666D02*
X129233740Y-73466666D01*
X129233740Y-73466666D02*
X129167073Y-73533333D01*
X129167073Y-73533333D02*
X129100406Y-73566666D01*
X129100406Y-73566666D02*
X128967073Y-73599999D01*
X128967073Y-73599999D02*
X128867073Y-73599999D01*
X128867073Y-73599999D02*
X128733740Y-73566666D01*
X128733740Y-73566666D02*
X128667073Y-73533333D01*
X128667073Y-73533333D02*
X128600406Y-73466666D01*
X128600406Y-73466666D02*
X128567073Y-73366666D01*
X128567073Y-73366666D02*
X128567073Y-73299999D01*
X128567073Y-73299999D02*
X128600406Y-73199999D01*
X128600406Y-73199999D02*
X128633740Y-73166666D01*
X128567073Y-72533333D02*
X128567073Y-72866666D01*
X128567073Y-72866666D02*
X128900406Y-72899999D01*
X128900406Y-72899999D02*
X128867073Y-72866666D01*
X128867073Y-72866666D02*
X128833740Y-72799999D01*
X128833740Y-72799999D02*
X128833740Y-72633333D01*
X128833740Y-72633333D02*
X128867073Y-72566666D01*
X128867073Y-72566666D02*
X128900406Y-72533333D01*
X128900406Y-72533333D02*
X128967073Y-72499999D01*
X128967073Y-72499999D02*
X129133740Y-72499999D01*
X129133740Y-72499999D02*
X129200406Y-72533333D01*
X129200406Y-72533333D02*
X129233740Y-72566666D01*
X129233740Y-72566666D02*
X129267073Y-72633333D01*
X129267073Y-72633333D02*
X129267073Y-72799999D01*
X129267073Y-72799999D02*
X129233740Y-72866666D01*
X129233740Y-72866666D02*
X129200406Y-72899999D01*
X137933333Y-73808740D02*
X137866666Y-73775406D01*
X137866666Y-73775406D02*
X137800000Y-73708740D01*
X137800000Y-73708740D02*
X137700000Y-73608740D01*
X137700000Y-73608740D02*
X137633333Y-73575406D01*
X137633333Y-73575406D02*
X137566666Y-73575406D01*
X137600000Y-73742073D02*
X137533333Y-73708740D01*
X137533333Y-73708740D02*
X137466666Y-73642073D01*
X137466666Y-73642073D02*
X137433333Y-73508740D01*
X137433333Y-73508740D02*
X137433333Y-73275406D01*
X137433333Y-73275406D02*
X137466666Y-73142073D01*
X137466666Y-73142073D02*
X137533333Y-73075406D01*
X137533333Y-73075406D02*
X137600000Y-73042073D01*
X137600000Y-73042073D02*
X137733333Y-73042073D01*
X137733333Y-73042073D02*
X137800000Y-73075406D01*
X137800000Y-73075406D02*
X137866666Y-73142073D01*
X137866666Y-73142073D02*
X137900000Y-73275406D01*
X137900000Y-73275406D02*
X137900000Y-73508740D01*
X137900000Y-73508740D02*
X137866666Y-73642073D01*
X137866666Y-73642073D02*
X137800000Y-73708740D01*
X137800000Y-73708740D02*
X137733333Y-73742073D01*
X137733333Y-73742073D02*
X137600000Y-73742073D01*
X138566666Y-73742073D02*
X138166666Y-73742073D01*
X138366666Y-73742073D02*
X138366666Y-73042073D01*
X138366666Y-73042073D02*
X138299999Y-73142073D01*
X138299999Y-73142073D02*
X138233333Y-73208740D01*
X138233333Y-73208740D02*
X138166666Y-73242073D01*
X144042073Y-53783333D02*
X144542073Y-53783333D01*
X144542073Y-53783333D02*
X144642073Y-53816666D01*
X144642073Y-53816666D02*
X144708740Y-53883333D01*
X144708740Y-53883333D02*
X144742073Y-53983333D01*
X144742073Y-53983333D02*
X144742073Y-54050000D01*
X144742073Y-53450000D02*
X144042073Y-53450000D01*
X144042073Y-53450000D02*
X144042073Y-53183333D01*
X144042073Y-53183333D02*
X144075406Y-53116667D01*
X144075406Y-53116667D02*
X144108740Y-53083333D01*
X144108740Y-53083333D02*
X144175406Y-53050000D01*
X144175406Y-53050000D02*
X144275406Y-53050000D01*
X144275406Y-53050000D02*
X144342073Y-53083333D01*
X144342073Y-53083333D02*
X144375406Y-53116667D01*
X144375406Y-53116667D02*
X144408740Y-53183333D01*
X144408740Y-53183333D02*
X144408740Y-53450000D01*
X144042073Y-52816667D02*
X144042073Y-52350000D01*
X144042073Y-52350000D02*
X144742073Y-52650000D01*
X128941666Y-51600406D02*
X129175000Y-51600406D01*
X129275000Y-51967073D02*
X128941666Y-51967073D01*
X128941666Y-51967073D02*
X128941666Y-51267073D01*
X128941666Y-51267073D02*
X129275000Y-51267073D01*
X129941666Y-51967073D02*
X129541666Y-51967073D01*
X129741666Y-51967073D02*
X129741666Y-51267073D01*
X129741666Y-51267073D02*
X129674999Y-51367073D01*
X129674999Y-51367073D02*
X129608333Y-51433740D01*
X129608333Y-51433740D02*
X129541666Y-51467073D01*
D14*
X126274285Y-56201331D02*
X126274285Y-55601331D01*
X126274285Y-55601331D02*
X126474285Y-56029902D01*
X126474285Y-56029902D02*
X126674285Y-55601331D01*
X126674285Y-55601331D02*
X126674285Y-56201331D01*
X126959999Y-56201331D02*
X126959999Y-55601331D01*
X126959999Y-55601331D02*
X127102856Y-55601331D01*
X127102856Y-55601331D02*
X127188570Y-55629902D01*
X127188570Y-55629902D02*
X127245713Y-55687045D01*
X127245713Y-55687045D02*
X127274284Y-55744188D01*
X127274284Y-55744188D02*
X127302856Y-55858474D01*
X127302856Y-55858474D02*
X127302856Y-55944188D01*
X127302856Y-55944188D02*
X127274284Y-56058474D01*
X127274284Y-56058474D02*
X127245713Y-56115617D01*
X127245713Y-56115617D02*
X127188570Y-56172760D01*
X127188570Y-56172760D02*
X127102856Y-56201331D01*
X127102856Y-56201331D02*
X126959999Y-56201331D01*
X127759999Y-55887045D02*
X127845713Y-55915617D01*
X127845713Y-55915617D02*
X127874284Y-55944188D01*
X127874284Y-55944188D02*
X127902856Y-56001331D01*
X127902856Y-56001331D02*
X127902856Y-56087045D01*
X127902856Y-56087045D02*
X127874284Y-56144188D01*
X127874284Y-56144188D02*
X127845713Y-56172760D01*
X127845713Y-56172760D02*
X127788570Y-56201331D01*
X127788570Y-56201331D02*
X127559999Y-56201331D01*
X127559999Y-56201331D02*
X127559999Y-55601331D01*
X127559999Y-55601331D02*
X127759999Y-55601331D01*
X127759999Y-55601331D02*
X127817142Y-55629902D01*
X127817142Y-55629902D02*
X127845713Y-55658474D01*
X127845713Y-55658474D02*
X127874284Y-55715617D01*
X127874284Y-55715617D02*
X127874284Y-55772760D01*
X127874284Y-55772760D02*
X127845713Y-55829902D01*
X127845713Y-55829902D02*
X127817142Y-55858474D01*
X127817142Y-55858474D02*
X127759999Y-55887045D01*
X127759999Y-55887045D02*
X127559999Y-55887045D01*
X128074284Y-55601331D02*
X128417142Y-55601331D01*
X128245713Y-56201331D02*
X128245713Y-55601331D01*
X128874285Y-55801331D02*
X128874285Y-56201331D01*
X128731427Y-55572760D02*
X128588570Y-56001331D01*
X128588570Y-56001331D02*
X128959999Y-56001331D01*
X129159999Y-55658474D02*
X129188571Y-55629902D01*
X129188571Y-55629902D02*
X129245714Y-55601331D01*
X129245714Y-55601331D02*
X129388571Y-55601331D01*
X129388571Y-55601331D02*
X129445714Y-55629902D01*
X129445714Y-55629902D02*
X129474285Y-55658474D01*
X129474285Y-55658474D02*
X129502856Y-55715617D01*
X129502856Y-55715617D02*
X129502856Y-55772760D01*
X129502856Y-55772760D02*
X129474285Y-55858474D01*
X129474285Y-55858474D02*
X129131428Y-56201331D01*
X129131428Y-56201331D02*
X129502856Y-56201331D01*
X130160000Y-56258474D02*
X130102857Y-56229902D01*
X130102857Y-56229902D02*
X130045714Y-56172760D01*
X130045714Y-56172760D02*
X129960000Y-56087045D01*
X129960000Y-56087045D02*
X129902857Y-56058474D01*
X129902857Y-56058474D02*
X129845714Y-56058474D01*
X129874285Y-56201331D02*
X129817143Y-56172760D01*
X129817143Y-56172760D02*
X129760000Y-56115617D01*
X129760000Y-56115617D02*
X129731428Y-56001331D01*
X129731428Y-56001331D02*
X129731428Y-55801331D01*
X129731428Y-55801331D02*
X129760000Y-55687045D01*
X129760000Y-55687045D02*
X129817143Y-55629902D01*
X129817143Y-55629902D02*
X129874285Y-55601331D01*
X129874285Y-55601331D02*
X129988571Y-55601331D01*
X129988571Y-55601331D02*
X130045714Y-55629902D01*
X130045714Y-55629902D02*
X130102857Y-55687045D01*
X130102857Y-55687045D02*
X130131428Y-55801331D01*
X130131428Y-55801331D02*
X130131428Y-56001331D01*
X130131428Y-56001331D02*
X130102857Y-56115617D01*
X130102857Y-56115617D02*
X130045714Y-56172760D01*
X130045714Y-56172760D02*
X129988571Y-56201331D01*
X129988571Y-56201331D02*
X129874285Y-56201331D01*
X130388571Y-55972760D02*
X130845714Y-55972760D01*
X131417142Y-55601331D02*
X131131428Y-55601331D01*
X131131428Y-55601331D02*
X131102856Y-55887045D01*
X131102856Y-55887045D02*
X131131428Y-55858474D01*
X131131428Y-55858474D02*
X131188571Y-55829902D01*
X131188571Y-55829902D02*
X131331428Y-55829902D01*
X131331428Y-55829902D02*
X131388571Y-55858474D01*
X131388571Y-55858474D02*
X131417142Y-55887045D01*
X131417142Y-55887045D02*
X131445713Y-55944188D01*
X131445713Y-55944188D02*
X131445713Y-56087045D01*
X131445713Y-56087045D02*
X131417142Y-56144188D01*
X131417142Y-56144188D02*
X131388571Y-56172760D01*
X131388571Y-56172760D02*
X131331428Y-56201331D01*
X131331428Y-56201331D02*
X131188571Y-56201331D01*
X131188571Y-56201331D02*
X131131428Y-56172760D01*
X131131428Y-56172760D02*
X131102856Y-56144188D01*
X132017142Y-56201331D02*
X131674285Y-56201331D01*
X131845714Y-56201331D02*
X131845714Y-55601331D01*
X131845714Y-55601331D02*
X131788571Y-55687045D01*
X131788571Y-55687045D02*
X131731428Y-55744188D01*
X131731428Y-55744188D02*
X131674285Y-55772760D01*
X132245714Y-55658474D02*
X132274286Y-55629902D01*
X132274286Y-55629902D02*
X132331429Y-55601331D01*
X132331429Y-55601331D02*
X132474286Y-55601331D01*
X132474286Y-55601331D02*
X132531429Y-55629902D01*
X132531429Y-55629902D02*
X132560000Y-55658474D01*
X132560000Y-55658474D02*
X132588571Y-55715617D01*
X132588571Y-55715617D02*
X132588571Y-55772760D01*
X132588571Y-55772760D02*
X132560000Y-55858474D01*
X132560000Y-55858474D02*
X132217143Y-56201331D01*
X132217143Y-56201331D02*
X132588571Y-56201331D01*
X132845715Y-56201331D02*
X132845715Y-55601331D01*
X133188572Y-56201331D02*
X132931429Y-55858474D01*
X133188572Y-55601331D02*
X132845715Y-55944188D01*
X133360000Y-55601331D02*
X133560000Y-56201331D01*
X133560000Y-56201331D02*
X133760000Y-55601331D01*
X133931429Y-55658474D02*
X133960001Y-55629902D01*
X133960001Y-55629902D02*
X134017144Y-55601331D01*
X134017144Y-55601331D02*
X134160001Y-55601331D01*
X134160001Y-55601331D02*
X134217144Y-55629902D01*
X134217144Y-55629902D02*
X134245715Y-55658474D01*
X134245715Y-55658474D02*
X134274286Y-55715617D01*
X134274286Y-55715617D02*
X134274286Y-55772760D01*
X134274286Y-55772760D02*
X134245715Y-55858474D01*
X134245715Y-55858474D02*
X133902858Y-56201331D01*
X133902858Y-56201331D02*
X134274286Y-56201331D01*
D12*
X139616666Y-48792073D02*
X139616666Y-49292073D01*
X139616666Y-49292073D02*
X139583333Y-49392073D01*
X139583333Y-49392073D02*
X139516666Y-49458740D01*
X139516666Y-49458740D02*
X139416666Y-49492073D01*
X139416666Y-49492073D02*
X139350000Y-49492073D01*
X139949999Y-49492073D02*
X139949999Y-48792073D01*
X139949999Y-48792073D02*
X140216666Y-48792073D01*
X140216666Y-48792073D02*
X140283333Y-48825406D01*
X140283333Y-48825406D02*
X140316666Y-48858740D01*
X140316666Y-48858740D02*
X140349999Y-48925406D01*
X140349999Y-48925406D02*
X140349999Y-49025406D01*
X140349999Y-49025406D02*
X140316666Y-49092073D01*
X140316666Y-49092073D02*
X140283333Y-49125406D01*
X140283333Y-49125406D02*
X140216666Y-49158740D01*
X140216666Y-49158740D02*
X139949999Y-49158740D01*
X140949999Y-49025406D02*
X140949999Y-49492073D01*
X140783333Y-48758740D02*
X140616666Y-49258740D01*
X140616666Y-49258740D02*
X141049999Y-49258740D01*
X142341666Y-48792073D02*
X142341666Y-49292073D01*
X142341666Y-49292073D02*
X142308333Y-49392073D01*
X142308333Y-49392073D02*
X142241666Y-49458740D01*
X142241666Y-49458740D02*
X142141666Y-49492073D01*
X142141666Y-49492073D02*
X142075000Y-49492073D01*
X142674999Y-49492073D02*
X142674999Y-48792073D01*
X142674999Y-48792073D02*
X142941666Y-48792073D01*
X142941666Y-48792073D02*
X143008333Y-48825406D01*
X143008333Y-48825406D02*
X143041666Y-48858740D01*
X143041666Y-48858740D02*
X143074999Y-48925406D01*
X143074999Y-48925406D02*
X143074999Y-49025406D01*
X143074999Y-49025406D02*
X143041666Y-49092073D01*
X143041666Y-49092073D02*
X143008333Y-49125406D01*
X143008333Y-49125406D02*
X142941666Y-49158740D01*
X142941666Y-49158740D02*
X142674999Y-49158740D01*
X143674999Y-48792073D02*
X143541666Y-48792073D01*
X143541666Y-48792073D02*
X143474999Y-48825406D01*
X143474999Y-48825406D02*
X143441666Y-48858740D01*
X143441666Y-48858740D02*
X143374999Y-48958740D01*
X143374999Y-48958740D02*
X143341666Y-49092073D01*
X143341666Y-49092073D02*
X143341666Y-49358740D01*
X143341666Y-49358740D02*
X143374999Y-49425406D01*
X143374999Y-49425406D02*
X143408333Y-49458740D01*
X143408333Y-49458740D02*
X143474999Y-49492073D01*
X143474999Y-49492073D02*
X143608333Y-49492073D01*
X143608333Y-49492073D02*
X143674999Y-49458740D01*
X143674999Y-49458740D02*
X143708333Y-49425406D01*
X143708333Y-49425406D02*
X143741666Y-49358740D01*
X143741666Y-49358740D02*
X143741666Y-49192073D01*
X143741666Y-49192073D02*
X143708333Y-49125406D01*
X143708333Y-49125406D02*
X143674999Y-49092073D01*
X143674999Y-49092073D02*
X143608333Y-49058740D01*
X143608333Y-49058740D02*
X143474999Y-49058740D01*
X143474999Y-49058740D02*
X143408333Y-49092073D01*
X143408333Y-49092073D02*
X143374999Y-49125406D01*
X143374999Y-49125406D02*
X143341666Y-49192073D01*
X138483333Y-55475406D02*
X138450000Y-55508740D01*
X138450000Y-55508740D02*
X138350000Y-55542073D01*
X138350000Y-55542073D02*
X138283333Y-55542073D01*
X138283333Y-55542073D02*
X138183333Y-55508740D01*
X138183333Y-55508740D02*
X138116667Y-55442073D01*
X138116667Y-55442073D02*
X138083333Y-55375406D01*
X138083333Y-55375406D02*
X138050000Y-55242073D01*
X138050000Y-55242073D02*
X138050000Y-55142073D01*
X138050000Y-55142073D02*
X138083333Y-55008740D01*
X138083333Y-55008740D02*
X138116667Y-54942073D01*
X138116667Y-54942073D02*
X138183333Y-54875406D01*
X138183333Y-54875406D02*
X138283333Y-54842073D01*
X138283333Y-54842073D02*
X138350000Y-54842073D01*
X138350000Y-54842073D02*
X138450000Y-54875406D01*
X138450000Y-54875406D02*
X138483333Y-54908740D01*
X138883333Y-55142073D02*
X138816667Y-55108740D01*
X138816667Y-55108740D02*
X138783333Y-55075406D01*
X138783333Y-55075406D02*
X138750000Y-55008740D01*
X138750000Y-55008740D02*
X138750000Y-54975406D01*
X138750000Y-54975406D02*
X138783333Y-54908740D01*
X138783333Y-54908740D02*
X138816667Y-54875406D01*
X138816667Y-54875406D02*
X138883333Y-54842073D01*
X138883333Y-54842073D02*
X139016667Y-54842073D01*
X139016667Y-54842073D02*
X139083333Y-54875406D01*
X139083333Y-54875406D02*
X139116667Y-54908740D01*
X139116667Y-54908740D02*
X139150000Y-54975406D01*
X139150000Y-54975406D02*
X139150000Y-55008740D01*
X139150000Y-55008740D02*
X139116667Y-55075406D01*
X139116667Y-55075406D02*
X139083333Y-55108740D01*
X139083333Y-55108740D02*
X139016667Y-55142073D01*
X139016667Y-55142073D02*
X138883333Y-55142073D01*
X138883333Y-55142073D02*
X138816667Y-55175406D01*
X138816667Y-55175406D02*
X138783333Y-55208740D01*
X138783333Y-55208740D02*
X138750000Y-55275406D01*
X138750000Y-55275406D02*
X138750000Y-55408740D01*
X138750000Y-55408740D02*
X138783333Y-55475406D01*
X138783333Y-55475406D02*
X138816667Y-55508740D01*
X138816667Y-55508740D02*
X138883333Y-55542073D01*
X138883333Y-55542073D02*
X139016667Y-55542073D01*
X139016667Y-55542073D02*
X139083333Y-55508740D01*
X139083333Y-55508740D02*
X139116667Y-55475406D01*
X139116667Y-55475406D02*
X139150000Y-55408740D01*
X139150000Y-55408740D02*
X139150000Y-55275406D01*
X139150000Y-55275406D02*
X139116667Y-55208740D01*
X139116667Y-55208740D02*
X139083333Y-55175406D01*
X139083333Y-55175406D02*
X139016667Y-55142073D01*
X126967073Y-61591666D02*
X127467073Y-61591666D01*
X127467073Y-61591666D02*
X127567073Y-61624999D01*
X127567073Y-61624999D02*
X127633740Y-61691666D01*
X127633740Y-61691666D02*
X127667073Y-61791666D01*
X127667073Y-61791666D02*
X127667073Y-61858333D01*
X127667073Y-61258333D02*
X126967073Y-61258333D01*
X126967073Y-61258333D02*
X126967073Y-60991666D01*
X126967073Y-60991666D02*
X127000406Y-60925000D01*
X127000406Y-60925000D02*
X127033740Y-60891666D01*
X127033740Y-60891666D02*
X127100406Y-60858333D01*
X127100406Y-60858333D02*
X127200406Y-60858333D01*
X127200406Y-60858333D02*
X127267073Y-60891666D01*
X127267073Y-60891666D02*
X127300406Y-60925000D01*
X127300406Y-60925000D02*
X127333740Y-60991666D01*
X127333740Y-60991666D02*
X127333740Y-61258333D01*
X127667073Y-60191666D02*
X127667073Y-60591666D01*
X127667073Y-60391666D02*
X126967073Y-60391666D01*
X126967073Y-60391666D02*
X127067073Y-60458333D01*
X127067073Y-60458333D02*
X127133740Y-60525000D01*
X127133740Y-60525000D02*
X127167073Y-60591666D01*
X126967073Y-59758333D02*
X126967073Y-59691666D01*
X126967073Y-59691666D02*
X127000406Y-59624999D01*
X127000406Y-59624999D02*
X127033740Y-59591666D01*
X127033740Y-59591666D02*
X127100406Y-59558333D01*
X127100406Y-59558333D02*
X127233740Y-59524999D01*
X127233740Y-59524999D02*
X127400406Y-59524999D01*
X127400406Y-59524999D02*
X127533740Y-59558333D01*
X127533740Y-59558333D02*
X127600406Y-59591666D01*
X127600406Y-59591666D02*
X127633740Y-59624999D01*
X127633740Y-59624999D02*
X127667073Y-59691666D01*
X127667073Y-59691666D02*
X127667073Y-59758333D01*
X127667073Y-59758333D02*
X127633740Y-59824999D01*
X127633740Y-59824999D02*
X127600406Y-59858333D01*
X127600406Y-59858333D02*
X127533740Y-59891666D01*
X127533740Y-59891666D02*
X127400406Y-59924999D01*
X127400406Y-59924999D02*
X127233740Y-59924999D01*
X127233740Y-59924999D02*
X127100406Y-59891666D01*
X127100406Y-59891666D02*
X127033740Y-59858333D01*
X127033740Y-59858333D02*
X127000406Y-59824999D01*
X127000406Y-59824999D02*
X126967073Y-59758333D01*
X137908333Y-66858740D02*
X137841666Y-66825406D01*
X137841666Y-66825406D02*
X137775000Y-66758740D01*
X137775000Y-66758740D02*
X137675000Y-66658740D01*
X137675000Y-66658740D02*
X137608333Y-66625406D01*
X137608333Y-66625406D02*
X137541666Y-66625406D01*
X137575000Y-66792073D02*
X137508333Y-66758740D01*
X137508333Y-66758740D02*
X137441666Y-66692073D01*
X137441666Y-66692073D02*
X137408333Y-66558740D01*
X137408333Y-66558740D02*
X137408333Y-66325406D01*
X137408333Y-66325406D02*
X137441666Y-66192073D01*
X137441666Y-66192073D02*
X137508333Y-66125406D01*
X137508333Y-66125406D02*
X137575000Y-66092073D01*
X137575000Y-66092073D02*
X137708333Y-66092073D01*
X137708333Y-66092073D02*
X137775000Y-66125406D01*
X137775000Y-66125406D02*
X137841666Y-66192073D01*
X137841666Y-66192073D02*
X137875000Y-66325406D01*
X137875000Y-66325406D02*
X137875000Y-66558740D01*
X137875000Y-66558740D02*
X137841666Y-66692073D01*
X137841666Y-66692073D02*
X137775000Y-66758740D01*
X137775000Y-66758740D02*
X137708333Y-66792073D01*
X137708333Y-66792073D02*
X137575000Y-66792073D01*
X138108333Y-66092073D02*
X138541666Y-66092073D01*
X138541666Y-66092073D02*
X138308333Y-66358740D01*
X138308333Y-66358740D02*
X138408333Y-66358740D01*
X138408333Y-66358740D02*
X138474999Y-66392073D01*
X138474999Y-66392073D02*
X138508333Y-66425406D01*
X138508333Y-66425406D02*
X138541666Y-66492073D01*
X138541666Y-66492073D02*
X138541666Y-66658740D01*
X138541666Y-66658740D02*
X138508333Y-66725406D01*
X138508333Y-66725406D02*
X138474999Y-66758740D01*
X138474999Y-66758740D02*
X138408333Y-66792073D01*
X138408333Y-66792073D02*
X138208333Y-66792073D01*
X138208333Y-66792073D02*
X138141666Y-66758740D01*
X138141666Y-66758740D02*
X138108333Y-66725406D01*
X145542073Y-56658333D02*
X146042073Y-56658333D01*
X146042073Y-56658333D02*
X146142073Y-56691666D01*
X146142073Y-56691666D02*
X146208740Y-56758333D01*
X146208740Y-56758333D02*
X146242073Y-56858333D01*
X146242073Y-56858333D02*
X146242073Y-56925000D01*
X146242073Y-56325000D02*
X145542073Y-56325000D01*
X145542073Y-56325000D02*
X145542073Y-56058333D01*
X145542073Y-56058333D02*
X145575406Y-55991667D01*
X145575406Y-55991667D02*
X145608740Y-55958333D01*
X145608740Y-55958333D02*
X145675406Y-55925000D01*
X145675406Y-55925000D02*
X145775406Y-55925000D01*
X145775406Y-55925000D02*
X145842073Y-55958333D01*
X145842073Y-55958333D02*
X145875406Y-55991667D01*
X145875406Y-55991667D02*
X145908740Y-56058333D01*
X145908740Y-56058333D02*
X145908740Y-56325000D01*
X145542073Y-55291667D02*
X145542073Y-55625000D01*
X145542073Y-55625000D02*
X145875406Y-55658333D01*
X145875406Y-55658333D02*
X145842073Y-55625000D01*
X145842073Y-55625000D02*
X145808740Y-55558333D01*
X145808740Y-55558333D02*
X145808740Y-55391667D01*
X145808740Y-55391667D02*
X145842073Y-55325000D01*
X145842073Y-55325000D02*
X145875406Y-55291667D01*
X145875406Y-55291667D02*
X145942073Y-55258333D01*
X145942073Y-55258333D02*
X146108740Y-55258333D01*
X146108740Y-55258333D02*
X146175406Y-55291667D01*
X146175406Y-55291667D02*
X146208740Y-55325000D01*
X146208740Y-55325000D02*
X146242073Y-55391667D01*
X146242073Y-55391667D02*
X146242073Y-55558333D01*
X146242073Y-55558333D02*
X146208740Y-55625000D01*
X146208740Y-55625000D02*
X146175406Y-55658333D01*
D13*
X138283333Y-48574809D02*
X138283333Y-48931952D01*
X138283333Y-48931952D02*
X138259524Y-49003380D01*
X138259524Y-49003380D02*
X138211905Y-49051000D01*
X138211905Y-49051000D02*
X138140476Y-49074809D01*
X138140476Y-49074809D02*
X138092857Y-49074809D01*
X138521428Y-49074809D02*
X138521428Y-48574809D01*
X138521428Y-48574809D02*
X138711904Y-48574809D01*
X138711904Y-48574809D02*
X138759523Y-48598619D01*
X138759523Y-48598619D02*
X138783333Y-48622428D01*
X138783333Y-48622428D02*
X138807142Y-48670047D01*
X138807142Y-48670047D02*
X138807142Y-48741476D01*
X138807142Y-48741476D02*
X138783333Y-48789095D01*
X138783333Y-48789095D02*
X138759523Y-48812904D01*
X138759523Y-48812904D02*
X138711904Y-48836714D01*
X138711904Y-48836714D02*
X138521428Y-48836714D01*
X138973809Y-48574809D02*
X139283333Y-48574809D01*
X139283333Y-48574809D02*
X139116666Y-48765285D01*
X139116666Y-48765285D02*
X139188095Y-48765285D01*
X139188095Y-48765285D02*
X139235714Y-48789095D01*
X139235714Y-48789095D02*
X139259523Y-48812904D01*
X139259523Y-48812904D02*
X139283333Y-48860523D01*
X139283333Y-48860523D02*
X139283333Y-48979571D01*
X139283333Y-48979571D02*
X139259523Y-49027190D01*
X139259523Y-49027190D02*
X139235714Y-49051000D01*
X139235714Y-49051000D02*
X139188095Y-49074809D01*
X139188095Y-49074809D02*
X139045238Y-49074809D01*
X139045238Y-49074809D02*
X138997619Y-49051000D01*
X138997619Y-49051000D02*
X138973809Y-49027190D01*
D12*
X137783333Y-70333740D02*
X137716666Y-70300406D01*
X137716666Y-70300406D02*
X137650000Y-70233740D01*
X137650000Y-70233740D02*
X137550000Y-70133740D01*
X137550000Y-70133740D02*
X137483333Y-70100406D01*
X137483333Y-70100406D02*
X137416666Y-70100406D01*
X137450000Y-70267073D02*
X137383333Y-70233740D01*
X137383333Y-70233740D02*
X137316666Y-70167073D01*
X137316666Y-70167073D02*
X137283333Y-70033740D01*
X137283333Y-70033740D02*
X137283333Y-69800406D01*
X137283333Y-69800406D02*
X137316666Y-69667073D01*
X137316666Y-69667073D02*
X137383333Y-69600406D01*
X137383333Y-69600406D02*
X137450000Y-69567073D01*
X137450000Y-69567073D02*
X137583333Y-69567073D01*
X137583333Y-69567073D02*
X137650000Y-69600406D01*
X137650000Y-69600406D02*
X137716666Y-69667073D01*
X137716666Y-69667073D02*
X137750000Y-69800406D01*
X137750000Y-69800406D02*
X137750000Y-70033740D01*
X137750000Y-70033740D02*
X137716666Y-70167073D01*
X137716666Y-70167073D02*
X137650000Y-70233740D01*
X137650000Y-70233740D02*
X137583333Y-70267073D01*
X137583333Y-70267073D02*
X137450000Y-70267073D01*
X138016666Y-69633740D02*
X138049999Y-69600406D01*
X138049999Y-69600406D02*
X138116666Y-69567073D01*
X138116666Y-69567073D02*
X138283333Y-69567073D01*
X138283333Y-69567073D02*
X138349999Y-69600406D01*
X138349999Y-69600406D02*
X138383333Y-69633740D01*
X138383333Y-69633740D02*
X138416666Y-69700406D01*
X138416666Y-69700406D02*
X138416666Y-69767073D01*
X138416666Y-69767073D02*
X138383333Y-69867073D01*
X138383333Y-69867073D02*
X137983333Y-70267073D01*
X137983333Y-70267073D02*
X138416666Y-70267073D01*
X141616666Y-77142073D02*
X141616666Y-77642073D01*
X141616666Y-77642073D02*
X141583333Y-77742073D01*
X141583333Y-77742073D02*
X141516666Y-77808740D01*
X141516666Y-77808740D02*
X141416666Y-77842073D01*
X141416666Y-77842073D02*
X141350000Y-77842073D01*
X142249999Y-77142073D02*
X142116666Y-77142073D01*
X142116666Y-77142073D02*
X142049999Y-77175406D01*
X142049999Y-77175406D02*
X142016666Y-77208740D01*
X142016666Y-77208740D02*
X141949999Y-77308740D01*
X141949999Y-77308740D02*
X141916666Y-77442073D01*
X141916666Y-77442073D02*
X141916666Y-77708740D01*
X141916666Y-77708740D02*
X141949999Y-77775406D01*
X141949999Y-77775406D02*
X141983333Y-77808740D01*
X141983333Y-77808740D02*
X142049999Y-77842073D01*
X142049999Y-77842073D02*
X142183333Y-77842073D01*
X142183333Y-77842073D02*
X142249999Y-77808740D01*
X142249999Y-77808740D02*
X142283333Y-77775406D01*
X142283333Y-77775406D02*
X142316666Y-77708740D01*
X142316666Y-77708740D02*
X142316666Y-77542073D01*
X142316666Y-77542073D02*
X142283333Y-77475406D01*
X142283333Y-77475406D02*
X142249999Y-77442073D01*
X142249999Y-77442073D02*
X142183333Y-77408740D01*
X142183333Y-77408740D02*
X142049999Y-77408740D01*
X142049999Y-77408740D02*
X141983333Y-77442073D01*
X141983333Y-77442073D02*
X141949999Y-77475406D01*
X141949999Y-77475406D02*
X141916666Y-77542073D01*
X133733333Y-61467073D02*
X133733333Y-61967073D01*
X133733333Y-61967073D02*
X133700000Y-62067073D01*
X133700000Y-62067073D02*
X133633333Y-62133740D01*
X133633333Y-62133740D02*
X133533333Y-62167073D01*
X133533333Y-62167073D02*
X133466667Y-62167073D01*
X134066666Y-62167073D02*
X134066666Y-61467073D01*
X134066666Y-61467073D02*
X134333333Y-61467073D01*
X134333333Y-61467073D02*
X134400000Y-61500406D01*
X134400000Y-61500406D02*
X134433333Y-61533740D01*
X134433333Y-61533740D02*
X134466666Y-61600406D01*
X134466666Y-61600406D02*
X134466666Y-61700406D01*
X134466666Y-61700406D02*
X134433333Y-61767073D01*
X134433333Y-61767073D02*
X134400000Y-61800406D01*
X134400000Y-61800406D02*
X134333333Y-61833740D01*
X134333333Y-61833740D02*
X134066666Y-61833740D01*
X135133333Y-62167073D02*
X134733333Y-62167073D01*
X134933333Y-62167073D02*
X134933333Y-61467073D01*
X134933333Y-61467073D02*
X134866666Y-61567073D01*
X134866666Y-61567073D02*
X134800000Y-61633740D01*
X134800000Y-61633740D02*
X134733333Y-61667073D01*
X135800000Y-62167073D02*
X135400000Y-62167073D01*
X135600000Y-62167073D02*
X135600000Y-61467073D01*
X135600000Y-61467073D02*
X135533333Y-61567073D01*
X135533333Y-61567073D02*
X135466667Y-61633740D01*
X135466667Y-61633740D02*
X135400000Y-61667073D01*
X138533333Y-59450406D02*
X138500000Y-59483740D01*
X138500000Y-59483740D02*
X138400000Y-59517073D01*
X138400000Y-59517073D02*
X138333333Y-59517073D01*
X138333333Y-59517073D02*
X138233333Y-59483740D01*
X138233333Y-59483740D02*
X138166667Y-59417073D01*
X138166667Y-59417073D02*
X138133333Y-59350406D01*
X138133333Y-59350406D02*
X138100000Y-59217073D01*
X138100000Y-59217073D02*
X138100000Y-59117073D01*
X138100000Y-59117073D02*
X138133333Y-58983740D01*
X138133333Y-58983740D02*
X138166667Y-58917073D01*
X138166667Y-58917073D02*
X138233333Y-58850406D01*
X138233333Y-58850406D02*
X138333333Y-58817073D01*
X138333333Y-58817073D02*
X138400000Y-58817073D01*
X138400000Y-58817073D02*
X138500000Y-58850406D01*
X138500000Y-58850406D02*
X138533333Y-58883740D01*
X138766667Y-58817073D02*
X139233333Y-58817073D01*
X139233333Y-58817073D02*
X138933333Y-59517073D01*
X130242073Y-61541666D02*
X130742073Y-61541666D01*
X130742073Y-61541666D02*
X130842073Y-61574999D01*
X130842073Y-61574999D02*
X130908740Y-61641666D01*
X130908740Y-61641666D02*
X130942073Y-61741666D01*
X130942073Y-61741666D02*
X130942073Y-61808333D01*
X130942073Y-61208333D02*
X130242073Y-61208333D01*
X130242073Y-61208333D02*
X130242073Y-60941666D01*
X130242073Y-60941666D02*
X130275406Y-60875000D01*
X130275406Y-60875000D02*
X130308740Y-60841666D01*
X130308740Y-60841666D02*
X130375406Y-60808333D01*
X130375406Y-60808333D02*
X130475406Y-60808333D01*
X130475406Y-60808333D02*
X130542073Y-60841666D01*
X130542073Y-60841666D02*
X130575406Y-60875000D01*
X130575406Y-60875000D02*
X130608740Y-60941666D01*
X130608740Y-60941666D02*
X130608740Y-61208333D01*
X130942073Y-60141666D02*
X130942073Y-60541666D01*
X130942073Y-60341666D02*
X130242073Y-60341666D01*
X130242073Y-60341666D02*
X130342073Y-60408333D01*
X130342073Y-60408333D02*
X130408740Y-60475000D01*
X130408740Y-60475000D02*
X130442073Y-60541666D01*
X130308740Y-59874999D02*
X130275406Y-59841666D01*
X130275406Y-59841666D02*
X130242073Y-59774999D01*
X130242073Y-59774999D02*
X130242073Y-59608333D01*
X130242073Y-59608333D02*
X130275406Y-59541666D01*
X130275406Y-59541666D02*
X130308740Y-59508333D01*
X130308740Y-59508333D02*
X130375406Y-59474999D01*
X130375406Y-59474999D02*
X130442073Y-59474999D01*
X130442073Y-59474999D02*
X130542073Y-59508333D01*
X130542073Y-59508333D02*
X130942073Y-59908333D01*
X130942073Y-59908333D02*
X130942073Y-59474999D01*
X123725406Y-59266666D02*
X123758740Y-59299999D01*
X123758740Y-59299999D02*
X123792073Y-59399999D01*
X123792073Y-59399999D02*
X123792073Y-59466666D01*
X123792073Y-59466666D02*
X123758740Y-59566666D01*
X123758740Y-59566666D02*
X123692073Y-59633333D01*
X123692073Y-59633333D02*
X123625406Y-59666666D01*
X123625406Y-59666666D02*
X123492073Y-59699999D01*
X123492073Y-59699999D02*
X123392073Y-59699999D01*
X123392073Y-59699999D02*
X123258740Y-59666666D01*
X123258740Y-59666666D02*
X123192073Y-59633333D01*
X123192073Y-59633333D02*
X123125406Y-59566666D01*
X123125406Y-59566666D02*
X123092073Y-59466666D01*
X123092073Y-59466666D02*
X123092073Y-59399999D01*
X123092073Y-59399999D02*
X123125406Y-59299999D01*
X123125406Y-59299999D02*
X123158740Y-59266666D01*
X123158740Y-58999999D02*
X123125406Y-58966666D01*
X123125406Y-58966666D02*
X123092073Y-58899999D01*
X123092073Y-58899999D02*
X123092073Y-58733333D01*
X123092073Y-58733333D02*
X123125406Y-58666666D01*
X123125406Y-58666666D02*
X123158740Y-58633333D01*
X123158740Y-58633333D02*
X123225406Y-58599999D01*
X123225406Y-58599999D02*
X123292073Y-58599999D01*
X123292073Y-58599999D02*
X123392073Y-58633333D01*
X123392073Y-58633333D02*
X123792073Y-59033333D01*
X123792073Y-59033333D02*
X123792073Y-58599999D01*
X138217073Y-53516666D02*
X137883740Y-53749999D01*
X138217073Y-53916666D02*
X137517073Y-53916666D01*
X137517073Y-53916666D02*
X137517073Y-53649999D01*
X137517073Y-53649999D02*
X137550406Y-53583333D01*
X137550406Y-53583333D02*
X137583740Y-53549999D01*
X137583740Y-53549999D02*
X137650406Y-53516666D01*
X137650406Y-53516666D02*
X137750406Y-53516666D01*
X137750406Y-53516666D02*
X137817073Y-53549999D01*
X137817073Y-53549999D02*
X137850406Y-53583333D01*
X137850406Y-53583333D02*
X137883740Y-53649999D01*
X137883740Y-53649999D02*
X137883740Y-53916666D01*
X137583740Y-53249999D02*
X137550406Y-53216666D01*
X137550406Y-53216666D02*
X137517073Y-53149999D01*
X137517073Y-53149999D02*
X137517073Y-52983333D01*
X137517073Y-52983333D02*
X137550406Y-52916666D01*
X137550406Y-52916666D02*
X137583740Y-52883333D01*
X137583740Y-52883333D02*
X137650406Y-52849999D01*
X137650406Y-52849999D02*
X137717073Y-52849999D01*
X137717073Y-52849999D02*
X137817073Y-52883333D01*
X137817073Y-52883333D02*
X138217073Y-53283333D01*
X138217073Y-53283333D02*
X138217073Y-52849999D01*
D14*
%TO.C,C3*%
X134370500Y-70752052D02*
X134370500Y-70229548D01*
X135840500Y-70752052D02*
X135840500Y-70229548D01*
%TO.C,J7*%
X128205000Y-75470000D02*
X128205000Y-78130000D01*
X130805000Y-75470000D02*
X128205000Y-75470000D01*
X130805000Y-75470000D02*
X130805000Y-78130000D01*
X130805000Y-78130000D02*
X128205000Y-78130000D01*
X132075000Y-75470000D02*
X133405000Y-75470000D01*
X133405000Y-75470000D02*
X133405000Y-76800000D01*
%TO.C,J12*%
X124470000Y-68130000D02*
X124470000Y-78350000D01*
X124470000Y-68130000D02*
X127130000Y-68130000D01*
X124470000Y-78350000D02*
X127130000Y-78350000D01*
X125800000Y-65530000D02*
X127130000Y-65530000D01*
X127130000Y-65530000D02*
X127130000Y-66860000D01*
X127130000Y-68130000D02*
X127130000Y-78350000D01*
%TO.C,JP2*%
X144500000Y-47950000D02*
X144500000Y-46550000D01*
X145200000Y-45850000D02*
X145800000Y-45850000D01*
X145800000Y-48650000D02*
X145200000Y-48650000D01*
X146500000Y-46550000D02*
X146500000Y-47950000D01*
X144500000Y-46550000D02*
G75*
G02*
X145200000Y-45850000I700000J0D01*
G01*
X145200000Y-48650000D02*
G75*
G02*
X144500000Y-47950000I-1J699999D01*
G01*
X145800000Y-45850000D02*
G75*
G02*
X146500000Y-46550000I0J-700000D01*
G01*
X146500000Y-47950000D02*
G75*
G02*
X145800000Y-48650000I-699999J-1D01*
G01*
%TO.C,C6*%
X140901248Y-56465000D02*
X141423752Y-56465000D01*
X140901248Y-57935000D02*
X141423752Y-57935000D01*
%TO.C,JP1*%
X143386000Y-59944000D02*
X143386000Y-58544000D01*
X144086000Y-57844000D02*
X144686000Y-57844000D01*
X144686000Y-60644000D02*
X144086000Y-60644000D01*
X145386000Y-58544000D02*
X145386000Y-59944000D01*
X143386000Y-58544000D02*
G75*
G02*
X144086000Y-57844000I699999J1D01*
G01*
X144086000Y-60644000D02*
G75*
G02*
X143386000Y-59944000I0J700000D01*
G01*
X144686000Y-57844000D02*
G75*
G02*
X145386000Y-58544000I1J-699999D01*
G01*
X145386000Y-59944000D02*
G75*
G02*
X144686000Y-60644000I-700000J0D01*
G01*
D10*
%TO.C,U1*%
X139900000Y-50500000D02*
X140300000Y-50500000D01*
X139900000Y-53700000D02*
X139900000Y-53300000D01*
X139900000Y-53700000D02*
X140300000Y-53700000D01*
X143100000Y-50500000D02*
X142700000Y-50500000D01*
X143100000Y-50500000D02*
X143100000Y-50900000D01*
X143100000Y-53700000D02*
X142700000Y-53700000D01*
X143100000Y-53700000D02*
X143100000Y-53300000D01*
D14*
%TO.C,D1*%
X122640000Y-50465000D02*
X122640000Y-53325000D01*
D11*
X123600000Y-52121800D02*
X123193600Y-52579000D01*
X124006400Y-52121800D02*
X123193600Y-52121800D01*
X124006400Y-52579000D02*
X123193600Y-52579000D01*
X124006400Y-52579000D02*
X123600000Y-52121800D01*
D14*
X124560000Y-50465000D02*
X122640000Y-50465000D01*
X124560000Y-53325000D02*
X124560000Y-50465000D01*
%TO.C,J5*%
X134705000Y-75570000D02*
X134705000Y-78230000D01*
X137305000Y-75570000D02*
X134705000Y-75570000D01*
X137305000Y-75570000D02*
X137305000Y-78230000D01*
X137305000Y-78230000D02*
X134705000Y-78230000D01*
X138575000Y-75570000D02*
X139905000Y-75570000D01*
X139905000Y-75570000D02*
X139905000Y-76900000D01*
%TO.C,Y1*%
X124725000Y-62500000D02*
X124725000Y-64300000D01*
X126875000Y-62450000D02*
X127975000Y-62450000D01*
X126875000Y-64350000D02*
X127975000Y-64350000D01*
%TO.C,U2*%
X132037500Y-68740000D02*
X130237500Y-68740000D01*
X132037500Y-68740000D02*
X132837500Y-68740000D01*
X132037500Y-71860000D02*
X131237500Y-71860000D01*
X132037500Y-71860000D02*
X132837500Y-71860000D01*
%TO.C,JP9*%
X130555900Y-67590400D02*
X130555900Y-66990400D01*
X131255900Y-66290400D02*
X132655900Y-66290400D01*
X132655900Y-68290400D02*
X131255900Y-68290400D01*
X133355900Y-66990400D02*
X133355900Y-67590400D01*
X130555900Y-66990400D02*
G75*
G02*
X131255900Y-66290400I699999J1D01*
G01*
X131255900Y-68290400D02*
G75*
G02*
X130555900Y-67590400I-1J699999D01*
G01*
X132655900Y-66290400D02*
G75*
G02*
X133355900Y-66990400I0J-700000D01*
G01*
X133355900Y-67590400D02*
G75*
G02*
X132655900Y-68290400I-700000J0D01*
G01*
%TO.C,C5*%
X128223700Y-70722752D02*
X128223700Y-70200248D01*
X129693700Y-70722752D02*
X129693700Y-70200248D01*
%TO.C,Q1*%
X138717200Y-74141600D02*
X138717200Y-72681600D01*
X138717200Y-74141600D02*
X139647200Y-74141600D01*
X141877200Y-74141600D02*
X140947200Y-74141600D01*
X141877200Y-74141600D02*
X141877200Y-71981600D01*
%TO.C,JP7*%
X143800000Y-51350000D02*
X143800000Y-49950000D01*
X144500000Y-49250000D02*
X145100000Y-49250000D01*
X145100000Y-52050000D02*
X144500000Y-52050000D01*
X145800000Y-49950000D02*
X145800000Y-51350000D01*
X143800000Y-49950000D02*
G75*
G02*
X144500000Y-49250000I700000J0D01*
G01*
X144500000Y-52050000D02*
G75*
G02*
X143800000Y-51350000I-1J699999D01*
G01*
X145100000Y-49250000D02*
G75*
G02*
X145800000Y-49950000I0J-700000D01*
G01*
X145800000Y-51350000D02*
G75*
G02*
X145100000Y-52050000I-699999J-1D01*
G01*
D15*
%TO.C,E1*%
X125516100Y-41980000D02*
X135516100Y-41980000D01*
X125516100Y-45460000D02*
X125516100Y-41980000D01*
X125516100Y-48660000D02*
X125516100Y-46900000D01*
X125516100Y-57980000D02*
X125516100Y-56000000D01*
X125796100Y-57980000D02*
X125516100Y-57980000D01*
X135516100Y-41980000D02*
X135516100Y-45460000D01*
X135516100Y-56700000D02*
X135516100Y-57980000D01*
X135516100Y-57980000D02*
X135236100Y-57980000D01*
D16*
X124266100Y-46170000D02*
G75*
G02*
X124066100Y-46170000I-100000J0D01*
G01*
X124066100Y-46170000D02*
G75*
G02*
X124266100Y-46170000I100000J0D01*
G01*
D14*
%TO.C,JP4*%
X139500000Y-47950000D02*
X139500000Y-46550000D01*
X140200000Y-45850000D02*
X140800000Y-45850000D01*
X140800000Y-48650000D02*
X140200000Y-48650000D01*
X141500000Y-46550000D02*
X141500000Y-47950000D01*
X139500000Y-46550000D02*
G75*
G02*
X140200000Y-45850000I700000J0D01*
G01*
X140200000Y-48650000D02*
G75*
G02*
X139500000Y-47950000I-1J699999D01*
G01*
X140800000Y-45850000D02*
G75*
G02*
X141500000Y-46550000I0J-700000D01*
G01*
X141500000Y-47950000D02*
G75*
G02*
X140800000Y-48650000I-699999J-1D01*
G01*
%TO.C,JP6*%
X142000000Y-47950000D02*
X142000000Y-46550000D01*
X142700000Y-45850000D02*
X143300000Y-45850000D01*
X143300000Y-48650000D02*
X142700000Y-48650000D01*
X144000000Y-46550000D02*
X144000000Y-47950000D01*
X142000000Y-46550000D02*
G75*
G02*
X142700000Y-45850000I700000J0D01*
G01*
X142700000Y-48650000D02*
G75*
G02*
X142000000Y-47950000I-1J699999D01*
G01*
X143300000Y-45850000D02*
G75*
G02*
X144000000Y-46550000I0J-700000D01*
G01*
X144000000Y-47950000D02*
G75*
G02*
X143300000Y-48650000I-699999J-1D01*
G01*
%TO.C,C8*%
X140901248Y-54465000D02*
X141423752Y-54465000D01*
X140901248Y-55935000D02*
X141423752Y-55935000D01*
%TO.C,JP10*%
X124800000Y-61250000D02*
X124800000Y-59850000D01*
X125500000Y-59150000D02*
X126100000Y-59150000D01*
X126100000Y-61950000D02*
X125500000Y-61950000D01*
X126800000Y-59850000D02*
X126800000Y-61250000D01*
X124800000Y-59850000D02*
G75*
G02*
X125500000Y-59150000I699999J1D01*
G01*
X125500000Y-61950000D02*
G75*
G02*
X124800000Y-61250000I0J700000D01*
G01*
X126100000Y-59150000D02*
G75*
G02*
X126800000Y-59850000I1J-699999D01*
G01*
X126800000Y-61250000D02*
G75*
G02*
X126100000Y-61950000I-700000J0D01*
G01*
%TO.C,Q3*%
X138731200Y-67242800D02*
X138731200Y-65782800D01*
X138731200Y-67242800D02*
X139661200Y-67242800D01*
X141891200Y-67242800D02*
X140961200Y-67242800D01*
X141891200Y-67242800D02*
X141891200Y-65082800D01*
%TO.C,JP5*%
X143300000Y-56550000D02*
X143300000Y-55150000D01*
X144000000Y-54450000D02*
X144600000Y-54450000D01*
X144600000Y-57250000D02*
X144000000Y-57250000D01*
X145300000Y-55150000D02*
X145300000Y-56550000D01*
X143300000Y-55150000D02*
G75*
G02*
X144000000Y-54450000I699999J1D01*
G01*
X144000000Y-57250000D02*
G75*
G02*
X143300000Y-56550000I0J700000D01*
G01*
X144600000Y-54450000D02*
G75*
G02*
X145300000Y-55150000I1J-699999D01*
G01*
X145300000Y-56550000D02*
G75*
G02*
X144600000Y-57250000I-700000J0D01*
G01*
%TO.C,JP3*%
X137000000Y-47950000D02*
X137000000Y-46550000D01*
X137700000Y-45850000D02*
X138300000Y-45850000D01*
X138300000Y-48650000D02*
X137700000Y-48650000D01*
X139000000Y-46550000D02*
X139000000Y-47950000D01*
X137000000Y-46550000D02*
G75*
G02*
X137700000Y-45850000I700000J0D01*
G01*
X137700000Y-48650000D02*
G75*
G02*
X137000000Y-47950000I-1J699999D01*
G01*
X138300000Y-45850000D02*
G75*
G02*
X139000000Y-46550000I0J-700000D01*
G01*
X139000000Y-47950000D02*
G75*
G02*
X138300000Y-48650000I-699999J-1D01*
G01*
%TO.C,Q2*%
X138729600Y-70681200D02*
X138729600Y-69221200D01*
X138729600Y-70681200D02*
X139659600Y-70681200D01*
X141889600Y-70681200D02*
X140959600Y-70681200D01*
X141889600Y-70681200D02*
X141889600Y-68521200D01*
%TO.C,J6*%
X142670000Y-64670000D02*
X142670000Y-77430000D01*
X142670000Y-64670000D02*
X145330000Y-64670000D01*
X142670000Y-77430000D02*
X145330000Y-77430000D01*
X144000000Y-62070000D02*
X145330000Y-62070000D01*
X145330000Y-62070000D02*
X145330000Y-63400000D01*
X145330000Y-64670000D02*
X145330000Y-77430000D01*
%TO.C,JP11*%
X133220000Y-60450000D02*
X133220000Y-59850000D01*
X133920000Y-59150000D02*
X135320000Y-59150000D01*
X135320000Y-61150000D02*
X133920000Y-61150000D01*
X136020000Y-59850000D02*
X136020000Y-60450000D01*
X133220000Y-59850000D02*
G75*
G02*
X133920000Y-59150000I699999J1D01*
G01*
X133920000Y-61150000D02*
G75*
G02*
X133220000Y-60450000I-1J699999D01*
G01*
X135320000Y-59150000D02*
G75*
G02*
X136020000Y-59850000I0J-700000D01*
G01*
X136020000Y-60450000D02*
G75*
G02*
X135320000Y-61150000I-700000J0D01*
G01*
%TO.C,C7*%
X140901248Y-58465000D02*
X141423752Y-58465000D01*
X140901248Y-59935000D02*
X141423752Y-59935000D01*
%TO.C,JP12*%
X128000000Y-61250000D02*
X128000000Y-59850000D01*
X128700000Y-59150000D02*
X129300000Y-59150000D01*
X129300000Y-61950000D02*
X128700000Y-61950000D01*
X130000000Y-59850000D02*
X130000000Y-61250000D01*
X128000000Y-59850000D02*
G75*
G02*
X128700000Y-59150000I699999J1D01*
G01*
X128700000Y-61950000D02*
G75*
G02*
X128000000Y-61250000I0J700000D01*
G01*
X129300000Y-59150000D02*
G75*
G02*
X130000000Y-59850000I1J-699999D01*
G01*
X130000000Y-61250000D02*
G75*
G02*
X129300000Y-61950000I-700000J0D01*
G01*
%TO.C,C2*%
X122765000Y-56798752D02*
X122765000Y-56276248D01*
X124235000Y-56798752D02*
X124235000Y-56276248D01*
%TO.C,R2*%
X137165000Y-50572936D02*
X137165000Y-51027064D01*
X138635000Y-50572936D02*
X138635000Y-51027064D01*
%TD*%
M02*
