%TF.GenerationSoftware,KiCad,Pcbnew,8.0.3*%
%TF.CreationDate,2024-07-06T18:06:21+05:30*%
%TF.ProjectId,nrf528_board,6e726635-3238-45f6-926f-6172642e6b69,rev?*%
%TF.SameCoordinates,Original*%
%TF.FileFunction,Soldermask,Top*%
%TF.FilePolarity,Negative*%
%FSLAX46Y46*%
G04 Gerber Fmt 4.6, Leading zero omitted, Abs format (unit mm)*
G04 Created by KiCad (PCBNEW 8.0.3) date 2024-07-06 18:06:21*
%MOMM*%
%LPD*%
G01*
G04 APERTURE LIST*
G04 Aperture macros list*
%AMRoundRect*
0 Rectangle with rounded corners*
0 $1 Rounding radius*
0 $2 $3 $4 $5 $6 $7 $8 $9 X,Y pos of 4 corners*
0 Add a 4 corners polygon primitive as box body*
4,1,4,$2,$3,$4,$5,$6,$7,$8,$9,$2,$3,0*
0 Add four circle primitives for the rounded corners*
1,1,$1+$1,$2,$3*
1,1,$1+$1,$4,$5*
1,1,$1+$1,$6,$7*
1,1,$1+$1,$8,$9*
0 Add four rect primitives between the rounded corners*
20,1,$1+$1,$2,$3,$4,$5,0*
20,1,$1+$1,$4,$5,$6,$7,0*
20,1,$1+$1,$6,$7,$8,$9,0*
20,1,$1+$1,$8,$9,$2,$3,0*%
%AMFreePoly0*
4,1,33,0.500000,-0.750000,0.000000,-0.750000,0.000000,-0.749013,-0.031395,-0.749013,-0.093691,-0.741144,-0.154508,-0.725528,-0.212890,-0.702414,-0.267913,-0.672164,-0.318712,-0.635257,-0.364484,-0.592274,-0.404508,-0.543893,-0.438153,-0.490877,-0.464888,-0.434062,-0.484292,-0.374345,-0.496057,-0.312667,-0.500000,-0.250000,-0.500000,0.250000,-0.496057,0.312667,-0.484292,0.374345,-0.464888,0.434062,
-0.438153,0.490877,-0.404508,0.543893,-0.364484,0.592274,-0.318712,0.635257,-0.267913,0.672164,-0.212890,0.702414,-0.154508,0.725528,-0.093691,0.741144,-0.031395,0.749013,0.000000,0.749013,0.000000,0.750000,0.500000,0.750000,0.500000,-0.750000,0.500000,-0.750000,$1*%
%AMFreePoly1*
4,1,33,0.000000,0.749013,0.031395,0.749013,0.093691,0.741144,0.154508,0.725528,0.212890,0.702414,0.267913,0.672164,0.318712,0.635257,0.364484,0.592274,0.404508,0.543893,0.438153,0.490877,0.464888,0.434062,0.484292,0.374345,0.496057,0.312667,0.500000,0.250000,0.500000,-0.250000,0.496057,-0.312667,0.484292,-0.374345,0.464888,-0.434062,0.438153,-0.490877,0.404508,-0.543893,
0.364484,-0.592274,0.318712,-0.635257,0.267913,-0.672164,0.212890,-0.702414,0.154508,-0.725528,0.093691,-0.741144,0.031395,-0.749013,0.000000,-0.749013,0.000000,-0.750000,-0.500000,-0.750000,-0.500000,0.750000,0.000000,0.750000,0.000000,0.749013,0.000000,0.749013,$1*%
G04 Aperture macros list end*
%ADD10RoundRect,0.250000X0.475000X-0.337500X0.475000X0.337500X-0.475000X0.337500X-0.475000X-0.337500X0*%
%ADD11R,1.700000X1.700000*%
%ADD12O,1.700000X1.700000*%
%ADD13FreePoly0,90.000000*%
%ADD14FreePoly1,90.000000*%
%ADD15RoundRect,0.250000X-0.337500X-0.475000X0.337500X-0.475000X0.337500X0.475000X-0.337500X0.475000X0*%
%ADD16FreePoly0,270.000000*%
%ADD17FreePoly1,270.000000*%
%ADD18RoundRect,0.050000X-0.225000X-0.050000X0.225000X-0.050000X0.225000X0.050000X-0.225000X0.050000X0*%
%ADD19RoundRect,0.050000X0.050000X-0.225000X0.050000X0.225000X-0.050000X0.225000X-0.050000X-0.225000X0*%
%ADD20RoundRect,0.250000X-0.450000X0.325000X-0.450000X-0.325000X0.450000X-0.325000X0.450000X0.325000X0*%
%ADD21R,1.750000X1.800000*%
%ADD22RoundRect,0.150000X-0.512500X-0.150000X0.512500X-0.150000X0.512500X0.150000X-0.512500X0.150000X0*%
%ADD23FreePoly0,0.000000*%
%ADD24FreePoly1,0.000000*%
%ADD25R,0.800000X0.900000*%
%ADD26RoundRect,0.050000X-0.700000X-0.400000X0.700000X-0.400000X0.700000X0.400000X-0.700000X0.400000X0*%
%ADD27RoundRect,0.050000X-0.700000X-0.200000X0.700000X-0.200000X0.700000X0.200000X-0.700000X0.200000X0*%
%ADD28RoundRect,0.050000X0.200000X-0.700000X0.200000X0.700000X-0.200000X0.700000X-0.200000X-0.700000X0*%
%ADD29RoundRect,0.050000X-0.200000X0.700000X-0.200000X-0.700000X0.200000X-0.700000X0.200000X0.700000X0*%
%ADD30RoundRect,0.050000X0.700000X0.200000X-0.700000X0.200000X-0.700000X-0.200000X0.700000X-0.200000X0*%
%ADD31RoundRect,0.050000X0.700000X0.400000X-0.700000X0.400000X-0.700000X-0.400000X0.700000X-0.400000X0*%
%ADD32RoundRect,0.250000X-0.450000X0.350000X-0.450000X-0.350000X0.450000X-0.350000X0.450000X0.350000X0*%
G04 APERTURE END LIST*
D10*
%TO.C,C3*%
X135105500Y-71528300D03*
X135105500Y-69453300D03*
%TD*%
D11*
%TO.C,J7*%
X132075000Y-76800000D03*
D12*
X129535000Y-76800000D03*
%TD*%
D11*
%TO.C,J12*%
X125800000Y-66860000D03*
D12*
X125800000Y-69400000D03*
X125800000Y-71940000D03*
X125800000Y-74480000D03*
X125800000Y-77020000D03*
%TD*%
D13*
%TO.C,JP2*%
X145500000Y-47900000D03*
D14*
X145500000Y-46600000D03*
%TD*%
D15*
%TO.C,C6*%
X140125000Y-57200000D03*
X142200000Y-57200000D03*
%TD*%
D16*
%TO.C,JP1*%
X144386000Y-58594000D03*
D17*
X144386000Y-59894000D03*
%TD*%
D18*
%TO.C,U1*%
X140000000Y-51100000D03*
X140000000Y-51500000D03*
X140000000Y-51900000D03*
X140000000Y-52300000D03*
X140000000Y-52700000D03*
X140000000Y-53100000D03*
D19*
X140500000Y-53600000D03*
X140900000Y-53600000D03*
X141300000Y-53600000D03*
X141700000Y-53600000D03*
X142100000Y-53600000D03*
X142500000Y-53600000D03*
D18*
X143000000Y-53100000D03*
X143000000Y-52700000D03*
X143000000Y-52300000D03*
X143000000Y-51900000D03*
X143000000Y-51500000D03*
X143000000Y-51100000D03*
D19*
X142500000Y-50600000D03*
X142100000Y-50600000D03*
X141700000Y-50600000D03*
X141300000Y-50600000D03*
X140900000Y-50600000D03*
X140500000Y-50600000D03*
%TD*%
D20*
%TO.C,D1*%
X123600000Y-51300000D03*
X123600000Y-53350000D03*
%TD*%
D11*
%TO.C,J5*%
X138575000Y-76900000D03*
D12*
X136035000Y-76900000D03*
%TD*%
D21*
%TO.C,Y1*%
X125800000Y-63400000D03*
X129050000Y-63400000D03*
%TD*%
D22*
%TO.C,U2*%
X130900000Y-69350000D03*
X130900000Y-70300000D03*
X130900000Y-71250000D03*
X133175000Y-71250000D03*
X133175000Y-69350000D03*
%TD*%
D23*
%TO.C,JP9*%
X131305900Y-67290400D03*
D24*
X132605900Y-67290400D03*
%TD*%
D10*
%TO.C,C5*%
X128958700Y-71499000D03*
X128958700Y-69424000D03*
%TD*%
D25*
%TO.C,Q1*%
X141247200Y-72381600D03*
X139347200Y-72381600D03*
X140297200Y-74381600D03*
%TD*%
D13*
%TO.C,JP7*%
X144800000Y-51300000D03*
D14*
X144800000Y-50000000D03*
%TD*%
D26*
%TO.C,E1*%
X125537700Y-46170000D03*
D27*
X125486900Y-53380000D03*
X125486900Y-54080000D03*
X125486900Y-54780000D03*
X125486900Y-55480000D03*
D28*
X126316100Y-58006400D03*
D29*
X127016100Y-58006400D03*
D28*
X127716100Y-58006400D03*
X128416100Y-58006400D03*
X129116100Y-58006400D03*
X129816100Y-58006400D03*
X130516100Y-58006400D03*
X131216100Y-58006400D03*
X131916100Y-58006400D03*
X132616100Y-58006400D03*
X133316100Y-58006400D03*
X134016100Y-58006400D03*
X134716100Y-58006400D03*
D30*
X135545300Y-56180000D03*
X135545300Y-55480000D03*
X135545300Y-54780000D03*
X135545300Y-54080000D03*
X135545300Y-53380000D03*
X135545300Y-52680000D03*
X135545300Y-51980000D03*
X135545300Y-51280000D03*
X135545300Y-50580000D03*
X135545300Y-49880000D03*
X135545300Y-49180000D03*
X135545300Y-48480000D03*
X135545300Y-47780000D03*
D31*
X135545300Y-46180000D03*
%TD*%
D13*
%TO.C,JP4*%
X140500000Y-47900000D03*
D14*
X140500000Y-46600000D03*
%TD*%
D13*
%TO.C,JP6*%
X143000000Y-47900000D03*
D14*
X143000000Y-46600000D03*
%TD*%
D15*
%TO.C,C8*%
X140125000Y-55200000D03*
X142200000Y-55200000D03*
%TD*%
D16*
%TO.C,JP10*%
X125800000Y-59900000D03*
D17*
X125800000Y-61200000D03*
%TD*%
D25*
%TO.C,Q3*%
X141261200Y-65482800D03*
X139361200Y-65482800D03*
X140311200Y-67482800D03*
%TD*%
D16*
%TO.C,JP5*%
X144300000Y-55200000D03*
D17*
X144300000Y-56500000D03*
%TD*%
D13*
%TO.C,JP3*%
X138000000Y-47900000D03*
D14*
X138000000Y-46600000D03*
%TD*%
D25*
%TO.C,Q2*%
X141259600Y-68921200D03*
X139359600Y-68921200D03*
X140309600Y-70921200D03*
%TD*%
D11*
%TO.C,J6*%
X144000000Y-63400000D03*
D12*
X144000000Y-65940000D03*
X144000000Y-68480000D03*
X144000000Y-71020000D03*
X144000000Y-73560000D03*
X144000000Y-76100000D03*
%TD*%
D23*
%TO.C,JP11*%
X133970000Y-60150000D03*
D24*
X135270000Y-60150000D03*
%TD*%
D15*
%TO.C,C7*%
X140125000Y-59200000D03*
X142200000Y-59200000D03*
%TD*%
D16*
%TO.C,JP12*%
X129000000Y-59900000D03*
D17*
X129000000Y-61200000D03*
%TD*%
D10*
%TO.C,C2*%
X123500000Y-57575000D03*
X123500000Y-55500000D03*
%TD*%
D32*
%TO.C,R2*%
X137900000Y-49800000D03*
X137900000Y-51800000D03*
%TD*%
M02*
