%TF.GenerationSoftware,KiCad,Pcbnew,8.0.3*%
%TF.CreationDate,2024-07-06T18:06:21+05:30*%
%TF.ProjectId,nrf528_board,6e726635-3238-45f6-926f-6172642e6b69,rev?*%
%TF.SameCoordinates,Original*%
%TF.FileFunction,Soldermask,Bot*%
%TF.FilePolarity,Negative*%
%FSLAX46Y46*%
G04 Gerber Fmt 4.6, Leading zero omitted, Abs format (unit mm)*
G04 Created by KiCad (PCBNEW 8.0.3) date 2024-07-06 18:06:21*
%MOMM*%
%LPD*%
G01*
G04 APERTURE LIST*
G04 Aperture macros list*
%AMRoundRect*
0 Rectangle with rounded corners*
0 $1 Rounding radius*
0 $2 $3 $4 $5 $6 $7 $8 $9 X,Y pos of 4 corners*
0 Add a 4 corners polygon primitive as box body*
4,1,4,$2,$3,$4,$5,$6,$7,$8,$9,$2,$3,0*
0 Add four circle primitives for the rounded corners*
1,1,$1+$1,$2,$3*
1,1,$1+$1,$4,$5*
1,1,$1+$1,$6,$7*
1,1,$1+$1,$8,$9*
0 Add four rect primitives between the rounded corners*
20,1,$1+$1,$2,$3,$4,$5,0*
20,1,$1+$1,$4,$5,$6,$7,0*
20,1,$1+$1,$6,$7,$8,$9,0*
20,1,$1+$1,$8,$9,$2,$3,0*%
%AMFreePoly0*
4,1,33,0.500000,-0.750000,0.000000,-0.750000,0.000000,-0.749013,-0.031395,-0.749013,-0.093691,-0.741144,-0.154508,-0.725528,-0.212890,-0.702414,-0.267913,-0.672164,-0.318712,-0.635257,-0.364484,-0.592274,-0.404508,-0.543893,-0.438153,-0.490877,-0.464888,-0.434062,-0.484292,-0.374345,-0.496057,-0.312667,-0.500000,-0.250000,-0.500000,0.250000,-0.496057,0.312667,-0.484292,0.374345,-0.464888,0.434062,
-0.438153,0.490877,-0.404508,0.543893,-0.364484,0.592274,-0.318712,0.635257,-0.267913,0.672164,-0.212890,0.702414,-0.154508,0.725528,-0.093691,0.741144,-0.031395,0.749013,0.000000,0.749013,0.000000,0.750000,0.500000,0.750000,0.500000,-0.750000,0.500000,-0.750000,$1*%
%AMFreePoly1*
4,1,33,0.000000,0.749013,0.031395,0.749013,0.093691,0.741144,0.154508,0.725528,0.212890,0.702414,0.267913,0.672164,0.318712,0.635257,0.364484,0.592274,0.404508,0.543893,0.438153,0.490877,0.464888,0.434062,0.484292,0.374345,0.496057,0.312667,0.500000,0.250000,0.500000,-0.250000,0.496057,-0.312667,0.484292,-0.374345,0.464888,-0.434062,0.438153,-0.490877,0.404508,-0.543893,
0.364484,-0.592274,0.318712,-0.635257,0.267913,-0.672164,0.212890,-0.702414,0.154508,-0.725528,0.093691,-0.741144,0.031395,-0.749013,0.000000,-0.749013,0.000000,-0.750000,-0.500000,-0.750000,-0.500000,0.750000,0.000000,0.750000,0.000000,0.749013,0.000000,0.749013,$1*%
G04 Aperture macros list end*
%ADD10R,1.700000X1.700000*%
%ADD11O,1.700000X1.700000*%
%ADD12RoundRect,0.250000X-0.325000X-0.450000X0.325000X-0.450000X0.325000X0.450000X-0.325000X0.450000X0*%
%ADD13RoundRect,0.250000X-0.475000X0.337500X-0.475000X-0.337500X0.475000X-0.337500X0.475000X0.337500X0*%
%ADD14RoundRect,0.250000X0.450000X-0.350000X0.450000X0.350000X-0.450000X0.350000X-0.450000X-0.350000X0*%
%ADD15RoundRect,0.250000X-0.450000X0.350000X-0.450000X-0.350000X0.450000X-0.350000X0.450000X0.350000X0*%
%ADD16C,1.500000*%
%ADD17RoundRect,0.250000X0.350000X0.450000X-0.350000X0.450000X-0.350000X-0.450000X0.350000X-0.450000X0*%
%ADD18FreePoly0,0.000000*%
%ADD19FreePoly1,0.000000*%
%ADD20RoundRect,0.250000X0.325000X0.450000X-0.325000X0.450000X-0.325000X-0.450000X0.325000X-0.450000X0*%
%ADD21RoundRect,0.250000X0.337500X0.475000X-0.337500X0.475000X-0.337500X-0.475000X0.337500X-0.475000X0*%
G04 APERTURE END LIST*
D10*
%TO.C,J7*%
X132075000Y-76800000D03*
D11*
X129535000Y-76800000D03*
%TD*%
D10*
%TO.C,J12*%
X125800000Y-66860000D03*
D11*
X125800000Y-69400000D03*
X125800000Y-71940000D03*
X125800000Y-74480000D03*
X125800000Y-77020000D03*
%TD*%
D10*
%TO.C,J5*%
X138575000Y-76900000D03*
D11*
X136035000Y-76900000D03*
%TD*%
D10*
%TO.C,J6*%
X144000000Y-63400000D03*
D11*
X144000000Y-65940000D03*
X144000000Y-68480000D03*
X144000000Y-71020000D03*
X144000000Y-73560000D03*
X144000000Y-76100000D03*
%TD*%
D12*
%TO.C,L1*%
X127200000Y-55300000D03*
X129250000Y-55300000D03*
%TD*%
D13*
%TO.C,C4*%
X125800000Y-61362500D03*
X125800000Y-63437500D03*
%TD*%
D14*
%TO.C,R4*%
X144300000Y-56576000D03*
X144300000Y-54576000D03*
%TD*%
D15*
%TO.C,R7*%
X144800000Y-50258000D03*
X144800000Y-52258000D03*
%TD*%
%TO.C,R6*%
X142862000Y-46432000D03*
X142862000Y-48432000D03*
%TD*%
D16*
%TO.C,J8*%
X137900000Y-57240000D03*
%TD*%
D13*
%TO.C,C9*%
X129100000Y-61462500D03*
X129100000Y-63537500D03*
%TD*%
D17*
%TO.C,R8*%
X133420000Y-57510000D03*
X131420000Y-57510000D03*
%TD*%
%TO.C,R12*%
X142261200Y-67514800D03*
X140261200Y-67514800D03*
%TD*%
%TO.C,R10*%
X142230000Y-74100000D03*
X140230000Y-74100000D03*
%TD*%
%TO.C,R11*%
X142210000Y-70700000D03*
X140210000Y-70700000D03*
%TD*%
D16*
%TO.C,J9*%
X137900000Y-54700000D03*
%TD*%
D15*
%TO.C,R1*%
X145402000Y-46448000D03*
X145402000Y-48448000D03*
%TD*%
D18*
%TO.C,JP13*%
X133300000Y-74600000D03*
D19*
X134600000Y-74600000D03*
%TD*%
D15*
%TO.C,R5*%
X123560000Y-51285000D03*
X123560000Y-53285000D03*
%TD*%
D16*
%TO.C,J2*%
X133700000Y-59800000D03*
%TD*%
%TO.C,J1*%
X131160000Y-59800000D03*
%TD*%
D18*
%TO.C,JP8*%
X128100000Y-58100000D03*
D19*
X129400000Y-58100000D03*
%TD*%
D16*
%TO.C,J13*%
X137900000Y-47080000D03*
%TD*%
D20*
%TO.C,L2*%
X129250000Y-53400000D03*
X127200000Y-53400000D03*
%TD*%
D17*
%TO.C,R9*%
X133050000Y-55430000D03*
X131050000Y-55430000D03*
%TD*%
D21*
%TO.C,C1*%
X129337500Y-51400000D03*
X127262500Y-51400000D03*
%TD*%
D15*
%TO.C,R3*%
X140500000Y-46464000D03*
X140500000Y-48464000D03*
%TD*%
D16*
%TO.C,J10*%
X137900000Y-52160000D03*
%TD*%
%TO.C,J11*%
X137900000Y-49620000D03*
%TD*%
M02*
