M48
; DRILL file {KiCad 8.0.3} date 2024-07-06T18:06:22+0530
; FORMAT={-:-/ absolute / metric / decimal}
; #@! TF.CreationDate,2024-07-06T18:06:22+05:30
; #@! TF.GenerationSoftware,Kicad,Pcbnew,8.0.3
; #@! TF.FileFunction,Plated,1,2,PTH
FMAT,2
METRIC
; #@! TA.AperFunction,Plated,PTH,ViaDrill
T1C0.100
; #@! TA.AperFunction,Plated,PTH,ViaDrill
T2C0.200
; #@! TA.AperFunction,Plated,PTH,ViaDrill
T3C0.400
; #@! TA.AperFunction,Plated,PTH,ComponentDrill
T4C1.000
%
G90
G05
T1
X141.3Y-56.1
X144.25Y-55.51
T2
X122.8Y-58.9
X128.44Y-56.7
X129.14Y-56.72
X129.938Y-71.25
X129.938Y-72.525
X130.0Y-70.3
X131.1Y-59.9
X131.7Y-50.5
X132.3Y-51.1
X133.1Y-51.8
X133.1Y-59.4
X134.62Y-48.514
X134.65Y-49.3
X135.545Y-47.78
X137.35Y-55.825
X139.0Y-51.075
X139.0Y-55.1
X139.2Y-53.625
X139.3Y-49.5
X140.48Y-50.07
X141.65Y-53.05
X142.1Y-53.085
X142.16Y-55.13
X142.3Y-50.0
X143.2Y-50.4
X143.24Y-53.68
X144.3Y-53.2
X144.8Y-52.4
T3
X123.19Y-51.308
X123.2Y-77.9
X123.375Y-46.05
X123.444Y-55.372
X123.7Y-48.5
X124.1Y-46.7
X124.175Y-70.9
X124.206Y-51.308
X125.0Y-49.8
X125.2Y-47.4
X125.2Y-63.4
X125.5Y-58.6
X126.1Y-63.4
X126.5Y-65.1
X126.7Y-49.0
X126.8Y-47.2
X127.254Y-53.34
X127.254Y-55.118
X127.6Y-46.4
X127.775Y-75.65
X128.2Y-48.0
X128.6Y-49.9
X128.6Y-63.5
X128.75Y-65.375
X128.975Y-71.6
X129.2Y-47.0
X129.5Y-63.5
X129.5Y-74.2
X131.0Y-49.9
X131.0Y-51.7
X131.3Y-53.6
X131.318Y-67.31
X132.5Y-54.0
X132.588Y-67.31
X132.9Y-62.5
X133.419Y-51.012
X133.9Y-64.8
X135.472Y-47.03
X136.4Y-62.675
X136.55Y-46.0
X137.097Y-58.778
X137.1Y-71.2
X137.175Y-68.075
X137.475Y-73.85
X138.325Y-58.95
X139.3Y-64.1
X139.408Y-62.268
X140.06Y-46.48
X140.125Y-55.15
X140.23Y-71.2
X140.23Y-73.61
X140.24Y-70.31
X140.27Y-74.66
X140.28Y-67.99
X140.3Y-67.21
X140.97Y-46.49
X141.2Y-61.8
X141.2Y-65.5
X141.2Y-72.4
X141.3Y-68.9
X142.24Y-57.15
X142.47Y-46.41
X143.49Y-46.43
X143.88Y-56.63
X144.78Y-56.63
X145.092Y-46.47
X145.4Y-53.7
X145.902Y-46.728
X146.1Y-78.3
X146.2Y-66.7
X146.3Y-61.8
X146.3Y-72.4
T4
X125.8Y-66.86
X125.8Y-69.4
X125.8Y-71.94
X125.8Y-74.48
X125.8Y-77.02
X129.535Y-76.8
X132.075Y-76.8
X136.035Y-76.9
X138.575Y-76.9
X144.0Y-63.4
X144.0Y-65.94
X144.0Y-68.48
X144.0Y-71.02
X144.0Y-73.56
X144.0Y-76.1
M30
