M48
; DRILL file {KiCad 8.0.3} date 2024-06-13T16:05:30+0530
; FORMAT={-:-/ absolute / metric / decimal}
; #@! TF.CreationDate,2024-06-13T16:05:30+05:30
; #@! TF.GenerationSoftware,Kicad,Pcbnew,8.0.3
; #@! TF.FileFunction,Plated,1,2,PTH
FMAT,2
METRIC
; #@! TA.AperFunction,Plated,PTH,ViaDrill
T1C0.400
; #@! TA.AperFunction,Plated,PTH,ComponentDrill
T2C0.800
; #@! TA.AperFunction,Plated,PTH,ComponentDrill
T3C0.950
; #@! TA.AperFunction,Plated,PTH,ComponentDrill
T4C1.000
; #@! TA.AperFunction,Plated,PTH,ComponentDrill
T5C1.400
%
G90
G05
T1
X162.375Y-108.95
X164.175Y-75.05
X164.225Y-80.775
X164.3Y-91.425
X164.95Y-61.8
X166.85Y-105.575
X169.25Y-86.5
X169.95Y-61.65
X170.775Y-80.6
X170.8Y-75.15
X170.925Y-101.125
X174.075Y-83.9
X175.325Y-61.35
X179.475Y-94.175
X179.75Y-99.025
X180.325Y-61.35
X180.775Y-83.825
X180.825Y-76.6
X181.475Y-103.175
X182.2Y-96.675
X184.675Y-94.4
X185.1Y-67.25
X185.525Y-100.45
X185.55Y-105.8
X185.625Y-78.775
X185.675Y-91.35
X185.875Y-81.975
X186.15Y-75.3
X187.446Y-64.199
X187.45Y-86.575
X187.498Y-88.412
X191.521Y-90.475
X199.75Y-109.425
X200.075Y-83.05
X200.6Y-64.275
X201.125Y-90.55
X202.525Y-98.0
X202.6Y-93.8
X202.625Y-77.475
X202.675Y-72.2
X202.7Y-66.6
X202.75Y-61.525
X205.025Y-108.65
X205.1Y-103.7
X208.55Y-99.3
X208.925Y-61.45
X208.925Y-104.025
T2
X189.85Y-61.43
X189.85Y-63.97
X189.85Y-66.51
X189.85Y-69.05
X189.85Y-72.705
X189.85Y-75.245
X189.85Y-77.785
X189.85Y-80.325
X189.85Y-89.504
X189.85Y-92.044
X189.85Y-94.584
X189.85Y-97.124
X189.87Y-101.107
X189.87Y-103.647
X189.87Y-106.187
X189.87Y-108.727
X197.47Y-61.43
X197.47Y-63.97
X197.47Y-66.51
X197.47Y-69.05
X197.47Y-72.705
X197.47Y-75.245
X197.47Y-77.785
X197.47Y-80.325
X197.47Y-89.504
X197.47Y-92.044
X197.47Y-94.584
X197.47Y-97.124
X197.49Y-101.107
X197.49Y-103.647
X197.49Y-106.187
X197.49Y-108.727
T3
X165.7Y-107.7
X168.2Y-107.7
X170.7Y-107.7
X173.2Y-107.7
X175.7Y-107.7
X178.2Y-107.7
X180.7Y-107.7
X208.225Y-78.0
X208.225Y-80.5
X208.225Y-83.0
X208.225Y-85.5
X208.225Y-88.0
X208.225Y-90.5
X208.225Y-93.0
T4
X165.43Y-71.805
X167.965Y-97.205
X167.97Y-71.805
X167.97Y-92.125
X170.505Y-97.205
X170.51Y-71.805
X170.51Y-92.125
X173.045Y-97.205
X173.05Y-71.805
X173.05Y-92.125
X175.585Y-97.205
X175.59Y-71.805
X175.59Y-92.125
X178.13Y-71.805
T5
X165.165Y-66.282
X170.165Y-66.282
X175.165Y-66.282
X180.165Y-66.282
M30
