%TF.GenerationSoftware,KiCad,Pcbnew,8.0.3*%
%TF.CreationDate,2024-06-13T16:05:25+05:30*%
%TF.ProjectId,OptoIsolation,4f70746f-4973-46f6-9c61-74696f6e2e6b,rev?*%
%TF.SameCoordinates,Original*%
%TF.FileFunction,Other,User*%
%FSLAX46Y46*%
G04 Gerber Fmt 4.6, Leading zero omitted, Abs format (unit mm)*
G04 Created by KiCad (PCBNEW 8.0.3) date 2024-06-13 16:05:25*
%MOMM*%
%LPD*%
G01*
G04 APERTURE LIST*
%ADD10C,0.050000*%
G04 APERTURE END LIST*
D10*
%TO.C,U6*%
X188770000Y-71175000D02*
X188770000Y-81875000D01*
X188770000Y-81875000D02*
X198570000Y-81875000D01*
X198570000Y-71175000D02*
X188770000Y-71175000D01*
X198570000Y-81875000D02*
X198570000Y-71175000D01*
%TO.C,R15*%
X186670000Y-71925000D02*
X188130000Y-71925000D01*
X186670000Y-75225000D02*
X186670000Y-71925000D01*
X188130000Y-71925000D02*
X188130000Y-75225000D01*
X188130000Y-75225000D02*
X186670000Y-75225000D01*
%TO.C,J2*%
X204325000Y-75050000D02*
X204325000Y-95950000D01*
X204325000Y-95950000D02*
X211075000Y-95950000D01*
X211075000Y-75050000D02*
X204325000Y-75050000D01*
X211075000Y-95950000D02*
X211075000Y-75050000D01*
%TO.C,U7*%
X163630000Y-70005000D02*
X163630000Y-73605000D01*
X163630000Y-73605000D02*
X179930000Y-73605000D01*
X166192000Y-90325000D02*
X166192000Y-93925000D01*
X166192000Y-93925000D02*
X177390000Y-93925000D01*
X177390000Y-90325000D02*
X166192000Y-90325000D01*
X177390000Y-93925000D02*
X177390000Y-90325000D01*
X179930000Y-70005000D02*
X163630000Y-70005000D01*
X179930000Y-73605000D02*
X179930000Y-70005000D01*
%TO.C,C4*%
X186670000Y-66439300D02*
X188130000Y-66439300D01*
X186670000Y-69739300D02*
X186670000Y-66439300D01*
X188130000Y-66439300D02*
X188130000Y-69739300D01*
X188130000Y-69739300D02*
X186670000Y-69739300D01*
%TO.C,C5*%
X183445000Y-86348300D02*
X184905000Y-86348300D01*
X183445000Y-89648300D02*
X183445000Y-86348300D01*
X184905000Y-86348300D02*
X184905000Y-89648300D01*
X184905000Y-89648300D02*
X183445000Y-89648300D01*
%TO.C,J3*%
X161555000Y-59932500D02*
X161555000Y-68392500D01*
X161555000Y-68392500D02*
X183788200Y-68416100D01*
X183775000Y-59932500D02*
X161555000Y-59932500D01*
X183788200Y-68416100D02*
X183775000Y-59932500D01*
%TO.C,R8*%
X199545000Y-83637500D02*
X201005000Y-83637500D01*
X199545000Y-86937500D02*
X199545000Y-83637500D01*
X201005000Y-83637500D02*
X201005000Y-86937500D01*
X201005000Y-86937500D02*
X199545000Y-86937500D01*
%TO.C,C7*%
X205825000Y-68750000D02*
X207175000Y-68750000D01*
X205825000Y-72400000D02*
X205825000Y-68750000D01*
X206975000Y-73550000D02*
X205825000Y-72400000D01*
X206975000Y-73550000D02*
X207175000Y-73550000D01*
X207175000Y-67900000D02*
X209275000Y-67900000D01*
X207175000Y-68750000D02*
X207175000Y-67900000D01*
X207175000Y-73550000D02*
X207175000Y-74400000D01*
X207175000Y-74400000D02*
X209275000Y-74400000D01*
X209275000Y-67900000D02*
X209275000Y-68750000D01*
X209275000Y-68750000D02*
X210625000Y-68750000D01*
X209275000Y-73550000D02*
X209475000Y-73550000D01*
X209275000Y-74400000D02*
X209275000Y-73550000D01*
X209475000Y-73550000D02*
X210625000Y-72400000D01*
X210625000Y-72400000D02*
X210625000Y-68750000D01*
%TO.C,U4*%
X188770000Y-59900000D02*
X188770000Y-70600000D01*
X188770000Y-70600000D02*
X198570000Y-70600000D01*
X198570000Y-59900000D02*
X188770000Y-59900000D01*
X198570000Y-70600000D02*
X198570000Y-59900000D01*
%TO.C,C6*%
X161325000Y-97600000D02*
X162675000Y-97600000D01*
X161325000Y-101250000D02*
X161325000Y-97600000D01*
X162475000Y-102400000D02*
X161325000Y-101250000D01*
X162475000Y-102400000D02*
X162675000Y-102400000D01*
X162675000Y-96750000D02*
X164775000Y-96750000D01*
X162675000Y-97600000D02*
X162675000Y-96750000D01*
X162675000Y-102400000D02*
X162675000Y-103250000D01*
X162675000Y-103250000D02*
X164775000Y-103250000D01*
X164775000Y-96750000D02*
X164775000Y-97600000D01*
X164775000Y-97600000D02*
X166125000Y-97600000D01*
X164775000Y-102400000D02*
X164975000Y-102400000D01*
X164775000Y-103250000D02*
X164775000Y-102400000D01*
X164975000Y-102400000D02*
X166125000Y-101250000D01*
X166125000Y-101250000D02*
X166125000Y-97600000D01*
%TO.C,U8*%
X188770000Y-87974200D02*
X188770000Y-98674200D01*
X188770000Y-98674200D02*
X198570000Y-98674200D01*
X198570000Y-87974200D02*
X188770000Y-87974200D01*
X198570000Y-98674200D02*
X198570000Y-87974200D01*
%TO.C,J1*%
X162750000Y-103800000D02*
X162750000Y-110550000D01*
X162750000Y-110550000D02*
X183650000Y-110550000D01*
X183650000Y-103800000D02*
X162750000Y-103800000D01*
X183650000Y-110550000D02*
X183650000Y-103800000D01*
%TO.C,J4*%
X166185000Y-95405000D02*
X177385000Y-95405000D01*
X166185000Y-98955000D02*
X166185000Y-95405000D01*
X177385000Y-95405000D02*
X177385000Y-98955000D01*
X177385000Y-98955000D02*
X166185000Y-98955000D01*
%TO.C,U9*%
X188770000Y-99556600D02*
X188770000Y-110256600D01*
X188770000Y-110256600D02*
X198570000Y-110256600D01*
X198570000Y-99556600D02*
X188770000Y-99556600D01*
X198570000Y-110256600D02*
X198570000Y-99556600D01*
%TO.C,C3*%
X185295000Y-86350000D02*
X186755000Y-86350000D01*
X185295000Y-89650000D02*
X185295000Y-86350000D01*
X186755000Y-86350000D02*
X186755000Y-89650000D01*
X186755000Y-89650000D02*
X185295000Y-89650000D01*
%TO.C,R10*%
X186670000Y-60650000D02*
X188130000Y-60650000D01*
X186670000Y-63950000D02*
X186670000Y-60650000D01*
X188130000Y-60650000D02*
X188130000Y-63950000D01*
X188130000Y-63950000D02*
X186670000Y-63950000D01*
%TD*%
M02*
