%TF.GenerationSoftware,KiCad,Pcbnew,8.0.3*%
%TF.CreationDate,2024-06-13T16:05:25+05:30*%
%TF.ProjectId,OptoIsolation,4f70746f-4973-46f6-9c61-74696f6e2e6b,rev?*%
%TF.SameCoordinates,Original*%
%TF.FileFunction,Profile,NP*%
%FSLAX46Y46*%
G04 Gerber Fmt 4.6, Leading zero omitted, Abs format (unit mm)*
G04 Created by KiCad (PCBNEW 8.0.3) date 2024-06-13 16:05:25*
%MOMM*%
%LPD*%
G01*
G04 APERTURE LIST*
%TA.AperFunction,Profile*%
%ADD10C,0.050000*%
%TD*%
%TA.AperFunction,Profile*%
%ADD11C,0.100000*%
%TD*%
G04 APERTURE END LIST*
D10*
X195075000Y-81525000D02*
X195554999Y-81525001D01*
X192600000Y-109624998D02*
G75*
G02*
X192350000Y-109875000I-250000J-2D01*
G01*
X195804999Y-81275001D02*
X195804998Y-71775002D01*
X195504998Y-88350002D02*
X195024999Y-88350001D01*
X192600000Y-109624998D02*
X192600000Y-100125000D01*
X191520001Y-60498001D02*
G75*
G02*
X191770001Y-60248001I249999J1D01*
G01*
X195504998Y-88350002D02*
G75*
G02*
X195754998Y-88600002I2J-249998D01*
G01*
X192350000Y-99875000D02*
X191870001Y-99874999D01*
D11*
X211112200Y-61121598D02*
X211112200Y-109096400D01*
D10*
X195075000Y-81525000D02*
G75*
G02*
X194825000Y-81275000I0J250000D01*
G01*
X194825000Y-71775002D02*
G75*
G02*
X195075000Y-71525000I250000J2D01*
G01*
X194774999Y-88600001D02*
G75*
G02*
X195024999Y-88349999I250001J1D01*
G01*
D11*
X161110000Y-61110000D02*
G75*
G02*
X162910000Y-59310000I1800000J0D01*
G01*
D10*
X195804999Y-81275001D02*
G75*
G02*
X195554999Y-81524999I-249999J1D01*
G01*
X192245000Y-82700000D02*
X191765002Y-82700000D01*
X191770000Y-87225000D02*
X192249999Y-87225001D01*
X192249999Y-60248001D02*
X191770001Y-60248001D01*
X191770001Y-70247999D02*
X192250000Y-70248000D01*
X191770000Y-87225000D02*
G75*
G02*
X191520000Y-86975000I0J250000D01*
G01*
D11*
X209312200Y-110896400D02*
X162912198Y-110896400D01*
D10*
X195025000Y-98350000D02*
G75*
G02*
X194775000Y-98100000I0J250000D01*
G01*
D11*
X211112200Y-109096400D02*
G75*
G02*
X209312200Y-110896400I-1800000J0D01*
G01*
D10*
X192499999Y-86975001D02*
X192495000Y-82950000D01*
X192245000Y-82700000D02*
G75*
G02*
X192495000Y-82950000I0J-250000D01*
G01*
D11*
X161112198Y-109096400D02*
X161110000Y-61110000D01*
D10*
X191515002Y-82950000D02*
X191520000Y-86975000D01*
D11*
X162910000Y-59310000D02*
X209312200Y-59321598D01*
D10*
X191620001Y-100124999D02*
G75*
G02*
X191870001Y-99875001I249999J-1D01*
G01*
X194774999Y-88600001D02*
X194775000Y-98100000D01*
X195554998Y-71525002D02*
X195075000Y-71525002D01*
X192499999Y-86975001D02*
G75*
G02*
X192249999Y-87224999I-249999J1D01*
G01*
X192500000Y-69998000D02*
G75*
G02*
X192250000Y-70248000I-250000J0D01*
G01*
X191515002Y-82950000D02*
G75*
G02*
X191765002Y-82700002I249998J0D01*
G01*
X191870002Y-109874998D02*
X192350000Y-109874998D01*
X195025000Y-98350000D02*
X195504998Y-98350000D01*
X195554998Y-71525002D02*
G75*
G02*
X195804998Y-71775002I2J-249998D01*
G01*
X195754998Y-98100000D02*
G75*
G02*
X195504998Y-98349998I-249998J0D01*
G01*
X195754998Y-98100000D02*
X195754998Y-88600002D01*
X191620001Y-100124999D02*
X191620002Y-109624998D01*
D11*
X209312200Y-59321598D02*
G75*
G02*
X211112202Y-61121598I0J-1800002D01*
G01*
D10*
X192249999Y-60248001D02*
G75*
G02*
X192499999Y-60498001I1J-249999D01*
G01*
X192500000Y-69998000D02*
X192499999Y-60498001D01*
X194825000Y-71775002D02*
X194825000Y-81275000D01*
X192350000Y-99875000D02*
G75*
G02*
X192600000Y-100125000I0J-250000D01*
G01*
X191870002Y-109874998D02*
G75*
G02*
X191620002Y-109624998I-2J249998D01*
G01*
X191520001Y-60498001D02*
X191520001Y-69997999D01*
X191770001Y-70247999D02*
G75*
G02*
X191520001Y-69997999I-1J249999D01*
G01*
D11*
X162912198Y-110896400D02*
G75*
G02*
X161112200Y-109096400I2J1800000D01*
G01*
M02*
