%TF.GenerationSoftware,KiCad,Pcbnew,8.0.3*%
%TF.CreationDate,2024-06-13T16:05:26+05:30*%
%TF.ProjectId,OptoIsolation,4f70746f-4973-46f6-9c61-74696f6e2e6b,rev?*%
%TF.SameCoordinates,Original*%
%TF.FileFunction,AssemblyDrawing,Top*%
%FSLAX46Y46*%
G04 Gerber Fmt 4.6, Leading zero omitted, Abs format (unit mm)*
G04 Created by KiCad (PCBNEW 8.0.3) date 2024-06-13 16:05:26*
%MOMM*%
%LPD*%
G01*
G04 APERTURE LIST*
%ADD10C,0.150000*%
%ADD11C,0.060000*%
%ADD12C,0.120000*%
%ADD13C,0.100000*%
G04 APERTURE END LIST*
D10*
X192898095Y-75969819D02*
X192898095Y-76779342D01*
X192898095Y-76779342D02*
X192945714Y-76874580D01*
X192945714Y-76874580D02*
X192993333Y-76922200D01*
X192993333Y-76922200D02*
X193088571Y-76969819D01*
X193088571Y-76969819D02*
X193279047Y-76969819D01*
X193279047Y-76969819D02*
X193374285Y-76922200D01*
X193374285Y-76922200D02*
X193421904Y-76874580D01*
X193421904Y-76874580D02*
X193469523Y-76779342D01*
X193469523Y-76779342D02*
X193469523Y-75969819D01*
X194374285Y-75969819D02*
X194183809Y-75969819D01*
X194183809Y-75969819D02*
X194088571Y-76017438D01*
X194088571Y-76017438D02*
X194040952Y-76065057D01*
X194040952Y-76065057D02*
X193945714Y-76207914D01*
X193945714Y-76207914D02*
X193898095Y-76398390D01*
X193898095Y-76398390D02*
X193898095Y-76779342D01*
X193898095Y-76779342D02*
X193945714Y-76874580D01*
X193945714Y-76874580D02*
X193993333Y-76922200D01*
X193993333Y-76922200D02*
X194088571Y-76969819D01*
X194088571Y-76969819D02*
X194279047Y-76969819D01*
X194279047Y-76969819D02*
X194374285Y-76922200D01*
X194374285Y-76922200D02*
X194421904Y-76874580D01*
X194421904Y-76874580D02*
X194469523Y-76779342D01*
X194469523Y-76779342D02*
X194469523Y-76541247D01*
X194469523Y-76541247D02*
X194421904Y-76446009D01*
X194421904Y-76446009D02*
X194374285Y-76398390D01*
X194374285Y-76398390D02*
X194279047Y-76350771D01*
X194279047Y-76350771D02*
X194088571Y-76350771D01*
X194088571Y-76350771D02*
X193993333Y-76398390D01*
X193993333Y-76398390D02*
X193945714Y-76446009D01*
X193945714Y-76446009D02*
X193898095Y-76541247D01*
D11*
X187581927Y-73832142D02*
X187391451Y-73965475D01*
X187581927Y-74060713D02*
X187181927Y-74060713D01*
X187181927Y-74060713D02*
X187181927Y-73908332D01*
X187181927Y-73908332D02*
X187200975Y-73870237D01*
X187200975Y-73870237D02*
X187220022Y-73851190D01*
X187220022Y-73851190D02*
X187258118Y-73832142D01*
X187258118Y-73832142D02*
X187315260Y-73832142D01*
X187315260Y-73832142D02*
X187353356Y-73851190D01*
X187353356Y-73851190D02*
X187372403Y-73870237D01*
X187372403Y-73870237D02*
X187391451Y-73908332D01*
X187391451Y-73908332D02*
X187391451Y-74060713D01*
X187581927Y-73451190D02*
X187581927Y-73679761D01*
X187581927Y-73565475D02*
X187181927Y-73565475D01*
X187181927Y-73565475D02*
X187239070Y-73603571D01*
X187239070Y-73603571D02*
X187277165Y-73641666D01*
X187277165Y-73641666D02*
X187296213Y-73679761D01*
X187181927Y-73089285D02*
X187181927Y-73279761D01*
X187181927Y-73279761D02*
X187372403Y-73298809D01*
X187372403Y-73298809D02*
X187353356Y-73279761D01*
X187353356Y-73279761D02*
X187334308Y-73241666D01*
X187334308Y-73241666D02*
X187334308Y-73146428D01*
X187334308Y-73146428D02*
X187353356Y-73108333D01*
X187353356Y-73108333D02*
X187372403Y-73089285D01*
X187372403Y-73089285D02*
X187410499Y-73070238D01*
X187410499Y-73070238D02*
X187505737Y-73070238D01*
X187505737Y-73070238D02*
X187543832Y-73089285D01*
X187543832Y-73089285D02*
X187562880Y-73108333D01*
X187562880Y-73108333D02*
X187581927Y-73146428D01*
X187581927Y-73146428D02*
X187581927Y-73241666D01*
X187581927Y-73241666D02*
X187562880Y-73279761D01*
X187562880Y-73279761D02*
X187543832Y-73298809D01*
D10*
X204979819Y-85833333D02*
X205694104Y-85833333D01*
X205694104Y-85833333D02*
X205836961Y-85880952D01*
X205836961Y-85880952D02*
X205932200Y-85976190D01*
X205932200Y-85976190D02*
X205979819Y-86119047D01*
X205979819Y-86119047D02*
X205979819Y-86214285D01*
X205075057Y-85404761D02*
X205027438Y-85357142D01*
X205027438Y-85357142D02*
X204979819Y-85261904D01*
X204979819Y-85261904D02*
X204979819Y-85023809D01*
X204979819Y-85023809D02*
X205027438Y-84928571D01*
X205027438Y-84928571D02*
X205075057Y-84880952D01*
X205075057Y-84880952D02*
X205170295Y-84833333D01*
X205170295Y-84833333D02*
X205265533Y-84833333D01*
X205265533Y-84833333D02*
X205408390Y-84880952D01*
X205408390Y-84880952D02*
X205979819Y-85452380D01*
X205979819Y-85452380D02*
X205979819Y-84833333D01*
X169748095Y-91579819D02*
X169748095Y-92389342D01*
X169748095Y-92389342D02*
X169795714Y-92484580D01*
X169795714Y-92484580D02*
X169843333Y-92532200D01*
X169843333Y-92532200D02*
X169938571Y-92579819D01*
X169938571Y-92579819D02*
X170129047Y-92579819D01*
X170129047Y-92579819D02*
X170224285Y-92532200D01*
X170224285Y-92532200D02*
X170271904Y-92484580D01*
X170271904Y-92484580D02*
X170319523Y-92389342D01*
X170319523Y-92389342D02*
X170319523Y-91579819D01*
X170700476Y-91579819D02*
X171367142Y-91579819D01*
X171367142Y-91579819D02*
X170938571Y-92579819D01*
X171018095Y-71259819D02*
X171018095Y-72069342D01*
X171018095Y-72069342D02*
X171065714Y-72164580D01*
X171065714Y-72164580D02*
X171113333Y-72212200D01*
X171113333Y-72212200D02*
X171208571Y-72259819D01*
X171208571Y-72259819D02*
X171399047Y-72259819D01*
X171399047Y-72259819D02*
X171494285Y-72212200D01*
X171494285Y-72212200D02*
X171541904Y-72164580D01*
X171541904Y-72164580D02*
X171589523Y-72069342D01*
X171589523Y-72069342D02*
X171589523Y-71259819D01*
X171970476Y-71259819D02*
X172637142Y-71259819D01*
X172637142Y-71259819D02*
X172208571Y-72259819D01*
D11*
X187543832Y-68155966D02*
X187562880Y-68175014D01*
X187562880Y-68175014D02*
X187581927Y-68232156D01*
X187581927Y-68232156D02*
X187581927Y-68270252D01*
X187581927Y-68270252D02*
X187562880Y-68327395D01*
X187562880Y-68327395D02*
X187524784Y-68365490D01*
X187524784Y-68365490D02*
X187486689Y-68384537D01*
X187486689Y-68384537D02*
X187410499Y-68403585D01*
X187410499Y-68403585D02*
X187353356Y-68403585D01*
X187353356Y-68403585D02*
X187277165Y-68384537D01*
X187277165Y-68384537D02*
X187239070Y-68365490D01*
X187239070Y-68365490D02*
X187200975Y-68327395D01*
X187200975Y-68327395D02*
X187181927Y-68270252D01*
X187181927Y-68270252D02*
X187181927Y-68232156D01*
X187181927Y-68232156D02*
X187200975Y-68175014D01*
X187200975Y-68175014D02*
X187220022Y-68155966D01*
X187315260Y-67813109D02*
X187581927Y-67813109D01*
X187162880Y-67908347D02*
X187448594Y-68003585D01*
X187448594Y-68003585D02*
X187448594Y-67755966D01*
X184318832Y-88064966D02*
X184337880Y-88084014D01*
X184337880Y-88084014D02*
X184356927Y-88141156D01*
X184356927Y-88141156D02*
X184356927Y-88179252D01*
X184356927Y-88179252D02*
X184337880Y-88236395D01*
X184337880Y-88236395D02*
X184299784Y-88274490D01*
X184299784Y-88274490D02*
X184261689Y-88293537D01*
X184261689Y-88293537D02*
X184185499Y-88312585D01*
X184185499Y-88312585D02*
X184128356Y-88312585D01*
X184128356Y-88312585D02*
X184052165Y-88293537D01*
X184052165Y-88293537D02*
X184014070Y-88274490D01*
X184014070Y-88274490D02*
X183975975Y-88236395D01*
X183975975Y-88236395D02*
X183956927Y-88179252D01*
X183956927Y-88179252D02*
X183956927Y-88141156D01*
X183956927Y-88141156D02*
X183975975Y-88084014D01*
X183975975Y-88084014D02*
X183995022Y-88064966D01*
X183956927Y-87703061D02*
X183956927Y-87893537D01*
X183956927Y-87893537D02*
X184147403Y-87912585D01*
X184147403Y-87912585D02*
X184128356Y-87893537D01*
X184128356Y-87893537D02*
X184109308Y-87855442D01*
X184109308Y-87855442D02*
X184109308Y-87760204D01*
X184109308Y-87760204D02*
X184128356Y-87722109D01*
X184128356Y-87722109D02*
X184147403Y-87703061D01*
X184147403Y-87703061D02*
X184185499Y-87684014D01*
X184185499Y-87684014D02*
X184280737Y-87684014D01*
X184280737Y-87684014D02*
X184318832Y-87703061D01*
X184318832Y-87703061D02*
X184337880Y-87722109D01*
X184337880Y-87722109D02*
X184356927Y-87760204D01*
X184356927Y-87760204D02*
X184356927Y-87855442D01*
X184356927Y-87855442D02*
X184337880Y-87893537D01*
X184337880Y-87893537D02*
X184318832Y-87912585D01*
D10*
X172331666Y-67037319D02*
X172331666Y-67751604D01*
X172331666Y-67751604D02*
X172284047Y-67894461D01*
X172284047Y-67894461D02*
X172188809Y-67989700D01*
X172188809Y-67989700D02*
X172045952Y-68037319D01*
X172045952Y-68037319D02*
X171950714Y-68037319D01*
X172712619Y-67037319D02*
X173331666Y-67037319D01*
X173331666Y-67037319D02*
X172998333Y-67418271D01*
X172998333Y-67418271D02*
X173141190Y-67418271D01*
X173141190Y-67418271D02*
X173236428Y-67465890D01*
X173236428Y-67465890D02*
X173284047Y-67513509D01*
X173284047Y-67513509D02*
X173331666Y-67608747D01*
X173331666Y-67608747D02*
X173331666Y-67846842D01*
X173331666Y-67846842D02*
X173284047Y-67942080D01*
X173284047Y-67942080D02*
X173236428Y-67989700D01*
X173236428Y-67989700D02*
X173141190Y-68037319D01*
X173141190Y-68037319D02*
X172855476Y-68037319D01*
X172855476Y-68037319D02*
X172760238Y-67989700D01*
X172760238Y-67989700D02*
X172712619Y-67942080D01*
D11*
X200995800Y-85249066D02*
X200805324Y-85382399D01*
X200995800Y-85477637D02*
X200595800Y-85477637D01*
X200595800Y-85477637D02*
X200595800Y-85325256D01*
X200595800Y-85325256D02*
X200614848Y-85287161D01*
X200614848Y-85287161D02*
X200633895Y-85268114D01*
X200633895Y-85268114D02*
X200671991Y-85249066D01*
X200671991Y-85249066D02*
X200729133Y-85249066D01*
X200729133Y-85249066D02*
X200767229Y-85268114D01*
X200767229Y-85268114D02*
X200786276Y-85287161D01*
X200786276Y-85287161D02*
X200805324Y-85325256D01*
X200805324Y-85325256D02*
X200805324Y-85477637D01*
X200767229Y-85020495D02*
X200748181Y-85058590D01*
X200748181Y-85058590D02*
X200729133Y-85077637D01*
X200729133Y-85077637D02*
X200691038Y-85096685D01*
X200691038Y-85096685D02*
X200671991Y-85096685D01*
X200671991Y-85096685D02*
X200633895Y-85077637D01*
X200633895Y-85077637D02*
X200614848Y-85058590D01*
X200614848Y-85058590D02*
X200595800Y-85020495D01*
X200595800Y-85020495D02*
X200595800Y-84944304D01*
X200595800Y-84944304D02*
X200614848Y-84906209D01*
X200614848Y-84906209D02*
X200633895Y-84887161D01*
X200633895Y-84887161D02*
X200671991Y-84868114D01*
X200671991Y-84868114D02*
X200691038Y-84868114D01*
X200691038Y-84868114D02*
X200729133Y-84887161D01*
X200729133Y-84887161D02*
X200748181Y-84906209D01*
X200748181Y-84906209D02*
X200767229Y-84944304D01*
X200767229Y-84944304D02*
X200767229Y-85020495D01*
X200767229Y-85020495D02*
X200786276Y-85058590D01*
X200786276Y-85058590D02*
X200805324Y-85077637D01*
X200805324Y-85077637D02*
X200843419Y-85096685D01*
X200843419Y-85096685D02*
X200919610Y-85096685D01*
X200919610Y-85096685D02*
X200957705Y-85077637D01*
X200957705Y-85077637D02*
X200976753Y-85058590D01*
X200976753Y-85058590D02*
X200995800Y-85020495D01*
X200995800Y-85020495D02*
X200995800Y-84944304D01*
X200995800Y-84944304D02*
X200976753Y-84906209D01*
X200976753Y-84906209D02*
X200957705Y-84887161D01*
X200957705Y-84887161D02*
X200919610Y-84868114D01*
X200919610Y-84868114D02*
X200843419Y-84868114D01*
X200843419Y-84868114D02*
X200805324Y-84887161D01*
X200805324Y-84887161D02*
X200786276Y-84906209D01*
X200786276Y-84906209D02*
X200767229Y-84944304D01*
D12*
X208512664Y-71283332D02*
X208550760Y-71321428D01*
X208550760Y-71321428D02*
X208588855Y-71435713D01*
X208588855Y-71435713D02*
X208588855Y-71511904D01*
X208588855Y-71511904D02*
X208550760Y-71626190D01*
X208550760Y-71626190D02*
X208474569Y-71702380D01*
X208474569Y-71702380D02*
X208398379Y-71740475D01*
X208398379Y-71740475D02*
X208245998Y-71778571D01*
X208245998Y-71778571D02*
X208131712Y-71778571D01*
X208131712Y-71778571D02*
X207979331Y-71740475D01*
X207979331Y-71740475D02*
X207903140Y-71702380D01*
X207903140Y-71702380D02*
X207826950Y-71626190D01*
X207826950Y-71626190D02*
X207788855Y-71511904D01*
X207788855Y-71511904D02*
X207788855Y-71435713D01*
X207788855Y-71435713D02*
X207826950Y-71321428D01*
X207826950Y-71321428D02*
X207865045Y-71283332D01*
X207788855Y-71016666D02*
X207788855Y-70483332D01*
X207788855Y-70483332D02*
X208588855Y-70826190D01*
D10*
X192898095Y-64694819D02*
X192898095Y-65504342D01*
X192898095Y-65504342D02*
X192945714Y-65599580D01*
X192945714Y-65599580D02*
X192993333Y-65647200D01*
X192993333Y-65647200D02*
X193088571Y-65694819D01*
X193088571Y-65694819D02*
X193279047Y-65694819D01*
X193279047Y-65694819D02*
X193374285Y-65647200D01*
X193374285Y-65647200D02*
X193421904Y-65599580D01*
X193421904Y-65599580D02*
X193469523Y-65504342D01*
X193469523Y-65504342D02*
X193469523Y-64694819D01*
X194374285Y-65028152D02*
X194374285Y-65694819D01*
X194136190Y-64647200D02*
X193898095Y-65361485D01*
X193898095Y-65361485D02*
X194517142Y-65361485D01*
D12*
X164012664Y-100133332D02*
X164050760Y-100171428D01*
X164050760Y-100171428D02*
X164088855Y-100285713D01*
X164088855Y-100285713D02*
X164088855Y-100361904D01*
X164088855Y-100361904D02*
X164050760Y-100476190D01*
X164050760Y-100476190D02*
X163974569Y-100552380D01*
X163974569Y-100552380D02*
X163898379Y-100590475D01*
X163898379Y-100590475D02*
X163745998Y-100628571D01*
X163745998Y-100628571D02*
X163631712Y-100628571D01*
X163631712Y-100628571D02*
X163479331Y-100590475D01*
X163479331Y-100590475D02*
X163403140Y-100552380D01*
X163403140Y-100552380D02*
X163326950Y-100476190D01*
X163326950Y-100476190D02*
X163288855Y-100361904D01*
X163288855Y-100361904D02*
X163288855Y-100285713D01*
X163288855Y-100285713D02*
X163326950Y-100171428D01*
X163326950Y-100171428D02*
X163365045Y-100133332D01*
X163288855Y-99447618D02*
X163288855Y-99599999D01*
X163288855Y-99599999D02*
X163326950Y-99676190D01*
X163326950Y-99676190D02*
X163365045Y-99714285D01*
X163365045Y-99714285D02*
X163479331Y-99790475D01*
X163479331Y-99790475D02*
X163631712Y-99828571D01*
X163631712Y-99828571D02*
X163936474Y-99828571D01*
X163936474Y-99828571D02*
X164012664Y-99790475D01*
X164012664Y-99790475D02*
X164050760Y-99752380D01*
X164050760Y-99752380D02*
X164088855Y-99676190D01*
X164088855Y-99676190D02*
X164088855Y-99523809D01*
X164088855Y-99523809D02*
X164050760Y-99447618D01*
X164050760Y-99447618D02*
X164012664Y-99409523D01*
X164012664Y-99409523D02*
X163936474Y-99371428D01*
X163936474Y-99371428D02*
X163745998Y-99371428D01*
X163745998Y-99371428D02*
X163669807Y-99409523D01*
X163669807Y-99409523D02*
X163631712Y-99447618D01*
X163631712Y-99447618D02*
X163593617Y-99523809D01*
X163593617Y-99523809D02*
X163593617Y-99676190D01*
X163593617Y-99676190D02*
X163631712Y-99752380D01*
X163631712Y-99752380D02*
X163669807Y-99790475D01*
X163669807Y-99790475D02*
X163745998Y-99828571D01*
D10*
X192898095Y-92769019D02*
X192898095Y-93578542D01*
X192898095Y-93578542D02*
X192945714Y-93673780D01*
X192945714Y-93673780D02*
X192993333Y-93721400D01*
X192993333Y-93721400D02*
X193088571Y-93769019D01*
X193088571Y-93769019D02*
X193279047Y-93769019D01*
X193279047Y-93769019D02*
X193374285Y-93721400D01*
X193374285Y-93721400D02*
X193421904Y-93673780D01*
X193421904Y-93673780D02*
X193469523Y-93578542D01*
X193469523Y-93578542D02*
X193469523Y-92769019D01*
X194088571Y-93197590D02*
X193993333Y-93149971D01*
X193993333Y-93149971D02*
X193945714Y-93102352D01*
X193945714Y-93102352D02*
X193898095Y-93007114D01*
X193898095Y-93007114D02*
X193898095Y-92959495D01*
X193898095Y-92959495D02*
X193945714Y-92864257D01*
X193945714Y-92864257D02*
X193993333Y-92816638D01*
X193993333Y-92816638D02*
X194088571Y-92769019D01*
X194088571Y-92769019D02*
X194279047Y-92769019D01*
X194279047Y-92769019D02*
X194374285Y-92816638D01*
X194374285Y-92816638D02*
X194421904Y-92864257D01*
X194421904Y-92864257D02*
X194469523Y-92959495D01*
X194469523Y-92959495D02*
X194469523Y-93007114D01*
X194469523Y-93007114D02*
X194421904Y-93102352D01*
X194421904Y-93102352D02*
X194374285Y-93149971D01*
X194374285Y-93149971D02*
X194279047Y-93197590D01*
X194279047Y-93197590D02*
X194088571Y-93197590D01*
X194088571Y-93197590D02*
X193993333Y-93245209D01*
X193993333Y-93245209D02*
X193945714Y-93292828D01*
X193945714Y-93292828D02*
X193898095Y-93388066D01*
X193898095Y-93388066D02*
X193898095Y-93578542D01*
X193898095Y-93578542D02*
X193945714Y-93673780D01*
X193945714Y-93673780D02*
X193993333Y-93721400D01*
X193993333Y-93721400D02*
X194088571Y-93769019D01*
X194088571Y-93769019D02*
X194279047Y-93769019D01*
X194279047Y-93769019D02*
X194374285Y-93721400D01*
X194374285Y-93721400D02*
X194421904Y-93673780D01*
X194421904Y-93673780D02*
X194469523Y-93578542D01*
X194469523Y-93578542D02*
X194469523Y-93388066D01*
X194469523Y-93388066D02*
X194421904Y-93292828D01*
X194421904Y-93292828D02*
X194374285Y-93245209D01*
X194374285Y-93245209D02*
X194279047Y-93197590D01*
X172866666Y-104454819D02*
X172866666Y-105169104D01*
X172866666Y-105169104D02*
X172819047Y-105311961D01*
X172819047Y-105311961D02*
X172723809Y-105407200D01*
X172723809Y-105407200D02*
X172580952Y-105454819D01*
X172580952Y-105454819D02*
X172485714Y-105454819D01*
X173866666Y-105454819D02*
X173295238Y-105454819D01*
X173580952Y-105454819D02*
X173580952Y-104454819D01*
X173580952Y-104454819D02*
X173485714Y-104597676D01*
X173485714Y-104597676D02*
X173390476Y-104692914D01*
X173390476Y-104692914D02*
X173295238Y-104740533D01*
X171441666Y-96659819D02*
X171441666Y-97374104D01*
X171441666Y-97374104D02*
X171394047Y-97516961D01*
X171394047Y-97516961D02*
X171298809Y-97612200D01*
X171298809Y-97612200D02*
X171155952Y-97659819D01*
X171155952Y-97659819D02*
X171060714Y-97659819D01*
X172346428Y-96993152D02*
X172346428Y-97659819D01*
X172108333Y-96612200D02*
X171870238Y-97326485D01*
X171870238Y-97326485D02*
X172489285Y-97326485D01*
X192918095Y-104371419D02*
X192918095Y-105180942D01*
X192918095Y-105180942D02*
X192965714Y-105276180D01*
X192965714Y-105276180D02*
X193013333Y-105323800D01*
X193013333Y-105323800D02*
X193108571Y-105371419D01*
X193108571Y-105371419D02*
X193299047Y-105371419D01*
X193299047Y-105371419D02*
X193394285Y-105323800D01*
X193394285Y-105323800D02*
X193441904Y-105276180D01*
X193441904Y-105276180D02*
X193489523Y-105180942D01*
X193489523Y-105180942D02*
X193489523Y-104371419D01*
X194013333Y-105371419D02*
X194203809Y-105371419D01*
X194203809Y-105371419D02*
X194299047Y-105323800D01*
X194299047Y-105323800D02*
X194346666Y-105276180D01*
X194346666Y-105276180D02*
X194441904Y-105133323D01*
X194441904Y-105133323D02*
X194489523Y-104942847D01*
X194489523Y-104942847D02*
X194489523Y-104561895D01*
X194489523Y-104561895D02*
X194441904Y-104466657D01*
X194441904Y-104466657D02*
X194394285Y-104419038D01*
X194394285Y-104419038D02*
X194299047Y-104371419D01*
X194299047Y-104371419D02*
X194108571Y-104371419D01*
X194108571Y-104371419D02*
X194013333Y-104419038D01*
X194013333Y-104419038D02*
X193965714Y-104466657D01*
X193965714Y-104466657D02*
X193918095Y-104561895D01*
X193918095Y-104561895D02*
X193918095Y-104799990D01*
X193918095Y-104799990D02*
X193965714Y-104895228D01*
X193965714Y-104895228D02*
X194013333Y-104942847D01*
X194013333Y-104942847D02*
X194108571Y-104990466D01*
X194108571Y-104990466D02*
X194299047Y-104990466D01*
X194299047Y-104990466D02*
X194394285Y-104942847D01*
X194394285Y-104942847D02*
X194441904Y-104895228D01*
X194441904Y-104895228D02*
X194489523Y-104799990D01*
D11*
X186168832Y-88066666D02*
X186187880Y-88085714D01*
X186187880Y-88085714D02*
X186206927Y-88142856D01*
X186206927Y-88142856D02*
X186206927Y-88180952D01*
X186206927Y-88180952D02*
X186187880Y-88238095D01*
X186187880Y-88238095D02*
X186149784Y-88276190D01*
X186149784Y-88276190D02*
X186111689Y-88295237D01*
X186111689Y-88295237D02*
X186035499Y-88314285D01*
X186035499Y-88314285D02*
X185978356Y-88314285D01*
X185978356Y-88314285D02*
X185902165Y-88295237D01*
X185902165Y-88295237D02*
X185864070Y-88276190D01*
X185864070Y-88276190D02*
X185825975Y-88238095D01*
X185825975Y-88238095D02*
X185806927Y-88180952D01*
X185806927Y-88180952D02*
X185806927Y-88142856D01*
X185806927Y-88142856D02*
X185825975Y-88085714D01*
X185825975Y-88085714D02*
X185845022Y-88066666D01*
X185806927Y-87933333D02*
X185806927Y-87685714D01*
X185806927Y-87685714D02*
X185959308Y-87819047D01*
X185959308Y-87819047D02*
X185959308Y-87761904D01*
X185959308Y-87761904D02*
X185978356Y-87723809D01*
X185978356Y-87723809D02*
X185997403Y-87704761D01*
X185997403Y-87704761D02*
X186035499Y-87685714D01*
X186035499Y-87685714D02*
X186130737Y-87685714D01*
X186130737Y-87685714D02*
X186168832Y-87704761D01*
X186168832Y-87704761D02*
X186187880Y-87723809D01*
X186187880Y-87723809D02*
X186206927Y-87761904D01*
X186206927Y-87761904D02*
X186206927Y-87876190D01*
X186206927Y-87876190D02*
X186187880Y-87914285D01*
X186187880Y-87914285D02*
X186168832Y-87933333D01*
X187581927Y-62557142D02*
X187391451Y-62690475D01*
X187581927Y-62785713D02*
X187181927Y-62785713D01*
X187181927Y-62785713D02*
X187181927Y-62633332D01*
X187181927Y-62633332D02*
X187200975Y-62595237D01*
X187200975Y-62595237D02*
X187220022Y-62576190D01*
X187220022Y-62576190D02*
X187258118Y-62557142D01*
X187258118Y-62557142D02*
X187315260Y-62557142D01*
X187315260Y-62557142D02*
X187353356Y-62576190D01*
X187353356Y-62576190D02*
X187372403Y-62595237D01*
X187372403Y-62595237D02*
X187391451Y-62633332D01*
X187391451Y-62633332D02*
X187391451Y-62785713D01*
X187581927Y-62176190D02*
X187581927Y-62404761D01*
X187581927Y-62290475D02*
X187181927Y-62290475D01*
X187181927Y-62290475D02*
X187239070Y-62328571D01*
X187239070Y-62328571D02*
X187277165Y-62366666D01*
X187277165Y-62366666D02*
X187296213Y-62404761D01*
X187181927Y-61928571D02*
X187181927Y-61890476D01*
X187181927Y-61890476D02*
X187200975Y-61852380D01*
X187200975Y-61852380D02*
X187220022Y-61833333D01*
X187220022Y-61833333D02*
X187258118Y-61814285D01*
X187258118Y-61814285D02*
X187334308Y-61795238D01*
X187334308Y-61795238D02*
X187429546Y-61795238D01*
X187429546Y-61795238D02*
X187505737Y-61814285D01*
X187505737Y-61814285D02*
X187543832Y-61833333D01*
X187543832Y-61833333D02*
X187562880Y-61852380D01*
X187562880Y-61852380D02*
X187581927Y-61890476D01*
X187581927Y-61890476D02*
X187581927Y-61928571D01*
X187581927Y-61928571D02*
X187562880Y-61966666D01*
X187562880Y-61966666D02*
X187543832Y-61985714D01*
X187543832Y-61985714D02*
X187505737Y-62004761D01*
X187505737Y-62004761D02*
X187429546Y-62023809D01*
X187429546Y-62023809D02*
X187334308Y-62023809D01*
X187334308Y-62023809D02*
X187258118Y-62004761D01*
X187258118Y-62004761D02*
X187220022Y-61985714D01*
X187220022Y-61985714D02*
X187200975Y-61966666D01*
X187200975Y-61966666D02*
X187181927Y-61928571D01*
D13*
%TO.C,U6*%
X190485000Y-71435000D02*
X196835000Y-71435000D01*
X190485000Y-81595000D02*
X190485000Y-71435000D01*
X195835000Y-81595000D02*
X190485000Y-81595000D01*
X196835000Y-71435000D02*
X196835000Y-80595000D01*
X196835000Y-80595000D02*
X195835000Y-81595000D01*
%TO.C,R15*%
X186987500Y-72775000D02*
X187812500Y-72775000D01*
X186987500Y-74375000D02*
X186987500Y-72775000D01*
X187812500Y-72775000D02*
X187812500Y-74375000D01*
X187812500Y-74375000D02*
X186987500Y-74375000D01*
%TO.C,J2*%
X204825000Y-75550000D02*
X204825000Y-95450000D01*
X204825000Y-95450000D02*
X210575000Y-95450000D01*
X209575000Y-78000000D02*
X210575000Y-78625000D01*
X210575000Y-75550000D02*
X204825000Y-75550000D01*
X210575000Y-77375000D02*
X209575000Y-78000000D01*
X210575000Y-95450000D02*
X210575000Y-75550000D01*
%TO.C,U7*%
X164160000Y-70535000D02*
X178765000Y-70535000D01*
X164160000Y-73075000D02*
X164160000Y-70535000D01*
X166700000Y-90855000D02*
X176225000Y-90855000D01*
X166700000Y-93395000D02*
X166700000Y-90855000D01*
X176225000Y-90855000D02*
X176860000Y-91490000D01*
X176860000Y-91490000D02*
X176860000Y-93395000D01*
X176860000Y-93395000D02*
X166700000Y-93395000D01*
X178765000Y-70535000D02*
X179400000Y-71170000D01*
X179400000Y-71170000D02*
X179400000Y-73075000D01*
X179400000Y-73075000D02*
X164160000Y-73075000D01*
%TO.C,C4*%
X187000000Y-67289300D02*
X187800000Y-67289300D01*
X187000000Y-68889300D02*
X187000000Y-67289300D01*
X187800000Y-67289300D02*
X187800000Y-68889300D01*
X187800000Y-68889300D02*
X187000000Y-68889300D01*
%TO.C,C5*%
X183775000Y-87198300D02*
X184575000Y-87198300D01*
X183775000Y-88798300D02*
X183775000Y-87198300D01*
X184575000Y-87198300D02*
X184575000Y-88798300D01*
X184575000Y-88798300D02*
X183775000Y-88798300D01*
%TO.C,J3*%
X161665000Y-59932500D02*
X161665000Y-68282500D01*
X161665000Y-68282500D02*
X183665000Y-68282500D01*
X179215000Y-68282500D02*
X180165000Y-66782500D01*
X180165000Y-66782500D02*
X181115000Y-68282500D01*
X183555000Y-59932500D02*
X161555000Y-59932500D01*
X183727400Y-68341700D02*
X183775000Y-59932500D01*
%TO.C,R8*%
X199862500Y-84487500D02*
X200687500Y-84487500D01*
X199862500Y-86087500D02*
X199862500Y-84487500D01*
X200687500Y-84487500D02*
X200687500Y-86087500D01*
X200687500Y-86087500D02*
X199862500Y-86087500D01*
%TO.C,C7*%
X206075000Y-69000000D02*
X210375000Y-69000000D01*
X206075000Y-72300000D02*
X206075000Y-69000000D01*
X207075000Y-73300000D02*
X206075000Y-72300000D01*
X207075000Y-73300000D02*
X209375000Y-73300000D01*
X209375000Y-73300000D02*
X210375000Y-72300000D01*
X210375000Y-72300000D02*
X210375000Y-69000000D01*
X210225000Y-71150000D02*
G75*
G02*
X206225000Y-71150000I-2000000J0D01*
G01*
X206225000Y-71150000D02*
G75*
G02*
X210225000Y-71150000I2000000J0D01*
G01*
%TO.C,U4*%
X190485000Y-60160000D02*
X196835000Y-60160000D01*
X190485000Y-70320000D02*
X190485000Y-60160000D01*
X195835000Y-70320000D02*
X190485000Y-70320000D01*
X196835000Y-60160000D02*
X196835000Y-69320000D01*
X196835000Y-69320000D02*
X195835000Y-70320000D01*
%TO.C,C6*%
X161575000Y-97850000D02*
X165875000Y-97850000D01*
X161575000Y-101150000D02*
X161575000Y-97850000D01*
X162575000Y-102150000D02*
X161575000Y-101150000D01*
X162575000Y-102150000D02*
X164875000Y-102150000D01*
X164875000Y-102150000D02*
X165875000Y-101150000D01*
X165875000Y-101150000D02*
X165875000Y-97850000D01*
X165725000Y-100000000D02*
G75*
G02*
X161725000Y-100000000I-2000000J0D01*
G01*
X161725000Y-100000000D02*
G75*
G02*
X165725000Y-100000000I2000000J0D01*
G01*
%TO.C,U8*%
X190485000Y-88234200D02*
X196835000Y-88234200D01*
X190485000Y-98394200D02*
X190485000Y-88234200D01*
X195835000Y-98394200D02*
X190485000Y-98394200D01*
X196835000Y-88234200D02*
X196835000Y-97394200D01*
X196835000Y-97394200D02*
X195835000Y-98394200D01*
%TO.C,J1*%
X163250000Y-104300000D02*
X163250000Y-110050000D01*
X163250000Y-110050000D02*
X183150000Y-110050000D01*
X180700000Y-109050000D02*
X180075000Y-110050000D01*
X181325000Y-110050000D02*
X180700000Y-109050000D01*
X183150000Y-104300000D02*
X163250000Y-104300000D01*
X183150000Y-110050000D02*
X183150000Y-104300000D01*
%TO.C,J4*%
X166695000Y-95935000D02*
X176855000Y-95935000D01*
X166695000Y-98475000D02*
X166695000Y-95935000D01*
X176220000Y-98475000D02*
X166695000Y-98475000D01*
X176855000Y-95935000D02*
X176855000Y-97840000D01*
X176855000Y-97840000D02*
X176220000Y-98475000D01*
%TO.C,U9*%
X190505000Y-100836600D02*
X191505000Y-99836600D01*
X190505000Y-109996600D02*
X190505000Y-100836600D01*
X191505000Y-99836600D02*
X196855000Y-99836600D01*
X196855000Y-99836600D02*
X196855000Y-109996600D01*
X196855000Y-109996600D02*
X190505000Y-109996600D01*
%TO.C,C3*%
X185625000Y-87200000D02*
X186425000Y-87200000D01*
X185625000Y-88800000D02*
X185625000Y-87200000D01*
X186425000Y-87200000D02*
X186425000Y-88800000D01*
X186425000Y-88800000D02*
X185625000Y-88800000D01*
%TO.C,R10*%
X186987500Y-61500000D02*
X187812500Y-61500000D01*
X186987500Y-63100000D02*
X186987500Y-61500000D01*
X187812500Y-61500000D02*
X187812500Y-63100000D01*
X187812500Y-63100000D02*
X186987500Y-63100000D01*
%TD*%
M02*
