%TF.GenerationSoftware,KiCad,Pcbnew,8.0.3*%
%TF.CreationDate,2024-06-13T16:05:25+05:30*%
%TF.ProjectId,OptoIsolation,4f70746f-4973-46f6-9c61-74696f6e2e6b,rev?*%
%TF.SameCoordinates,Original*%
%TF.FileFunction,Legend,Bot*%
%TF.FilePolarity,Positive*%
%FSLAX46Y46*%
G04 Gerber Fmt 4.6, Leading zero omitted, Abs format (unit mm)*
G04 Created by KiCad (PCBNEW 8.0.3) date 2024-06-13 16:05:25*
%MOMM*%
%LPD*%
G01*
G04 APERTURE LIST*
%ADD10C,0.125000*%
%ADD11C,0.150000*%
%ADD12C,0.120000*%
G04 APERTURE END LIST*
D10*
X187650209Y-105238471D02*
X187412114Y-105071805D01*
X187650209Y-104952757D02*
X187150209Y-104952757D01*
X187150209Y-104952757D02*
X187150209Y-105143233D01*
X187150209Y-105143233D02*
X187174019Y-105190852D01*
X187174019Y-105190852D02*
X187197828Y-105214662D01*
X187197828Y-105214662D02*
X187245447Y-105238471D01*
X187245447Y-105238471D02*
X187316876Y-105238471D01*
X187316876Y-105238471D02*
X187364495Y-105214662D01*
X187364495Y-105214662D02*
X187388304Y-105190852D01*
X187388304Y-105190852D02*
X187412114Y-105143233D01*
X187412114Y-105143233D02*
X187412114Y-104952757D01*
X187650209Y-105714662D02*
X187650209Y-105428948D01*
X187650209Y-105571805D02*
X187150209Y-105571805D01*
X187150209Y-105571805D02*
X187221638Y-105524186D01*
X187221638Y-105524186D02*
X187269257Y-105476567D01*
X187269257Y-105476567D02*
X187293066Y-105428948D01*
X187650209Y-105952757D02*
X187650209Y-106047995D01*
X187650209Y-106047995D02*
X187626400Y-106095614D01*
X187626400Y-106095614D02*
X187602590Y-106119423D01*
X187602590Y-106119423D02*
X187531161Y-106167042D01*
X187531161Y-106167042D02*
X187435923Y-106190852D01*
X187435923Y-106190852D02*
X187245447Y-106190852D01*
X187245447Y-106190852D02*
X187197828Y-106167042D01*
X187197828Y-106167042D02*
X187174019Y-106143233D01*
X187174019Y-106143233D02*
X187150209Y-106095614D01*
X187150209Y-106095614D02*
X187150209Y-106000376D01*
X187150209Y-106000376D02*
X187174019Y-105952757D01*
X187174019Y-105952757D02*
X187197828Y-105928947D01*
X187197828Y-105928947D02*
X187245447Y-105905138D01*
X187245447Y-105905138D02*
X187364495Y-105905138D01*
X187364495Y-105905138D02*
X187412114Y-105928947D01*
X187412114Y-105928947D02*
X187435923Y-105952757D01*
X187435923Y-105952757D02*
X187459733Y-106000376D01*
X187459733Y-106000376D02*
X187459733Y-106095614D01*
X187459733Y-106095614D02*
X187435923Y-106143233D01*
X187435923Y-106143233D02*
X187412114Y-106167042D01*
X187412114Y-106167042D02*
X187364495Y-106190852D01*
D11*
X185735592Y-101771428D02*
X185699878Y-101807142D01*
X185699878Y-101807142D02*
X185664164Y-101878571D01*
X185664164Y-101878571D02*
X185664164Y-102057142D01*
X185664164Y-102057142D02*
X185699878Y-102128571D01*
X185699878Y-102128571D02*
X185735592Y-102164285D01*
X185735592Y-102164285D02*
X185807021Y-102199999D01*
X185807021Y-102199999D02*
X185878450Y-102199999D01*
X185878450Y-102199999D02*
X185985592Y-102164285D01*
X185985592Y-102164285D02*
X186414164Y-101735713D01*
X186414164Y-101735713D02*
X186414164Y-102199999D01*
X185735592Y-102485714D02*
X185699878Y-102521428D01*
X185699878Y-102521428D02*
X185664164Y-102592857D01*
X185664164Y-102592857D02*
X185664164Y-102771428D01*
X185664164Y-102771428D02*
X185699878Y-102842857D01*
X185699878Y-102842857D02*
X185735592Y-102878571D01*
X185735592Y-102878571D02*
X185807021Y-102914285D01*
X185807021Y-102914285D02*
X185878450Y-102914285D01*
X185878450Y-102914285D02*
X185985592Y-102878571D01*
X185985592Y-102878571D02*
X186414164Y-102449999D01*
X186414164Y-102449999D02*
X186414164Y-102914285D01*
X185664164Y-103378571D02*
X185664164Y-103450000D01*
X185664164Y-103450000D02*
X185699878Y-103521428D01*
X185699878Y-103521428D02*
X185735592Y-103557143D01*
X185735592Y-103557143D02*
X185807021Y-103592857D01*
X185807021Y-103592857D02*
X185949878Y-103628571D01*
X185949878Y-103628571D02*
X186128450Y-103628571D01*
X186128450Y-103628571D02*
X186271307Y-103592857D01*
X186271307Y-103592857D02*
X186342735Y-103557143D01*
X186342735Y-103557143D02*
X186378450Y-103521428D01*
X186378450Y-103521428D02*
X186414164Y-103450000D01*
X186414164Y-103450000D02*
X186414164Y-103378571D01*
X186414164Y-103378571D02*
X186378450Y-103307143D01*
X186378450Y-103307143D02*
X186342735Y-103271428D01*
X186342735Y-103271428D02*
X186271307Y-103235714D01*
X186271307Y-103235714D02*
X186128450Y-103200000D01*
X186128450Y-103200000D02*
X185949878Y-103200000D01*
X185949878Y-103200000D02*
X185807021Y-103235714D01*
X185807021Y-103235714D02*
X185735592Y-103271428D01*
X185735592Y-103271428D02*
X185699878Y-103307143D01*
X185699878Y-103307143D02*
X185664164Y-103378571D01*
X186414164Y-104378571D02*
X186057021Y-104128571D01*
X186414164Y-103950000D02*
X185664164Y-103950000D01*
X185664164Y-103950000D02*
X185664164Y-104235714D01*
X185664164Y-104235714D02*
X185699878Y-104307143D01*
X185699878Y-104307143D02*
X185735592Y-104342857D01*
X185735592Y-104342857D02*
X185807021Y-104378571D01*
X185807021Y-104378571D02*
X185914164Y-104378571D01*
X185914164Y-104378571D02*
X185985592Y-104342857D01*
X185985592Y-104342857D02*
X186021307Y-104307143D01*
X186021307Y-104307143D02*
X186057021Y-104235714D01*
X186057021Y-104235714D02*
X186057021Y-103950000D01*
D10*
X199800609Y-67788666D02*
X199562514Y-67622000D01*
X199800609Y-67502952D02*
X199300609Y-67502952D01*
X199300609Y-67502952D02*
X199300609Y-67693428D01*
X199300609Y-67693428D02*
X199324419Y-67741047D01*
X199324419Y-67741047D02*
X199348228Y-67764857D01*
X199348228Y-67764857D02*
X199395847Y-67788666D01*
X199395847Y-67788666D02*
X199467276Y-67788666D01*
X199467276Y-67788666D02*
X199514895Y-67764857D01*
X199514895Y-67764857D02*
X199538704Y-67741047D01*
X199538704Y-67741047D02*
X199562514Y-67693428D01*
X199562514Y-67693428D02*
X199562514Y-67502952D01*
X199300609Y-68217238D02*
X199300609Y-68122000D01*
X199300609Y-68122000D02*
X199324419Y-68074381D01*
X199324419Y-68074381D02*
X199348228Y-68050571D01*
X199348228Y-68050571D02*
X199419657Y-68002952D01*
X199419657Y-68002952D02*
X199514895Y-67979143D01*
X199514895Y-67979143D02*
X199705371Y-67979143D01*
X199705371Y-67979143D02*
X199752990Y-68002952D01*
X199752990Y-68002952D02*
X199776800Y-68026762D01*
X199776800Y-68026762D02*
X199800609Y-68074381D01*
X199800609Y-68074381D02*
X199800609Y-68169619D01*
X199800609Y-68169619D02*
X199776800Y-68217238D01*
X199776800Y-68217238D02*
X199752990Y-68241047D01*
X199752990Y-68241047D02*
X199705371Y-68264857D01*
X199705371Y-68264857D02*
X199586323Y-68264857D01*
X199586323Y-68264857D02*
X199538704Y-68241047D01*
X199538704Y-68241047D02*
X199514895Y-68217238D01*
X199514895Y-68217238D02*
X199491085Y-68169619D01*
X199491085Y-68169619D02*
X199491085Y-68074381D01*
X199491085Y-68074381D02*
X199514895Y-68026762D01*
X199514895Y-68026762D02*
X199538704Y-68002952D01*
X199538704Y-68002952D02*
X199586323Y-67979143D01*
D11*
X201239164Y-65499999D02*
X201239164Y-65071428D01*
X201239164Y-65285713D02*
X200489164Y-65285713D01*
X200489164Y-65285713D02*
X200596307Y-65214285D01*
X200596307Y-65214285D02*
X200667735Y-65142856D01*
X200667735Y-65142856D02*
X200703450Y-65071428D01*
X201239164Y-66214285D02*
X201239164Y-65785714D01*
X201239164Y-65999999D02*
X200489164Y-65999999D01*
X200489164Y-65999999D02*
X200596307Y-65928571D01*
X200596307Y-65928571D02*
X200667735Y-65857142D01*
X200667735Y-65857142D02*
X200703450Y-65785714D01*
X200489164Y-66464285D02*
X200489164Y-66928571D01*
X200489164Y-66928571D02*
X200774878Y-66678571D01*
X200774878Y-66678571D02*
X200774878Y-66785714D01*
X200774878Y-66785714D02*
X200810592Y-66857143D01*
X200810592Y-66857143D02*
X200846307Y-66892857D01*
X200846307Y-66892857D02*
X200917735Y-66928571D01*
X200917735Y-66928571D02*
X201096307Y-66928571D01*
X201096307Y-66928571D02*
X201167735Y-66892857D01*
X201167735Y-66892857D02*
X201203450Y-66857143D01*
X201203450Y-66857143D02*
X201239164Y-66785714D01*
X201239164Y-66785714D02*
X201239164Y-66571428D01*
X201239164Y-66571428D02*
X201203450Y-66500000D01*
X201203450Y-66500000D02*
X201167735Y-66464285D01*
X201239164Y-67678571D02*
X200882021Y-67428571D01*
X201239164Y-67250000D02*
X200489164Y-67250000D01*
X200489164Y-67250000D02*
X200489164Y-67535714D01*
X200489164Y-67535714D02*
X200524878Y-67607143D01*
X200524878Y-67607143D02*
X200560592Y-67642857D01*
X200560592Y-67642857D02*
X200632021Y-67678571D01*
X200632021Y-67678571D02*
X200739164Y-67678571D01*
X200739164Y-67678571D02*
X200810592Y-67642857D01*
X200810592Y-67642857D02*
X200846307Y-67607143D01*
X200846307Y-67607143D02*
X200882021Y-67535714D01*
X200882021Y-67535714D02*
X200882021Y-67250000D01*
D10*
X187635409Y-68111471D02*
X187397314Y-67944805D01*
X187635409Y-67825757D02*
X187135409Y-67825757D01*
X187135409Y-67825757D02*
X187135409Y-68016233D01*
X187135409Y-68016233D02*
X187159219Y-68063852D01*
X187159219Y-68063852D02*
X187183028Y-68087662D01*
X187183028Y-68087662D02*
X187230647Y-68111471D01*
X187230647Y-68111471D02*
X187302076Y-68111471D01*
X187302076Y-68111471D02*
X187349695Y-68087662D01*
X187349695Y-68087662D02*
X187373504Y-68063852D01*
X187373504Y-68063852D02*
X187397314Y-68016233D01*
X187397314Y-68016233D02*
X187397314Y-67825757D01*
X187635409Y-68587662D02*
X187635409Y-68301948D01*
X187635409Y-68444805D02*
X187135409Y-68444805D01*
X187135409Y-68444805D02*
X187206838Y-68397186D01*
X187206838Y-68397186D02*
X187254457Y-68349567D01*
X187254457Y-68349567D02*
X187278266Y-68301948D01*
X187635409Y-69063852D02*
X187635409Y-68778138D01*
X187635409Y-68920995D02*
X187135409Y-68920995D01*
X187135409Y-68920995D02*
X187206838Y-68873376D01*
X187206838Y-68873376D02*
X187254457Y-68825757D01*
X187254457Y-68825757D02*
X187278266Y-68778138D01*
D11*
X185612564Y-65265485D02*
X185612564Y-65336914D01*
X185612564Y-65336914D02*
X185648278Y-65408342D01*
X185648278Y-65408342D02*
X185683992Y-65444057D01*
X185683992Y-65444057D02*
X185755421Y-65479771D01*
X185755421Y-65479771D02*
X185898278Y-65515485D01*
X185898278Y-65515485D02*
X186076850Y-65515485D01*
X186076850Y-65515485D02*
X186219707Y-65479771D01*
X186219707Y-65479771D02*
X186291135Y-65444057D01*
X186291135Y-65444057D02*
X186326850Y-65408342D01*
X186326850Y-65408342D02*
X186362564Y-65336914D01*
X186362564Y-65336914D02*
X186362564Y-65265485D01*
X186362564Y-65265485D02*
X186326850Y-65194057D01*
X186326850Y-65194057D02*
X186291135Y-65158342D01*
X186291135Y-65158342D02*
X186219707Y-65122628D01*
X186219707Y-65122628D02*
X186076850Y-65086914D01*
X186076850Y-65086914D02*
X185898278Y-65086914D01*
X185898278Y-65086914D02*
X185755421Y-65122628D01*
X185755421Y-65122628D02*
X185683992Y-65158342D01*
X185683992Y-65158342D02*
X185648278Y-65194057D01*
X185648278Y-65194057D02*
X185612564Y-65265485D01*
X186362564Y-66265485D02*
X186005421Y-66015485D01*
X186362564Y-65836914D02*
X185612564Y-65836914D01*
X185612564Y-65836914D02*
X185612564Y-66122628D01*
X185612564Y-66122628D02*
X185648278Y-66194057D01*
X185648278Y-66194057D02*
X185683992Y-66229771D01*
X185683992Y-66229771D02*
X185755421Y-66265485D01*
X185755421Y-66265485D02*
X185862564Y-66265485D01*
X185862564Y-66265485D02*
X185933992Y-66229771D01*
X185933992Y-66229771D02*
X185969707Y-66194057D01*
X185969707Y-66194057D02*
X186005421Y-66122628D01*
X186005421Y-66122628D02*
X186005421Y-65836914D01*
D10*
X187535209Y-60092566D02*
X187297114Y-59925900D01*
X187535209Y-59806852D02*
X187035209Y-59806852D01*
X187035209Y-59806852D02*
X187035209Y-59997328D01*
X187035209Y-59997328D02*
X187059019Y-60044947D01*
X187059019Y-60044947D02*
X187082828Y-60068757D01*
X187082828Y-60068757D02*
X187130447Y-60092566D01*
X187130447Y-60092566D02*
X187201876Y-60092566D01*
X187201876Y-60092566D02*
X187249495Y-60068757D01*
X187249495Y-60068757D02*
X187273304Y-60044947D01*
X187273304Y-60044947D02*
X187297114Y-59997328D01*
X187297114Y-59997328D02*
X187297114Y-59806852D01*
X187535209Y-60330662D02*
X187535209Y-60425900D01*
X187535209Y-60425900D02*
X187511400Y-60473519D01*
X187511400Y-60473519D02*
X187487590Y-60497328D01*
X187487590Y-60497328D02*
X187416161Y-60544947D01*
X187416161Y-60544947D02*
X187320923Y-60568757D01*
X187320923Y-60568757D02*
X187130447Y-60568757D01*
X187130447Y-60568757D02*
X187082828Y-60544947D01*
X187082828Y-60544947D02*
X187059019Y-60521138D01*
X187059019Y-60521138D02*
X187035209Y-60473519D01*
X187035209Y-60473519D02*
X187035209Y-60378281D01*
X187035209Y-60378281D02*
X187059019Y-60330662D01*
X187059019Y-60330662D02*
X187082828Y-60306852D01*
X187082828Y-60306852D02*
X187130447Y-60283043D01*
X187130447Y-60283043D02*
X187249495Y-60283043D01*
X187249495Y-60283043D02*
X187297114Y-60306852D01*
X187297114Y-60306852D02*
X187320923Y-60330662D01*
X187320923Y-60330662D02*
X187344733Y-60378281D01*
X187344733Y-60378281D02*
X187344733Y-60473519D01*
X187344733Y-60473519D02*
X187320923Y-60521138D01*
X187320923Y-60521138D02*
X187297114Y-60544947D01*
X187297114Y-60544947D02*
X187249495Y-60568757D01*
D11*
X185564964Y-61539714D02*
X185564964Y-61396856D01*
X185564964Y-61396856D02*
X185600678Y-61325428D01*
X185600678Y-61325428D02*
X185636392Y-61289714D01*
X185636392Y-61289714D02*
X185743535Y-61218285D01*
X185743535Y-61218285D02*
X185886392Y-61182571D01*
X185886392Y-61182571D02*
X186172107Y-61182571D01*
X186172107Y-61182571D02*
X186243535Y-61218285D01*
X186243535Y-61218285D02*
X186279250Y-61253999D01*
X186279250Y-61253999D02*
X186314964Y-61325428D01*
X186314964Y-61325428D02*
X186314964Y-61468285D01*
X186314964Y-61468285D02*
X186279250Y-61539714D01*
X186279250Y-61539714D02*
X186243535Y-61575428D01*
X186243535Y-61575428D02*
X186172107Y-61611142D01*
X186172107Y-61611142D02*
X185993535Y-61611142D01*
X185993535Y-61611142D02*
X185922107Y-61575428D01*
X185922107Y-61575428D02*
X185886392Y-61539714D01*
X185886392Y-61539714D02*
X185850678Y-61468285D01*
X185850678Y-61468285D02*
X185850678Y-61325428D01*
X185850678Y-61325428D02*
X185886392Y-61253999D01*
X185886392Y-61253999D02*
X185922107Y-61218285D01*
X185922107Y-61218285D02*
X185993535Y-61182571D01*
X185564964Y-61861142D02*
X185564964Y-62361142D01*
X185564964Y-62361142D02*
X186314964Y-62039714D01*
X186314964Y-63075428D02*
X185957821Y-62825428D01*
X186314964Y-62646857D02*
X185564964Y-62646857D01*
X185564964Y-62646857D02*
X185564964Y-62932571D01*
X185564964Y-62932571D02*
X185600678Y-63004000D01*
X185600678Y-63004000D02*
X185636392Y-63039714D01*
X185636392Y-63039714D02*
X185707821Y-63075428D01*
X185707821Y-63075428D02*
X185814964Y-63075428D01*
X185814964Y-63075428D02*
X185886392Y-63039714D01*
X185886392Y-63039714D02*
X185922107Y-63004000D01*
X185922107Y-63004000D02*
X185957821Y-62932571D01*
X185957821Y-62932571D02*
X185957821Y-62646857D01*
D10*
X202099390Y-101394771D02*
X202123200Y-101370962D01*
X202123200Y-101370962D02*
X202147009Y-101299533D01*
X202147009Y-101299533D02*
X202147009Y-101251914D01*
X202147009Y-101251914D02*
X202123200Y-101180486D01*
X202123200Y-101180486D02*
X202075580Y-101132867D01*
X202075580Y-101132867D02*
X202027961Y-101109057D01*
X202027961Y-101109057D02*
X201932723Y-101085248D01*
X201932723Y-101085248D02*
X201861295Y-101085248D01*
X201861295Y-101085248D02*
X201766057Y-101109057D01*
X201766057Y-101109057D02*
X201718438Y-101132867D01*
X201718438Y-101132867D02*
X201670819Y-101180486D01*
X201670819Y-101180486D02*
X201647009Y-101251914D01*
X201647009Y-101251914D02*
X201647009Y-101299533D01*
X201647009Y-101299533D02*
X201670819Y-101370962D01*
X201670819Y-101370962D02*
X201694628Y-101394771D01*
X202147009Y-101870962D02*
X202147009Y-101585248D01*
X202147009Y-101728105D02*
X201647009Y-101728105D01*
X201647009Y-101728105D02*
X201718438Y-101680486D01*
X201718438Y-101680486D02*
X201766057Y-101632867D01*
X201766057Y-101632867D02*
X201789866Y-101585248D01*
X202147009Y-102347152D02*
X202147009Y-102061438D01*
X202147009Y-102204295D02*
X201647009Y-102204295D01*
X201647009Y-102204295D02*
X201718438Y-102156676D01*
X201718438Y-102156676D02*
X201766057Y-102109057D01*
X201766057Y-102109057D02*
X201789866Y-102061438D01*
D11*
X200541392Y-100320886D02*
X200505678Y-100356600D01*
X200505678Y-100356600D02*
X200469964Y-100428029D01*
X200469964Y-100428029D02*
X200469964Y-100606600D01*
X200469964Y-100606600D02*
X200505678Y-100678029D01*
X200505678Y-100678029D02*
X200541392Y-100713743D01*
X200541392Y-100713743D02*
X200612821Y-100749457D01*
X200612821Y-100749457D02*
X200684250Y-100749457D01*
X200684250Y-100749457D02*
X200791392Y-100713743D01*
X200791392Y-100713743D02*
X201219964Y-100285171D01*
X201219964Y-100285171D02*
X201219964Y-100749457D01*
X201148535Y-101070886D02*
X201184250Y-101106600D01*
X201184250Y-101106600D02*
X201219964Y-101070886D01*
X201219964Y-101070886D02*
X201184250Y-101035172D01*
X201184250Y-101035172D02*
X201148535Y-101070886D01*
X201148535Y-101070886D02*
X201219964Y-101070886D01*
X200541392Y-101392315D02*
X200505678Y-101428029D01*
X200505678Y-101428029D02*
X200469964Y-101499458D01*
X200469964Y-101499458D02*
X200469964Y-101678029D01*
X200469964Y-101678029D02*
X200505678Y-101749458D01*
X200505678Y-101749458D02*
X200541392Y-101785172D01*
X200541392Y-101785172D02*
X200612821Y-101820886D01*
X200612821Y-101820886D02*
X200684250Y-101820886D01*
X200684250Y-101820886D02*
X200791392Y-101785172D01*
X200791392Y-101785172D02*
X201219964Y-101356600D01*
X201219964Y-101356600D02*
X201219964Y-101820886D01*
X200719964Y-102463744D02*
X201219964Y-102463744D01*
X200719964Y-102142315D02*
X201112821Y-102142315D01*
X201112821Y-102142315D02*
X201184250Y-102178029D01*
X201184250Y-102178029D02*
X201219964Y-102249458D01*
X201219964Y-102249458D02*
X201219964Y-102356601D01*
X201219964Y-102356601D02*
X201184250Y-102428029D01*
X201184250Y-102428029D02*
X201148535Y-102463744D01*
X200827107Y-103070886D02*
X200827107Y-102820886D01*
X201219964Y-102820886D02*
X200469964Y-102820886D01*
X200469964Y-102820886D02*
X200469964Y-103178029D01*
D10*
X183899809Y-87916666D02*
X183661714Y-87750000D01*
X183899809Y-87630952D02*
X183399809Y-87630952D01*
X183399809Y-87630952D02*
X183399809Y-87821428D01*
X183399809Y-87821428D02*
X183423619Y-87869047D01*
X183423619Y-87869047D02*
X183447428Y-87892857D01*
X183447428Y-87892857D02*
X183495047Y-87916666D01*
X183495047Y-87916666D02*
X183566476Y-87916666D01*
X183566476Y-87916666D02*
X183614095Y-87892857D01*
X183614095Y-87892857D02*
X183637904Y-87869047D01*
X183637904Y-87869047D02*
X183661714Y-87821428D01*
X183661714Y-87821428D02*
X183661714Y-87630952D01*
X183399809Y-88083333D02*
X183399809Y-88416666D01*
X183399809Y-88416666D02*
X183899809Y-88202381D01*
D11*
X185189164Y-87530271D02*
X185189164Y-87101700D01*
X185189164Y-87315985D02*
X184439164Y-87315985D01*
X184439164Y-87315985D02*
X184546307Y-87244557D01*
X184546307Y-87244557D02*
X184617735Y-87173128D01*
X184617735Y-87173128D02*
X184653450Y-87101700D01*
X184439164Y-87994557D02*
X184439164Y-88065986D01*
X184439164Y-88065986D02*
X184474878Y-88137414D01*
X184474878Y-88137414D02*
X184510592Y-88173129D01*
X184510592Y-88173129D02*
X184582021Y-88208843D01*
X184582021Y-88208843D02*
X184724878Y-88244557D01*
X184724878Y-88244557D02*
X184903450Y-88244557D01*
X184903450Y-88244557D02*
X185046307Y-88208843D01*
X185046307Y-88208843D02*
X185117735Y-88173129D01*
X185117735Y-88173129D02*
X185153450Y-88137414D01*
X185153450Y-88137414D02*
X185189164Y-88065986D01*
X185189164Y-88065986D02*
X185189164Y-87994557D01*
X185189164Y-87994557D02*
X185153450Y-87923129D01*
X185153450Y-87923129D02*
X185117735Y-87887414D01*
X185117735Y-87887414D02*
X185046307Y-87851700D01*
X185046307Y-87851700D02*
X184903450Y-87815986D01*
X184903450Y-87815986D02*
X184724878Y-87815986D01*
X184724878Y-87815986D02*
X184582021Y-87851700D01*
X184582021Y-87851700D02*
X184510592Y-87887414D01*
X184510592Y-87887414D02*
X184474878Y-87923129D01*
X184474878Y-87923129D02*
X184439164Y-87994557D01*
X185189164Y-88565986D02*
X184439164Y-88565986D01*
X184903450Y-88637415D02*
X185189164Y-88851700D01*
X184689164Y-88851700D02*
X184974878Y-88565986D01*
D10*
X185299809Y-92678571D02*
X185061714Y-92511905D01*
X185299809Y-92392857D02*
X184799809Y-92392857D01*
X184799809Y-92392857D02*
X184799809Y-92583333D01*
X184799809Y-92583333D02*
X184823619Y-92630952D01*
X184823619Y-92630952D02*
X184847428Y-92654762D01*
X184847428Y-92654762D02*
X184895047Y-92678571D01*
X184895047Y-92678571D02*
X184966476Y-92678571D01*
X184966476Y-92678571D02*
X185014095Y-92654762D01*
X185014095Y-92654762D02*
X185037904Y-92630952D01*
X185037904Y-92630952D02*
X185061714Y-92583333D01*
X185061714Y-92583333D02*
X185061714Y-92392857D01*
X185299809Y-93154762D02*
X185299809Y-92869048D01*
X185299809Y-93011905D02*
X184799809Y-93011905D01*
X184799809Y-93011905D02*
X184871238Y-92964286D01*
X184871238Y-92964286D02*
X184918857Y-92916667D01*
X184918857Y-92916667D02*
X184942666Y-92869048D01*
X185014095Y-93440476D02*
X184990285Y-93392857D01*
X184990285Y-93392857D02*
X184966476Y-93369047D01*
X184966476Y-93369047D02*
X184918857Y-93345238D01*
X184918857Y-93345238D02*
X184895047Y-93345238D01*
X184895047Y-93345238D02*
X184847428Y-93369047D01*
X184847428Y-93369047D02*
X184823619Y-93392857D01*
X184823619Y-93392857D02*
X184799809Y-93440476D01*
X184799809Y-93440476D02*
X184799809Y-93535714D01*
X184799809Y-93535714D02*
X184823619Y-93583333D01*
X184823619Y-93583333D02*
X184847428Y-93607142D01*
X184847428Y-93607142D02*
X184895047Y-93630952D01*
X184895047Y-93630952D02*
X184918857Y-93630952D01*
X184918857Y-93630952D02*
X184966476Y-93607142D01*
X184966476Y-93607142D02*
X184990285Y-93583333D01*
X184990285Y-93583333D02*
X185014095Y-93535714D01*
X185014095Y-93535714D02*
X185014095Y-93440476D01*
X185014095Y-93440476D02*
X185037904Y-93392857D01*
X185037904Y-93392857D02*
X185061714Y-93369047D01*
X185061714Y-93369047D02*
X185109333Y-93345238D01*
X185109333Y-93345238D02*
X185204571Y-93345238D01*
X185204571Y-93345238D02*
X185252190Y-93369047D01*
X185252190Y-93369047D02*
X185276000Y-93392857D01*
X185276000Y-93392857D02*
X185299809Y-93440476D01*
X185299809Y-93440476D02*
X185299809Y-93535714D01*
X185299809Y-93535714D02*
X185276000Y-93583333D01*
X185276000Y-93583333D02*
X185252190Y-93607142D01*
X185252190Y-93607142D02*
X185204571Y-93630952D01*
X185204571Y-93630952D02*
X185109333Y-93630952D01*
X185109333Y-93630952D02*
X185061714Y-93607142D01*
X185061714Y-93607142D02*
X185037904Y-93583333D01*
X185037904Y-93583333D02*
X185014095Y-93535714D01*
D11*
X186453764Y-92809871D02*
X186453764Y-92381300D01*
X186453764Y-92595585D02*
X185703764Y-92595585D01*
X185703764Y-92595585D02*
X185810907Y-92524157D01*
X185810907Y-92524157D02*
X185882335Y-92452728D01*
X185882335Y-92452728D02*
X185918050Y-92381300D01*
X185703764Y-93274157D02*
X185703764Y-93345586D01*
X185703764Y-93345586D02*
X185739478Y-93417014D01*
X185739478Y-93417014D02*
X185775192Y-93452729D01*
X185775192Y-93452729D02*
X185846621Y-93488443D01*
X185846621Y-93488443D02*
X185989478Y-93524157D01*
X185989478Y-93524157D02*
X186168050Y-93524157D01*
X186168050Y-93524157D02*
X186310907Y-93488443D01*
X186310907Y-93488443D02*
X186382335Y-93452729D01*
X186382335Y-93452729D02*
X186418050Y-93417014D01*
X186418050Y-93417014D02*
X186453764Y-93345586D01*
X186453764Y-93345586D02*
X186453764Y-93274157D01*
X186453764Y-93274157D02*
X186418050Y-93202729D01*
X186418050Y-93202729D02*
X186382335Y-93167014D01*
X186382335Y-93167014D02*
X186310907Y-93131300D01*
X186310907Y-93131300D02*
X186168050Y-93095586D01*
X186168050Y-93095586D02*
X185989478Y-93095586D01*
X185989478Y-93095586D02*
X185846621Y-93131300D01*
X185846621Y-93131300D02*
X185775192Y-93167014D01*
X185775192Y-93167014D02*
X185739478Y-93202729D01*
X185739478Y-93202729D02*
X185703764Y-93274157D01*
X186453764Y-93845586D02*
X185703764Y-93845586D01*
X186168050Y-93917015D02*
X186453764Y-94131300D01*
X185953764Y-94131300D02*
X186239478Y-93845586D01*
D10*
X199749409Y-75535071D02*
X199511314Y-75368405D01*
X199749409Y-75249357D02*
X199249409Y-75249357D01*
X199249409Y-75249357D02*
X199249409Y-75439833D01*
X199249409Y-75439833D02*
X199273219Y-75487452D01*
X199273219Y-75487452D02*
X199297028Y-75511262D01*
X199297028Y-75511262D02*
X199344647Y-75535071D01*
X199344647Y-75535071D02*
X199416076Y-75535071D01*
X199416076Y-75535071D02*
X199463695Y-75511262D01*
X199463695Y-75511262D02*
X199487504Y-75487452D01*
X199487504Y-75487452D02*
X199511314Y-75439833D01*
X199511314Y-75439833D02*
X199511314Y-75249357D01*
X199749409Y-76011262D02*
X199749409Y-75725548D01*
X199749409Y-75868405D02*
X199249409Y-75868405D01*
X199249409Y-75868405D02*
X199320838Y-75820786D01*
X199320838Y-75820786D02*
X199368457Y-75773167D01*
X199368457Y-75773167D02*
X199392266Y-75725548D01*
X199297028Y-76201738D02*
X199273219Y-76225547D01*
X199273219Y-76225547D02*
X199249409Y-76273166D01*
X199249409Y-76273166D02*
X199249409Y-76392214D01*
X199249409Y-76392214D02*
X199273219Y-76439833D01*
X199273219Y-76439833D02*
X199297028Y-76463642D01*
X199297028Y-76463642D02*
X199344647Y-76487452D01*
X199344647Y-76487452D02*
X199392266Y-76487452D01*
X199392266Y-76487452D02*
X199463695Y-76463642D01*
X199463695Y-76463642D02*
X199749409Y-76177928D01*
X199749409Y-76177928D02*
X199749409Y-76487452D01*
D11*
X201339164Y-77399999D02*
X201339164Y-76971428D01*
X201339164Y-77185713D02*
X200589164Y-77185713D01*
X200589164Y-77185713D02*
X200696307Y-77114285D01*
X200696307Y-77114285D02*
X200767735Y-77042856D01*
X200767735Y-77042856D02*
X200803450Y-76971428D01*
X201339164Y-78114285D02*
X201339164Y-77685714D01*
X201339164Y-77899999D02*
X200589164Y-77899999D01*
X200589164Y-77899999D02*
X200696307Y-77828571D01*
X200696307Y-77828571D02*
X200767735Y-77757142D01*
X200767735Y-77757142D02*
X200803450Y-77685714D01*
X200589164Y-78364285D02*
X200589164Y-78828571D01*
X200589164Y-78828571D02*
X200874878Y-78578571D01*
X200874878Y-78578571D02*
X200874878Y-78685714D01*
X200874878Y-78685714D02*
X200910592Y-78757143D01*
X200910592Y-78757143D02*
X200946307Y-78792857D01*
X200946307Y-78792857D02*
X201017735Y-78828571D01*
X201017735Y-78828571D02*
X201196307Y-78828571D01*
X201196307Y-78828571D02*
X201267735Y-78792857D01*
X201267735Y-78792857D02*
X201303450Y-78757143D01*
X201303450Y-78757143D02*
X201339164Y-78685714D01*
X201339164Y-78685714D02*
X201339164Y-78471428D01*
X201339164Y-78471428D02*
X201303450Y-78400000D01*
X201303450Y-78400000D02*
X201267735Y-78364285D01*
X201339164Y-79578571D02*
X200982021Y-79328571D01*
X201339164Y-79150000D02*
X200589164Y-79150000D01*
X200589164Y-79150000D02*
X200589164Y-79435714D01*
X200589164Y-79435714D02*
X200624878Y-79507143D01*
X200624878Y-79507143D02*
X200660592Y-79542857D01*
X200660592Y-79542857D02*
X200732021Y-79578571D01*
X200732021Y-79578571D02*
X200839164Y-79578571D01*
X200839164Y-79578571D02*
X200910592Y-79542857D01*
X200910592Y-79542857D02*
X200946307Y-79507143D01*
X200946307Y-79507143D02*
X200982021Y-79435714D01*
X200982021Y-79435714D02*
X200982021Y-79150000D01*
D10*
X185087990Y-97506871D02*
X185111800Y-97483062D01*
X185111800Y-97483062D02*
X185135609Y-97411633D01*
X185135609Y-97411633D02*
X185135609Y-97364014D01*
X185135609Y-97364014D02*
X185111800Y-97292586D01*
X185111800Y-97292586D02*
X185064180Y-97244967D01*
X185064180Y-97244967D02*
X185016561Y-97221157D01*
X185016561Y-97221157D02*
X184921323Y-97197348D01*
X184921323Y-97197348D02*
X184849895Y-97197348D01*
X184849895Y-97197348D02*
X184754657Y-97221157D01*
X184754657Y-97221157D02*
X184707038Y-97244967D01*
X184707038Y-97244967D02*
X184659419Y-97292586D01*
X184659419Y-97292586D02*
X184635609Y-97364014D01*
X184635609Y-97364014D02*
X184635609Y-97411633D01*
X184635609Y-97411633D02*
X184659419Y-97483062D01*
X184659419Y-97483062D02*
X184683228Y-97506871D01*
X185135609Y-97983062D02*
X185135609Y-97697348D01*
X185135609Y-97840205D02*
X184635609Y-97840205D01*
X184635609Y-97840205D02*
X184707038Y-97792586D01*
X184707038Y-97792586D02*
X184754657Y-97744967D01*
X184754657Y-97744967D02*
X184778466Y-97697348D01*
X184635609Y-98292585D02*
X184635609Y-98340204D01*
X184635609Y-98340204D02*
X184659419Y-98387823D01*
X184659419Y-98387823D02*
X184683228Y-98411633D01*
X184683228Y-98411633D02*
X184730847Y-98435442D01*
X184730847Y-98435442D02*
X184826085Y-98459252D01*
X184826085Y-98459252D02*
X184945133Y-98459252D01*
X184945133Y-98459252D02*
X185040371Y-98435442D01*
X185040371Y-98435442D02*
X185087990Y-98411633D01*
X185087990Y-98411633D02*
X185111800Y-98387823D01*
X185111800Y-98387823D02*
X185135609Y-98340204D01*
X185135609Y-98340204D02*
X185135609Y-98292585D01*
X185135609Y-98292585D02*
X185111800Y-98244966D01*
X185111800Y-98244966D02*
X185087990Y-98221157D01*
X185087990Y-98221157D02*
X185040371Y-98197347D01*
X185040371Y-98197347D02*
X184945133Y-98173538D01*
X184945133Y-98173538D02*
X184826085Y-98173538D01*
X184826085Y-98173538D02*
X184730847Y-98197347D01*
X184730847Y-98197347D02*
X184683228Y-98221157D01*
X184683228Y-98221157D02*
X184659419Y-98244966D01*
X184659419Y-98244966D02*
X184635609Y-98292585D01*
D11*
X185612792Y-96571086D02*
X185577078Y-96606800D01*
X185577078Y-96606800D02*
X185541364Y-96678229D01*
X185541364Y-96678229D02*
X185541364Y-96856800D01*
X185541364Y-96856800D02*
X185577078Y-96928229D01*
X185577078Y-96928229D02*
X185612792Y-96963943D01*
X185612792Y-96963943D02*
X185684221Y-96999657D01*
X185684221Y-96999657D02*
X185755650Y-96999657D01*
X185755650Y-96999657D02*
X185862792Y-96963943D01*
X185862792Y-96963943D02*
X186291364Y-96535371D01*
X186291364Y-96535371D02*
X186291364Y-96999657D01*
X186219935Y-97321086D02*
X186255650Y-97356800D01*
X186255650Y-97356800D02*
X186291364Y-97321086D01*
X186291364Y-97321086D02*
X186255650Y-97285372D01*
X186255650Y-97285372D02*
X186219935Y-97321086D01*
X186219935Y-97321086D02*
X186291364Y-97321086D01*
X185612792Y-97642515D02*
X185577078Y-97678229D01*
X185577078Y-97678229D02*
X185541364Y-97749658D01*
X185541364Y-97749658D02*
X185541364Y-97928229D01*
X185541364Y-97928229D02*
X185577078Y-97999658D01*
X185577078Y-97999658D02*
X185612792Y-98035372D01*
X185612792Y-98035372D02*
X185684221Y-98071086D01*
X185684221Y-98071086D02*
X185755650Y-98071086D01*
X185755650Y-98071086D02*
X185862792Y-98035372D01*
X185862792Y-98035372D02*
X186291364Y-97606800D01*
X186291364Y-97606800D02*
X186291364Y-98071086D01*
X185791364Y-98713944D02*
X186291364Y-98713944D01*
X185791364Y-98392515D02*
X186184221Y-98392515D01*
X186184221Y-98392515D02*
X186255650Y-98428229D01*
X186255650Y-98428229D02*
X186291364Y-98499658D01*
X186291364Y-98499658D02*
X186291364Y-98606801D01*
X186291364Y-98606801D02*
X186255650Y-98678229D01*
X186255650Y-98678229D02*
X186219935Y-98713944D01*
X185898507Y-99321086D02*
X185898507Y-99071086D01*
X186291364Y-99071086D02*
X185541364Y-99071086D01*
X185541364Y-99071086D02*
X185541364Y-99428229D01*
D10*
X199674809Y-95828571D02*
X199436714Y-95661905D01*
X199674809Y-95542857D02*
X199174809Y-95542857D01*
X199174809Y-95542857D02*
X199174809Y-95733333D01*
X199174809Y-95733333D02*
X199198619Y-95780952D01*
X199198619Y-95780952D02*
X199222428Y-95804762D01*
X199222428Y-95804762D02*
X199270047Y-95828571D01*
X199270047Y-95828571D02*
X199341476Y-95828571D01*
X199341476Y-95828571D02*
X199389095Y-95804762D01*
X199389095Y-95804762D02*
X199412904Y-95780952D01*
X199412904Y-95780952D02*
X199436714Y-95733333D01*
X199436714Y-95733333D02*
X199436714Y-95542857D01*
X199674809Y-96304762D02*
X199674809Y-96019048D01*
X199674809Y-96161905D02*
X199174809Y-96161905D01*
X199174809Y-96161905D02*
X199246238Y-96114286D01*
X199246238Y-96114286D02*
X199293857Y-96066667D01*
X199293857Y-96066667D02*
X199317666Y-96019048D01*
X199174809Y-96471428D02*
X199174809Y-96804761D01*
X199174809Y-96804761D02*
X199674809Y-96590476D01*
D11*
X201164164Y-92674999D02*
X201164164Y-92246428D01*
X201164164Y-92460713D02*
X200414164Y-92460713D01*
X200414164Y-92460713D02*
X200521307Y-92389285D01*
X200521307Y-92389285D02*
X200592735Y-92317856D01*
X200592735Y-92317856D02*
X200628450Y-92246428D01*
X201164164Y-93389285D02*
X201164164Y-92960714D01*
X201164164Y-93174999D02*
X200414164Y-93174999D01*
X200414164Y-93174999D02*
X200521307Y-93103571D01*
X200521307Y-93103571D02*
X200592735Y-93032142D01*
X200592735Y-93032142D02*
X200628450Y-92960714D01*
X200414164Y-93639285D02*
X200414164Y-94103571D01*
X200414164Y-94103571D02*
X200699878Y-93853571D01*
X200699878Y-93853571D02*
X200699878Y-93960714D01*
X200699878Y-93960714D02*
X200735592Y-94032143D01*
X200735592Y-94032143D02*
X200771307Y-94067857D01*
X200771307Y-94067857D02*
X200842735Y-94103571D01*
X200842735Y-94103571D02*
X201021307Y-94103571D01*
X201021307Y-94103571D02*
X201092735Y-94067857D01*
X201092735Y-94067857D02*
X201128450Y-94032143D01*
X201128450Y-94032143D02*
X201164164Y-93960714D01*
X201164164Y-93960714D02*
X201164164Y-93746428D01*
X201164164Y-93746428D02*
X201128450Y-93675000D01*
X201128450Y-93675000D02*
X201092735Y-93639285D01*
X201164164Y-94853571D02*
X200807021Y-94603571D01*
X201164164Y-94425000D02*
X200414164Y-94425000D01*
X200414164Y-94425000D02*
X200414164Y-94710714D01*
X200414164Y-94710714D02*
X200449878Y-94782143D01*
X200449878Y-94782143D02*
X200485592Y-94817857D01*
X200485592Y-94817857D02*
X200557021Y-94853571D01*
X200557021Y-94853571D02*
X200664164Y-94853571D01*
X200664164Y-94853571D02*
X200735592Y-94817857D01*
X200735592Y-94817857D02*
X200771307Y-94782143D01*
X200771307Y-94782143D02*
X200807021Y-94710714D01*
X200807021Y-94710714D02*
X200807021Y-94425000D01*
D10*
X187624809Y-70651771D02*
X187386714Y-70485105D01*
X187624809Y-70366057D02*
X187124809Y-70366057D01*
X187124809Y-70366057D02*
X187124809Y-70556533D01*
X187124809Y-70556533D02*
X187148619Y-70604152D01*
X187148619Y-70604152D02*
X187172428Y-70627962D01*
X187172428Y-70627962D02*
X187220047Y-70651771D01*
X187220047Y-70651771D02*
X187291476Y-70651771D01*
X187291476Y-70651771D02*
X187339095Y-70627962D01*
X187339095Y-70627962D02*
X187362904Y-70604152D01*
X187362904Y-70604152D02*
X187386714Y-70556533D01*
X187386714Y-70556533D02*
X187386714Y-70366057D01*
X187624809Y-71127962D02*
X187624809Y-70842248D01*
X187624809Y-70985105D02*
X187124809Y-70985105D01*
X187124809Y-70985105D02*
X187196238Y-70937486D01*
X187196238Y-70937486D02*
X187243857Y-70889867D01*
X187243857Y-70889867D02*
X187267666Y-70842248D01*
X187291476Y-71556533D02*
X187624809Y-71556533D01*
X187101000Y-71437485D02*
X187458142Y-71318438D01*
X187458142Y-71318438D02*
X187458142Y-71627961D01*
D11*
X185594764Y-72774414D02*
X185594764Y-72631556D01*
X185594764Y-72631556D02*
X185630478Y-72560128D01*
X185630478Y-72560128D02*
X185666192Y-72524414D01*
X185666192Y-72524414D02*
X185773335Y-72452985D01*
X185773335Y-72452985D02*
X185916192Y-72417271D01*
X185916192Y-72417271D02*
X186201907Y-72417271D01*
X186201907Y-72417271D02*
X186273335Y-72452985D01*
X186273335Y-72452985D02*
X186309050Y-72488699D01*
X186309050Y-72488699D02*
X186344764Y-72560128D01*
X186344764Y-72560128D02*
X186344764Y-72702985D01*
X186344764Y-72702985D02*
X186309050Y-72774414D01*
X186309050Y-72774414D02*
X186273335Y-72810128D01*
X186273335Y-72810128D02*
X186201907Y-72845842D01*
X186201907Y-72845842D02*
X186023335Y-72845842D01*
X186023335Y-72845842D02*
X185951907Y-72810128D01*
X185951907Y-72810128D02*
X185916192Y-72774414D01*
X185916192Y-72774414D02*
X185880478Y-72702985D01*
X185880478Y-72702985D02*
X185880478Y-72560128D01*
X185880478Y-72560128D02*
X185916192Y-72488699D01*
X185916192Y-72488699D02*
X185951907Y-72452985D01*
X185951907Y-72452985D02*
X186023335Y-72417271D01*
X185594764Y-73095842D02*
X185594764Y-73595842D01*
X185594764Y-73595842D02*
X186344764Y-73274414D01*
X186344764Y-74310128D02*
X185987621Y-74060128D01*
X186344764Y-73881557D02*
X185594764Y-73881557D01*
X185594764Y-73881557D02*
X185594764Y-74167271D01*
X185594764Y-74167271D02*
X185630478Y-74238700D01*
X185630478Y-74238700D02*
X185666192Y-74274414D01*
X185666192Y-74274414D02*
X185737621Y-74310128D01*
X185737621Y-74310128D02*
X185844764Y-74310128D01*
X185844764Y-74310128D02*
X185916192Y-74274414D01*
X185916192Y-74274414D02*
X185951907Y-74238700D01*
X185951907Y-74238700D02*
X185987621Y-74167271D01*
X185987621Y-74167271D02*
X185987621Y-73881557D01*
D10*
X187507809Y-79421271D02*
X187269714Y-79254605D01*
X187507809Y-79135557D02*
X187007809Y-79135557D01*
X187007809Y-79135557D02*
X187007809Y-79326033D01*
X187007809Y-79326033D02*
X187031619Y-79373652D01*
X187031619Y-79373652D02*
X187055428Y-79397462D01*
X187055428Y-79397462D02*
X187103047Y-79421271D01*
X187103047Y-79421271D02*
X187174476Y-79421271D01*
X187174476Y-79421271D02*
X187222095Y-79397462D01*
X187222095Y-79397462D02*
X187245904Y-79373652D01*
X187245904Y-79373652D02*
X187269714Y-79326033D01*
X187269714Y-79326033D02*
X187269714Y-79135557D01*
X187507809Y-79897462D02*
X187507809Y-79611748D01*
X187507809Y-79754605D02*
X187007809Y-79754605D01*
X187007809Y-79754605D02*
X187079238Y-79706986D01*
X187079238Y-79706986D02*
X187126857Y-79659367D01*
X187126857Y-79659367D02*
X187150666Y-79611748D01*
X187007809Y-80326033D02*
X187007809Y-80230795D01*
X187007809Y-80230795D02*
X187031619Y-80183176D01*
X187031619Y-80183176D02*
X187055428Y-80159366D01*
X187055428Y-80159366D02*
X187126857Y-80111747D01*
X187126857Y-80111747D02*
X187222095Y-80087938D01*
X187222095Y-80087938D02*
X187412571Y-80087938D01*
X187412571Y-80087938D02*
X187460190Y-80111747D01*
X187460190Y-80111747D02*
X187484000Y-80135557D01*
X187484000Y-80135557D02*
X187507809Y-80183176D01*
X187507809Y-80183176D02*
X187507809Y-80278414D01*
X187507809Y-80278414D02*
X187484000Y-80326033D01*
X187484000Y-80326033D02*
X187460190Y-80349842D01*
X187460190Y-80349842D02*
X187412571Y-80373652D01*
X187412571Y-80373652D02*
X187293523Y-80373652D01*
X187293523Y-80373652D02*
X187245904Y-80349842D01*
X187245904Y-80349842D02*
X187222095Y-80326033D01*
X187222095Y-80326033D02*
X187198285Y-80278414D01*
X187198285Y-80278414D02*
X187198285Y-80183176D01*
X187198285Y-80183176D02*
X187222095Y-80135557D01*
X187222095Y-80135557D02*
X187245904Y-80111747D01*
X187245904Y-80111747D02*
X187293523Y-80087938D01*
D11*
X185439164Y-76789285D02*
X185439164Y-76860714D01*
X185439164Y-76860714D02*
X185474878Y-76932142D01*
X185474878Y-76932142D02*
X185510592Y-76967857D01*
X185510592Y-76967857D02*
X185582021Y-77003571D01*
X185582021Y-77003571D02*
X185724878Y-77039285D01*
X185724878Y-77039285D02*
X185903450Y-77039285D01*
X185903450Y-77039285D02*
X186046307Y-77003571D01*
X186046307Y-77003571D02*
X186117735Y-76967857D01*
X186117735Y-76967857D02*
X186153450Y-76932142D01*
X186153450Y-76932142D02*
X186189164Y-76860714D01*
X186189164Y-76860714D02*
X186189164Y-76789285D01*
X186189164Y-76789285D02*
X186153450Y-76717857D01*
X186153450Y-76717857D02*
X186117735Y-76682142D01*
X186117735Y-76682142D02*
X186046307Y-76646428D01*
X186046307Y-76646428D02*
X185903450Y-76610714D01*
X185903450Y-76610714D02*
X185724878Y-76610714D01*
X185724878Y-76610714D02*
X185582021Y-76646428D01*
X185582021Y-76646428D02*
X185510592Y-76682142D01*
X185510592Y-76682142D02*
X185474878Y-76717857D01*
X185474878Y-76717857D02*
X185439164Y-76789285D01*
X186189164Y-77789285D02*
X185832021Y-77539285D01*
X186189164Y-77360714D02*
X185439164Y-77360714D01*
X185439164Y-77360714D02*
X185439164Y-77646428D01*
X185439164Y-77646428D02*
X185474878Y-77717857D01*
X185474878Y-77717857D02*
X185510592Y-77753571D01*
X185510592Y-77753571D02*
X185582021Y-77789285D01*
X185582021Y-77789285D02*
X185689164Y-77789285D01*
X185689164Y-77789285D02*
X185760592Y-77753571D01*
X185760592Y-77753571D02*
X185796307Y-77717857D01*
X185796307Y-77717857D02*
X185832021Y-77646428D01*
X185832021Y-77646428D02*
X185832021Y-77360714D01*
D10*
X201174809Y-107578571D02*
X200936714Y-107411905D01*
X201174809Y-107292857D02*
X200674809Y-107292857D01*
X200674809Y-107292857D02*
X200674809Y-107483333D01*
X200674809Y-107483333D02*
X200698619Y-107530952D01*
X200698619Y-107530952D02*
X200722428Y-107554762D01*
X200722428Y-107554762D02*
X200770047Y-107578571D01*
X200770047Y-107578571D02*
X200841476Y-107578571D01*
X200841476Y-107578571D02*
X200889095Y-107554762D01*
X200889095Y-107554762D02*
X200912904Y-107530952D01*
X200912904Y-107530952D02*
X200936714Y-107483333D01*
X200936714Y-107483333D02*
X200936714Y-107292857D01*
X200722428Y-107769048D02*
X200698619Y-107792857D01*
X200698619Y-107792857D02*
X200674809Y-107840476D01*
X200674809Y-107840476D02*
X200674809Y-107959524D01*
X200674809Y-107959524D02*
X200698619Y-108007143D01*
X200698619Y-108007143D02*
X200722428Y-108030952D01*
X200722428Y-108030952D02*
X200770047Y-108054762D01*
X200770047Y-108054762D02*
X200817666Y-108054762D01*
X200817666Y-108054762D02*
X200889095Y-108030952D01*
X200889095Y-108030952D02*
X201174809Y-107745238D01*
X201174809Y-107745238D02*
X201174809Y-108054762D01*
X200674809Y-108364285D02*
X200674809Y-108411904D01*
X200674809Y-108411904D02*
X200698619Y-108459523D01*
X200698619Y-108459523D02*
X200722428Y-108483333D01*
X200722428Y-108483333D02*
X200770047Y-108507142D01*
X200770047Y-108507142D02*
X200865285Y-108530952D01*
X200865285Y-108530952D02*
X200984333Y-108530952D01*
X200984333Y-108530952D02*
X201079571Y-108507142D01*
X201079571Y-108507142D02*
X201127190Y-108483333D01*
X201127190Y-108483333D02*
X201151000Y-108459523D01*
X201151000Y-108459523D02*
X201174809Y-108411904D01*
X201174809Y-108411904D02*
X201174809Y-108364285D01*
X201174809Y-108364285D02*
X201151000Y-108316666D01*
X201151000Y-108316666D02*
X201127190Y-108292857D01*
X201127190Y-108292857D02*
X201079571Y-108269047D01*
X201079571Y-108269047D02*
X200984333Y-108245238D01*
X200984333Y-108245238D02*
X200865285Y-108245238D01*
X200865285Y-108245238D02*
X200770047Y-108269047D01*
X200770047Y-108269047D02*
X200722428Y-108292857D01*
X200722428Y-108292857D02*
X200698619Y-108316666D01*
X200698619Y-108316666D02*
X200674809Y-108364285D01*
D11*
X201219964Y-105359171D02*
X201219964Y-104930600D01*
X201219964Y-105144885D02*
X200469964Y-105144885D01*
X200469964Y-105144885D02*
X200577107Y-105073457D01*
X200577107Y-105073457D02*
X200648535Y-105002028D01*
X200648535Y-105002028D02*
X200684250Y-104930600D01*
X200469964Y-105823457D02*
X200469964Y-105894886D01*
X200469964Y-105894886D02*
X200505678Y-105966314D01*
X200505678Y-105966314D02*
X200541392Y-106002029D01*
X200541392Y-106002029D02*
X200612821Y-106037743D01*
X200612821Y-106037743D02*
X200755678Y-106073457D01*
X200755678Y-106073457D02*
X200934250Y-106073457D01*
X200934250Y-106073457D02*
X201077107Y-106037743D01*
X201077107Y-106037743D02*
X201148535Y-106002029D01*
X201148535Y-106002029D02*
X201184250Y-105966314D01*
X201184250Y-105966314D02*
X201219964Y-105894886D01*
X201219964Y-105894886D02*
X201219964Y-105823457D01*
X201219964Y-105823457D02*
X201184250Y-105752029D01*
X201184250Y-105752029D02*
X201148535Y-105716314D01*
X201148535Y-105716314D02*
X201077107Y-105680600D01*
X201077107Y-105680600D02*
X200934250Y-105644886D01*
X200934250Y-105644886D02*
X200755678Y-105644886D01*
X200755678Y-105644886D02*
X200612821Y-105680600D01*
X200612821Y-105680600D02*
X200541392Y-105716314D01*
X200541392Y-105716314D02*
X200505678Y-105752029D01*
X200505678Y-105752029D02*
X200469964Y-105823457D01*
X201219964Y-106394886D02*
X200469964Y-106394886D01*
X200934250Y-106466315D02*
X201219964Y-106680600D01*
X200719964Y-106680600D02*
X201005678Y-106394886D01*
D12*
%TO.C,R19*%
X186877500Y-103145724D02*
X186877500Y-102636276D01*
X187922500Y-103145724D02*
X187922500Y-102636276D01*
%TO.C,R6*%
X199002500Y-65817224D02*
X199002500Y-65307776D01*
X200047500Y-65817224D02*
X200047500Y-65307776D01*
%TO.C,R11*%
X186877500Y-66212324D02*
X186877500Y-65702876D01*
X187922500Y-66212324D02*
X187922500Y-65702876D01*
%TO.C,R9*%
X186787900Y-62134776D02*
X186787900Y-62644224D01*
X187832900Y-62134776D02*
X187832900Y-62644224D01*
%TO.C,C11*%
X199040000Y-101611833D02*
X199040000Y-101904367D01*
X200060000Y-101611833D02*
X200060000Y-101904367D01*
%TO.C,R7*%
X185502500Y-88254724D02*
X185502500Y-87745276D01*
X186547500Y-88254724D02*
X186547500Y-87745276D01*
%TO.C,R18*%
X186877500Y-93065876D02*
X186877500Y-93575324D01*
X187922500Y-93065876D02*
X187922500Y-93575324D01*
%TO.C,R12*%
X199027500Y-78268776D02*
X199027500Y-78778224D01*
X200072500Y-78268776D02*
X200072500Y-78778224D01*
%TO.C,C10*%
X186890000Y-98076167D02*
X186890000Y-97783633D01*
X187910000Y-98076167D02*
X187910000Y-97783633D01*
%TO.C,R17*%
X198952500Y-93867224D02*
X198952500Y-93357776D01*
X199997500Y-93867224D02*
X199997500Y-93357776D01*
%TO.C,R14*%
X186877500Y-73332776D02*
X186877500Y-73842224D01*
X187922500Y-73332776D02*
X187922500Y-73842224D01*
%TO.C,R16*%
X186777500Y-77479724D02*
X186777500Y-76970276D01*
X187822500Y-77479724D02*
X187822500Y-76970276D01*
%TO.C,R20*%
X199027500Y-106153824D02*
X199027500Y-105644376D01*
X200072500Y-106153824D02*
X200072500Y-105644376D01*
%TD*%
M02*
