%TF.GenerationSoftware,KiCad,Pcbnew,8.0.3*%
%TF.CreationDate,2024-06-13T16:05:26+05:30*%
%TF.ProjectId,OptoIsolation,4f70746f-4973-46f6-9c61-74696f6e2e6b,rev?*%
%TF.SameCoordinates,Original*%
%TF.FileFunction,AssemblyDrawing,Bot*%
%FSLAX46Y46*%
G04 Gerber Fmt 4.6, Leading zero omitted, Abs format (unit mm)*
G04 Created by KiCad (PCBNEW 8.0.3) date 2024-06-13 16:05:26*
%MOMM*%
%LPD*%
G01*
G04 APERTURE LIST*
%ADD10C,0.060000*%
%ADD11C,0.100000*%
G04 APERTURE END LIST*
D10*
X187581927Y-102633857D02*
X187391451Y-102500524D01*
X187581927Y-102405286D02*
X187181927Y-102405286D01*
X187181927Y-102405286D02*
X187181927Y-102557667D01*
X187181927Y-102557667D02*
X187200975Y-102595762D01*
X187200975Y-102595762D02*
X187220022Y-102614809D01*
X187220022Y-102614809D02*
X187258118Y-102633857D01*
X187258118Y-102633857D02*
X187315260Y-102633857D01*
X187315260Y-102633857D02*
X187353356Y-102614809D01*
X187353356Y-102614809D02*
X187372403Y-102595762D01*
X187372403Y-102595762D02*
X187391451Y-102557667D01*
X187391451Y-102557667D02*
X187391451Y-102405286D01*
X187581927Y-103014809D02*
X187581927Y-102786238D01*
X187581927Y-102900524D02*
X187181927Y-102900524D01*
X187181927Y-102900524D02*
X187239070Y-102862428D01*
X187239070Y-102862428D02*
X187277165Y-102824333D01*
X187277165Y-102824333D02*
X187296213Y-102786238D01*
X187581927Y-103205285D02*
X187581927Y-103281476D01*
X187581927Y-103281476D02*
X187562880Y-103319571D01*
X187562880Y-103319571D02*
X187543832Y-103338619D01*
X187543832Y-103338619D02*
X187486689Y-103376714D01*
X187486689Y-103376714D02*
X187410499Y-103395761D01*
X187410499Y-103395761D02*
X187258118Y-103395761D01*
X187258118Y-103395761D02*
X187220022Y-103376714D01*
X187220022Y-103376714D02*
X187200975Y-103357666D01*
X187200975Y-103357666D02*
X187181927Y-103319571D01*
X187181927Y-103319571D02*
X187181927Y-103243380D01*
X187181927Y-103243380D02*
X187200975Y-103205285D01*
X187200975Y-103205285D02*
X187220022Y-103186238D01*
X187220022Y-103186238D02*
X187258118Y-103167190D01*
X187258118Y-103167190D02*
X187353356Y-103167190D01*
X187353356Y-103167190D02*
X187391451Y-103186238D01*
X187391451Y-103186238D02*
X187410499Y-103205285D01*
X187410499Y-103205285D02*
X187429546Y-103243380D01*
X187429546Y-103243380D02*
X187429546Y-103319571D01*
X187429546Y-103319571D02*
X187410499Y-103357666D01*
X187410499Y-103357666D02*
X187391451Y-103376714D01*
X187391451Y-103376714D02*
X187353356Y-103395761D01*
X199706927Y-65495833D02*
X199516451Y-65362500D01*
X199706927Y-65267262D02*
X199306927Y-65267262D01*
X199306927Y-65267262D02*
X199306927Y-65419643D01*
X199306927Y-65419643D02*
X199325975Y-65457738D01*
X199325975Y-65457738D02*
X199345022Y-65476785D01*
X199345022Y-65476785D02*
X199383118Y-65495833D01*
X199383118Y-65495833D02*
X199440260Y-65495833D01*
X199440260Y-65495833D02*
X199478356Y-65476785D01*
X199478356Y-65476785D02*
X199497403Y-65457738D01*
X199497403Y-65457738D02*
X199516451Y-65419643D01*
X199516451Y-65419643D02*
X199516451Y-65267262D01*
X199306927Y-65838690D02*
X199306927Y-65762500D01*
X199306927Y-65762500D02*
X199325975Y-65724404D01*
X199325975Y-65724404D02*
X199345022Y-65705357D01*
X199345022Y-65705357D02*
X199402165Y-65667262D01*
X199402165Y-65667262D02*
X199478356Y-65648214D01*
X199478356Y-65648214D02*
X199630737Y-65648214D01*
X199630737Y-65648214D02*
X199668832Y-65667262D01*
X199668832Y-65667262D02*
X199687880Y-65686309D01*
X199687880Y-65686309D02*
X199706927Y-65724404D01*
X199706927Y-65724404D02*
X199706927Y-65800595D01*
X199706927Y-65800595D02*
X199687880Y-65838690D01*
X199687880Y-65838690D02*
X199668832Y-65857738D01*
X199668832Y-65857738D02*
X199630737Y-65876785D01*
X199630737Y-65876785D02*
X199535499Y-65876785D01*
X199535499Y-65876785D02*
X199497403Y-65857738D01*
X199497403Y-65857738D02*
X199478356Y-65838690D01*
X199478356Y-65838690D02*
X199459308Y-65800595D01*
X199459308Y-65800595D02*
X199459308Y-65724404D01*
X199459308Y-65724404D02*
X199478356Y-65686309D01*
X199478356Y-65686309D02*
X199497403Y-65667262D01*
X199497403Y-65667262D02*
X199535499Y-65648214D01*
X187581927Y-65700457D02*
X187391451Y-65567124D01*
X187581927Y-65471886D02*
X187181927Y-65471886D01*
X187181927Y-65471886D02*
X187181927Y-65624267D01*
X187181927Y-65624267D02*
X187200975Y-65662362D01*
X187200975Y-65662362D02*
X187220022Y-65681409D01*
X187220022Y-65681409D02*
X187258118Y-65700457D01*
X187258118Y-65700457D02*
X187315260Y-65700457D01*
X187315260Y-65700457D02*
X187353356Y-65681409D01*
X187353356Y-65681409D02*
X187372403Y-65662362D01*
X187372403Y-65662362D02*
X187391451Y-65624267D01*
X187391451Y-65624267D02*
X187391451Y-65471886D01*
X187581927Y-66081409D02*
X187581927Y-65852838D01*
X187581927Y-65967124D02*
X187181927Y-65967124D01*
X187181927Y-65967124D02*
X187239070Y-65929028D01*
X187239070Y-65929028D02*
X187277165Y-65890933D01*
X187277165Y-65890933D02*
X187296213Y-65852838D01*
X187581927Y-66462361D02*
X187581927Y-66233790D01*
X187581927Y-66348076D02*
X187181927Y-66348076D01*
X187181927Y-66348076D02*
X187239070Y-66309980D01*
X187239070Y-66309980D02*
X187277165Y-66271885D01*
X187277165Y-66271885D02*
X187296213Y-66233790D01*
X187492327Y-62322833D02*
X187301851Y-62189500D01*
X187492327Y-62094262D02*
X187092327Y-62094262D01*
X187092327Y-62094262D02*
X187092327Y-62246643D01*
X187092327Y-62246643D02*
X187111375Y-62284738D01*
X187111375Y-62284738D02*
X187130422Y-62303785D01*
X187130422Y-62303785D02*
X187168518Y-62322833D01*
X187168518Y-62322833D02*
X187225660Y-62322833D01*
X187225660Y-62322833D02*
X187263756Y-62303785D01*
X187263756Y-62303785D02*
X187282803Y-62284738D01*
X187282803Y-62284738D02*
X187301851Y-62246643D01*
X187301851Y-62246643D02*
X187301851Y-62094262D01*
X187492327Y-62513309D02*
X187492327Y-62589500D01*
X187492327Y-62589500D02*
X187473280Y-62627595D01*
X187473280Y-62627595D02*
X187454232Y-62646643D01*
X187454232Y-62646643D02*
X187397089Y-62684738D01*
X187397089Y-62684738D02*
X187320899Y-62703785D01*
X187320899Y-62703785D02*
X187168518Y-62703785D01*
X187168518Y-62703785D02*
X187130422Y-62684738D01*
X187130422Y-62684738D02*
X187111375Y-62665690D01*
X187111375Y-62665690D02*
X187092327Y-62627595D01*
X187092327Y-62627595D02*
X187092327Y-62551404D01*
X187092327Y-62551404D02*
X187111375Y-62513309D01*
X187111375Y-62513309D02*
X187130422Y-62494262D01*
X187130422Y-62494262D02*
X187168518Y-62475214D01*
X187168518Y-62475214D02*
X187263756Y-62475214D01*
X187263756Y-62475214D02*
X187301851Y-62494262D01*
X187301851Y-62494262D02*
X187320899Y-62513309D01*
X187320899Y-62513309D02*
X187339946Y-62551404D01*
X187339946Y-62551404D02*
X187339946Y-62627595D01*
X187339946Y-62627595D02*
X187320899Y-62665690D01*
X187320899Y-62665690D02*
X187301851Y-62684738D01*
X187301851Y-62684738D02*
X187263756Y-62703785D01*
X199693832Y-101500957D02*
X199712880Y-101481909D01*
X199712880Y-101481909D02*
X199731927Y-101424767D01*
X199731927Y-101424767D02*
X199731927Y-101386671D01*
X199731927Y-101386671D02*
X199712880Y-101329528D01*
X199712880Y-101329528D02*
X199674784Y-101291433D01*
X199674784Y-101291433D02*
X199636689Y-101272386D01*
X199636689Y-101272386D02*
X199560499Y-101253338D01*
X199560499Y-101253338D02*
X199503356Y-101253338D01*
X199503356Y-101253338D02*
X199427165Y-101272386D01*
X199427165Y-101272386D02*
X199389070Y-101291433D01*
X199389070Y-101291433D02*
X199350975Y-101329528D01*
X199350975Y-101329528D02*
X199331927Y-101386671D01*
X199331927Y-101386671D02*
X199331927Y-101424767D01*
X199331927Y-101424767D02*
X199350975Y-101481909D01*
X199350975Y-101481909D02*
X199370022Y-101500957D01*
X199731927Y-101881909D02*
X199731927Y-101653338D01*
X199731927Y-101767624D02*
X199331927Y-101767624D01*
X199331927Y-101767624D02*
X199389070Y-101729528D01*
X199389070Y-101729528D02*
X199427165Y-101691433D01*
X199427165Y-101691433D02*
X199446213Y-101653338D01*
X199731927Y-102262861D02*
X199731927Y-102034290D01*
X199731927Y-102148576D02*
X199331927Y-102148576D01*
X199331927Y-102148576D02*
X199389070Y-102110480D01*
X199389070Y-102110480D02*
X199427165Y-102072385D01*
X199427165Y-102072385D02*
X199446213Y-102034290D01*
X186206927Y-87933333D02*
X186016451Y-87800000D01*
X186206927Y-87704762D02*
X185806927Y-87704762D01*
X185806927Y-87704762D02*
X185806927Y-87857143D01*
X185806927Y-87857143D02*
X185825975Y-87895238D01*
X185825975Y-87895238D02*
X185845022Y-87914285D01*
X185845022Y-87914285D02*
X185883118Y-87933333D01*
X185883118Y-87933333D02*
X185940260Y-87933333D01*
X185940260Y-87933333D02*
X185978356Y-87914285D01*
X185978356Y-87914285D02*
X185997403Y-87895238D01*
X185997403Y-87895238D02*
X186016451Y-87857143D01*
X186016451Y-87857143D02*
X186016451Y-87704762D01*
X185806927Y-88066666D02*
X185806927Y-88333333D01*
X185806927Y-88333333D02*
X186206927Y-88161904D01*
X187581927Y-93063457D02*
X187391451Y-92930124D01*
X187581927Y-92834886D02*
X187181927Y-92834886D01*
X187181927Y-92834886D02*
X187181927Y-92987267D01*
X187181927Y-92987267D02*
X187200975Y-93025362D01*
X187200975Y-93025362D02*
X187220022Y-93044409D01*
X187220022Y-93044409D02*
X187258118Y-93063457D01*
X187258118Y-93063457D02*
X187315260Y-93063457D01*
X187315260Y-93063457D02*
X187353356Y-93044409D01*
X187353356Y-93044409D02*
X187372403Y-93025362D01*
X187372403Y-93025362D02*
X187391451Y-92987267D01*
X187391451Y-92987267D02*
X187391451Y-92834886D01*
X187581927Y-93444409D02*
X187581927Y-93215838D01*
X187581927Y-93330124D02*
X187181927Y-93330124D01*
X187181927Y-93330124D02*
X187239070Y-93292028D01*
X187239070Y-93292028D02*
X187277165Y-93253933D01*
X187277165Y-93253933D02*
X187296213Y-93215838D01*
X187353356Y-93672980D02*
X187334308Y-93634885D01*
X187334308Y-93634885D02*
X187315260Y-93615838D01*
X187315260Y-93615838D02*
X187277165Y-93596790D01*
X187277165Y-93596790D02*
X187258118Y-93596790D01*
X187258118Y-93596790D02*
X187220022Y-93615838D01*
X187220022Y-93615838D02*
X187200975Y-93634885D01*
X187200975Y-93634885D02*
X187181927Y-93672980D01*
X187181927Y-93672980D02*
X187181927Y-93749171D01*
X187181927Y-93749171D02*
X187200975Y-93787266D01*
X187200975Y-93787266D02*
X187220022Y-93806314D01*
X187220022Y-93806314D02*
X187258118Y-93825361D01*
X187258118Y-93825361D02*
X187277165Y-93825361D01*
X187277165Y-93825361D02*
X187315260Y-93806314D01*
X187315260Y-93806314D02*
X187334308Y-93787266D01*
X187334308Y-93787266D02*
X187353356Y-93749171D01*
X187353356Y-93749171D02*
X187353356Y-93672980D01*
X187353356Y-93672980D02*
X187372403Y-93634885D01*
X187372403Y-93634885D02*
X187391451Y-93615838D01*
X187391451Y-93615838D02*
X187429546Y-93596790D01*
X187429546Y-93596790D02*
X187505737Y-93596790D01*
X187505737Y-93596790D02*
X187543832Y-93615838D01*
X187543832Y-93615838D02*
X187562880Y-93634885D01*
X187562880Y-93634885D02*
X187581927Y-93672980D01*
X187581927Y-93672980D02*
X187581927Y-93749171D01*
X187581927Y-93749171D02*
X187562880Y-93787266D01*
X187562880Y-93787266D02*
X187543832Y-93806314D01*
X187543832Y-93806314D02*
X187505737Y-93825361D01*
X187505737Y-93825361D02*
X187429546Y-93825361D01*
X187429546Y-93825361D02*
X187391451Y-93806314D01*
X187391451Y-93806314D02*
X187372403Y-93787266D01*
X187372403Y-93787266D02*
X187353356Y-93749171D01*
X199731927Y-78266357D02*
X199541451Y-78133024D01*
X199731927Y-78037786D02*
X199331927Y-78037786D01*
X199331927Y-78037786D02*
X199331927Y-78190167D01*
X199331927Y-78190167D02*
X199350975Y-78228262D01*
X199350975Y-78228262D02*
X199370022Y-78247309D01*
X199370022Y-78247309D02*
X199408118Y-78266357D01*
X199408118Y-78266357D02*
X199465260Y-78266357D01*
X199465260Y-78266357D02*
X199503356Y-78247309D01*
X199503356Y-78247309D02*
X199522403Y-78228262D01*
X199522403Y-78228262D02*
X199541451Y-78190167D01*
X199541451Y-78190167D02*
X199541451Y-78037786D01*
X199731927Y-78647309D02*
X199731927Y-78418738D01*
X199731927Y-78533024D02*
X199331927Y-78533024D01*
X199331927Y-78533024D02*
X199389070Y-78494928D01*
X199389070Y-78494928D02*
X199427165Y-78456833D01*
X199427165Y-78456833D02*
X199446213Y-78418738D01*
X199370022Y-78799690D02*
X199350975Y-78818738D01*
X199350975Y-78818738D02*
X199331927Y-78856833D01*
X199331927Y-78856833D02*
X199331927Y-78952071D01*
X199331927Y-78952071D02*
X199350975Y-78990166D01*
X199350975Y-78990166D02*
X199370022Y-79009214D01*
X199370022Y-79009214D02*
X199408118Y-79028261D01*
X199408118Y-79028261D02*
X199446213Y-79028261D01*
X199446213Y-79028261D02*
X199503356Y-79009214D01*
X199503356Y-79009214D02*
X199731927Y-78780642D01*
X199731927Y-78780642D02*
X199731927Y-79028261D01*
X187543832Y-97672757D02*
X187562880Y-97653709D01*
X187562880Y-97653709D02*
X187581927Y-97596567D01*
X187581927Y-97596567D02*
X187581927Y-97558471D01*
X187581927Y-97558471D02*
X187562880Y-97501328D01*
X187562880Y-97501328D02*
X187524784Y-97463233D01*
X187524784Y-97463233D02*
X187486689Y-97444186D01*
X187486689Y-97444186D02*
X187410499Y-97425138D01*
X187410499Y-97425138D02*
X187353356Y-97425138D01*
X187353356Y-97425138D02*
X187277165Y-97444186D01*
X187277165Y-97444186D02*
X187239070Y-97463233D01*
X187239070Y-97463233D02*
X187200975Y-97501328D01*
X187200975Y-97501328D02*
X187181927Y-97558471D01*
X187181927Y-97558471D02*
X187181927Y-97596567D01*
X187181927Y-97596567D02*
X187200975Y-97653709D01*
X187200975Y-97653709D02*
X187220022Y-97672757D01*
X187581927Y-98053709D02*
X187581927Y-97825138D01*
X187581927Y-97939424D02*
X187181927Y-97939424D01*
X187181927Y-97939424D02*
X187239070Y-97901328D01*
X187239070Y-97901328D02*
X187277165Y-97863233D01*
X187277165Y-97863233D02*
X187296213Y-97825138D01*
X187181927Y-98301328D02*
X187181927Y-98339423D01*
X187181927Y-98339423D02*
X187200975Y-98377519D01*
X187200975Y-98377519D02*
X187220022Y-98396566D01*
X187220022Y-98396566D02*
X187258118Y-98415614D01*
X187258118Y-98415614D02*
X187334308Y-98434661D01*
X187334308Y-98434661D02*
X187429546Y-98434661D01*
X187429546Y-98434661D02*
X187505737Y-98415614D01*
X187505737Y-98415614D02*
X187543832Y-98396566D01*
X187543832Y-98396566D02*
X187562880Y-98377519D01*
X187562880Y-98377519D02*
X187581927Y-98339423D01*
X187581927Y-98339423D02*
X187581927Y-98301328D01*
X187581927Y-98301328D02*
X187562880Y-98263233D01*
X187562880Y-98263233D02*
X187543832Y-98244185D01*
X187543832Y-98244185D02*
X187505737Y-98225138D01*
X187505737Y-98225138D02*
X187429546Y-98206090D01*
X187429546Y-98206090D02*
X187334308Y-98206090D01*
X187334308Y-98206090D02*
X187258118Y-98225138D01*
X187258118Y-98225138D02*
X187220022Y-98244185D01*
X187220022Y-98244185D02*
X187200975Y-98263233D01*
X187200975Y-98263233D02*
X187181927Y-98301328D01*
X199656927Y-93355357D02*
X199466451Y-93222024D01*
X199656927Y-93126786D02*
X199256927Y-93126786D01*
X199256927Y-93126786D02*
X199256927Y-93279167D01*
X199256927Y-93279167D02*
X199275975Y-93317262D01*
X199275975Y-93317262D02*
X199295022Y-93336309D01*
X199295022Y-93336309D02*
X199333118Y-93355357D01*
X199333118Y-93355357D02*
X199390260Y-93355357D01*
X199390260Y-93355357D02*
X199428356Y-93336309D01*
X199428356Y-93336309D02*
X199447403Y-93317262D01*
X199447403Y-93317262D02*
X199466451Y-93279167D01*
X199466451Y-93279167D02*
X199466451Y-93126786D01*
X199656927Y-93736309D02*
X199656927Y-93507738D01*
X199656927Y-93622024D02*
X199256927Y-93622024D01*
X199256927Y-93622024D02*
X199314070Y-93583928D01*
X199314070Y-93583928D02*
X199352165Y-93545833D01*
X199352165Y-93545833D02*
X199371213Y-93507738D01*
X199256927Y-93869642D02*
X199256927Y-94136309D01*
X199256927Y-94136309D02*
X199656927Y-93964880D01*
X187581927Y-73330357D02*
X187391451Y-73197024D01*
X187581927Y-73101786D02*
X187181927Y-73101786D01*
X187181927Y-73101786D02*
X187181927Y-73254167D01*
X187181927Y-73254167D02*
X187200975Y-73292262D01*
X187200975Y-73292262D02*
X187220022Y-73311309D01*
X187220022Y-73311309D02*
X187258118Y-73330357D01*
X187258118Y-73330357D02*
X187315260Y-73330357D01*
X187315260Y-73330357D02*
X187353356Y-73311309D01*
X187353356Y-73311309D02*
X187372403Y-73292262D01*
X187372403Y-73292262D02*
X187391451Y-73254167D01*
X187391451Y-73254167D02*
X187391451Y-73101786D01*
X187581927Y-73711309D02*
X187581927Y-73482738D01*
X187581927Y-73597024D02*
X187181927Y-73597024D01*
X187181927Y-73597024D02*
X187239070Y-73558928D01*
X187239070Y-73558928D02*
X187277165Y-73520833D01*
X187277165Y-73520833D02*
X187296213Y-73482738D01*
X187315260Y-74054166D02*
X187581927Y-74054166D01*
X187162880Y-73958928D02*
X187448594Y-73863690D01*
X187448594Y-73863690D02*
X187448594Y-74111309D01*
X187481927Y-76967857D02*
X187291451Y-76834524D01*
X187481927Y-76739286D02*
X187081927Y-76739286D01*
X187081927Y-76739286D02*
X187081927Y-76891667D01*
X187081927Y-76891667D02*
X187100975Y-76929762D01*
X187100975Y-76929762D02*
X187120022Y-76948809D01*
X187120022Y-76948809D02*
X187158118Y-76967857D01*
X187158118Y-76967857D02*
X187215260Y-76967857D01*
X187215260Y-76967857D02*
X187253356Y-76948809D01*
X187253356Y-76948809D02*
X187272403Y-76929762D01*
X187272403Y-76929762D02*
X187291451Y-76891667D01*
X187291451Y-76891667D02*
X187291451Y-76739286D01*
X187481927Y-77348809D02*
X187481927Y-77120238D01*
X187481927Y-77234524D02*
X187081927Y-77234524D01*
X187081927Y-77234524D02*
X187139070Y-77196428D01*
X187139070Y-77196428D02*
X187177165Y-77158333D01*
X187177165Y-77158333D02*
X187196213Y-77120238D01*
X187081927Y-77691666D02*
X187081927Y-77615476D01*
X187081927Y-77615476D02*
X187100975Y-77577380D01*
X187100975Y-77577380D02*
X187120022Y-77558333D01*
X187120022Y-77558333D02*
X187177165Y-77520238D01*
X187177165Y-77520238D02*
X187253356Y-77501190D01*
X187253356Y-77501190D02*
X187405737Y-77501190D01*
X187405737Y-77501190D02*
X187443832Y-77520238D01*
X187443832Y-77520238D02*
X187462880Y-77539285D01*
X187462880Y-77539285D02*
X187481927Y-77577380D01*
X187481927Y-77577380D02*
X187481927Y-77653571D01*
X187481927Y-77653571D02*
X187462880Y-77691666D01*
X187462880Y-77691666D02*
X187443832Y-77710714D01*
X187443832Y-77710714D02*
X187405737Y-77729761D01*
X187405737Y-77729761D02*
X187310499Y-77729761D01*
X187310499Y-77729761D02*
X187272403Y-77710714D01*
X187272403Y-77710714D02*
X187253356Y-77691666D01*
X187253356Y-77691666D02*
X187234308Y-77653571D01*
X187234308Y-77653571D02*
X187234308Y-77577380D01*
X187234308Y-77577380D02*
X187253356Y-77539285D01*
X187253356Y-77539285D02*
X187272403Y-77520238D01*
X187272403Y-77520238D02*
X187310499Y-77501190D01*
X199731927Y-105641957D02*
X199541451Y-105508624D01*
X199731927Y-105413386D02*
X199331927Y-105413386D01*
X199331927Y-105413386D02*
X199331927Y-105565767D01*
X199331927Y-105565767D02*
X199350975Y-105603862D01*
X199350975Y-105603862D02*
X199370022Y-105622909D01*
X199370022Y-105622909D02*
X199408118Y-105641957D01*
X199408118Y-105641957D02*
X199465260Y-105641957D01*
X199465260Y-105641957D02*
X199503356Y-105622909D01*
X199503356Y-105622909D02*
X199522403Y-105603862D01*
X199522403Y-105603862D02*
X199541451Y-105565767D01*
X199541451Y-105565767D02*
X199541451Y-105413386D01*
X199370022Y-105794338D02*
X199350975Y-105813386D01*
X199350975Y-105813386D02*
X199331927Y-105851481D01*
X199331927Y-105851481D02*
X199331927Y-105946719D01*
X199331927Y-105946719D02*
X199350975Y-105984814D01*
X199350975Y-105984814D02*
X199370022Y-106003862D01*
X199370022Y-106003862D02*
X199408118Y-106022909D01*
X199408118Y-106022909D02*
X199446213Y-106022909D01*
X199446213Y-106022909D02*
X199503356Y-106003862D01*
X199503356Y-106003862D02*
X199731927Y-105775290D01*
X199731927Y-105775290D02*
X199731927Y-106022909D01*
X199331927Y-106270528D02*
X199331927Y-106308623D01*
X199331927Y-106308623D02*
X199350975Y-106346719D01*
X199350975Y-106346719D02*
X199370022Y-106365766D01*
X199370022Y-106365766D02*
X199408118Y-106384814D01*
X199408118Y-106384814D02*
X199484308Y-106403861D01*
X199484308Y-106403861D02*
X199579546Y-106403861D01*
X199579546Y-106403861D02*
X199655737Y-106384814D01*
X199655737Y-106384814D02*
X199693832Y-106365766D01*
X199693832Y-106365766D02*
X199712880Y-106346719D01*
X199712880Y-106346719D02*
X199731927Y-106308623D01*
X199731927Y-106308623D02*
X199731927Y-106270528D01*
X199731927Y-106270528D02*
X199712880Y-106232433D01*
X199712880Y-106232433D02*
X199693832Y-106213385D01*
X199693832Y-106213385D02*
X199655737Y-106194338D01*
X199655737Y-106194338D02*
X199579546Y-106175290D01*
X199579546Y-106175290D02*
X199484308Y-106175290D01*
X199484308Y-106175290D02*
X199408118Y-106194338D01*
X199408118Y-106194338D02*
X199370022Y-106213385D01*
X199370022Y-106213385D02*
X199350975Y-106232433D01*
X199350975Y-106232433D02*
X199331927Y-106270528D01*
D11*
%TO.C,R19*%
X186987500Y-102091000D02*
X187812500Y-102091000D01*
X186987500Y-103691000D02*
X186987500Y-102091000D01*
X187812500Y-102091000D02*
X187812500Y-103691000D01*
X187812500Y-103691000D02*
X186987500Y-103691000D01*
%TO.C,R6*%
X199112500Y-64762500D02*
X199937500Y-64762500D01*
X199112500Y-66362500D02*
X199112500Y-64762500D01*
X199937500Y-64762500D02*
X199937500Y-66362500D01*
X199937500Y-66362500D02*
X199112500Y-66362500D01*
%TO.C,R11*%
X186987500Y-65157600D02*
X187812500Y-65157600D01*
X186987500Y-66757600D02*
X186987500Y-65157600D01*
X187812500Y-65157600D02*
X187812500Y-66757600D01*
X187812500Y-66757600D02*
X186987500Y-66757600D01*
%TO.C,R9*%
X186897900Y-61589500D02*
X187722900Y-61589500D01*
X186897900Y-63189500D02*
X186897900Y-61589500D01*
X187722900Y-61589500D02*
X187722900Y-63189500D01*
X187722900Y-63189500D02*
X186897900Y-63189500D01*
%TO.C,C11*%
X199150000Y-100958100D02*
X199950000Y-100958100D01*
X199150000Y-102558100D02*
X199150000Y-100958100D01*
X199950000Y-100958100D02*
X199950000Y-102558100D01*
X199950000Y-102558100D02*
X199150000Y-102558100D01*
%TO.C,R7*%
X185612500Y-87200000D02*
X186437500Y-87200000D01*
X185612500Y-88800000D02*
X185612500Y-87200000D01*
X186437500Y-87200000D02*
X186437500Y-88800000D01*
X186437500Y-88800000D02*
X185612500Y-88800000D01*
%TO.C,R18*%
X186987500Y-92520600D02*
X187812500Y-92520600D01*
X186987500Y-94120600D02*
X186987500Y-92520600D01*
X187812500Y-92520600D02*
X187812500Y-94120600D01*
X187812500Y-94120600D02*
X186987500Y-94120600D01*
%TO.C,R12*%
X199137500Y-77723500D02*
X199962500Y-77723500D01*
X199137500Y-79323500D02*
X199137500Y-77723500D01*
X199962500Y-77723500D02*
X199962500Y-79323500D01*
X199962500Y-79323500D02*
X199137500Y-79323500D01*
%TO.C,C10*%
X187000000Y-97129900D02*
X187800000Y-97129900D01*
X187000000Y-98729900D02*
X187000000Y-97129900D01*
X187800000Y-97129900D02*
X187800000Y-98729900D01*
X187800000Y-98729900D02*
X187000000Y-98729900D01*
%TO.C,R17*%
X199062500Y-92812500D02*
X199887500Y-92812500D01*
X199062500Y-94412500D02*
X199062500Y-92812500D01*
X199887500Y-92812500D02*
X199887500Y-94412500D01*
X199887500Y-94412500D02*
X199062500Y-94412500D01*
%TO.C,R14*%
X186987500Y-72787500D02*
X187812500Y-72787500D01*
X186987500Y-74387500D02*
X186987500Y-72787500D01*
X187812500Y-72787500D02*
X187812500Y-74387500D01*
X187812500Y-74387500D02*
X186987500Y-74387500D01*
%TO.C,R16*%
X186887500Y-76425000D02*
X187712500Y-76425000D01*
X186887500Y-78025000D02*
X186887500Y-76425000D01*
X187712500Y-76425000D02*
X187712500Y-78025000D01*
X187712500Y-78025000D02*
X186887500Y-78025000D01*
%TO.C,R20*%
X199137500Y-105099100D02*
X199962500Y-105099100D01*
X199137500Y-106699100D02*
X199137500Y-105099100D01*
X199962500Y-105099100D02*
X199962500Y-106699100D01*
X199962500Y-106699100D02*
X199137500Y-106699100D01*
%TD*%
M02*
