%TF.GenerationSoftware,KiCad,Pcbnew,8.0.3*%
%TF.CreationDate,2024-06-13T16:05:25+05:30*%
%TF.ProjectId,OptoIsolation,4f70746f-4973-46f6-9c61-74696f6e2e6b,rev?*%
%TF.SameCoordinates,Original*%
%TF.FileFunction,Legend,Top*%
%TF.FilePolarity,Positive*%
%FSLAX46Y46*%
G04 Gerber Fmt 4.6, Leading zero omitted, Abs format (unit mm)*
G04 Created by KiCad (PCBNEW 8.0.3) date 2024-06-13 16:05:25*
%MOMM*%
%LPD*%
G01*
G04 APERTURE LIST*
%ADD10C,0.125000*%
%ADD11C,0.150000*%
%ADD12C,0.100000*%
%ADD13C,0.187500*%
%ADD14C,0.120000*%
G04 APERTURE END LIST*
D10*
X193233247Y-81012409D02*
X193233247Y-81417171D01*
X193233247Y-81417171D02*
X193257057Y-81464790D01*
X193257057Y-81464790D02*
X193280866Y-81488600D01*
X193280866Y-81488600D02*
X193328485Y-81512409D01*
X193328485Y-81512409D02*
X193423723Y-81512409D01*
X193423723Y-81512409D02*
X193471342Y-81488600D01*
X193471342Y-81488600D02*
X193495152Y-81464790D01*
X193495152Y-81464790D02*
X193518961Y-81417171D01*
X193518961Y-81417171D02*
X193518961Y-81012409D01*
X193971343Y-81012409D02*
X193876105Y-81012409D01*
X193876105Y-81012409D02*
X193828486Y-81036219D01*
X193828486Y-81036219D02*
X193804676Y-81060028D01*
X193804676Y-81060028D02*
X193757057Y-81131457D01*
X193757057Y-81131457D02*
X193733248Y-81226695D01*
X193733248Y-81226695D02*
X193733248Y-81417171D01*
X193733248Y-81417171D02*
X193757057Y-81464790D01*
X193757057Y-81464790D02*
X193780867Y-81488600D01*
X193780867Y-81488600D02*
X193828486Y-81512409D01*
X193828486Y-81512409D02*
X193923724Y-81512409D01*
X193923724Y-81512409D02*
X193971343Y-81488600D01*
X193971343Y-81488600D02*
X193995152Y-81464790D01*
X193995152Y-81464790D02*
X194018962Y-81417171D01*
X194018962Y-81417171D02*
X194018962Y-81298123D01*
X194018962Y-81298123D02*
X193995152Y-81250504D01*
X193995152Y-81250504D02*
X193971343Y-81226695D01*
X193971343Y-81226695D02*
X193923724Y-81202885D01*
X193923724Y-81202885D02*
X193828486Y-81202885D01*
X193828486Y-81202885D02*
X193780867Y-81226695D01*
X193780867Y-81226695D02*
X193757057Y-81250504D01*
X193757057Y-81250504D02*
X193733248Y-81298123D01*
X198899809Y-79061903D02*
X198899809Y-79157141D01*
X198899809Y-79157141D02*
X198923619Y-79204760D01*
X198923619Y-79204760D02*
X198947428Y-79228570D01*
X198947428Y-79228570D02*
X199018857Y-79276189D01*
X199018857Y-79276189D02*
X199114095Y-79299998D01*
X199114095Y-79299998D02*
X199304571Y-79299998D01*
X199304571Y-79299998D02*
X199352190Y-79276189D01*
X199352190Y-79276189D02*
X199376000Y-79252379D01*
X199376000Y-79252379D02*
X199399809Y-79204760D01*
X199399809Y-79204760D02*
X199399809Y-79109522D01*
X199399809Y-79109522D02*
X199376000Y-79061903D01*
X199376000Y-79061903D02*
X199352190Y-79038094D01*
X199352190Y-79038094D02*
X199304571Y-79014284D01*
X199304571Y-79014284D02*
X199185523Y-79014284D01*
X199185523Y-79014284D02*
X199137904Y-79038094D01*
X199137904Y-79038094D02*
X199114095Y-79061903D01*
X199114095Y-79061903D02*
X199090285Y-79109522D01*
X199090285Y-79109522D02*
X199090285Y-79204760D01*
X199090285Y-79204760D02*
X199114095Y-79252379D01*
X199114095Y-79252379D02*
X199137904Y-79276189D01*
X199137904Y-79276189D02*
X199185523Y-79299998D01*
X199399809Y-78799999D02*
X198899809Y-78799999D01*
X198899809Y-78799999D02*
X199399809Y-78514285D01*
X199399809Y-78514285D02*
X198899809Y-78514285D01*
X199399809Y-78014284D02*
X199399809Y-78299998D01*
X199399809Y-78157141D02*
X198899809Y-78157141D01*
X198899809Y-78157141D02*
X198971238Y-78204760D01*
X198971238Y-78204760D02*
X199018857Y-78252379D01*
X199018857Y-78252379D02*
X199042666Y-78299998D01*
X198899809Y-77847618D02*
X198899809Y-77538094D01*
X198899809Y-77538094D02*
X199090285Y-77704761D01*
X199090285Y-77704761D02*
X199090285Y-77633332D01*
X199090285Y-77633332D02*
X199114095Y-77585713D01*
X199114095Y-77585713D02*
X199137904Y-77561904D01*
X199137904Y-77561904D02*
X199185523Y-77538094D01*
X199185523Y-77538094D02*
X199304571Y-77538094D01*
X199304571Y-77538094D02*
X199352190Y-77561904D01*
X199352190Y-77561904D02*
X199376000Y-77585713D01*
X199376000Y-77585713D02*
X199399809Y-77633332D01*
X199399809Y-77633332D02*
X199399809Y-77776189D01*
X199399809Y-77776189D02*
X199376000Y-77823808D01*
X199376000Y-77823808D02*
X199352190Y-77847618D01*
X198899809Y-77371428D02*
X198899809Y-77038095D01*
X198899809Y-77038095D02*
X199399809Y-77252380D01*
X199590285Y-76704762D02*
X199566476Y-76728571D01*
X199566476Y-76728571D02*
X199495047Y-76776190D01*
X199495047Y-76776190D02*
X199447428Y-76800000D01*
X199447428Y-76800000D02*
X199376000Y-76823809D01*
X199376000Y-76823809D02*
X199256952Y-76847619D01*
X199256952Y-76847619D02*
X199161714Y-76847619D01*
X199161714Y-76847619D02*
X199042666Y-76823809D01*
X199042666Y-76823809D02*
X198971238Y-76800000D01*
X198971238Y-76800000D02*
X198923619Y-76776190D01*
X198923619Y-76776190D02*
X198852190Y-76728571D01*
X198852190Y-76728571D02*
X198828380Y-76704762D01*
X199399809Y-76514286D02*
X198899809Y-76514286D01*
X198899809Y-76514286D02*
X199256952Y-76347619D01*
X199256952Y-76347619D02*
X198899809Y-76180953D01*
X198899809Y-76180953D02*
X199399809Y-76180953D01*
X199399809Y-75871428D02*
X199376000Y-75919047D01*
X199376000Y-75919047D02*
X199352190Y-75942857D01*
X199352190Y-75942857D02*
X199304571Y-75966666D01*
X199304571Y-75966666D02*
X199161714Y-75966666D01*
X199161714Y-75966666D02*
X199114095Y-75942857D01*
X199114095Y-75942857D02*
X199090285Y-75919047D01*
X199090285Y-75919047D02*
X199066476Y-75871428D01*
X199066476Y-75871428D02*
X199066476Y-75800000D01*
X199066476Y-75800000D02*
X199090285Y-75752381D01*
X199090285Y-75752381D02*
X199114095Y-75728571D01*
X199114095Y-75728571D02*
X199161714Y-75704762D01*
X199161714Y-75704762D02*
X199304571Y-75704762D01*
X199304571Y-75704762D02*
X199352190Y-75728571D01*
X199352190Y-75728571D02*
X199376000Y-75752381D01*
X199376000Y-75752381D02*
X199399809Y-75800000D01*
X199399809Y-75800000D02*
X199399809Y-75871428D01*
X199066476Y-75561904D02*
X199066476Y-75371428D01*
X198899809Y-75490476D02*
X199328380Y-75490476D01*
X199328380Y-75490476D02*
X199376000Y-75466666D01*
X199376000Y-75466666D02*
X199399809Y-75419047D01*
X199399809Y-75419047D02*
X199399809Y-75371428D01*
X199399809Y-75133333D02*
X199376000Y-75180952D01*
X199376000Y-75180952D02*
X199352190Y-75204762D01*
X199352190Y-75204762D02*
X199304571Y-75228571D01*
X199304571Y-75228571D02*
X199161714Y-75228571D01*
X199161714Y-75228571D02*
X199114095Y-75204762D01*
X199114095Y-75204762D02*
X199090285Y-75180952D01*
X199090285Y-75180952D02*
X199066476Y-75133333D01*
X199066476Y-75133333D02*
X199066476Y-75061905D01*
X199066476Y-75061905D02*
X199090285Y-75014286D01*
X199090285Y-75014286D02*
X199114095Y-74990476D01*
X199114095Y-74990476D02*
X199161714Y-74966667D01*
X199161714Y-74966667D02*
X199304571Y-74966667D01*
X199304571Y-74966667D02*
X199352190Y-74990476D01*
X199352190Y-74990476D02*
X199376000Y-75014286D01*
X199376000Y-75014286D02*
X199399809Y-75061905D01*
X199399809Y-75061905D02*
X199399809Y-75133333D01*
X199399809Y-74752381D02*
X199066476Y-74752381D01*
X199161714Y-74752381D02*
X199114095Y-74728571D01*
X199114095Y-74728571D02*
X199090285Y-74704762D01*
X199090285Y-74704762D02*
X199066476Y-74657143D01*
X199066476Y-74657143D02*
X199066476Y-74609524D01*
X199447428Y-74561905D02*
X199447428Y-74180952D01*
X199399809Y-74061905D02*
X198899809Y-74061905D01*
X198899809Y-74061905D02*
X198899809Y-73871429D01*
X198899809Y-73871429D02*
X198923619Y-73823810D01*
X198923619Y-73823810D02*
X198947428Y-73800000D01*
X198947428Y-73800000D02*
X198995047Y-73776191D01*
X198995047Y-73776191D02*
X199066476Y-73776191D01*
X199066476Y-73776191D02*
X199114095Y-73800000D01*
X199114095Y-73800000D02*
X199137904Y-73823810D01*
X199137904Y-73823810D02*
X199161714Y-73871429D01*
X199161714Y-73871429D02*
X199161714Y-74061905D01*
X198899809Y-73609524D02*
X199399809Y-73490476D01*
X199399809Y-73490476D02*
X199042666Y-73395238D01*
X199042666Y-73395238D02*
X199399809Y-73300000D01*
X199399809Y-73300000D02*
X198899809Y-73180953D01*
X199399809Y-72990476D02*
X198899809Y-72990476D01*
X198899809Y-72990476D02*
X199256952Y-72823809D01*
X199256952Y-72823809D02*
X198899809Y-72657143D01*
X198899809Y-72657143D02*
X199399809Y-72657143D01*
X199590285Y-72466666D02*
X199566476Y-72442856D01*
X199566476Y-72442856D02*
X199495047Y-72395237D01*
X199495047Y-72395237D02*
X199447428Y-72371428D01*
X199447428Y-72371428D02*
X199376000Y-72347618D01*
X199376000Y-72347618D02*
X199256952Y-72323809D01*
X199256952Y-72323809D02*
X199161714Y-72323809D01*
X199161714Y-72323809D02*
X199042666Y-72347618D01*
X199042666Y-72347618D02*
X198971238Y-72371428D01*
X198971238Y-72371428D02*
X198923619Y-72395237D01*
X198923619Y-72395237D02*
X198852190Y-72442856D01*
X198852190Y-72442856D02*
X198828380Y-72466666D01*
X185455409Y-73597628D02*
X185217314Y-73764294D01*
X185455409Y-73883342D02*
X184955409Y-73883342D01*
X184955409Y-73883342D02*
X184955409Y-73692866D01*
X184955409Y-73692866D02*
X184979219Y-73645247D01*
X184979219Y-73645247D02*
X185003028Y-73621437D01*
X185003028Y-73621437D02*
X185050647Y-73597628D01*
X185050647Y-73597628D02*
X185122076Y-73597628D01*
X185122076Y-73597628D02*
X185169695Y-73621437D01*
X185169695Y-73621437D02*
X185193504Y-73645247D01*
X185193504Y-73645247D02*
X185217314Y-73692866D01*
X185217314Y-73692866D02*
X185217314Y-73883342D01*
X185455409Y-73121437D02*
X185455409Y-73407151D01*
X185455409Y-73264294D02*
X184955409Y-73264294D01*
X184955409Y-73264294D02*
X185026838Y-73311913D01*
X185026838Y-73311913D02*
X185074457Y-73359532D01*
X185074457Y-73359532D02*
X185098266Y-73407151D01*
X184955409Y-72669057D02*
X184955409Y-72907152D01*
X184955409Y-72907152D02*
X185193504Y-72930961D01*
X185193504Y-72930961D02*
X185169695Y-72907152D01*
X185169695Y-72907152D02*
X185145885Y-72859533D01*
X185145885Y-72859533D02*
X185145885Y-72740485D01*
X185145885Y-72740485D02*
X185169695Y-72692866D01*
X185169695Y-72692866D02*
X185193504Y-72669057D01*
X185193504Y-72669057D02*
X185241123Y-72645247D01*
X185241123Y-72645247D02*
X185360171Y-72645247D01*
X185360171Y-72645247D02*
X185407790Y-72669057D01*
X185407790Y-72669057D02*
X185431600Y-72692866D01*
X185431600Y-72692866D02*
X185455409Y-72740485D01*
X185455409Y-72740485D02*
X185455409Y-72859533D01*
X185455409Y-72859533D02*
X185431600Y-72907152D01*
X185431600Y-72907152D02*
X185407790Y-72930961D01*
D11*
X186519964Y-74304271D02*
X186519964Y-74732842D01*
X186519964Y-74518557D02*
X185769964Y-74518557D01*
X185769964Y-74518557D02*
X185877107Y-74589985D01*
X185877107Y-74589985D02*
X185948535Y-74661414D01*
X185948535Y-74661414D02*
X185984250Y-74732842D01*
X185769964Y-73839985D02*
X185769964Y-73768556D01*
X185769964Y-73768556D02*
X185805678Y-73697128D01*
X185805678Y-73697128D02*
X185841392Y-73661414D01*
X185841392Y-73661414D02*
X185912821Y-73625699D01*
X185912821Y-73625699D02*
X186055678Y-73589985D01*
X186055678Y-73589985D02*
X186234250Y-73589985D01*
X186234250Y-73589985D02*
X186377107Y-73625699D01*
X186377107Y-73625699D02*
X186448535Y-73661414D01*
X186448535Y-73661414D02*
X186484250Y-73697128D01*
X186484250Y-73697128D02*
X186519964Y-73768556D01*
X186519964Y-73768556D02*
X186519964Y-73839985D01*
X186519964Y-73839985D02*
X186484250Y-73911414D01*
X186484250Y-73911414D02*
X186448535Y-73947128D01*
X186448535Y-73947128D02*
X186377107Y-73982842D01*
X186377107Y-73982842D02*
X186234250Y-74018556D01*
X186234250Y-74018556D02*
X186055678Y-74018556D01*
X186055678Y-74018556D02*
X185912821Y-73982842D01*
X185912821Y-73982842D02*
X185841392Y-73947128D01*
X185841392Y-73947128D02*
X185805678Y-73911414D01*
X185805678Y-73911414D02*
X185769964Y-73839985D01*
X185769964Y-73125699D02*
X185769964Y-73054270D01*
X185769964Y-73054270D02*
X185805678Y-72982842D01*
X185805678Y-72982842D02*
X185841392Y-72947128D01*
X185841392Y-72947128D02*
X185912821Y-72911413D01*
X185912821Y-72911413D02*
X186055678Y-72875699D01*
X186055678Y-72875699D02*
X186234250Y-72875699D01*
X186234250Y-72875699D02*
X186377107Y-72911413D01*
X186377107Y-72911413D02*
X186448535Y-72947128D01*
X186448535Y-72947128D02*
X186484250Y-72982842D01*
X186484250Y-72982842D02*
X186519964Y-73054270D01*
X186519964Y-73054270D02*
X186519964Y-73125699D01*
X186519964Y-73125699D02*
X186484250Y-73197128D01*
X186484250Y-73197128D02*
X186448535Y-73232842D01*
X186448535Y-73232842D02*
X186377107Y-73268556D01*
X186377107Y-73268556D02*
X186234250Y-73304270D01*
X186234250Y-73304270D02*
X186055678Y-73304270D01*
X186055678Y-73304270D02*
X185912821Y-73268556D01*
X185912821Y-73268556D02*
X185841392Y-73232842D01*
X185841392Y-73232842D02*
X185805678Y-73197128D01*
X185805678Y-73197128D02*
X185769964Y-73125699D01*
X186519964Y-72554270D02*
X185769964Y-72554270D01*
X186234250Y-72482842D02*
X186519964Y-72268556D01*
X186019964Y-72268556D02*
X186305678Y-72554270D01*
D10*
X207849809Y-96766666D02*
X208206952Y-96766666D01*
X208206952Y-96766666D02*
X208278380Y-96790475D01*
X208278380Y-96790475D02*
X208326000Y-96838094D01*
X208326000Y-96838094D02*
X208349809Y-96909523D01*
X208349809Y-96909523D02*
X208349809Y-96957142D01*
X207897428Y-96552380D02*
X207873619Y-96528571D01*
X207873619Y-96528571D02*
X207849809Y-96480952D01*
X207849809Y-96480952D02*
X207849809Y-96361904D01*
X207849809Y-96361904D02*
X207873619Y-96314285D01*
X207873619Y-96314285D02*
X207897428Y-96290476D01*
X207897428Y-96290476D02*
X207945047Y-96266666D01*
X207945047Y-96266666D02*
X207992666Y-96266666D01*
X207992666Y-96266666D02*
X208064095Y-96290476D01*
X208064095Y-96290476D02*
X208349809Y-96576190D01*
X208349809Y-96576190D02*
X208349809Y-96266666D01*
D12*
G36*
X203833149Y-87919085D02*
G01*
X203888985Y-87973960D01*
X203916829Y-88028187D01*
X203917580Y-88147521D01*
X203891555Y-88200999D01*
X203835361Y-88258175D01*
X203714045Y-88289294D01*
X203476411Y-88290173D01*
X203350378Y-88259483D01*
X203294544Y-88204610D01*
X203266698Y-88150381D01*
X203265947Y-88031046D01*
X203291972Y-87977570D01*
X203348166Y-87920393D01*
X203469484Y-87889273D01*
X203707116Y-87888394D01*
X203833149Y-87919085D01*
G37*
G36*
X203656702Y-86218514D02*
G01*
X203587240Y-86218740D01*
X203539993Y-86195747D01*
X203516698Y-86150381D01*
X203515947Y-86031046D01*
X203538871Y-85983942D01*
X203584352Y-85960589D01*
X203604379Y-85960352D01*
X203656702Y-86218514D01*
G37*
G36*
X203864314Y-84664553D02*
G01*
X203889190Y-84688647D01*
X203916849Y-84742512D01*
X203917537Y-84826181D01*
X203891495Y-84879692D01*
X203867400Y-84904567D01*
X203813615Y-84932185D01*
X203622906Y-84933003D01*
X203569210Y-84906871D01*
X203544338Y-84882779D01*
X203516678Y-84828912D01*
X203515990Y-84745243D01*
X203542033Y-84691731D01*
X203566125Y-84666858D01*
X203619912Y-84639239D01*
X203810621Y-84638421D01*
X203864314Y-84664553D01*
G37*
G36*
X203916829Y-83349616D02*
G01*
X203917580Y-83468950D01*
X203891495Y-83522550D01*
X203867400Y-83547425D01*
X203813615Y-83575043D01*
X203622906Y-83575861D01*
X203569210Y-83549729D01*
X203544338Y-83525637D01*
X203516698Y-83471810D01*
X203515947Y-83352476D01*
X203532990Y-83317457D01*
X203900077Y-83316992D01*
X203916829Y-83349616D01*
G37*
G36*
X203916816Y-82671021D02*
G01*
X203917607Y-82826038D01*
X203894657Y-82873197D01*
X203849174Y-82896551D01*
X203801128Y-82897120D01*
X203754279Y-82874320D01*
X203730997Y-82828978D01*
X203730178Y-82668403D01*
X203730657Y-82666967D01*
X203730133Y-82659594D01*
X203730089Y-82650959D01*
X203729401Y-82649298D01*
X203729274Y-82647507D01*
X203725989Y-82638922D01*
X203900121Y-82638507D01*
X203916816Y-82671021D01*
G37*
G36*
X204349704Y-89579760D02*
G01*
X203047717Y-89579760D01*
X203047717Y-89436672D01*
X203167725Y-89436672D01*
X203167725Y-89456182D01*
X203175191Y-89474206D01*
X203188985Y-89488000D01*
X203207009Y-89495466D01*
X203216764Y-89496427D01*
X203976519Y-89495466D01*
X203994543Y-89488000D01*
X204008337Y-89474206D01*
X204015803Y-89456182D01*
X204015803Y-89436672D01*
X204008337Y-89418648D01*
X203994543Y-89404854D01*
X203976519Y-89397388D01*
X203966764Y-89396427D01*
X203207009Y-89397388D01*
X203188985Y-89404854D01*
X203175191Y-89418648D01*
X203167725Y-89436672D01*
X203047717Y-89436672D01*
X203047717Y-88553623D01*
X203131050Y-88553623D01*
X203134876Y-88572752D01*
X203145731Y-88588962D01*
X203153315Y-88595173D01*
X204126250Y-89242641D01*
X204145388Y-89246427D01*
X204164517Y-89242601D01*
X204180727Y-89231746D01*
X204191549Y-89215513D01*
X204195335Y-89196374D01*
X204191509Y-89177245D01*
X204180654Y-89161035D01*
X204173070Y-89154825D01*
X203200135Y-88507356D01*
X203180997Y-88503570D01*
X203161868Y-88507396D01*
X203145658Y-88518251D01*
X203134836Y-88534485D01*
X203131050Y-88553623D01*
X203047717Y-88553623D01*
X203047717Y-88017856D01*
X203166764Y-88017856D01*
X203167615Y-88153082D01*
X203167157Y-88154458D01*
X203167669Y-88161671D01*
X203167725Y-88170468D01*
X203168412Y-88172128D01*
X203168540Y-88173919D01*
X203172043Y-88183073D01*
X203208416Y-88253911D01*
X203210905Y-88259920D01*
X203212498Y-88261861D01*
X203212979Y-88262798D01*
X203213975Y-88263662D01*
X203217123Y-88267498D01*
X203285244Y-88334447D01*
X203286875Y-88337164D01*
X203291485Y-88340580D01*
X203296129Y-88345144D01*
X203299564Y-88346567D01*
X203302550Y-88348779D01*
X203311780Y-88352077D01*
X203451843Y-88386183D01*
X203457009Y-88388323D01*
X203463091Y-88388922D01*
X203464335Y-88389225D01*
X203465063Y-88389116D01*
X203466764Y-88389284D01*
X203713458Y-88388371D01*
X203719194Y-88389225D01*
X203725262Y-88388327D01*
X203726519Y-88388323D01*
X203727199Y-88388041D01*
X203728891Y-88387791D01*
X203866048Y-88352609D01*
X203869374Y-88352609D01*
X203874786Y-88350367D01*
X203880979Y-88348779D01*
X203883965Y-88346565D01*
X203887399Y-88345144D01*
X203894976Y-88338926D01*
X203965438Y-88267230D01*
X203970549Y-88262798D01*
X203971893Y-88260662D01*
X203972623Y-88259920D01*
X203973128Y-88258700D01*
X203975771Y-88254502D01*
X204007478Y-88189350D01*
X204008337Y-88188492D01*
X204010857Y-88182408D01*
X204014989Y-88173918D01*
X204015116Y-88172125D01*
X204015803Y-88170468D01*
X204016764Y-88160713D01*
X204015912Y-88025486D01*
X204016371Y-88024111D01*
X204015858Y-88016892D01*
X204015803Y-88008101D01*
X204015116Y-88006443D01*
X204014989Y-88004651D01*
X204011486Y-87995496D01*
X203975111Y-87924656D01*
X203972623Y-87918649D01*
X203971029Y-87916707D01*
X203970549Y-87915771D01*
X203969552Y-87914906D01*
X203966405Y-87911071D01*
X203898285Y-87844123D01*
X203896654Y-87841405D01*
X203892039Y-87837985D01*
X203887399Y-87833425D01*
X203883965Y-87832003D01*
X203880979Y-87829790D01*
X203871748Y-87826492D01*
X203731684Y-87792384D01*
X203726519Y-87790245D01*
X203720438Y-87789645D01*
X203719194Y-87789343D01*
X203718464Y-87789451D01*
X203716764Y-87789284D01*
X203470069Y-87790196D01*
X203464334Y-87789343D01*
X203458265Y-87790240D01*
X203457009Y-87790245D01*
X203456328Y-87790526D01*
X203454637Y-87790777D01*
X203317480Y-87825960D01*
X203314153Y-87825960D01*
X203308739Y-87828201D01*
X203302549Y-87829790D01*
X203299562Y-87832002D01*
X203296129Y-87833425D01*
X203288552Y-87839644D01*
X203218090Y-87911338D01*
X203212979Y-87915771D01*
X203211634Y-87917906D01*
X203210905Y-87918649D01*
X203210400Y-87919866D01*
X203207757Y-87924066D01*
X203176050Y-87989217D01*
X203175191Y-87990077D01*
X203172668Y-87996166D01*
X203168540Y-88004650D01*
X203168412Y-88006440D01*
X203167725Y-88008101D01*
X203166764Y-88017856D01*
X203047717Y-88017856D01*
X203047717Y-87124999D01*
X203988192Y-87124999D01*
X203989153Y-87706183D01*
X203996619Y-87724207D01*
X204010413Y-87738001D01*
X204028437Y-87745467D01*
X204047947Y-87745467D01*
X204065971Y-87738001D01*
X204079765Y-87724207D01*
X204087231Y-87706183D01*
X204088192Y-87696428D01*
X204087231Y-87115244D01*
X204079765Y-87097220D01*
X204065971Y-87083426D01*
X204047947Y-87075960D01*
X204028437Y-87075960D01*
X204010413Y-87083426D01*
X203996619Y-87097220D01*
X203989153Y-87115244D01*
X203988192Y-87124999D01*
X203047717Y-87124999D01*
X203047717Y-86660713D01*
X203166764Y-86660713D01*
X203167635Y-86831592D01*
X203167157Y-86833029D01*
X203167680Y-86840401D01*
X203167725Y-86849039D01*
X203168412Y-86850699D01*
X203168540Y-86852490D01*
X203172043Y-86861644D01*
X203208412Y-86932476D01*
X203210904Y-86938491D01*
X203212499Y-86940434D01*
X203212979Y-86941369D01*
X203213975Y-86942233D01*
X203217123Y-86946068D01*
X203253666Y-86981464D01*
X203257536Y-86985926D01*
X203259640Y-86987250D01*
X203260414Y-86988000D01*
X203261633Y-86988505D01*
X203265832Y-86991148D01*
X203330983Y-87022855D01*
X203331842Y-87023714D01*
X203337925Y-87026234D01*
X203346416Y-87030366D01*
X203348208Y-87030493D01*
X203349866Y-87031180D01*
X203359621Y-87032141D01*
X203423699Y-87031382D01*
X203424796Y-87031748D01*
X203431186Y-87031293D01*
X203440805Y-87031180D01*
X203442465Y-87030492D01*
X203444256Y-87030365D01*
X203453411Y-87026862D01*
X203524242Y-86990491D01*
X203530256Y-86988001D01*
X203532199Y-86986405D01*
X203533134Y-86985926D01*
X203533998Y-86984929D01*
X203537833Y-86981782D01*
X203573229Y-86945238D01*
X203577691Y-86941369D01*
X203579015Y-86939264D01*
X203579765Y-86938491D01*
X203580269Y-86937273D01*
X203582913Y-86933074D01*
X203616342Y-86864383D01*
X203619116Y-86860641D01*
X203621745Y-86853282D01*
X203622131Y-86852490D01*
X203622156Y-86852131D01*
X203622414Y-86851411D01*
X203655075Y-86717280D01*
X203684890Y-86656017D01*
X203708984Y-86631143D01*
X203762924Y-86603446D01*
X203810970Y-86602877D01*
X203864316Y-86628839D01*
X203889190Y-86652933D01*
X203916816Y-86706734D01*
X203917621Y-86864449D01*
X203881443Y-86975888D01*
X203882826Y-86995348D01*
X203891550Y-87012796D01*
X203906288Y-87025579D01*
X203924797Y-87031748D01*
X203944257Y-87030365D01*
X203961705Y-87021641D01*
X203974488Y-87006903D01*
X203978484Y-86997952D01*
X204013171Y-86891105D01*
X204015803Y-86884754D01*
X204016050Y-86882238D01*
X204016371Y-86881252D01*
X204016277Y-86879936D01*
X204016764Y-86874999D01*
X204015892Y-86704117D01*
X204016371Y-86702681D01*
X204015847Y-86695308D01*
X204015803Y-86686672D01*
X204015115Y-86685011D01*
X204014988Y-86683221D01*
X204011485Y-86674066D01*
X203975116Y-86603238D01*
X203972624Y-86597221D01*
X203971028Y-86595276D01*
X203970549Y-86594343D01*
X203969554Y-86593480D01*
X203966406Y-86589644D01*
X203929855Y-86554240D01*
X203925991Y-86549785D01*
X203923889Y-86548461D01*
X203923113Y-86547710D01*
X203921890Y-86547203D01*
X203917696Y-86544563D01*
X203852545Y-86512856D01*
X203851686Y-86511997D01*
X203845595Y-86509474D01*
X203837113Y-86505346D01*
X203835322Y-86505218D01*
X203833662Y-86504531D01*
X203823907Y-86503570D01*
X203759828Y-86504328D01*
X203758732Y-86503963D01*
X203752341Y-86504417D01*
X203742723Y-86504531D01*
X203741062Y-86505218D01*
X203739272Y-86505346D01*
X203730117Y-86508849D01*
X203659289Y-86545217D01*
X203653272Y-86547710D01*
X203651327Y-86549305D01*
X203650394Y-86549785D01*
X203649531Y-86550779D01*
X203645695Y-86553928D01*
X203610291Y-86590478D01*
X203605836Y-86594343D01*
X203604512Y-86596444D01*
X203603761Y-86597221D01*
X203603254Y-86598443D01*
X203600614Y-86602638D01*
X203567186Y-86671324D01*
X203564412Y-86675069D01*
X203561782Y-86682428D01*
X203561397Y-86683221D01*
X203561371Y-86683579D01*
X203561114Y-86684300D01*
X203528452Y-86818430D01*
X203498637Y-86879693D01*
X203474543Y-86904567D01*
X203420603Y-86932264D01*
X203372557Y-86932833D01*
X203319210Y-86906871D01*
X203294338Y-86882779D01*
X203266711Y-86828976D01*
X203265906Y-86671261D01*
X203302085Y-86559823D01*
X203300702Y-86540362D01*
X203291978Y-86522914D01*
X203277240Y-86510132D01*
X203258731Y-86503962D01*
X203239271Y-86505345D01*
X203221823Y-86514070D01*
X203209040Y-86528808D01*
X203205044Y-86537758D01*
X203170355Y-86644606D01*
X203167725Y-86650958D01*
X203167477Y-86653473D01*
X203167157Y-86654460D01*
X203167250Y-86655775D01*
X203166764Y-86660713D01*
X203047717Y-86660713D01*
X203047717Y-86017855D01*
X203416764Y-86017855D01*
X203417615Y-86153083D01*
X203417157Y-86154459D01*
X203417669Y-86161671D01*
X203417725Y-86170468D01*
X203418412Y-86172128D01*
X203418540Y-86173919D01*
X203422043Y-86183074D01*
X203457352Y-86251838D01*
X203459040Y-86256902D01*
X203461275Y-86259479D01*
X203462979Y-86262797D01*
X203467714Y-86266904D01*
X203471822Y-86271640D01*
X203476756Y-86274746D01*
X203477717Y-86275579D01*
X203478488Y-86275836D01*
X203480118Y-86276862D01*
X203545269Y-86308569D01*
X203546128Y-86309428D01*
X203552211Y-86311948D01*
X203560702Y-86316080D01*
X203562494Y-86316207D01*
X203564152Y-86316894D01*
X203573907Y-86317855D01*
X203714504Y-86317397D01*
X203716816Y-86317855D01*
X203719178Y-86317382D01*
X203851833Y-86316951D01*
X203853366Y-86317462D01*
X203860974Y-86316921D01*
X203869376Y-86316894D01*
X203871036Y-86316206D01*
X203872827Y-86316079D01*
X203881981Y-86312576D01*
X203950747Y-86277266D01*
X203955811Y-86275579D01*
X203958388Y-86273343D01*
X203961706Y-86271640D01*
X203965813Y-86266904D01*
X203970549Y-86262797D01*
X203973656Y-86257860D01*
X203974488Y-86256902D01*
X203974744Y-86256132D01*
X203975771Y-86254502D01*
X204007477Y-86189351D01*
X204008337Y-86188492D01*
X204010859Y-86182401D01*
X204014988Y-86173919D01*
X204015115Y-86172128D01*
X204015803Y-86170468D01*
X204016764Y-86160713D01*
X204015912Y-86025484D01*
X204016371Y-86024109D01*
X204015858Y-86016896D01*
X204015803Y-86008100D01*
X204015115Y-86006439D01*
X204014988Y-86004649D01*
X204011485Y-85995494D01*
X203970549Y-85915771D01*
X203955811Y-85902989D01*
X203937304Y-85896820D01*
X203917844Y-85898203D01*
X203900394Y-85906928D01*
X203887612Y-85921666D01*
X203881443Y-85940173D01*
X203882826Y-85959633D01*
X203886329Y-85968788D01*
X203916829Y-86028186D01*
X203917580Y-86147521D01*
X203894657Y-86194624D01*
X203849350Y-86217888D01*
X203757713Y-86218186D01*
X203694374Y-85905665D01*
X203694374Y-85900958D01*
X203692505Y-85896447D01*
X203691509Y-85891530D01*
X203688781Y-85887458D01*
X203686908Y-85882934D01*
X203683408Y-85879434D01*
X203680653Y-85875320D01*
X203676576Y-85872602D01*
X203673114Y-85869140D01*
X203668541Y-85867246D01*
X203664421Y-85864499D01*
X203659614Y-85863548D01*
X203655090Y-85861674D01*
X203645335Y-85860713D01*
X203645285Y-85860713D01*
X203645283Y-85860713D01*
X203645279Y-85860713D01*
X203581258Y-85861471D01*
X203580162Y-85861106D01*
X203573766Y-85861560D01*
X203564152Y-85861674D01*
X203562494Y-85862360D01*
X203560702Y-85862488D01*
X203551547Y-85865991D01*
X203482779Y-85901301D01*
X203477717Y-85902989D01*
X203475139Y-85905224D01*
X203471822Y-85906928D01*
X203467714Y-85911663D01*
X203462979Y-85915771D01*
X203459871Y-85920707D01*
X203459040Y-85921666D01*
X203458783Y-85922435D01*
X203457757Y-85924066D01*
X203426050Y-85989216D01*
X203425191Y-85990076D01*
X203422668Y-85996166D01*
X203418540Y-86004649D01*
X203418412Y-86006439D01*
X203417725Y-86008100D01*
X203416764Y-86017855D01*
X203047717Y-86017855D01*
X203047717Y-85339284D01*
X203416764Y-85339284D01*
X203417615Y-85474510D01*
X203417157Y-85475886D01*
X203417669Y-85483099D01*
X203417725Y-85491896D01*
X203418412Y-85493556D01*
X203418540Y-85495347D01*
X203422043Y-85504501D01*
X203458412Y-85575333D01*
X203460904Y-85581348D01*
X203462499Y-85583291D01*
X203462979Y-85584226D01*
X203463975Y-85585090D01*
X203467123Y-85588925D01*
X203503666Y-85624321D01*
X203507536Y-85628783D01*
X203509640Y-85630107D01*
X203510414Y-85630857D01*
X203511633Y-85631362D01*
X203515832Y-85634005D01*
X203580983Y-85665712D01*
X203581842Y-85666571D01*
X203587925Y-85669091D01*
X203596416Y-85673223D01*
X203598208Y-85673350D01*
X203599866Y-85674037D01*
X203609621Y-85674998D01*
X203816174Y-85674112D01*
X203817653Y-85674605D01*
X203825130Y-85674073D01*
X203833662Y-85674037D01*
X203835322Y-85673349D01*
X203837113Y-85673222D01*
X203846268Y-85669719D01*
X203917103Y-85633346D01*
X203923112Y-85630858D01*
X203925055Y-85629263D01*
X203925991Y-85628783D01*
X203926855Y-85627786D01*
X203930690Y-85624640D01*
X203966092Y-85588091D01*
X203970549Y-85584226D01*
X203971871Y-85582124D01*
X203972623Y-85581349D01*
X203973129Y-85580127D01*
X203975771Y-85575930D01*
X204007478Y-85510778D01*
X204008337Y-85509920D01*
X204010857Y-85503836D01*
X204014989Y-85495346D01*
X204015116Y-85493553D01*
X204015803Y-85491896D01*
X204016764Y-85482141D01*
X204015912Y-85346913D01*
X204016371Y-85345538D01*
X204015858Y-85338325D01*
X204015803Y-85329529D01*
X204015115Y-85327868D01*
X204014988Y-85326078D01*
X204011485Y-85316923D01*
X203970549Y-85237200D01*
X203955811Y-85224418D01*
X203937304Y-85218249D01*
X203917844Y-85219632D01*
X203900394Y-85228357D01*
X203887612Y-85243095D01*
X203881443Y-85261602D01*
X203882826Y-85281062D01*
X203886329Y-85290217D01*
X203916829Y-85349615D01*
X203917580Y-85468949D01*
X203891495Y-85522549D01*
X203867400Y-85547424D01*
X203813615Y-85575042D01*
X203622906Y-85575860D01*
X203569210Y-85549728D01*
X203544338Y-85525636D01*
X203516698Y-85471809D01*
X203515947Y-85352475D01*
X203550702Y-85281062D01*
X203552085Y-85261602D01*
X203545916Y-85243095D01*
X203533134Y-85228357D01*
X203515684Y-85219632D01*
X203496224Y-85218249D01*
X203477717Y-85224418D01*
X203462979Y-85237200D01*
X203457757Y-85245495D01*
X203426050Y-85310645D01*
X203425191Y-85311505D01*
X203422668Y-85317595D01*
X203418540Y-85326078D01*
X203418412Y-85327868D01*
X203417725Y-85329529D01*
X203416764Y-85339284D01*
X203047717Y-85339284D01*
X203047717Y-84732141D01*
X203416764Y-84732141D01*
X203417582Y-84831751D01*
X203417157Y-84833029D01*
X203417650Y-84839972D01*
X203417725Y-84849039D01*
X203418412Y-84850699D01*
X203418540Y-84852490D01*
X203422043Y-84861644D01*
X203458412Y-84932476D01*
X203460904Y-84938491D01*
X203462499Y-84940434D01*
X203462979Y-84941369D01*
X203463975Y-84942233D01*
X203467123Y-84946068D01*
X203503666Y-84981464D01*
X203507536Y-84985926D01*
X203509640Y-84987250D01*
X203510414Y-84988000D01*
X203511633Y-84988505D01*
X203515832Y-84991148D01*
X203580983Y-85022855D01*
X203581842Y-85023714D01*
X203587925Y-85026234D01*
X203596416Y-85030366D01*
X203598208Y-85030493D01*
X203599866Y-85031180D01*
X203609621Y-85032141D01*
X203816174Y-85031255D01*
X203817653Y-85031748D01*
X203825130Y-85031216D01*
X203833662Y-85031180D01*
X203835322Y-85030492D01*
X203837113Y-85030365D01*
X203846268Y-85026862D01*
X203917103Y-84990489D01*
X203923112Y-84988001D01*
X203925055Y-84986406D01*
X203925991Y-84985926D01*
X203926855Y-84984929D01*
X203930690Y-84981783D01*
X203966092Y-84945234D01*
X203970549Y-84941369D01*
X203971871Y-84939267D01*
X203972623Y-84938492D01*
X203973129Y-84937270D01*
X203975771Y-84933073D01*
X204007478Y-84867921D01*
X204008337Y-84867063D01*
X204010857Y-84860979D01*
X204014989Y-84852489D01*
X204015116Y-84850696D01*
X204015803Y-84849039D01*
X204016764Y-84839284D01*
X204015945Y-84739672D01*
X204016371Y-84738395D01*
X204015877Y-84731451D01*
X204015803Y-84722386D01*
X204015115Y-84720725D01*
X204014988Y-84718935D01*
X204011485Y-84709780D01*
X203975112Y-84638944D01*
X203972623Y-84632934D01*
X203971028Y-84630991D01*
X203970549Y-84630057D01*
X203969553Y-84629193D01*
X203966405Y-84625357D01*
X203929858Y-84589959D01*
X203925991Y-84585500D01*
X203923886Y-84584175D01*
X203923112Y-84583425D01*
X203921892Y-84582920D01*
X203917696Y-84580278D01*
X203852545Y-84548570D01*
X203851686Y-84547711D01*
X203845594Y-84545187D01*
X203837113Y-84541060D01*
X203835322Y-84540932D01*
X203833662Y-84540245D01*
X203823907Y-84539284D01*
X203617353Y-84540169D01*
X203615875Y-84539677D01*
X203608397Y-84540208D01*
X203599866Y-84540245D01*
X203598205Y-84540932D01*
X203596415Y-84541060D01*
X203587260Y-84544563D01*
X203516420Y-84580937D01*
X203510414Y-84583426D01*
X203508472Y-84585018D01*
X203507536Y-84585500D01*
X203506670Y-84586498D01*
X203502837Y-84589644D01*
X203467435Y-84626191D01*
X203462979Y-84630057D01*
X203461655Y-84632158D01*
X203460904Y-84632935D01*
X203460397Y-84634157D01*
X203457757Y-84638352D01*
X203426050Y-84703502D01*
X203425191Y-84704362D01*
X203422668Y-84710452D01*
X203418540Y-84718935D01*
X203418412Y-84720725D01*
X203417725Y-84722386D01*
X203416764Y-84732141D01*
X203047717Y-84732141D01*
X203047717Y-84053570D01*
X203416764Y-84053570D01*
X203417582Y-84153180D01*
X203417157Y-84154458D01*
X203417650Y-84161401D01*
X203417725Y-84170468D01*
X203418412Y-84172128D01*
X203418540Y-84173919D01*
X203422043Y-84183073D01*
X203443309Y-84224491D01*
X203438985Y-84226283D01*
X203425191Y-84240077D01*
X203417725Y-84258101D01*
X203417725Y-84277611D01*
X203425191Y-84295635D01*
X203438985Y-84309429D01*
X203457009Y-84316895D01*
X203466764Y-84317856D01*
X203976519Y-84316895D01*
X203994543Y-84309429D01*
X204008337Y-84295635D01*
X204015803Y-84277611D01*
X204015803Y-84258101D01*
X204008337Y-84240077D01*
X203994543Y-84226283D01*
X203976519Y-84218817D01*
X203966764Y-84217856D01*
X203559220Y-84218624D01*
X203544338Y-84204208D01*
X203516678Y-84150341D01*
X203515990Y-84066672D01*
X203538871Y-84019657D01*
X203584159Y-83996403D01*
X203976519Y-83995467D01*
X203994543Y-83988001D01*
X204008337Y-83974207D01*
X204015803Y-83956183D01*
X204015803Y-83936673D01*
X204008337Y-83918649D01*
X203994543Y-83904855D01*
X203976519Y-83897389D01*
X203966764Y-83896428D01*
X203581739Y-83897347D01*
X203580162Y-83896821D01*
X203572442Y-83897369D01*
X203564152Y-83897389D01*
X203562494Y-83898075D01*
X203560702Y-83898203D01*
X203551547Y-83901706D01*
X203482779Y-83937016D01*
X203477717Y-83938704D01*
X203475139Y-83940939D01*
X203471822Y-83942643D01*
X203467714Y-83947378D01*
X203462979Y-83951486D01*
X203459871Y-83956422D01*
X203459040Y-83957381D01*
X203458783Y-83958150D01*
X203457757Y-83959781D01*
X203426050Y-84024931D01*
X203425191Y-84025791D01*
X203422668Y-84031881D01*
X203418540Y-84040364D01*
X203418412Y-84042154D01*
X203417725Y-84043815D01*
X203416764Y-84053570D01*
X203047717Y-84053570D01*
X203047717Y-83258102D01*
X203167725Y-83258102D01*
X203167725Y-83277612D01*
X203175191Y-83295636D01*
X203188985Y-83309430D01*
X203207009Y-83316896D01*
X203216764Y-83317857D01*
X203422668Y-83317596D01*
X203418540Y-83326079D01*
X203418412Y-83327869D01*
X203417725Y-83329530D01*
X203416764Y-83339285D01*
X203417615Y-83474511D01*
X203417157Y-83475887D01*
X203417669Y-83483100D01*
X203417725Y-83491897D01*
X203418412Y-83493557D01*
X203418540Y-83495348D01*
X203422043Y-83504502D01*
X203458412Y-83575334D01*
X203460904Y-83581349D01*
X203462499Y-83583292D01*
X203462979Y-83584227D01*
X203463975Y-83585091D01*
X203467123Y-83588926D01*
X203503666Y-83624322D01*
X203507536Y-83628784D01*
X203509640Y-83630108D01*
X203510414Y-83630858D01*
X203511633Y-83631363D01*
X203515832Y-83634006D01*
X203580983Y-83665713D01*
X203581842Y-83666572D01*
X203587925Y-83669092D01*
X203596416Y-83673224D01*
X203598208Y-83673351D01*
X203599866Y-83674038D01*
X203609621Y-83674999D01*
X203816174Y-83674113D01*
X203817653Y-83674606D01*
X203825130Y-83674074D01*
X203833662Y-83674038D01*
X203835322Y-83673350D01*
X203837113Y-83673223D01*
X203846268Y-83669720D01*
X203917103Y-83633347D01*
X203923112Y-83630859D01*
X203925055Y-83629264D01*
X203925991Y-83628784D01*
X203926855Y-83627787D01*
X203930690Y-83624641D01*
X203966092Y-83588092D01*
X203970549Y-83584227D01*
X203971871Y-83582125D01*
X203972623Y-83581350D01*
X203973129Y-83580128D01*
X203975771Y-83575931D01*
X204007478Y-83510779D01*
X204008337Y-83509921D01*
X204010857Y-83503837D01*
X204014989Y-83495347D01*
X204015116Y-83493554D01*
X204015803Y-83491897D01*
X204016764Y-83482142D01*
X204015912Y-83346914D01*
X204016371Y-83345539D01*
X204015858Y-83338326D01*
X204015803Y-83329530D01*
X204015115Y-83327869D01*
X204014988Y-83326079D01*
X204011485Y-83316924D01*
X204003194Y-83300778D01*
X204008337Y-83295636D01*
X204015803Y-83277612D01*
X204015803Y-83258102D01*
X204008337Y-83240078D01*
X203994543Y-83226284D01*
X203976519Y-83218818D01*
X203966764Y-83217857D01*
X203499019Y-83218448D01*
X203496224Y-83218250D01*
X203495615Y-83218452D01*
X203207009Y-83218818D01*
X203188985Y-83226284D01*
X203175191Y-83240078D01*
X203167725Y-83258102D01*
X203047717Y-83258102D01*
X203047717Y-82696428D01*
X203416764Y-82696428D01*
X203417615Y-82831656D01*
X203417157Y-82833032D01*
X203417669Y-82840244D01*
X203417725Y-82849041D01*
X203418412Y-82850701D01*
X203418540Y-82852492D01*
X203422043Y-82861647D01*
X203462979Y-82941370D01*
X203477717Y-82954152D01*
X203496224Y-82960321D01*
X203515684Y-82958938D01*
X203533134Y-82950213D01*
X203545916Y-82935475D01*
X203552085Y-82916968D01*
X203550702Y-82897508D01*
X203547199Y-82888353D01*
X203516698Y-82828954D01*
X203515947Y-82709619D01*
X203538871Y-82662515D01*
X203584159Y-82639261D01*
X203614756Y-82639188D01*
X203631102Y-82671022D01*
X203631921Y-82831595D01*
X203631443Y-82833032D01*
X203631966Y-82840404D01*
X203632011Y-82849041D01*
X203632698Y-82850701D01*
X203632826Y-82852492D01*
X203636329Y-82861647D01*
X203671638Y-82930412D01*
X203673326Y-82935475D01*
X203675561Y-82938052D01*
X203677265Y-82941370D01*
X203682000Y-82945477D01*
X203686108Y-82950213D01*
X203691044Y-82953320D01*
X203692003Y-82954152D01*
X203692772Y-82954408D01*
X203694403Y-82955435D01*
X203759553Y-82987141D01*
X203760413Y-82988001D01*
X203766503Y-82990523D01*
X203774986Y-82994652D01*
X203776776Y-82994779D01*
X203778437Y-82995467D01*
X203788192Y-82996428D01*
X203852269Y-82995669D01*
X203853366Y-82996035D01*
X203859756Y-82995580D01*
X203869376Y-82995467D01*
X203871036Y-82994779D01*
X203872827Y-82994652D01*
X203881981Y-82991149D01*
X203950747Y-82955839D01*
X203955811Y-82954152D01*
X203958388Y-82951916D01*
X203961706Y-82950213D01*
X203965813Y-82945477D01*
X203970549Y-82941370D01*
X203973656Y-82936433D01*
X203974488Y-82935475D01*
X203974744Y-82934705D01*
X203975771Y-82933075D01*
X204007477Y-82867924D01*
X204008337Y-82867065D01*
X204010859Y-82860974D01*
X204014988Y-82852492D01*
X204015115Y-82850701D01*
X204015803Y-82849041D01*
X204016764Y-82839286D01*
X204015892Y-82668404D01*
X204016371Y-82666968D01*
X204015847Y-82659595D01*
X204015803Y-82650959D01*
X204015115Y-82649298D01*
X204014988Y-82647508D01*
X204011485Y-82638353D01*
X204003194Y-82622207D01*
X204008337Y-82617065D01*
X204015803Y-82599041D01*
X204015803Y-82579531D01*
X204008337Y-82561507D01*
X203994543Y-82547713D01*
X203976519Y-82540247D01*
X203966764Y-82539286D01*
X203652659Y-82540035D01*
X203651589Y-82539679D01*
X203646357Y-82540050D01*
X203581739Y-82540205D01*
X203580162Y-82539679D01*
X203572442Y-82540227D01*
X203564152Y-82540247D01*
X203562494Y-82540933D01*
X203560702Y-82541061D01*
X203551547Y-82544564D01*
X203482779Y-82579874D01*
X203477717Y-82581562D01*
X203475139Y-82583797D01*
X203471822Y-82585501D01*
X203467714Y-82590236D01*
X203462979Y-82594344D01*
X203459871Y-82599280D01*
X203459040Y-82600239D01*
X203458783Y-82601008D01*
X203457757Y-82602639D01*
X203426050Y-82667789D01*
X203425191Y-82668649D01*
X203422668Y-82674739D01*
X203418540Y-82683222D01*
X203418412Y-82685012D01*
X203417725Y-82686673D01*
X203416764Y-82696428D01*
X203047717Y-82696428D01*
X203047717Y-82017857D01*
X203416764Y-82017857D01*
X203417522Y-82081934D01*
X203417157Y-82083031D01*
X203417611Y-82089421D01*
X203417725Y-82099041D01*
X203418412Y-82100701D01*
X203418540Y-82102492D01*
X203422043Y-82111646D01*
X203458412Y-82182478D01*
X203458670Y-82183100D01*
X203457009Y-82183104D01*
X203438985Y-82190570D01*
X203425191Y-82204364D01*
X203417725Y-82222388D01*
X203417725Y-82241898D01*
X203425191Y-82259922D01*
X203438985Y-82273716D01*
X203457009Y-82281182D01*
X203466764Y-82282143D01*
X203976519Y-82281182D01*
X203994543Y-82273716D01*
X204008337Y-82259922D01*
X204015803Y-82241898D01*
X204015803Y-82222388D01*
X204008337Y-82204364D01*
X203994543Y-82190570D01*
X203976519Y-82183104D01*
X203966764Y-82182143D01*
X203622468Y-82182792D01*
X203569210Y-82156873D01*
X203544338Y-82132781D01*
X203516640Y-82078839D01*
X203515803Y-82008102D01*
X203508337Y-81990078D01*
X203494543Y-81976284D01*
X203476519Y-81968818D01*
X203457009Y-81968818D01*
X203438985Y-81976284D01*
X203425191Y-81990078D01*
X203417725Y-82008102D01*
X203416764Y-82017857D01*
X203047717Y-82017857D01*
X203047717Y-81474836D01*
X203417301Y-81474836D01*
X203418270Y-81494321D01*
X203426621Y-81511951D01*
X203441084Y-81525044D01*
X203449947Y-81529230D01*
X203819505Y-81660474D01*
X203441084Y-81796385D01*
X203426621Y-81809478D01*
X203418270Y-81827108D01*
X203417301Y-81846593D01*
X203423863Y-81864966D01*
X203436956Y-81879429D01*
X203454586Y-81887780D01*
X203474071Y-81888749D01*
X203483581Y-81886373D01*
X203964606Y-81713612D01*
X204116011Y-81773341D01*
X204139191Y-81795792D01*
X204177265Y-81869942D01*
X204192003Y-81882724D01*
X204210510Y-81888893D01*
X204229970Y-81887511D01*
X204247420Y-81878786D01*
X204260202Y-81864047D01*
X204266371Y-81845541D01*
X204264989Y-81826081D01*
X204261486Y-81816926D01*
X204225112Y-81746088D01*
X204222623Y-81740078D01*
X204221028Y-81738135D01*
X204220549Y-81737201D01*
X204219553Y-81736337D01*
X204216405Y-81732501D01*
X204173112Y-81690569D01*
X204172827Y-81690451D01*
X204172605Y-81690234D01*
X204163905Y-81685719D01*
X203992964Y-81618284D01*
X203992444Y-81617813D01*
X203983581Y-81613627D01*
X203474071Y-81432680D01*
X203454586Y-81433649D01*
X203436956Y-81442000D01*
X203423863Y-81456463D01*
X203417301Y-81474836D01*
X203047717Y-81474836D01*
X203047717Y-81349347D01*
X204349704Y-81349347D01*
X204349704Y-89579760D01*
G37*
G36*
X170167361Y-99479292D02*
G01*
X170189843Y-99501028D01*
X170215046Y-99550030D01*
X170215854Y-99726443D01*
X170192073Y-99775393D01*
X170170338Y-99797875D01*
X170121291Y-99823102D01*
X170011489Y-99823840D01*
X169981263Y-99809156D01*
X169980805Y-99470647D01*
X170008708Y-99456296D01*
X170118509Y-99455558D01*
X170167361Y-99479292D01*
G37*
G36*
X168582546Y-99759725D02*
G01*
X168561905Y-99802213D01*
X168521291Y-99823102D01*
X168411489Y-99823840D01*
X168369152Y-99803272D01*
X168348201Y-99762537D01*
X168348009Y-99747307D01*
X168582338Y-99699771D01*
X168582546Y-99759725D01*
G37*
G36*
X170800694Y-99479292D02*
G01*
X170823176Y-99501028D01*
X170848379Y-99550030D01*
X170849187Y-99726443D01*
X170825406Y-99775393D01*
X170803671Y-99797875D01*
X170754582Y-99823124D01*
X170678060Y-99823794D01*
X170629305Y-99800108D01*
X170606822Y-99778371D01*
X170581618Y-99729368D01*
X170580810Y-99552955D01*
X170604592Y-99504003D01*
X170626327Y-99481523D01*
X170675415Y-99456274D01*
X170751937Y-99455604D01*
X170800694Y-99479292D01*
G37*
G36*
X175726111Y-100234144D02*
G01*
X168170555Y-100234144D01*
X168170555Y-99706366D01*
X168248333Y-99706366D01*
X168248333Y-99706414D01*
X168248333Y-99706418D01*
X168248333Y-99706421D01*
X168249079Y-99765718D01*
X168248726Y-99766778D01*
X168249171Y-99773033D01*
X168249294Y-99782788D01*
X168249981Y-99784448D01*
X168250109Y-99786238D01*
X168253612Y-99795393D01*
X168286557Y-99859448D01*
X168288228Y-99864461D01*
X168290456Y-99867030D01*
X168292167Y-99870356D01*
X168296902Y-99874463D01*
X168301010Y-99879199D01*
X168305944Y-99882305D01*
X168306905Y-99883138D01*
X168307676Y-99883395D01*
X168309306Y-99884421D01*
X168369720Y-99913772D01*
X168370554Y-99914606D01*
X168376538Y-99917085D01*
X168385128Y-99921258D01*
X168386920Y-99921385D01*
X168388578Y-99922072D01*
X168398333Y-99923033D01*
X168524056Y-99922188D01*
X168525411Y-99922640D01*
X168532566Y-99922131D01*
X168541421Y-99922072D01*
X168543081Y-99921384D01*
X168544871Y-99921257D01*
X168554026Y-99917754D01*
X168618081Y-99884808D01*
X168623094Y-99883138D01*
X168625663Y-99880909D01*
X168628989Y-99879199D01*
X168633096Y-99874463D01*
X168637832Y-99870356D01*
X168640938Y-99865421D01*
X168641771Y-99864461D01*
X168642028Y-99863689D01*
X168643054Y-99862060D01*
X168672405Y-99801645D01*
X168673239Y-99800812D01*
X168675718Y-99794827D01*
X168679891Y-99786238D01*
X168680018Y-99784445D01*
X168680705Y-99782788D01*
X168681666Y-99773033D01*
X168681210Y-99641951D01*
X168681666Y-99639648D01*
X168681194Y-99637288D01*
X168680765Y-99514141D01*
X168681273Y-99512620D01*
X168680734Y-99505040D01*
X168680705Y-99496611D01*
X168680017Y-99494950D01*
X168679890Y-99493160D01*
X168676387Y-99484005D01*
X168643441Y-99419950D01*
X168641771Y-99414939D01*
X168639760Y-99412620D01*
X168815393Y-99412620D01*
X168821562Y-99431127D01*
X168834344Y-99445865D01*
X168842639Y-99451087D01*
X168894181Y-99476127D01*
X168915016Y-99516636D01*
X168915961Y-100116121D01*
X168923427Y-100134145D01*
X168937221Y-100147939D01*
X168955245Y-100155405D01*
X168974755Y-100155405D01*
X168992779Y-100147939D01*
X169006573Y-100134145D01*
X169014039Y-100116121D01*
X169015000Y-100106366D01*
X169014066Y-99514240D01*
X169014607Y-99512620D01*
X169014051Y-99504809D01*
X169014039Y-99496611D01*
X169013351Y-99494950D01*
X169013224Y-99493160D01*
X169009721Y-99484005D01*
X168976775Y-99419950D01*
X168975105Y-99414939D01*
X168972876Y-99412369D01*
X168971166Y-99409044D01*
X168968079Y-99406366D01*
X169248333Y-99406366D01*
X169249294Y-99882788D01*
X169256760Y-99900812D01*
X169270554Y-99914606D01*
X169288578Y-99922072D01*
X169308088Y-99922072D01*
X169326112Y-99914606D01*
X169339906Y-99900812D01*
X169347372Y-99882788D01*
X169348333Y-99873033D01*
X169347568Y-99494030D01*
X169359661Y-99481523D01*
X169408749Y-99456274D01*
X169485271Y-99455604D01*
X169527514Y-99476127D01*
X169548359Y-99516656D01*
X169549294Y-99882788D01*
X169556760Y-99900812D01*
X169570554Y-99914606D01*
X169588578Y-99922072D01*
X169608088Y-99922072D01*
X169626112Y-99914606D01*
X169639906Y-99900812D01*
X169647372Y-99882788D01*
X169648333Y-99873033D01*
X169647416Y-99514189D01*
X169647940Y-99512620D01*
X169647393Y-99504926D01*
X169647372Y-99496611D01*
X169646684Y-99494950D01*
X169646557Y-99493160D01*
X169643054Y-99484005D01*
X169610108Y-99419950D01*
X169608438Y-99414939D01*
X169606209Y-99412369D01*
X169604499Y-99409044D01*
X169601412Y-99406366D01*
X169881666Y-99406366D01*
X169882257Y-99843163D01*
X169882059Y-99845955D01*
X169882262Y-99846564D01*
X169882627Y-100116121D01*
X169890093Y-100134145D01*
X169903887Y-100147939D01*
X169921911Y-100155405D01*
X169941421Y-100155405D01*
X169959445Y-100147939D01*
X169973239Y-100134145D01*
X169980705Y-100116121D01*
X169981666Y-100106366D01*
X169981412Y-99919453D01*
X169985128Y-99921258D01*
X169986920Y-99921385D01*
X169988578Y-99922072D01*
X169998333Y-99923033D01*
X170124056Y-99922188D01*
X170125411Y-99922640D01*
X170132566Y-99922131D01*
X170141421Y-99922072D01*
X170143081Y-99921384D01*
X170144871Y-99921257D01*
X170154026Y-99917754D01*
X170220174Y-99883732D01*
X170226112Y-99881273D01*
X170228052Y-99879680D01*
X170228989Y-99879199D01*
X170229852Y-99878203D01*
X170233689Y-99875055D01*
X170266781Y-99840823D01*
X170271165Y-99837022D01*
X170272487Y-99834921D01*
X170273240Y-99834143D01*
X170273745Y-99832923D01*
X170276387Y-99828727D01*
X170305737Y-99768313D01*
X170306572Y-99767479D01*
X170309053Y-99761487D01*
X170313223Y-99752906D01*
X170313350Y-99751115D01*
X170314038Y-99749455D01*
X170314999Y-99739700D01*
X170314118Y-99547418D01*
X170314606Y-99545955D01*
X170314162Y-99539700D01*
X170481666Y-99539700D01*
X170482546Y-99731982D01*
X170482059Y-99733446D01*
X170482587Y-99740885D01*
X170482627Y-99749455D01*
X170483314Y-99751115D01*
X170483442Y-99752906D01*
X170486945Y-99762061D01*
X170520967Y-99828210D01*
X170523425Y-99834143D01*
X170525017Y-99836083D01*
X170525500Y-99837022D01*
X170526496Y-99837886D01*
X170529643Y-99841721D01*
X170563872Y-99874813D01*
X170567676Y-99879199D01*
X170569776Y-99880520D01*
X170570554Y-99881273D01*
X170571773Y-99881778D01*
X170575972Y-99884421D01*
X170636386Y-99913772D01*
X170637220Y-99914606D01*
X170643204Y-99917085D01*
X170651794Y-99921258D01*
X170653586Y-99921385D01*
X170655244Y-99922072D01*
X170664999Y-99923033D01*
X170757493Y-99922223D01*
X170758744Y-99922640D01*
X170765609Y-99922152D01*
X170774754Y-99922072D01*
X170776414Y-99921384D01*
X170778204Y-99921257D01*
X170787359Y-99917754D01*
X170853507Y-99883732D01*
X170859445Y-99881273D01*
X170861385Y-99879680D01*
X170862322Y-99879199D01*
X170863185Y-99878203D01*
X170867022Y-99875055D01*
X170900114Y-99840823D01*
X170904498Y-99837022D01*
X170905820Y-99834921D01*
X170906573Y-99834143D01*
X170907078Y-99832923D01*
X170909720Y-99828727D01*
X170939070Y-99768313D01*
X170939905Y-99767479D01*
X170942386Y-99761487D01*
X170946556Y-99752906D01*
X170946683Y-99751115D01*
X170947371Y-99749455D01*
X170948332Y-99739700D01*
X170947451Y-99547418D01*
X170947939Y-99545955D01*
X170947410Y-99538509D01*
X170947371Y-99529945D01*
X170946684Y-99528287D01*
X170946557Y-99526495D01*
X170943054Y-99517340D01*
X170909032Y-99451192D01*
X170906573Y-99445255D01*
X170904980Y-99443314D01*
X170904498Y-99442377D01*
X170903501Y-99441512D01*
X170900354Y-99437678D01*
X170867967Y-99406366D01*
X171148332Y-99406366D01*
X171149278Y-100105607D01*
X171148912Y-100113958D01*
X171149291Y-100115001D01*
X171149293Y-100116121D01*
X171152611Y-100124131D01*
X171155578Y-100132291D01*
X171156332Y-100133114D01*
X171156759Y-100134145D01*
X171162894Y-100140280D01*
X171168754Y-100146679D01*
X171169764Y-100147150D01*
X171170553Y-100147939D01*
X171178567Y-100151258D01*
X171186434Y-100154930D01*
X171187548Y-100154978D01*
X171188577Y-100155405D01*
X171197249Y-100155405D01*
X171205924Y-100155786D01*
X171206972Y-100155405D01*
X171208087Y-100155405D01*
X171216097Y-100152086D01*
X171224257Y-100149120D01*
X171225080Y-100148365D01*
X171226111Y-100147939D01*
X171232246Y-100141803D01*
X171238645Y-100135944D01*
X171239428Y-100134621D01*
X171239905Y-100134145D01*
X171240356Y-100133054D01*
X171243641Y-100127510D01*
X171431345Y-99723484D01*
X171620260Y-100126502D01*
X171623426Y-100134145D01*
X171624210Y-100134929D01*
X171624686Y-100135944D01*
X171631084Y-100141803D01*
X171637220Y-100147939D01*
X171638250Y-100148365D01*
X171639074Y-100149120D01*
X171647233Y-100152086D01*
X171655244Y-100155405D01*
X171656359Y-100155405D01*
X171657407Y-100155786D01*
X171666082Y-100155405D01*
X171674754Y-100155405D01*
X171675782Y-100154978D01*
X171676897Y-100154930D01*
X171684763Y-100151258D01*
X171692778Y-100147939D01*
X171693566Y-100147150D01*
X171694577Y-100146679D01*
X171700441Y-100140275D01*
X171706572Y-100134145D01*
X171706998Y-100133116D01*
X171707753Y-100132292D01*
X171710722Y-100124124D01*
X171714038Y-100116121D01*
X171714188Y-100114592D01*
X171714419Y-100113959D01*
X171714367Y-100112779D01*
X171714999Y-100106366D01*
X171714038Y-99396611D01*
X172449293Y-99396611D01*
X172449293Y-99416121D01*
X172456759Y-99434145D01*
X172470553Y-99447939D01*
X172488577Y-99455405D01*
X172498332Y-99456366D01*
X172648399Y-99456014D01*
X172649273Y-100101660D01*
X172648332Y-100106419D01*
X172649286Y-100111190D01*
X172649293Y-100116121D01*
X172651187Y-100120693D01*
X172652158Y-100125548D01*
X172654884Y-100129619D01*
X172656759Y-100134145D01*
X172660258Y-100137644D01*
X172663013Y-100141758D01*
X172667089Y-100144475D01*
X172670553Y-100147939D01*
X172675127Y-100149833D01*
X172679247Y-100152580D01*
X172684051Y-100153530D01*
X172688577Y-100155405D01*
X172693527Y-100155405D01*
X172698385Y-100156366D01*
X172703190Y-100155405D01*
X172708087Y-100155405D01*
X172712659Y-100153510D01*
X172717514Y-100152540D01*
X172721585Y-100149813D01*
X172726111Y-100147939D01*
X172729610Y-100144439D01*
X172733724Y-100141685D01*
X172739866Y-100134183D01*
X172739905Y-100134145D01*
X172739912Y-100134127D01*
X172739934Y-100134101D01*
X172800911Y-100041153D01*
X172859238Y-99981740D01*
X172928988Y-99945865D01*
X172941770Y-99931126D01*
X172947939Y-99912620D01*
X172946556Y-99893160D01*
X172937831Y-99875710D01*
X172923092Y-99862928D01*
X172904585Y-99856759D01*
X172885125Y-99858142D01*
X172875971Y-99861645D01*
X172809819Y-99895669D01*
X172803889Y-99898126D01*
X172801950Y-99899716D01*
X172801009Y-99900201D01*
X172800142Y-99901200D01*
X172796311Y-99904344D01*
X172748124Y-99953428D01*
X172747451Y-99455781D01*
X172908087Y-99455405D01*
X172926111Y-99447939D01*
X172939905Y-99434145D01*
X172947371Y-99416121D01*
X172947371Y-99396611D01*
X173115960Y-99396611D01*
X173115960Y-99416121D01*
X173123426Y-99434145D01*
X173137220Y-99447939D01*
X173155244Y-99455405D01*
X173164999Y-99456366D01*
X173315066Y-99456014D01*
X173315940Y-100101660D01*
X173314999Y-100106419D01*
X173315953Y-100111190D01*
X173315960Y-100116121D01*
X173317854Y-100120693D01*
X173318825Y-100125548D01*
X173321551Y-100129619D01*
X173323426Y-100134145D01*
X173326925Y-100137644D01*
X173329680Y-100141758D01*
X173333756Y-100144475D01*
X173337220Y-100147939D01*
X173341794Y-100149833D01*
X173345914Y-100152580D01*
X173350718Y-100153530D01*
X173355244Y-100155405D01*
X173360194Y-100155405D01*
X173365052Y-100156366D01*
X173369857Y-100155405D01*
X173374754Y-100155405D01*
X173379326Y-100153510D01*
X173384181Y-100152540D01*
X173388252Y-100149813D01*
X173392778Y-100147939D01*
X173396277Y-100144439D01*
X173400391Y-100141685D01*
X173406533Y-100134183D01*
X173406572Y-100134145D01*
X173406579Y-100134127D01*
X173406601Y-100134101D01*
X173418789Y-100115523D01*
X173749179Y-100115523D01*
X173749294Y-100115810D01*
X173749294Y-100116121D01*
X173752913Y-100124859D01*
X173756424Y-100133635D01*
X173756640Y-100133857D01*
X173756760Y-100134145D01*
X173763458Y-100140843D01*
X173770049Y-100147597D01*
X173770334Y-100147719D01*
X173770554Y-100147939D01*
X173779291Y-100151558D01*
X173787982Y-100155283D01*
X173788292Y-100155286D01*
X173788578Y-100155405D01*
X173798333Y-100156366D01*
X174274755Y-100155405D01*
X174292779Y-100147939D01*
X174306573Y-100134145D01*
X174314039Y-100116121D01*
X174314039Y-100096611D01*
X174306573Y-100078587D01*
X174292779Y-100064793D01*
X174274755Y-100057327D01*
X174265000Y-100056366D01*
X173873719Y-100057155D01*
X174147250Y-99416717D01*
X174147376Y-99406313D01*
X174415000Y-99406313D01*
X174418786Y-99425451D01*
X174423397Y-99434101D01*
X174638811Y-99756433D01*
X174418786Y-100087281D01*
X174415000Y-100106419D01*
X174418826Y-100125548D01*
X174429681Y-100141758D01*
X174445915Y-100152580D01*
X174465053Y-100156366D01*
X174484182Y-100152540D01*
X174500392Y-100141685D01*
X174506603Y-100134101D01*
X174698434Y-99845648D01*
X174896275Y-100141684D01*
X174912485Y-100152540D01*
X174931614Y-100156365D01*
X174950752Y-100152580D01*
X174966985Y-100141757D01*
X174977841Y-100125547D01*
X174981667Y-100106419D01*
X174977881Y-100087280D01*
X174973269Y-100078631D01*
X174757855Y-99756299D01*
X174977881Y-99425452D01*
X174981657Y-99406366D01*
X175148333Y-99406366D01*
X175149294Y-100116121D01*
X175156760Y-100134145D01*
X175170554Y-100147939D01*
X175188578Y-100155405D01*
X175208088Y-100155405D01*
X175226112Y-100147939D01*
X175239906Y-100134145D01*
X175247372Y-100116121D01*
X175248333Y-100106366D01*
X175247949Y-99822916D01*
X175548896Y-99822210D01*
X175549294Y-100116121D01*
X175556760Y-100134145D01*
X175570554Y-100147939D01*
X175588578Y-100155405D01*
X175608088Y-100155405D01*
X175626112Y-100147939D01*
X175639906Y-100134145D01*
X175647372Y-100116121D01*
X175648333Y-100106366D01*
X175647372Y-99396611D01*
X175639906Y-99378587D01*
X175626112Y-99364793D01*
X175608088Y-99357327D01*
X175588578Y-99357327D01*
X175570554Y-99364793D01*
X175556760Y-99378587D01*
X175549294Y-99396611D01*
X175548333Y-99406366D01*
X175548761Y-99723149D01*
X175247815Y-99723855D01*
X175247372Y-99396611D01*
X175239906Y-99378587D01*
X175226112Y-99364793D01*
X175208088Y-99357327D01*
X175188578Y-99357327D01*
X175170554Y-99364793D01*
X175156760Y-99378587D01*
X175149294Y-99396611D01*
X175148333Y-99406366D01*
X174981657Y-99406366D01*
X174981667Y-99406313D01*
X174977841Y-99387185D01*
X174966985Y-99370975D01*
X174950752Y-99360152D01*
X174931614Y-99356367D01*
X174912485Y-99360192D01*
X174896275Y-99371048D01*
X174890064Y-99378631D01*
X174698232Y-99667083D01*
X174500392Y-99371047D01*
X174484182Y-99360192D01*
X174465053Y-99356366D01*
X174445915Y-99360152D01*
X174429681Y-99370974D01*
X174418826Y-99387184D01*
X174415000Y-99406313D01*
X174147376Y-99406313D01*
X174147487Y-99397210D01*
X174140242Y-99379097D01*
X174126617Y-99365135D01*
X174108684Y-99357450D01*
X174089176Y-99357212D01*
X174071064Y-99364457D01*
X174057102Y-99378083D01*
X174052376Y-99386670D01*
X173756933Y-100078413D01*
X173756760Y-100078587D01*
X173753559Y-100086314D01*
X173749416Y-100096015D01*
X173749412Y-100096325D01*
X173749294Y-100096611D01*
X173749294Y-100106057D01*
X173749179Y-100115523D01*
X173418789Y-100115523D01*
X173467578Y-100041153D01*
X173525905Y-99981740D01*
X173595655Y-99945865D01*
X173608437Y-99931126D01*
X173614606Y-99912620D01*
X173613223Y-99893160D01*
X173604498Y-99875710D01*
X173589759Y-99862928D01*
X173571252Y-99856759D01*
X173551792Y-99858142D01*
X173542638Y-99861645D01*
X173476486Y-99895669D01*
X173470556Y-99898126D01*
X173468617Y-99899716D01*
X173467676Y-99900201D01*
X173466809Y-99901200D01*
X173462978Y-99904344D01*
X173414791Y-99953428D01*
X173414118Y-99455781D01*
X173574754Y-99455405D01*
X173592778Y-99447939D01*
X173606572Y-99434145D01*
X173614038Y-99416121D01*
X173614038Y-99396611D01*
X173606572Y-99378587D01*
X173592778Y-99364793D01*
X173574754Y-99357327D01*
X173564999Y-99356366D01*
X173155244Y-99357327D01*
X173137220Y-99364793D01*
X173123426Y-99378587D01*
X173115960Y-99396611D01*
X172947371Y-99396611D01*
X172939905Y-99378587D01*
X172926111Y-99364793D01*
X172908087Y-99357327D01*
X172898332Y-99356366D01*
X172488577Y-99357327D01*
X172470553Y-99364793D01*
X172456759Y-99378587D01*
X172449293Y-99396611D01*
X171714038Y-99396611D01*
X171706572Y-99378587D01*
X171692778Y-99364793D01*
X171674754Y-99357327D01*
X171655244Y-99357327D01*
X171637220Y-99364793D01*
X171623426Y-99378587D01*
X171615960Y-99396611D01*
X171614999Y-99406366D01*
X171615644Y-99883274D01*
X171476937Y-99587365D01*
X171474419Y-99580441D01*
X171472928Y-99578812D01*
X171471979Y-99576788D01*
X171466375Y-99571656D01*
X171461244Y-99566053D01*
X171459228Y-99565112D01*
X171457591Y-99563613D01*
X171450448Y-99561015D01*
X171443564Y-99557803D01*
X171441346Y-99557705D01*
X171439258Y-99556946D01*
X171431661Y-99557279D01*
X171424074Y-99556946D01*
X171421988Y-99557704D01*
X171419768Y-99557802D01*
X171412877Y-99561017D01*
X171405741Y-99563613D01*
X171404103Y-99565112D01*
X171402088Y-99566053D01*
X171396956Y-99571656D01*
X171391353Y-99576788D01*
X171389694Y-99579587D01*
X171388913Y-99580441D01*
X171388473Y-99581648D01*
X171386357Y-99585222D01*
X171248029Y-99882964D01*
X171247371Y-99396611D01*
X171239905Y-99378587D01*
X171226111Y-99364793D01*
X171208087Y-99357327D01*
X171188577Y-99357327D01*
X171170553Y-99364793D01*
X171156759Y-99378587D01*
X171149293Y-99396611D01*
X171148332Y-99406366D01*
X170867967Y-99406366D01*
X170866121Y-99404581D01*
X170862322Y-99400201D01*
X170860224Y-99398880D01*
X170859444Y-99398126D01*
X170858221Y-99397619D01*
X170854027Y-99394979D01*
X170793612Y-99365627D01*
X170792778Y-99364793D01*
X170786786Y-99362311D01*
X170778205Y-99358142D01*
X170776414Y-99358014D01*
X170774754Y-99357327D01*
X170764999Y-99356366D01*
X170672503Y-99357175D01*
X170671253Y-99356759D01*
X170664387Y-99357246D01*
X170655244Y-99357327D01*
X170653583Y-99358014D01*
X170651793Y-99358142D01*
X170642638Y-99361645D01*
X170576491Y-99395667D01*
X170570554Y-99398126D01*
X170568613Y-99399718D01*
X170567676Y-99400201D01*
X170566811Y-99401197D01*
X170562977Y-99404345D01*
X170529880Y-99438577D01*
X170525500Y-99442377D01*
X170524179Y-99444474D01*
X170523425Y-99445255D01*
X170522918Y-99446477D01*
X170520278Y-99450672D01*
X170490927Y-99511086D01*
X170490093Y-99511921D01*
X170487609Y-99517917D01*
X170483442Y-99526495D01*
X170483314Y-99528284D01*
X170482627Y-99529945D01*
X170481666Y-99539700D01*
X170314162Y-99539700D01*
X170314077Y-99538509D01*
X170314038Y-99529945D01*
X170313351Y-99528287D01*
X170313224Y-99526495D01*
X170309721Y-99517340D01*
X170275699Y-99451192D01*
X170273240Y-99445255D01*
X170271647Y-99443314D01*
X170271165Y-99442377D01*
X170270168Y-99441512D01*
X170267021Y-99437678D01*
X170232788Y-99404581D01*
X170228989Y-99400201D01*
X170226891Y-99398880D01*
X170226111Y-99398126D01*
X170224888Y-99397619D01*
X170220694Y-99394979D01*
X170160279Y-99365627D01*
X170159445Y-99364793D01*
X170153453Y-99362311D01*
X170144872Y-99358142D01*
X170143081Y-99358014D01*
X170141421Y-99357327D01*
X170131666Y-99356366D01*
X170005941Y-99357210D01*
X170004587Y-99356759D01*
X169997431Y-99357267D01*
X169988578Y-99357327D01*
X169986917Y-99358014D01*
X169985127Y-99358142D01*
X169975972Y-99361645D01*
X169962979Y-99368327D01*
X169959445Y-99364793D01*
X169941421Y-99357327D01*
X169921911Y-99357327D01*
X169903887Y-99364793D01*
X169890093Y-99378587D01*
X169882627Y-99396611D01*
X169881666Y-99406366D01*
X169601412Y-99406366D01*
X169599763Y-99404936D01*
X169595656Y-99400201D01*
X169590719Y-99397093D01*
X169589761Y-99396262D01*
X169588991Y-99396005D01*
X169587361Y-99394979D01*
X169526946Y-99365627D01*
X169526112Y-99364793D01*
X169520120Y-99362311D01*
X169511539Y-99358142D01*
X169509748Y-99358014D01*
X169508088Y-99357327D01*
X169498333Y-99356366D01*
X169405837Y-99357175D01*
X169404587Y-99356759D01*
X169397721Y-99357246D01*
X169388578Y-99357327D01*
X169386917Y-99358014D01*
X169385127Y-99358142D01*
X169375972Y-99361645D01*
X169340455Y-99379912D01*
X169339906Y-99378587D01*
X169326112Y-99364793D01*
X169308088Y-99357327D01*
X169288578Y-99357327D01*
X169270554Y-99364793D01*
X169256760Y-99378587D01*
X169249294Y-99396611D01*
X169248333Y-99406366D01*
X168968079Y-99406366D01*
X168966430Y-99404936D01*
X168962323Y-99400201D01*
X168957386Y-99397093D01*
X168956428Y-99396262D01*
X168955658Y-99396005D01*
X168954028Y-99394979D01*
X168878206Y-99358142D01*
X168858746Y-99356759D01*
X168840239Y-99362928D01*
X168825501Y-99375710D01*
X168816776Y-99393160D01*
X168815393Y-99412620D01*
X168639760Y-99412620D01*
X168639542Y-99412369D01*
X168637832Y-99409044D01*
X168633096Y-99404936D01*
X168628989Y-99400201D01*
X168624052Y-99397093D01*
X168623094Y-99396262D01*
X168622324Y-99396005D01*
X168620694Y-99394979D01*
X168560279Y-99365627D01*
X168559445Y-99364793D01*
X168553453Y-99362311D01*
X168544872Y-99358142D01*
X168543081Y-99358014D01*
X168541421Y-99357327D01*
X168531666Y-99356366D01*
X168405941Y-99357210D01*
X168404587Y-99356759D01*
X168397431Y-99357267D01*
X168388578Y-99357327D01*
X168386917Y-99358014D01*
X168385127Y-99358142D01*
X168375972Y-99361645D01*
X168301010Y-99400201D01*
X168288228Y-99414939D01*
X168282059Y-99433446D01*
X168283442Y-99452906D01*
X168292167Y-99470356D01*
X168306905Y-99483138D01*
X168325412Y-99489307D01*
X168344872Y-99487924D01*
X168354027Y-99484421D01*
X168408708Y-99456296D01*
X168518509Y-99455558D01*
X168560847Y-99476127D01*
X168581701Y-99516674D01*
X168581987Y-99598759D01*
X168293273Y-99657327D01*
X168288578Y-99657327D01*
X168284071Y-99659193D01*
X168279150Y-99660192D01*
X168275078Y-99662919D01*
X168270554Y-99664793D01*
X168267054Y-99668292D01*
X168262940Y-99671048D01*
X168260222Y-99675124D01*
X168256760Y-99678587D01*
X168254866Y-99683159D01*
X168252119Y-99687280D01*
X168251168Y-99692086D01*
X168249294Y-99696611D01*
X168248333Y-99706366D01*
X168170555Y-99706366D01*
X168170555Y-99329945D01*
X171782626Y-99329945D01*
X171782626Y-99349455D01*
X171790092Y-99367479D01*
X171803886Y-99381273D01*
X171821910Y-99388739D01*
X171831665Y-99389700D01*
X172374754Y-99388739D01*
X172392778Y-99381273D01*
X172406572Y-99367479D01*
X172414038Y-99349455D01*
X172414038Y-99329945D01*
X172406572Y-99311921D01*
X172392778Y-99298127D01*
X172374754Y-99290661D01*
X172364999Y-99289700D01*
X171821910Y-99290661D01*
X171803886Y-99298127D01*
X171790092Y-99311921D01*
X171782626Y-99329945D01*
X168170555Y-99329945D01*
X168170555Y-99211922D01*
X175726111Y-99211922D01*
X175726111Y-100234144D01*
G37*
D10*
X187589790Y-70466233D02*
X187613600Y-70490042D01*
X187613600Y-70490042D02*
X187637409Y-70561471D01*
X187637409Y-70561471D02*
X187637409Y-70609090D01*
X187637409Y-70609090D02*
X187613600Y-70680518D01*
X187613600Y-70680518D02*
X187565980Y-70728137D01*
X187565980Y-70728137D02*
X187518361Y-70751947D01*
X187518361Y-70751947D02*
X187423123Y-70775756D01*
X187423123Y-70775756D02*
X187351695Y-70775756D01*
X187351695Y-70775756D02*
X187256457Y-70751947D01*
X187256457Y-70751947D02*
X187208838Y-70728137D01*
X187208838Y-70728137D02*
X187161219Y-70680518D01*
X187161219Y-70680518D02*
X187137409Y-70609090D01*
X187137409Y-70609090D02*
X187137409Y-70561471D01*
X187137409Y-70561471D02*
X187161219Y-70490042D01*
X187161219Y-70490042D02*
X187185028Y-70466233D01*
X187304076Y-70037661D02*
X187637409Y-70037661D01*
X187113600Y-70156709D02*
X187470742Y-70275756D01*
X187470742Y-70275756D02*
X187470742Y-69966233D01*
D11*
X185835592Y-69160713D02*
X185799878Y-69124999D01*
X185799878Y-69124999D02*
X185764164Y-69053571D01*
X185764164Y-69053571D02*
X185764164Y-68874999D01*
X185764164Y-68874999D02*
X185799878Y-68803571D01*
X185799878Y-68803571D02*
X185835592Y-68767856D01*
X185835592Y-68767856D02*
X185907021Y-68732142D01*
X185907021Y-68732142D02*
X185978450Y-68732142D01*
X185978450Y-68732142D02*
X186085592Y-68767856D01*
X186085592Y-68767856D02*
X186514164Y-69196428D01*
X186514164Y-69196428D02*
X186514164Y-68732142D01*
X186442735Y-68410713D02*
X186478450Y-68374999D01*
X186478450Y-68374999D02*
X186514164Y-68410713D01*
X186514164Y-68410713D02*
X186478450Y-68446427D01*
X186478450Y-68446427D02*
X186442735Y-68410713D01*
X186442735Y-68410713D02*
X186514164Y-68410713D01*
X185835592Y-68089284D02*
X185799878Y-68053570D01*
X185799878Y-68053570D02*
X185764164Y-67982142D01*
X185764164Y-67982142D02*
X185764164Y-67803570D01*
X185764164Y-67803570D02*
X185799878Y-67732142D01*
X185799878Y-67732142D02*
X185835592Y-67696427D01*
X185835592Y-67696427D02*
X185907021Y-67660713D01*
X185907021Y-67660713D02*
X185978450Y-67660713D01*
X185978450Y-67660713D02*
X186085592Y-67696427D01*
X186085592Y-67696427D02*
X186514164Y-68124999D01*
X186514164Y-68124999D02*
X186514164Y-67660713D01*
X186014164Y-67017856D02*
X186514164Y-67017856D01*
X186014164Y-67339284D02*
X186407021Y-67339284D01*
X186407021Y-67339284D02*
X186478450Y-67303570D01*
X186478450Y-67303570D02*
X186514164Y-67232141D01*
X186514164Y-67232141D02*
X186514164Y-67124998D01*
X186514164Y-67124998D02*
X186478450Y-67053570D01*
X186478450Y-67053570D02*
X186442735Y-67017856D01*
X186121307Y-66410713D02*
X186121307Y-66660713D01*
X186514164Y-66660713D02*
X185764164Y-66660713D01*
X185764164Y-66660713D02*
X185764164Y-66303570D01*
D10*
X184277190Y-90533333D02*
X184301000Y-90557142D01*
X184301000Y-90557142D02*
X184324809Y-90628571D01*
X184324809Y-90628571D02*
X184324809Y-90676190D01*
X184324809Y-90676190D02*
X184301000Y-90747618D01*
X184301000Y-90747618D02*
X184253380Y-90795237D01*
X184253380Y-90795237D02*
X184205761Y-90819047D01*
X184205761Y-90819047D02*
X184110523Y-90842856D01*
X184110523Y-90842856D02*
X184039095Y-90842856D01*
X184039095Y-90842856D02*
X183943857Y-90819047D01*
X183943857Y-90819047D02*
X183896238Y-90795237D01*
X183896238Y-90795237D02*
X183848619Y-90747618D01*
X183848619Y-90747618D02*
X183824809Y-90676190D01*
X183824809Y-90676190D02*
X183824809Y-90628571D01*
X183824809Y-90628571D02*
X183848619Y-90557142D01*
X183848619Y-90557142D02*
X183872428Y-90533333D01*
X183824809Y-90080952D02*
X183824809Y-90319047D01*
X183824809Y-90319047D02*
X184062904Y-90342856D01*
X184062904Y-90342856D02*
X184039095Y-90319047D01*
X184039095Y-90319047D02*
X184015285Y-90271428D01*
X184015285Y-90271428D02*
X184015285Y-90152380D01*
X184015285Y-90152380D02*
X184039095Y-90104761D01*
X184039095Y-90104761D02*
X184062904Y-90080952D01*
X184062904Y-90080952D02*
X184110523Y-90057142D01*
X184110523Y-90057142D02*
X184229571Y-90057142D01*
X184229571Y-90057142D02*
X184277190Y-90080952D01*
X184277190Y-90080952D02*
X184301000Y-90104761D01*
X184301000Y-90104761D02*
X184324809Y-90152380D01*
X184324809Y-90152380D02*
X184324809Y-90271428D01*
X184324809Y-90271428D02*
X184301000Y-90319047D01*
X184301000Y-90319047D02*
X184277190Y-90342856D01*
D11*
X182435592Y-89259013D02*
X182399878Y-89223299D01*
X182399878Y-89223299D02*
X182364164Y-89151871D01*
X182364164Y-89151871D02*
X182364164Y-88973299D01*
X182364164Y-88973299D02*
X182399878Y-88901871D01*
X182399878Y-88901871D02*
X182435592Y-88866156D01*
X182435592Y-88866156D02*
X182507021Y-88830442D01*
X182507021Y-88830442D02*
X182578450Y-88830442D01*
X182578450Y-88830442D02*
X182685592Y-88866156D01*
X182685592Y-88866156D02*
X183114164Y-89294728D01*
X183114164Y-89294728D02*
X183114164Y-88830442D01*
X183042735Y-88509013D02*
X183078450Y-88473299D01*
X183078450Y-88473299D02*
X183114164Y-88509013D01*
X183114164Y-88509013D02*
X183078450Y-88544727D01*
X183078450Y-88544727D02*
X183042735Y-88509013D01*
X183042735Y-88509013D02*
X183114164Y-88509013D01*
X182435592Y-88187584D02*
X182399878Y-88151870D01*
X182399878Y-88151870D02*
X182364164Y-88080442D01*
X182364164Y-88080442D02*
X182364164Y-87901870D01*
X182364164Y-87901870D02*
X182399878Y-87830442D01*
X182399878Y-87830442D02*
X182435592Y-87794727D01*
X182435592Y-87794727D02*
X182507021Y-87759013D01*
X182507021Y-87759013D02*
X182578450Y-87759013D01*
X182578450Y-87759013D02*
X182685592Y-87794727D01*
X182685592Y-87794727D02*
X183114164Y-88223299D01*
X183114164Y-88223299D02*
X183114164Y-87759013D01*
X182614164Y-87116156D02*
X183114164Y-87116156D01*
X182614164Y-87437584D02*
X183007021Y-87437584D01*
X183007021Y-87437584D02*
X183078450Y-87401870D01*
X183078450Y-87401870D02*
X183114164Y-87330441D01*
X183114164Y-87330441D02*
X183114164Y-87223298D01*
X183114164Y-87223298D02*
X183078450Y-87151870D01*
X183078450Y-87151870D02*
X183042735Y-87116156D01*
X182721307Y-86509013D02*
X182721307Y-86759013D01*
X183114164Y-86759013D02*
X182364164Y-86759013D01*
X182364164Y-86759013D02*
X182364164Y-86401870D01*
X172331666Y-68937319D02*
X172331666Y-69651604D01*
X172331666Y-69651604D02*
X172284047Y-69794461D01*
X172284047Y-69794461D02*
X172188809Y-69889700D01*
X172188809Y-69889700D02*
X172045952Y-69937319D01*
X172045952Y-69937319D02*
X171950714Y-69937319D01*
X172712619Y-68937319D02*
X173331666Y-68937319D01*
X173331666Y-68937319D02*
X172998333Y-69318271D01*
X172998333Y-69318271D02*
X173141190Y-69318271D01*
X173141190Y-69318271D02*
X173236428Y-69365890D01*
X173236428Y-69365890D02*
X173284047Y-69413509D01*
X173284047Y-69413509D02*
X173331666Y-69508747D01*
X173331666Y-69508747D02*
X173331666Y-69746842D01*
X173331666Y-69746842D02*
X173284047Y-69842080D01*
X173284047Y-69842080D02*
X173236428Y-69889700D01*
X173236428Y-69889700D02*
X173141190Y-69937319D01*
X173141190Y-69937319D02*
X172855476Y-69937319D01*
X172855476Y-69937319D02*
X172760238Y-69889700D01*
X172760238Y-69889700D02*
X172712619Y-69842080D01*
D12*
G36*
X185219314Y-65190089D02*
G01*
X185244190Y-65214183D01*
X185271849Y-65268048D01*
X185272537Y-65351717D01*
X185246495Y-65405228D01*
X185222400Y-65430103D01*
X185168615Y-65457721D01*
X184977906Y-65458539D01*
X184924210Y-65432407D01*
X184899338Y-65408315D01*
X184871678Y-65354448D01*
X184870990Y-65270779D01*
X184897033Y-65217267D01*
X184921125Y-65192394D01*
X184974912Y-65164775D01*
X185165621Y-65163957D01*
X185219314Y-65190089D01*
G37*
G36*
X185271816Y-64553699D02*
G01*
X185272607Y-64708716D01*
X185249657Y-64755875D01*
X185204174Y-64779229D01*
X185156128Y-64779798D01*
X185109279Y-64756998D01*
X185085997Y-64711656D01*
X185085178Y-64551081D01*
X185085657Y-64549645D01*
X185085133Y-64542272D01*
X185085089Y-64533637D01*
X185084401Y-64531976D01*
X185084274Y-64530185D01*
X185080989Y-64521600D01*
X185255121Y-64521185D01*
X185271816Y-64553699D01*
G37*
G36*
X185271829Y-63875152D02*
G01*
X185272580Y-63994486D01*
X185246495Y-64048086D01*
X185222400Y-64072961D01*
X185168615Y-64100579D01*
X184977906Y-64101397D01*
X184924210Y-64075265D01*
X184899338Y-64051173D01*
X184871698Y-63997346D01*
X184870947Y-63878012D01*
X184887990Y-63842993D01*
X185255077Y-63842528D01*
X185271829Y-63875152D01*
G37*
G36*
X185011702Y-62101194D02*
G01*
X184942240Y-62101420D01*
X184894993Y-62078427D01*
X184871698Y-62033061D01*
X184870947Y-61913726D01*
X184893871Y-61866622D01*
X184939352Y-61843269D01*
X184959379Y-61843032D01*
X185011702Y-62101194D01*
G37*
G36*
X185526525Y-66212439D02*
G01*
X184438431Y-66212439D01*
X184438431Y-66069351D01*
X184522725Y-66069351D01*
X184522725Y-66088861D01*
X184530191Y-66106885D01*
X184543985Y-66120679D01*
X184562009Y-66128145D01*
X184571764Y-66129106D01*
X185331519Y-66128145D01*
X185349543Y-66120679D01*
X185363337Y-66106885D01*
X185370803Y-66088861D01*
X185371764Y-66079106D01*
X185370803Y-65712208D01*
X185363337Y-65694184D01*
X185349543Y-65680390D01*
X185331519Y-65672924D01*
X185312009Y-65672924D01*
X185293985Y-65680390D01*
X185280191Y-65694184D01*
X185272725Y-65712208D01*
X185271764Y-65721963D01*
X185272568Y-66029168D01*
X184562009Y-66030067D01*
X184543985Y-66037533D01*
X184530191Y-66051327D01*
X184522725Y-66069351D01*
X184438431Y-66069351D01*
X184438431Y-65257677D01*
X184771764Y-65257677D01*
X184772582Y-65357287D01*
X184772157Y-65358565D01*
X184772650Y-65365508D01*
X184772725Y-65374575D01*
X184773412Y-65376235D01*
X184773540Y-65378026D01*
X184777043Y-65387180D01*
X184813412Y-65458012D01*
X184815904Y-65464027D01*
X184817499Y-65465970D01*
X184817979Y-65466905D01*
X184818975Y-65467769D01*
X184822123Y-65471604D01*
X184858666Y-65507000D01*
X184862536Y-65511462D01*
X184864640Y-65512786D01*
X184865414Y-65513536D01*
X184866633Y-65514041D01*
X184870832Y-65516684D01*
X184935983Y-65548391D01*
X184936842Y-65549250D01*
X184942925Y-65551770D01*
X184951416Y-65555902D01*
X184953208Y-65556029D01*
X184954866Y-65556716D01*
X184964621Y-65557677D01*
X185171174Y-65556791D01*
X185172653Y-65557284D01*
X185180130Y-65556752D01*
X185188662Y-65556716D01*
X185190322Y-65556028D01*
X185192113Y-65555901D01*
X185201268Y-65552398D01*
X185272103Y-65516025D01*
X185278112Y-65513537D01*
X185280055Y-65511942D01*
X185280991Y-65511462D01*
X185281855Y-65510465D01*
X185285690Y-65507319D01*
X185321092Y-65470770D01*
X185325549Y-65466905D01*
X185326871Y-65464803D01*
X185327623Y-65464028D01*
X185328129Y-65462806D01*
X185330771Y-65458609D01*
X185362478Y-65393457D01*
X185363337Y-65392599D01*
X185365857Y-65386515D01*
X185369989Y-65378025D01*
X185370116Y-65376232D01*
X185370803Y-65374575D01*
X185371764Y-65364820D01*
X185370945Y-65265208D01*
X185371371Y-65263931D01*
X185370877Y-65256987D01*
X185370803Y-65247922D01*
X185370115Y-65246261D01*
X185369988Y-65244471D01*
X185366485Y-65235316D01*
X185330112Y-65164480D01*
X185327623Y-65158470D01*
X185326028Y-65156527D01*
X185325549Y-65155593D01*
X185324553Y-65154729D01*
X185321405Y-65150893D01*
X185284858Y-65115495D01*
X185280991Y-65111036D01*
X185278886Y-65109711D01*
X185278112Y-65108961D01*
X185276892Y-65108456D01*
X185272696Y-65105814D01*
X185207545Y-65074106D01*
X185206686Y-65073247D01*
X185200594Y-65070723D01*
X185192113Y-65066596D01*
X185190322Y-65066468D01*
X185188662Y-65065781D01*
X185178907Y-65064820D01*
X184972353Y-65065705D01*
X184970875Y-65065213D01*
X184963397Y-65065744D01*
X184954866Y-65065781D01*
X184953205Y-65066468D01*
X184951415Y-65066596D01*
X184942260Y-65070099D01*
X184871420Y-65106473D01*
X184865414Y-65108962D01*
X184863472Y-65110554D01*
X184862536Y-65111036D01*
X184861670Y-65112034D01*
X184857837Y-65115180D01*
X184822435Y-65151727D01*
X184817979Y-65155593D01*
X184816655Y-65157694D01*
X184815904Y-65158471D01*
X184815397Y-65159693D01*
X184812757Y-65163888D01*
X184781050Y-65229038D01*
X184780191Y-65229898D01*
X184777668Y-65235988D01*
X184773540Y-65244471D01*
X184773412Y-65246261D01*
X184772725Y-65247922D01*
X184771764Y-65257677D01*
X184438431Y-65257677D01*
X184438431Y-64579106D01*
X184771764Y-64579106D01*
X184772615Y-64714334D01*
X184772157Y-64715710D01*
X184772669Y-64722922D01*
X184772725Y-64731719D01*
X184773412Y-64733379D01*
X184773540Y-64735170D01*
X184777043Y-64744325D01*
X184817979Y-64824048D01*
X184832717Y-64836830D01*
X184851224Y-64842999D01*
X184870684Y-64841616D01*
X184888134Y-64832891D01*
X184900916Y-64818153D01*
X184907085Y-64799646D01*
X184905702Y-64780186D01*
X184902199Y-64771031D01*
X184871698Y-64711632D01*
X184870947Y-64592297D01*
X184893871Y-64545193D01*
X184939159Y-64521939D01*
X184969756Y-64521866D01*
X184986102Y-64553700D01*
X184986921Y-64714273D01*
X184986443Y-64715710D01*
X184986966Y-64723082D01*
X184987011Y-64731719D01*
X184987698Y-64733379D01*
X184987826Y-64735170D01*
X184991329Y-64744325D01*
X185026638Y-64813090D01*
X185028326Y-64818153D01*
X185030561Y-64820730D01*
X185032265Y-64824048D01*
X185037000Y-64828155D01*
X185041108Y-64832891D01*
X185046044Y-64835998D01*
X185047003Y-64836830D01*
X185047772Y-64837086D01*
X185049403Y-64838113D01*
X185114553Y-64869819D01*
X185115413Y-64870679D01*
X185121503Y-64873201D01*
X185129986Y-64877330D01*
X185131776Y-64877457D01*
X185133437Y-64878145D01*
X185143192Y-64879106D01*
X185207269Y-64878347D01*
X185208366Y-64878713D01*
X185214756Y-64878258D01*
X185224376Y-64878145D01*
X185226036Y-64877457D01*
X185227827Y-64877330D01*
X185236981Y-64873827D01*
X185305747Y-64838517D01*
X185310811Y-64836830D01*
X185313388Y-64834594D01*
X185316706Y-64832891D01*
X185320813Y-64828155D01*
X185325549Y-64824048D01*
X185328656Y-64819111D01*
X185329488Y-64818153D01*
X185329744Y-64817383D01*
X185330771Y-64815753D01*
X185362477Y-64750602D01*
X185363337Y-64749743D01*
X185365859Y-64743652D01*
X185369988Y-64735170D01*
X185370115Y-64733379D01*
X185370803Y-64731719D01*
X185371764Y-64721964D01*
X185370892Y-64551082D01*
X185371371Y-64549646D01*
X185370847Y-64542273D01*
X185370803Y-64533637D01*
X185370115Y-64531976D01*
X185369988Y-64530186D01*
X185366485Y-64521031D01*
X185358194Y-64504885D01*
X185363337Y-64499743D01*
X185370803Y-64481719D01*
X185370803Y-64462209D01*
X185363337Y-64444185D01*
X185349543Y-64430391D01*
X185331519Y-64422925D01*
X185321764Y-64421964D01*
X185007659Y-64422713D01*
X185006589Y-64422357D01*
X185001357Y-64422728D01*
X184936739Y-64422883D01*
X184935162Y-64422357D01*
X184927442Y-64422905D01*
X184919152Y-64422925D01*
X184917494Y-64423611D01*
X184915702Y-64423739D01*
X184906547Y-64427242D01*
X184837779Y-64462552D01*
X184832717Y-64464240D01*
X184830139Y-64466475D01*
X184826822Y-64468179D01*
X184822714Y-64472914D01*
X184817979Y-64477022D01*
X184814871Y-64481958D01*
X184814040Y-64482917D01*
X184813783Y-64483686D01*
X184812757Y-64485317D01*
X184781050Y-64550467D01*
X184780191Y-64551327D01*
X184777668Y-64557417D01*
X184773540Y-64565900D01*
X184773412Y-64567690D01*
X184772725Y-64569351D01*
X184771764Y-64579106D01*
X184438431Y-64579106D01*
X184438431Y-63783638D01*
X184522725Y-63783638D01*
X184522725Y-63803148D01*
X184530191Y-63821172D01*
X184543985Y-63834966D01*
X184562009Y-63842432D01*
X184571764Y-63843393D01*
X184777668Y-63843132D01*
X184773540Y-63851615D01*
X184773412Y-63853405D01*
X184772725Y-63855066D01*
X184771764Y-63864821D01*
X184772615Y-64000047D01*
X184772157Y-64001423D01*
X184772669Y-64008636D01*
X184772725Y-64017433D01*
X184773412Y-64019093D01*
X184773540Y-64020884D01*
X184777043Y-64030038D01*
X184813412Y-64100870D01*
X184815904Y-64106885D01*
X184817499Y-64108828D01*
X184817979Y-64109763D01*
X184818975Y-64110627D01*
X184822123Y-64114462D01*
X184858666Y-64149858D01*
X184862536Y-64154320D01*
X184864640Y-64155644D01*
X184865414Y-64156394D01*
X184866633Y-64156899D01*
X184870832Y-64159542D01*
X184935983Y-64191249D01*
X184936842Y-64192108D01*
X184942925Y-64194628D01*
X184951416Y-64198760D01*
X184953208Y-64198887D01*
X184954866Y-64199574D01*
X184964621Y-64200535D01*
X185171174Y-64199649D01*
X185172653Y-64200142D01*
X185180130Y-64199610D01*
X185188662Y-64199574D01*
X185190322Y-64198886D01*
X185192113Y-64198759D01*
X185201268Y-64195256D01*
X185272103Y-64158883D01*
X185278112Y-64156395D01*
X185280055Y-64154800D01*
X185280991Y-64154320D01*
X185281855Y-64153323D01*
X185285690Y-64150177D01*
X185321092Y-64113628D01*
X185325549Y-64109763D01*
X185326871Y-64107661D01*
X185327623Y-64106886D01*
X185328129Y-64105664D01*
X185330771Y-64101467D01*
X185362478Y-64036315D01*
X185363337Y-64035457D01*
X185365857Y-64029373D01*
X185369989Y-64020883D01*
X185370116Y-64019090D01*
X185370803Y-64017433D01*
X185371764Y-64007678D01*
X185370912Y-63872450D01*
X185371371Y-63871075D01*
X185370858Y-63863862D01*
X185370803Y-63855066D01*
X185370115Y-63853405D01*
X185369988Y-63851615D01*
X185366485Y-63842460D01*
X185358194Y-63826314D01*
X185363337Y-63821172D01*
X185370803Y-63803148D01*
X185370803Y-63783638D01*
X185363337Y-63765614D01*
X185349543Y-63751820D01*
X185331519Y-63744354D01*
X185321764Y-63743393D01*
X184854019Y-63743984D01*
X184851224Y-63743786D01*
X184850615Y-63743988D01*
X184562009Y-63744354D01*
X184543985Y-63751820D01*
X184530191Y-63765614D01*
X184522725Y-63783638D01*
X184438431Y-63783638D01*
X184438431Y-63043393D01*
X185343192Y-63043393D01*
X185344153Y-63624577D01*
X185351619Y-63642601D01*
X185365413Y-63656395D01*
X185383437Y-63663861D01*
X185402947Y-63663861D01*
X185420971Y-63656395D01*
X185434765Y-63642601D01*
X185442231Y-63624577D01*
X185443192Y-63614822D01*
X185442231Y-63033638D01*
X185434765Y-63015614D01*
X185420971Y-63001820D01*
X185402947Y-62994354D01*
X185383437Y-62994354D01*
X185365413Y-63001820D01*
X185351619Y-63015614D01*
X185344153Y-63033638D01*
X185343192Y-63043393D01*
X184438431Y-63043393D01*
X184438431Y-62579107D01*
X184521764Y-62579107D01*
X184522608Y-62650436D01*
X184522157Y-62656788D01*
X184522712Y-62659231D01*
X184522725Y-62660290D01*
X184523230Y-62661510D01*
X184524330Y-62666346D01*
X184558439Y-62766065D01*
X184558439Y-62767432D01*
X184561123Y-62773914D01*
X184564040Y-62782440D01*
X184565216Y-62783796D01*
X184565904Y-62785456D01*
X184572123Y-62793033D01*
X184643824Y-62863501D01*
X184648251Y-62868606D01*
X184650383Y-62869948D01*
X184651129Y-62870681D01*
X184652351Y-62871187D01*
X184656546Y-62873828D01*
X184725235Y-62907256D01*
X184728978Y-62910030D01*
X184736336Y-62912659D01*
X184737129Y-62913045D01*
X184737487Y-62913070D01*
X184738208Y-62913328D01*
X184878271Y-62947434D01*
X184883437Y-62949574D01*
X184889519Y-62950173D01*
X184890763Y-62950476D01*
X184891491Y-62950367D01*
X184893192Y-62950535D01*
X184997405Y-62949678D01*
X185002765Y-62950476D01*
X185008792Y-62949584D01*
X185010090Y-62949574D01*
X185010770Y-62949292D01*
X185012462Y-62949042D01*
X185151415Y-62913399D01*
X185156398Y-62913045D01*
X185163721Y-62910242D01*
X185164550Y-62910030D01*
X185164841Y-62909813D01*
X185165552Y-62909542D01*
X185236384Y-62873172D01*
X185242399Y-62870681D01*
X185244342Y-62869085D01*
X185245277Y-62868606D01*
X185246141Y-62867609D01*
X185249976Y-62864462D01*
X185315522Y-62797769D01*
X185316705Y-62797178D01*
X185321223Y-62791968D01*
X185327624Y-62785456D01*
X185328311Y-62783796D01*
X185329488Y-62782440D01*
X185333484Y-62773489D01*
X185368172Y-62666641D01*
X185370803Y-62660290D01*
X185371050Y-62657774D01*
X185371371Y-62656788D01*
X185371277Y-62655472D01*
X185371764Y-62650535D01*
X185370919Y-62579205D01*
X185371371Y-62572854D01*
X185370815Y-62570410D01*
X185370803Y-62569352D01*
X185370297Y-62568131D01*
X185369198Y-62563296D01*
X185335089Y-62463576D01*
X185335089Y-62462210D01*
X185332405Y-62455730D01*
X185329488Y-62447202D01*
X185328310Y-62445844D01*
X185327623Y-62444185D01*
X185321405Y-62436608D01*
X185278112Y-62394676D01*
X185260088Y-62387211D01*
X185240580Y-62387211D01*
X185222556Y-62394677D01*
X185208761Y-62408473D01*
X185201296Y-62426497D01*
X185201296Y-62446005D01*
X185208762Y-62464029D01*
X185214980Y-62471606D01*
X185242055Y-62497830D01*
X185271832Y-62584884D01*
X185272489Y-62640392D01*
X185243521Y-62729622D01*
X185187090Y-62787039D01*
X185129094Y-62816819D01*
X184997566Y-62850557D01*
X184902490Y-62851339D01*
X184771188Y-62819366D01*
X184710049Y-62789612D01*
X184651591Y-62732158D01*
X184621695Y-62644757D01*
X184621038Y-62589248D01*
X184650058Y-62499858D01*
X184684765Y-62464028D01*
X184692231Y-62446004D01*
X184692231Y-62426496D01*
X184684765Y-62408472D01*
X184670970Y-62394677D01*
X184652946Y-62387211D01*
X184633438Y-62387211D01*
X184615414Y-62394677D01*
X184607837Y-62400895D01*
X184577667Y-62432041D01*
X184576823Y-62432464D01*
X184573095Y-62436761D01*
X184565904Y-62444186D01*
X184565216Y-62445845D01*
X184564040Y-62447202D01*
X184560044Y-62456152D01*
X184525355Y-62563000D01*
X184522725Y-62569352D01*
X184522477Y-62571867D01*
X184522157Y-62572854D01*
X184522250Y-62574169D01*
X184521764Y-62579107D01*
X184438431Y-62579107D01*
X184438431Y-61900535D01*
X184771764Y-61900535D01*
X184772615Y-62035763D01*
X184772157Y-62037139D01*
X184772669Y-62044351D01*
X184772725Y-62053148D01*
X184773412Y-62054808D01*
X184773540Y-62056599D01*
X184777043Y-62065754D01*
X184812352Y-62134518D01*
X184814040Y-62139582D01*
X184816275Y-62142159D01*
X184817979Y-62145477D01*
X184822714Y-62149584D01*
X184826822Y-62154320D01*
X184831756Y-62157426D01*
X184832717Y-62158259D01*
X184833488Y-62158516D01*
X184835118Y-62159542D01*
X184900269Y-62191249D01*
X184901128Y-62192108D01*
X184907211Y-62194628D01*
X184915702Y-62198760D01*
X184917494Y-62198887D01*
X184919152Y-62199574D01*
X184928907Y-62200535D01*
X185069504Y-62200077D01*
X185071816Y-62200535D01*
X185074178Y-62200062D01*
X185206833Y-62199631D01*
X185208366Y-62200142D01*
X185215974Y-62199601D01*
X185224376Y-62199574D01*
X185226036Y-62198886D01*
X185227827Y-62198759D01*
X185236981Y-62195256D01*
X185305747Y-62159946D01*
X185310811Y-62158259D01*
X185313388Y-62156023D01*
X185316706Y-62154320D01*
X185320813Y-62149584D01*
X185325549Y-62145477D01*
X185328656Y-62140540D01*
X185329488Y-62139582D01*
X185329744Y-62138812D01*
X185330771Y-62137182D01*
X185362477Y-62072031D01*
X185363337Y-62071172D01*
X185365859Y-62065081D01*
X185369988Y-62056599D01*
X185370115Y-62054808D01*
X185370803Y-62053148D01*
X185371764Y-62043393D01*
X185370912Y-61908164D01*
X185371371Y-61906789D01*
X185370858Y-61899576D01*
X185370803Y-61890780D01*
X185370115Y-61889119D01*
X185369988Y-61887329D01*
X185366485Y-61878174D01*
X185325549Y-61798451D01*
X185310811Y-61785669D01*
X185292304Y-61779500D01*
X185272844Y-61780883D01*
X185255394Y-61789608D01*
X185242612Y-61804346D01*
X185236443Y-61822853D01*
X185237826Y-61842313D01*
X185241329Y-61851468D01*
X185271829Y-61910866D01*
X185272580Y-62030201D01*
X185249657Y-62077304D01*
X185204350Y-62100568D01*
X185112713Y-62100866D01*
X185049374Y-61788345D01*
X185049374Y-61783638D01*
X185047505Y-61779127D01*
X185046509Y-61774210D01*
X185043781Y-61770138D01*
X185041908Y-61765614D01*
X185038408Y-61762114D01*
X185035653Y-61758000D01*
X185031576Y-61755282D01*
X185028114Y-61751820D01*
X185023541Y-61749926D01*
X185019421Y-61747179D01*
X185014614Y-61746228D01*
X185010090Y-61744354D01*
X185000335Y-61743393D01*
X185000285Y-61743393D01*
X185000283Y-61743393D01*
X185000279Y-61743393D01*
X184936258Y-61744151D01*
X184935162Y-61743786D01*
X184928766Y-61744240D01*
X184919152Y-61744354D01*
X184917494Y-61745040D01*
X184915702Y-61745168D01*
X184906547Y-61748671D01*
X184837779Y-61783981D01*
X184832717Y-61785669D01*
X184830139Y-61787904D01*
X184826822Y-61789608D01*
X184822714Y-61794343D01*
X184817979Y-61798451D01*
X184814871Y-61803387D01*
X184814040Y-61804346D01*
X184813783Y-61805115D01*
X184812757Y-61806746D01*
X184781050Y-61871896D01*
X184780191Y-61872756D01*
X184777668Y-61878846D01*
X184773540Y-61887329D01*
X184773412Y-61889119D01*
X184772725Y-61890780D01*
X184771764Y-61900535D01*
X184438431Y-61900535D01*
X184438431Y-61462209D01*
X184522725Y-61462209D01*
X184522725Y-61481719D01*
X184530191Y-61499743D01*
X184543985Y-61513537D01*
X184562009Y-61521003D01*
X184571764Y-61521964D01*
X185206739Y-61521028D01*
X185208366Y-61521571D01*
X185216189Y-61521015D01*
X185224376Y-61521003D01*
X185226036Y-61520315D01*
X185227827Y-61520188D01*
X185236981Y-61516685D01*
X185305746Y-61481376D01*
X185310811Y-61479688D01*
X185313388Y-61477452D01*
X185316706Y-61475749D01*
X185320813Y-61471013D01*
X185325549Y-61466906D01*
X185328655Y-61461971D01*
X185329488Y-61461011D01*
X185329745Y-61460239D01*
X185330771Y-61458610D01*
X185369989Y-61378026D01*
X185371371Y-61358566D01*
X185365202Y-61340060D01*
X185352420Y-61325321D01*
X185334970Y-61316596D01*
X185315510Y-61315214D01*
X185297003Y-61321383D01*
X185282265Y-61334165D01*
X185277043Y-61342460D01*
X185249656Y-61398733D01*
X185204386Y-61421979D01*
X184562009Y-61422925D01*
X184543985Y-61430391D01*
X184530191Y-61444185D01*
X184522725Y-61462209D01*
X184438431Y-61462209D01*
X184438431Y-61069352D01*
X184522725Y-61069352D01*
X184522725Y-61088862D01*
X184530191Y-61106886D01*
X184543985Y-61120680D01*
X184562009Y-61128146D01*
X184571764Y-61129107D01*
X185206739Y-61128171D01*
X185208366Y-61128714D01*
X185216189Y-61128158D01*
X185224376Y-61128146D01*
X185226036Y-61127458D01*
X185227827Y-61127331D01*
X185236981Y-61123828D01*
X185305746Y-61088519D01*
X185310811Y-61086831D01*
X185313388Y-61084595D01*
X185316706Y-61082892D01*
X185320813Y-61078156D01*
X185325549Y-61074049D01*
X185328655Y-61069114D01*
X185329488Y-61068154D01*
X185329745Y-61067382D01*
X185330771Y-61065753D01*
X185369989Y-60985169D01*
X185371371Y-60965709D01*
X185365202Y-60947203D01*
X185352420Y-60932464D01*
X185334970Y-60923739D01*
X185315510Y-60922357D01*
X185297003Y-60928526D01*
X185282265Y-60941308D01*
X185277043Y-60949603D01*
X185249656Y-61005876D01*
X185204386Y-61029122D01*
X184562009Y-61030068D01*
X184543985Y-61037534D01*
X184530191Y-61051328D01*
X184522725Y-61069352D01*
X184438431Y-61069352D01*
X184438431Y-60839024D01*
X185526525Y-60839024D01*
X185526525Y-66212439D01*
G37*
D10*
X200463809Y-87780333D02*
X200225714Y-87946999D01*
X200463809Y-88066047D02*
X199963809Y-88066047D01*
X199963809Y-88066047D02*
X199963809Y-87875571D01*
X199963809Y-87875571D02*
X199987619Y-87827952D01*
X199987619Y-87827952D02*
X200011428Y-87804142D01*
X200011428Y-87804142D02*
X200059047Y-87780333D01*
X200059047Y-87780333D02*
X200130476Y-87780333D01*
X200130476Y-87780333D02*
X200178095Y-87804142D01*
X200178095Y-87804142D02*
X200201904Y-87827952D01*
X200201904Y-87827952D02*
X200225714Y-87875571D01*
X200225714Y-87875571D02*
X200225714Y-88066047D01*
X200178095Y-87494618D02*
X200154285Y-87542237D01*
X200154285Y-87542237D02*
X200130476Y-87566047D01*
X200130476Y-87566047D02*
X200082857Y-87589856D01*
X200082857Y-87589856D02*
X200059047Y-87589856D01*
X200059047Y-87589856D02*
X200011428Y-87566047D01*
X200011428Y-87566047D02*
X199987619Y-87542237D01*
X199987619Y-87542237D02*
X199963809Y-87494618D01*
X199963809Y-87494618D02*
X199963809Y-87399380D01*
X199963809Y-87399380D02*
X199987619Y-87351761D01*
X199987619Y-87351761D02*
X200011428Y-87327952D01*
X200011428Y-87327952D02*
X200059047Y-87304142D01*
X200059047Y-87304142D02*
X200082857Y-87304142D01*
X200082857Y-87304142D02*
X200130476Y-87327952D01*
X200130476Y-87327952D02*
X200154285Y-87351761D01*
X200154285Y-87351761D02*
X200178095Y-87399380D01*
X200178095Y-87399380D02*
X200178095Y-87494618D01*
X200178095Y-87494618D02*
X200201904Y-87542237D01*
X200201904Y-87542237D02*
X200225714Y-87566047D01*
X200225714Y-87566047D02*
X200273333Y-87589856D01*
X200273333Y-87589856D02*
X200368571Y-87589856D01*
X200368571Y-87589856D02*
X200416190Y-87566047D01*
X200416190Y-87566047D02*
X200440000Y-87542237D01*
X200440000Y-87542237D02*
X200463809Y-87494618D01*
X200463809Y-87494618D02*
X200463809Y-87399380D01*
X200463809Y-87399380D02*
X200440000Y-87351761D01*
X200440000Y-87351761D02*
X200416190Y-87327952D01*
X200416190Y-87327952D02*
X200368571Y-87304142D01*
X200368571Y-87304142D02*
X200273333Y-87304142D01*
X200273333Y-87304142D02*
X200225714Y-87327952D01*
X200225714Y-87327952D02*
X200201904Y-87351761D01*
X200201904Y-87351761D02*
X200178095Y-87399380D01*
D11*
X201964164Y-86287500D02*
X201964164Y-86716071D01*
X201964164Y-86501786D02*
X201214164Y-86501786D01*
X201214164Y-86501786D02*
X201321307Y-86573214D01*
X201321307Y-86573214D02*
X201392735Y-86644643D01*
X201392735Y-86644643D02*
X201428450Y-86716071D01*
X201964164Y-85573214D02*
X201964164Y-86001785D01*
X201964164Y-85787500D02*
X201214164Y-85787500D01*
X201214164Y-85787500D02*
X201321307Y-85858928D01*
X201321307Y-85858928D02*
X201392735Y-85930357D01*
X201392735Y-85930357D02*
X201428450Y-86001785D01*
X201214164Y-85323214D02*
X201214164Y-84858928D01*
X201214164Y-84858928D02*
X201499878Y-85108928D01*
X201499878Y-85108928D02*
X201499878Y-85001785D01*
X201499878Y-85001785D02*
X201535592Y-84930357D01*
X201535592Y-84930357D02*
X201571307Y-84894642D01*
X201571307Y-84894642D02*
X201642735Y-84858928D01*
X201642735Y-84858928D02*
X201821307Y-84858928D01*
X201821307Y-84858928D02*
X201892735Y-84894642D01*
X201892735Y-84894642D02*
X201928450Y-84930357D01*
X201928450Y-84930357D02*
X201964164Y-85001785D01*
X201964164Y-85001785D02*
X201964164Y-85216071D01*
X201964164Y-85216071D02*
X201928450Y-85287499D01*
X201928450Y-85287499D02*
X201892735Y-85323214D01*
X201964164Y-84108928D02*
X201607021Y-84358928D01*
X201964164Y-84537499D02*
X201214164Y-84537499D01*
X201214164Y-84537499D02*
X201214164Y-84251785D01*
X201214164Y-84251785D02*
X201249878Y-84180356D01*
X201249878Y-84180356D02*
X201285592Y-84144642D01*
X201285592Y-84144642D02*
X201357021Y-84108928D01*
X201357021Y-84108928D02*
X201464164Y-84108928D01*
X201464164Y-84108928D02*
X201535592Y-84144642D01*
X201535592Y-84144642D02*
X201571307Y-84180356D01*
X201571307Y-84180356D02*
X201607021Y-84251785D01*
X201607021Y-84251785D02*
X201607021Y-84537499D01*
D10*
X206802190Y-68008333D02*
X206826000Y-68032142D01*
X206826000Y-68032142D02*
X206849809Y-68103571D01*
X206849809Y-68103571D02*
X206849809Y-68151190D01*
X206849809Y-68151190D02*
X206826000Y-68222618D01*
X206826000Y-68222618D02*
X206778380Y-68270237D01*
X206778380Y-68270237D02*
X206730761Y-68294047D01*
X206730761Y-68294047D02*
X206635523Y-68317856D01*
X206635523Y-68317856D02*
X206564095Y-68317856D01*
X206564095Y-68317856D02*
X206468857Y-68294047D01*
X206468857Y-68294047D02*
X206421238Y-68270237D01*
X206421238Y-68270237D02*
X206373619Y-68222618D01*
X206373619Y-68222618D02*
X206349809Y-68151190D01*
X206349809Y-68151190D02*
X206349809Y-68103571D01*
X206349809Y-68103571D02*
X206373619Y-68032142D01*
X206373619Y-68032142D02*
X206397428Y-68008333D01*
X206349809Y-67841666D02*
X206349809Y-67508333D01*
X206349809Y-67508333D02*
X206849809Y-67722618D01*
D11*
X205364164Y-71878571D02*
X205364164Y-72307142D01*
X205364164Y-72092857D02*
X204614164Y-72092857D01*
X204614164Y-72092857D02*
X204721307Y-72164285D01*
X204721307Y-72164285D02*
X204792735Y-72235714D01*
X204792735Y-72235714D02*
X204828450Y-72307142D01*
X204614164Y-71414285D02*
X204614164Y-71342856D01*
X204614164Y-71342856D02*
X204649878Y-71271428D01*
X204649878Y-71271428D02*
X204685592Y-71235714D01*
X204685592Y-71235714D02*
X204757021Y-71199999D01*
X204757021Y-71199999D02*
X204899878Y-71164285D01*
X204899878Y-71164285D02*
X205078450Y-71164285D01*
X205078450Y-71164285D02*
X205221307Y-71199999D01*
X205221307Y-71199999D02*
X205292735Y-71235714D01*
X205292735Y-71235714D02*
X205328450Y-71271428D01*
X205328450Y-71271428D02*
X205364164Y-71342856D01*
X205364164Y-71342856D02*
X205364164Y-71414285D01*
X205364164Y-71414285D02*
X205328450Y-71485714D01*
X205328450Y-71485714D02*
X205292735Y-71521428D01*
X205292735Y-71521428D02*
X205221307Y-71557142D01*
X205221307Y-71557142D02*
X205078450Y-71592856D01*
X205078450Y-71592856D02*
X204899878Y-71592856D01*
X204899878Y-71592856D02*
X204757021Y-71557142D01*
X204757021Y-71557142D02*
X204685592Y-71521428D01*
X204685592Y-71521428D02*
X204649878Y-71485714D01*
X204649878Y-71485714D02*
X204614164Y-71414285D01*
X204864164Y-70521428D02*
X205364164Y-70521428D01*
X204864164Y-70842856D02*
X205257021Y-70842856D01*
X205257021Y-70842856D02*
X205328450Y-70807142D01*
X205328450Y-70807142D02*
X205364164Y-70735713D01*
X205364164Y-70735713D02*
X205364164Y-70628570D01*
X205364164Y-70628570D02*
X205328450Y-70557142D01*
X205328450Y-70557142D02*
X205292735Y-70521428D01*
X204971307Y-69914285D02*
X204971307Y-70164285D01*
X205364164Y-70164285D02*
X204614164Y-70164285D01*
X204614164Y-70164285D02*
X204614164Y-69807142D01*
D10*
X193307047Y-69792809D02*
X193307047Y-70197571D01*
X193307047Y-70197571D02*
X193330857Y-70245190D01*
X193330857Y-70245190D02*
X193354666Y-70269000D01*
X193354666Y-70269000D02*
X193402285Y-70292809D01*
X193402285Y-70292809D02*
X193497523Y-70292809D01*
X193497523Y-70292809D02*
X193545142Y-70269000D01*
X193545142Y-70269000D02*
X193568952Y-70245190D01*
X193568952Y-70245190D02*
X193592761Y-70197571D01*
X193592761Y-70197571D02*
X193592761Y-69792809D01*
X194045143Y-69959476D02*
X194045143Y-70292809D01*
X193926095Y-69769000D02*
X193807048Y-70126142D01*
X193807048Y-70126142D02*
X194116571Y-70126142D01*
X198824809Y-68516665D02*
X198824809Y-68611903D01*
X198824809Y-68611903D02*
X198848619Y-68659522D01*
X198848619Y-68659522D02*
X198872428Y-68683332D01*
X198872428Y-68683332D02*
X198943857Y-68730951D01*
X198943857Y-68730951D02*
X199039095Y-68754760D01*
X199039095Y-68754760D02*
X199229571Y-68754760D01*
X199229571Y-68754760D02*
X199277190Y-68730951D01*
X199277190Y-68730951D02*
X199301000Y-68707141D01*
X199301000Y-68707141D02*
X199324809Y-68659522D01*
X199324809Y-68659522D02*
X199324809Y-68564284D01*
X199324809Y-68564284D02*
X199301000Y-68516665D01*
X199301000Y-68516665D02*
X199277190Y-68492856D01*
X199277190Y-68492856D02*
X199229571Y-68469046D01*
X199229571Y-68469046D02*
X199110523Y-68469046D01*
X199110523Y-68469046D02*
X199062904Y-68492856D01*
X199062904Y-68492856D02*
X199039095Y-68516665D01*
X199039095Y-68516665D02*
X199015285Y-68564284D01*
X199015285Y-68564284D02*
X199015285Y-68659522D01*
X199015285Y-68659522D02*
X199039095Y-68707141D01*
X199039095Y-68707141D02*
X199062904Y-68730951D01*
X199062904Y-68730951D02*
X199110523Y-68754760D01*
X199324809Y-68254761D02*
X198824809Y-68254761D01*
X198824809Y-68254761D02*
X199324809Y-67969047D01*
X199324809Y-67969047D02*
X198824809Y-67969047D01*
X199324809Y-67469046D02*
X199324809Y-67754760D01*
X199324809Y-67611903D02*
X198824809Y-67611903D01*
X198824809Y-67611903D02*
X198896238Y-67659522D01*
X198896238Y-67659522D02*
X198943857Y-67707141D01*
X198943857Y-67707141D02*
X198967666Y-67754760D01*
X198824809Y-67302380D02*
X198824809Y-66992856D01*
X198824809Y-66992856D02*
X199015285Y-67159523D01*
X199015285Y-67159523D02*
X199015285Y-67088094D01*
X199015285Y-67088094D02*
X199039095Y-67040475D01*
X199039095Y-67040475D02*
X199062904Y-67016666D01*
X199062904Y-67016666D02*
X199110523Y-66992856D01*
X199110523Y-66992856D02*
X199229571Y-66992856D01*
X199229571Y-66992856D02*
X199277190Y-67016666D01*
X199277190Y-67016666D02*
X199301000Y-67040475D01*
X199301000Y-67040475D02*
X199324809Y-67088094D01*
X199324809Y-67088094D02*
X199324809Y-67230951D01*
X199324809Y-67230951D02*
X199301000Y-67278570D01*
X199301000Y-67278570D02*
X199277190Y-67302380D01*
X198824809Y-66826190D02*
X198824809Y-66492857D01*
X198824809Y-66492857D02*
X199324809Y-66707142D01*
X199515285Y-66159524D02*
X199491476Y-66183333D01*
X199491476Y-66183333D02*
X199420047Y-66230952D01*
X199420047Y-66230952D02*
X199372428Y-66254762D01*
X199372428Y-66254762D02*
X199301000Y-66278571D01*
X199301000Y-66278571D02*
X199181952Y-66302381D01*
X199181952Y-66302381D02*
X199086714Y-66302381D01*
X199086714Y-66302381D02*
X198967666Y-66278571D01*
X198967666Y-66278571D02*
X198896238Y-66254762D01*
X198896238Y-66254762D02*
X198848619Y-66230952D01*
X198848619Y-66230952D02*
X198777190Y-66183333D01*
X198777190Y-66183333D02*
X198753380Y-66159524D01*
X199277190Y-65683334D02*
X199301000Y-65707143D01*
X199301000Y-65707143D02*
X199324809Y-65778572D01*
X199324809Y-65778572D02*
X199324809Y-65826191D01*
X199324809Y-65826191D02*
X199301000Y-65897619D01*
X199301000Y-65897619D02*
X199253380Y-65945238D01*
X199253380Y-65945238D02*
X199205761Y-65969048D01*
X199205761Y-65969048D02*
X199110523Y-65992857D01*
X199110523Y-65992857D02*
X199039095Y-65992857D01*
X199039095Y-65992857D02*
X198943857Y-65969048D01*
X198943857Y-65969048D02*
X198896238Y-65945238D01*
X198896238Y-65945238D02*
X198848619Y-65897619D01*
X198848619Y-65897619D02*
X198824809Y-65826191D01*
X198824809Y-65826191D02*
X198824809Y-65778572D01*
X198824809Y-65778572D02*
X198848619Y-65707143D01*
X198848619Y-65707143D02*
X198872428Y-65683334D01*
X199324809Y-65397619D02*
X199301000Y-65445238D01*
X199301000Y-65445238D02*
X199253380Y-65469048D01*
X199253380Y-65469048D02*
X198824809Y-65469048D01*
X198991476Y-64992857D02*
X199324809Y-64992857D01*
X198991476Y-65207143D02*
X199253380Y-65207143D01*
X199253380Y-65207143D02*
X199301000Y-65183333D01*
X199301000Y-65183333D02*
X199324809Y-65135714D01*
X199324809Y-65135714D02*
X199324809Y-65064286D01*
X199324809Y-65064286D02*
X199301000Y-65016667D01*
X199301000Y-65016667D02*
X199277190Y-64992857D01*
X198991476Y-64826190D02*
X198991476Y-64635714D01*
X198824809Y-64754762D02*
X199253380Y-64754762D01*
X199253380Y-64754762D02*
X199301000Y-64730952D01*
X199301000Y-64730952D02*
X199324809Y-64683333D01*
X199324809Y-64683333D02*
X199324809Y-64635714D01*
X199301000Y-64254762D02*
X199324809Y-64302381D01*
X199324809Y-64302381D02*
X199324809Y-64397619D01*
X199324809Y-64397619D02*
X199301000Y-64445238D01*
X199301000Y-64445238D02*
X199277190Y-64469048D01*
X199277190Y-64469048D02*
X199229571Y-64492857D01*
X199229571Y-64492857D02*
X199086714Y-64492857D01*
X199086714Y-64492857D02*
X199039095Y-64469048D01*
X199039095Y-64469048D02*
X199015285Y-64445238D01*
X199015285Y-64445238D02*
X198991476Y-64397619D01*
X198991476Y-64397619D02*
X198991476Y-64302381D01*
X198991476Y-64302381D02*
X199015285Y-64254762D01*
X199324809Y-64040477D02*
X198824809Y-64040477D01*
X199324809Y-63826191D02*
X199062904Y-63826191D01*
X199062904Y-63826191D02*
X199015285Y-63850001D01*
X199015285Y-63850001D02*
X198991476Y-63897620D01*
X198991476Y-63897620D02*
X198991476Y-63969048D01*
X198991476Y-63969048D02*
X199015285Y-64016667D01*
X199015285Y-64016667D02*
X199039095Y-64040477D01*
X199372428Y-63707144D02*
X199372428Y-63326191D01*
X199324809Y-63207144D02*
X198824809Y-63207144D01*
X198824809Y-63207144D02*
X198824809Y-63016668D01*
X198824809Y-63016668D02*
X198848619Y-62969049D01*
X198848619Y-62969049D02*
X198872428Y-62945239D01*
X198872428Y-62945239D02*
X198920047Y-62921430D01*
X198920047Y-62921430D02*
X198991476Y-62921430D01*
X198991476Y-62921430D02*
X199039095Y-62945239D01*
X199039095Y-62945239D02*
X199062904Y-62969049D01*
X199062904Y-62969049D02*
X199086714Y-63016668D01*
X199086714Y-63016668D02*
X199086714Y-63207144D01*
X198824809Y-62754763D02*
X199324809Y-62635715D01*
X199324809Y-62635715D02*
X198967666Y-62540477D01*
X198967666Y-62540477D02*
X199324809Y-62445239D01*
X199324809Y-62445239D02*
X198824809Y-62326192D01*
X199324809Y-62135715D02*
X198824809Y-62135715D01*
X198824809Y-62135715D02*
X199181952Y-61969048D01*
X199181952Y-61969048D02*
X198824809Y-61802382D01*
X198824809Y-61802382D02*
X199324809Y-61802382D01*
X199515285Y-61611905D02*
X199491476Y-61588095D01*
X199491476Y-61588095D02*
X199420047Y-61540476D01*
X199420047Y-61540476D02*
X199372428Y-61516667D01*
X199372428Y-61516667D02*
X199301000Y-61492857D01*
X199301000Y-61492857D02*
X199181952Y-61469048D01*
X199181952Y-61469048D02*
X199086714Y-61469048D01*
X199086714Y-61469048D02*
X198967666Y-61492857D01*
X198967666Y-61492857D02*
X198896238Y-61516667D01*
X198896238Y-61516667D02*
X198848619Y-61540476D01*
X198848619Y-61540476D02*
X198777190Y-61588095D01*
X198777190Y-61588095D02*
X198753380Y-61611905D01*
X163927590Y-95917733D02*
X163951400Y-95941542D01*
X163951400Y-95941542D02*
X163975209Y-96012971D01*
X163975209Y-96012971D02*
X163975209Y-96060590D01*
X163975209Y-96060590D02*
X163951400Y-96132018D01*
X163951400Y-96132018D02*
X163903780Y-96179637D01*
X163903780Y-96179637D02*
X163856161Y-96203447D01*
X163856161Y-96203447D02*
X163760923Y-96227256D01*
X163760923Y-96227256D02*
X163689495Y-96227256D01*
X163689495Y-96227256D02*
X163594257Y-96203447D01*
X163594257Y-96203447D02*
X163546638Y-96179637D01*
X163546638Y-96179637D02*
X163499019Y-96132018D01*
X163499019Y-96132018D02*
X163475209Y-96060590D01*
X163475209Y-96060590D02*
X163475209Y-96012971D01*
X163475209Y-96012971D02*
X163499019Y-95941542D01*
X163499019Y-95941542D02*
X163522828Y-95917733D01*
X163475209Y-95489161D02*
X163475209Y-95584399D01*
X163475209Y-95584399D02*
X163499019Y-95632018D01*
X163499019Y-95632018D02*
X163522828Y-95655828D01*
X163522828Y-95655828D02*
X163594257Y-95703447D01*
X163594257Y-95703447D02*
X163689495Y-95727256D01*
X163689495Y-95727256D02*
X163879971Y-95727256D01*
X163879971Y-95727256D02*
X163927590Y-95703447D01*
X163927590Y-95703447D02*
X163951400Y-95679637D01*
X163951400Y-95679637D02*
X163975209Y-95632018D01*
X163975209Y-95632018D02*
X163975209Y-95536780D01*
X163975209Y-95536780D02*
X163951400Y-95489161D01*
X163951400Y-95489161D02*
X163927590Y-95465352D01*
X163927590Y-95465352D02*
X163879971Y-95441542D01*
X163879971Y-95441542D02*
X163760923Y-95441542D01*
X163760923Y-95441542D02*
X163713304Y-95465352D01*
X163713304Y-95465352D02*
X163689495Y-95489161D01*
X163689495Y-95489161D02*
X163665685Y-95536780D01*
X163665685Y-95536780D02*
X163665685Y-95632018D01*
X163665685Y-95632018D02*
X163689495Y-95679637D01*
X163689495Y-95679637D02*
X163713304Y-95703447D01*
X163713304Y-95703447D02*
X163760923Y-95727256D01*
D11*
X167139164Y-101428571D02*
X167139164Y-101857142D01*
X167139164Y-101642857D02*
X166389164Y-101642857D01*
X166389164Y-101642857D02*
X166496307Y-101714285D01*
X166496307Y-101714285D02*
X166567735Y-101785714D01*
X166567735Y-101785714D02*
X166603450Y-101857142D01*
X166389164Y-100964285D02*
X166389164Y-100892856D01*
X166389164Y-100892856D02*
X166424878Y-100821428D01*
X166424878Y-100821428D02*
X166460592Y-100785714D01*
X166460592Y-100785714D02*
X166532021Y-100749999D01*
X166532021Y-100749999D02*
X166674878Y-100714285D01*
X166674878Y-100714285D02*
X166853450Y-100714285D01*
X166853450Y-100714285D02*
X166996307Y-100749999D01*
X166996307Y-100749999D02*
X167067735Y-100785714D01*
X167067735Y-100785714D02*
X167103450Y-100821428D01*
X167103450Y-100821428D02*
X167139164Y-100892856D01*
X167139164Y-100892856D02*
X167139164Y-100964285D01*
X167139164Y-100964285D02*
X167103450Y-101035714D01*
X167103450Y-101035714D02*
X167067735Y-101071428D01*
X167067735Y-101071428D02*
X166996307Y-101107142D01*
X166996307Y-101107142D02*
X166853450Y-101142856D01*
X166853450Y-101142856D02*
X166674878Y-101142856D01*
X166674878Y-101142856D02*
X166532021Y-101107142D01*
X166532021Y-101107142D02*
X166460592Y-101071428D01*
X166460592Y-101071428D02*
X166424878Y-101035714D01*
X166424878Y-101035714D02*
X166389164Y-100964285D01*
X166639164Y-100071428D02*
X167139164Y-100071428D01*
X166639164Y-100392856D02*
X167032021Y-100392856D01*
X167032021Y-100392856D02*
X167103450Y-100357142D01*
X167103450Y-100357142D02*
X167139164Y-100285713D01*
X167139164Y-100285713D02*
X167139164Y-100178570D01*
X167139164Y-100178570D02*
X167103450Y-100107142D01*
X167103450Y-100107142D02*
X167067735Y-100071428D01*
X166746307Y-99464285D02*
X166746307Y-99714285D01*
X167139164Y-99714285D02*
X166389164Y-99714285D01*
X166389164Y-99714285D02*
X166389164Y-99357142D01*
D10*
X193252447Y-97834809D02*
X193252447Y-98239571D01*
X193252447Y-98239571D02*
X193276257Y-98287190D01*
X193276257Y-98287190D02*
X193300066Y-98311000D01*
X193300066Y-98311000D02*
X193347685Y-98334809D01*
X193347685Y-98334809D02*
X193442923Y-98334809D01*
X193442923Y-98334809D02*
X193490542Y-98311000D01*
X193490542Y-98311000D02*
X193514352Y-98287190D01*
X193514352Y-98287190D02*
X193538161Y-98239571D01*
X193538161Y-98239571D02*
X193538161Y-97834809D01*
X193847686Y-98049095D02*
X193800067Y-98025285D01*
X193800067Y-98025285D02*
X193776257Y-98001476D01*
X193776257Y-98001476D02*
X193752448Y-97953857D01*
X193752448Y-97953857D02*
X193752448Y-97930047D01*
X193752448Y-97930047D02*
X193776257Y-97882428D01*
X193776257Y-97882428D02*
X193800067Y-97858619D01*
X193800067Y-97858619D02*
X193847686Y-97834809D01*
X193847686Y-97834809D02*
X193942924Y-97834809D01*
X193942924Y-97834809D02*
X193990543Y-97858619D01*
X193990543Y-97858619D02*
X194014352Y-97882428D01*
X194014352Y-97882428D02*
X194038162Y-97930047D01*
X194038162Y-97930047D02*
X194038162Y-97953857D01*
X194038162Y-97953857D02*
X194014352Y-98001476D01*
X194014352Y-98001476D02*
X193990543Y-98025285D01*
X193990543Y-98025285D02*
X193942924Y-98049095D01*
X193942924Y-98049095D02*
X193847686Y-98049095D01*
X193847686Y-98049095D02*
X193800067Y-98072904D01*
X193800067Y-98072904D02*
X193776257Y-98096714D01*
X193776257Y-98096714D02*
X193752448Y-98144333D01*
X193752448Y-98144333D02*
X193752448Y-98239571D01*
X193752448Y-98239571D02*
X193776257Y-98287190D01*
X193776257Y-98287190D02*
X193800067Y-98311000D01*
X193800067Y-98311000D02*
X193847686Y-98334809D01*
X193847686Y-98334809D02*
X193942924Y-98334809D01*
X193942924Y-98334809D02*
X193990543Y-98311000D01*
X193990543Y-98311000D02*
X194014352Y-98287190D01*
X194014352Y-98287190D02*
X194038162Y-98239571D01*
X194038162Y-98239571D02*
X194038162Y-98144333D01*
X194038162Y-98144333D02*
X194014352Y-98096714D01*
X194014352Y-98096714D02*
X193990543Y-98072904D01*
X193990543Y-98072904D02*
X193942924Y-98049095D01*
D13*
X187450614Y-96448572D02*
X187450614Y-96591429D01*
X187450614Y-96591429D02*
X187486328Y-96662857D01*
X187486328Y-96662857D02*
X187522042Y-96698572D01*
X187522042Y-96698572D02*
X187629185Y-96770000D01*
X187629185Y-96770000D02*
X187772042Y-96805714D01*
X187772042Y-96805714D02*
X188057757Y-96805714D01*
X188057757Y-96805714D02*
X188129185Y-96770000D01*
X188129185Y-96770000D02*
X188164900Y-96734286D01*
X188164900Y-96734286D02*
X188200614Y-96662857D01*
X188200614Y-96662857D02*
X188200614Y-96520000D01*
X188200614Y-96520000D02*
X188164900Y-96448572D01*
X188164900Y-96448572D02*
X188129185Y-96412857D01*
X188129185Y-96412857D02*
X188057757Y-96377143D01*
X188057757Y-96377143D02*
X187879185Y-96377143D01*
X187879185Y-96377143D02*
X187807757Y-96412857D01*
X187807757Y-96412857D02*
X187772042Y-96448572D01*
X187772042Y-96448572D02*
X187736328Y-96520000D01*
X187736328Y-96520000D02*
X187736328Y-96662857D01*
X187736328Y-96662857D02*
X187772042Y-96734286D01*
X187772042Y-96734286D02*
X187807757Y-96770000D01*
X187807757Y-96770000D02*
X187879185Y-96805714D01*
X188200614Y-96055714D02*
X187450614Y-96055714D01*
X187450614Y-96055714D02*
X188200614Y-95627143D01*
X188200614Y-95627143D02*
X187450614Y-95627143D01*
X188200614Y-94877143D02*
X188200614Y-95305714D01*
X188200614Y-95091429D02*
X187450614Y-95091429D01*
X187450614Y-95091429D02*
X187557757Y-95162857D01*
X187557757Y-95162857D02*
X187629185Y-95234286D01*
X187629185Y-95234286D02*
X187664900Y-95305714D01*
X187450614Y-94627143D02*
X187450614Y-94162857D01*
X187450614Y-94162857D02*
X187736328Y-94412857D01*
X187736328Y-94412857D02*
X187736328Y-94305714D01*
X187736328Y-94305714D02*
X187772042Y-94234286D01*
X187772042Y-94234286D02*
X187807757Y-94198571D01*
X187807757Y-94198571D02*
X187879185Y-94162857D01*
X187879185Y-94162857D02*
X188057757Y-94162857D01*
X188057757Y-94162857D02*
X188129185Y-94198571D01*
X188129185Y-94198571D02*
X188164900Y-94234286D01*
X188164900Y-94234286D02*
X188200614Y-94305714D01*
X188200614Y-94305714D02*
X188200614Y-94520000D01*
X188200614Y-94520000D02*
X188164900Y-94591428D01*
X188164900Y-94591428D02*
X188129185Y-94627143D01*
X187450614Y-93912857D02*
X187450614Y-93412857D01*
X187450614Y-93412857D02*
X188200614Y-93734285D01*
X188486328Y-92912856D02*
X188450614Y-92948571D01*
X188450614Y-92948571D02*
X188343471Y-93019999D01*
X188343471Y-93019999D02*
X188272042Y-93055714D01*
X188272042Y-93055714D02*
X188164900Y-93091428D01*
X188164900Y-93091428D02*
X187986328Y-93127142D01*
X187986328Y-93127142D02*
X187843471Y-93127142D01*
X187843471Y-93127142D02*
X187664900Y-93091428D01*
X187664900Y-93091428D02*
X187557757Y-93055714D01*
X187557757Y-93055714D02*
X187486328Y-93019999D01*
X187486328Y-93019999D02*
X187379185Y-92948571D01*
X187379185Y-92948571D02*
X187343471Y-92912856D01*
X188164900Y-92662856D02*
X188200614Y-92555714D01*
X188200614Y-92555714D02*
X188200614Y-92377142D01*
X188200614Y-92377142D02*
X188164900Y-92305714D01*
X188164900Y-92305714D02*
X188129185Y-92269999D01*
X188129185Y-92269999D02*
X188057757Y-92234285D01*
X188057757Y-92234285D02*
X187986328Y-92234285D01*
X187986328Y-92234285D02*
X187914900Y-92269999D01*
X187914900Y-92269999D02*
X187879185Y-92305714D01*
X187879185Y-92305714D02*
X187843471Y-92377142D01*
X187843471Y-92377142D02*
X187807757Y-92519999D01*
X187807757Y-92519999D02*
X187772042Y-92591428D01*
X187772042Y-92591428D02*
X187736328Y-92627142D01*
X187736328Y-92627142D02*
X187664900Y-92662856D01*
X187664900Y-92662856D02*
X187593471Y-92662856D01*
X187593471Y-92662856D02*
X187522042Y-92627142D01*
X187522042Y-92627142D02*
X187486328Y-92591428D01*
X187486328Y-92591428D02*
X187450614Y-92519999D01*
X187450614Y-92519999D02*
X187450614Y-92341428D01*
X187450614Y-92341428D02*
X187486328Y-92234285D01*
X188129185Y-91484285D02*
X188164900Y-91519999D01*
X188164900Y-91519999D02*
X188200614Y-91627142D01*
X188200614Y-91627142D02*
X188200614Y-91698570D01*
X188200614Y-91698570D02*
X188164900Y-91805713D01*
X188164900Y-91805713D02*
X188093471Y-91877142D01*
X188093471Y-91877142D02*
X188022042Y-91912856D01*
X188022042Y-91912856D02*
X187879185Y-91948570D01*
X187879185Y-91948570D02*
X187772042Y-91948570D01*
X187772042Y-91948570D02*
X187629185Y-91912856D01*
X187629185Y-91912856D02*
X187557757Y-91877142D01*
X187557757Y-91877142D02*
X187486328Y-91805713D01*
X187486328Y-91805713D02*
X187450614Y-91698570D01*
X187450614Y-91698570D02*
X187450614Y-91627142D01*
X187450614Y-91627142D02*
X187486328Y-91519999D01*
X187486328Y-91519999D02*
X187522042Y-91484285D01*
X188200614Y-91162856D02*
X187450614Y-91162856D01*
X188200614Y-90734285D02*
X187772042Y-91055713D01*
X187450614Y-90734285D02*
X187879185Y-91162856D01*
X188486328Y-90484285D02*
X188450614Y-90448570D01*
X188450614Y-90448570D02*
X188343471Y-90377142D01*
X188343471Y-90377142D02*
X188272042Y-90341428D01*
X188272042Y-90341428D02*
X188164900Y-90305713D01*
X188164900Y-90305713D02*
X187986328Y-90269999D01*
X187986328Y-90269999D02*
X187843471Y-90269999D01*
X187843471Y-90269999D02*
X187664900Y-90305713D01*
X187664900Y-90305713D02*
X187557757Y-90341428D01*
X187557757Y-90341428D02*
X187486328Y-90377142D01*
X187486328Y-90377142D02*
X187379185Y-90448570D01*
X187379185Y-90448570D02*
X187343471Y-90484285D01*
D10*
X184158333Y-107524809D02*
X184158333Y-107881952D01*
X184158333Y-107881952D02*
X184134524Y-107953380D01*
X184134524Y-107953380D02*
X184086905Y-108001000D01*
X184086905Y-108001000D02*
X184015476Y-108024809D01*
X184015476Y-108024809D02*
X183967857Y-108024809D01*
X184658333Y-108024809D02*
X184372619Y-108024809D01*
X184515476Y-108024809D02*
X184515476Y-107524809D01*
X184515476Y-107524809D02*
X184467857Y-107596238D01*
X184467857Y-107596238D02*
X184420238Y-107643857D01*
X184420238Y-107643857D02*
X184372619Y-107667666D01*
D12*
G36*
X171179570Y-102941972D02*
G01*
X171236747Y-102998166D01*
X171267867Y-103119484D01*
X171268746Y-103357116D01*
X171238055Y-103483149D01*
X171183182Y-103538983D01*
X171128953Y-103566829D01*
X171009619Y-103567580D01*
X170956142Y-103541555D01*
X170898965Y-103485360D01*
X170867846Y-103364045D01*
X170866967Y-103126411D01*
X170897657Y-103000377D01*
X170952531Y-102944544D01*
X171006759Y-102916698D01*
X171126094Y-102915947D01*
X171179570Y-102941972D01*
G37*
G36*
X175054350Y-103550120D02*
G01*
X175021835Y-103566816D01*
X174866819Y-103567607D01*
X174819659Y-103544656D01*
X174796305Y-103499174D01*
X174795736Y-103451128D01*
X174818536Y-103404279D01*
X174863879Y-103380997D01*
X175024452Y-103380178D01*
X175025889Y-103380657D01*
X175033261Y-103380133D01*
X175041898Y-103380089D01*
X175043558Y-103379401D01*
X175045349Y-103379274D01*
X175053935Y-103375988D01*
X175054350Y-103550120D01*
G37*
G36*
X172536839Y-102942033D02*
G01*
X172561712Y-102966126D01*
X172589370Y-103019991D01*
X172590058Y-103103661D01*
X172564016Y-103157171D01*
X172539923Y-103182046D01*
X172486157Y-103209654D01*
X172260199Y-103210389D01*
X172259828Y-102916604D01*
X172483094Y-102915878D01*
X172536839Y-102942033D01*
G37*
G36*
X176343510Y-103999704D02*
G01*
X169577381Y-103999704D01*
X169577381Y-103860509D01*
X175803964Y-103860509D01*
X175805347Y-103879970D01*
X175814072Y-103897420D01*
X175828810Y-103910202D01*
X175847316Y-103916371D01*
X175866777Y-103914988D01*
X175875931Y-103911485D01*
X175946765Y-103875113D01*
X175952779Y-103872623D01*
X175954721Y-103871028D01*
X175955656Y-103870549D01*
X175956519Y-103869553D01*
X175960356Y-103866405D01*
X176002288Y-103823112D01*
X176002405Y-103822827D01*
X176002623Y-103822605D01*
X176007138Y-103813905D01*
X176074573Y-103642964D01*
X176075044Y-103642444D01*
X176079230Y-103633581D01*
X176260177Y-103124071D01*
X176259208Y-103104586D01*
X176250857Y-103086956D01*
X176236394Y-103073863D01*
X176218021Y-103067301D01*
X176198536Y-103068270D01*
X176180906Y-103076621D01*
X176167813Y-103091084D01*
X176163627Y-103099947D01*
X176032382Y-103469505D01*
X175896472Y-103091084D01*
X175883379Y-103076621D01*
X175865749Y-103068270D01*
X175846264Y-103067301D01*
X175827891Y-103073863D01*
X175813428Y-103086956D01*
X175805077Y-103104586D01*
X175804108Y-103124071D01*
X175806484Y-103133581D01*
X175979244Y-103614606D01*
X175919516Y-103766011D01*
X175897066Y-103789189D01*
X175822915Y-103827265D01*
X175810133Y-103842003D01*
X175803964Y-103860509D01*
X169577381Y-103860509D01*
X169577381Y-103795388D01*
X169910714Y-103795388D01*
X169914540Y-103814517D01*
X169925395Y-103830727D01*
X169941629Y-103841549D01*
X169960767Y-103845335D01*
X169979896Y-103841509D01*
X169996106Y-103830654D01*
X170002317Y-103823070D01*
X170098567Y-103678437D01*
X171411675Y-103678437D01*
X171411675Y-103697947D01*
X171419141Y-103715971D01*
X171432935Y-103729765D01*
X171450959Y-103737231D01*
X171460714Y-103738192D01*
X172041897Y-103737231D01*
X172059921Y-103729765D01*
X172073715Y-103715971D01*
X172081181Y-103697947D01*
X172081181Y-103678437D01*
X172073715Y-103660413D01*
X172059921Y-103646619D01*
X172041897Y-103639153D01*
X172032142Y-103638192D01*
X171450959Y-103639153D01*
X171432935Y-103646619D01*
X171419141Y-103660413D01*
X171411675Y-103678437D01*
X170098567Y-103678437D01*
X170472349Y-103116764D01*
X170767857Y-103116764D01*
X170768769Y-103363458D01*
X170767916Y-103369194D01*
X170768813Y-103375262D01*
X170768818Y-103376519D01*
X170769099Y-103377199D01*
X170769350Y-103378891D01*
X170804532Y-103516047D01*
X170804532Y-103519375D01*
X170806774Y-103524788D01*
X170808362Y-103530979D01*
X170810574Y-103533965D01*
X170811997Y-103537399D01*
X170818216Y-103544976D01*
X170889917Y-103615444D01*
X170894344Y-103620549D01*
X170896476Y-103621891D01*
X170897222Y-103622624D01*
X170898444Y-103623130D01*
X170902639Y-103625771D01*
X170967789Y-103657477D01*
X170968649Y-103658337D01*
X170974739Y-103660859D01*
X170983222Y-103664988D01*
X170985012Y-103665115D01*
X170986673Y-103665803D01*
X170996428Y-103666764D01*
X171131654Y-103665912D01*
X171133030Y-103666371D01*
X171140243Y-103665858D01*
X171149040Y-103665803D01*
X171150700Y-103665115D01*
X171152491Y-103664988D01*
X171161645Y-103661485D01*
X171232483Y-103625111D01*
X171238492Y-103622623D01*
X171240433Y-103621029D01*
X171241370Y-103620549D01*
X171242234Y-103619552D01*
X171246070Y-103616405D01*
X171313017Y-103548285D01*
X171315736Y-103546654D01*
X171319155Y-103542039D01*
X171323716Y-103537399D01*
X171325138Y-103533965D01*
X171327351Y-103530979D01*
X171330649Y-103521748D01*
X171364756Y-103381684D01*
X171366896Y-103376519D01*
X171367495Y-103370438D01*
X171367798Y-103369194D01*
X171367689Y-103368464D01*
X171367857Y-103366764D01*
X171366944Y-103120069D01*
X171367798Y-103114334D01*
X171366900Y-103108265D01*
X171366896Y-103107009D01*
X171366614Y-103106328D01*
X171366364Y-103104637D01*
X171331181Y-102967479D01*
X171331181Y-102964153D01*
X171328939Y-102958739D01*
X171327351Y-102952549D01*
X171325138Y-102949562D01*
X171323716Y-102946129D01*
X171317497Y-102938552D01*
X171245802Y-102868090D01*
X171244652Y-102866764D01*
X172160714Y-102866764D01*
X172161675Y-103626519D01*
X172169141Y-103644543D01*
X172182935Y-103658337D01*
X172200959Y-103665803D01*
X172220469Y-103665803D01*
X172238493Y-103658337D01*
X172252287Y-103644543D01*
X172259753Y-103626519D01*
X172260714Y-103616764D01*
X172260325Y-103309459D01*
X172488640Y-103308717D01*
X172490173Y-103309228D01*
X172497781Y-103308687D01*
X172506183Y-103308660D01*
X172507843Y-103307972D01*
X172509634Y-103307845D01*
X172518788Y-103304342D01*
X172589622Y-103267970D01*
X172595636Y-103265480D01*
X172597578Y-103263885D01*
X172598513Y-103263406D01*
X172599376Y-103262410D01*
X172603213Y-103259262D01*
X172638610Y-103222715D01*
X172643070Y-103218848D01*
X172644394Y-103216743D01*
X172645145Y-103215969D01*
X172645649Y-103214749D01*
X172648292Y-103210553D01*
X172679998Y-103145402D01*
X172680858Y-103144543D01*
X172683380Y-103138452D01*
X172687509Y-103129970D01*
X172687636Y-103128179D01*
X172688324Y-103126519D01*
X172689285Y-103116764D01*
X172910714Y-103116764D01*
X172911675Y-103626519D01*
X172919141Y-103644543D01*
X172932935Y-103658337D01*
X172950959Y-103665803D01*
X172970469Y-103665803D01*
X172988493Y-103658337D01*
X173002287Y-103644543D01*
X173009753Y-103626519D01*
X173010714Y-103616764D01*
X173010064Y-103272467D01*
X173035982Y-103219212D01*
X173060077Y-103194337D01*
X173114017Y-103166640D01*
X173184755Y-103165803D01*
X173202779Y-103158337D01*
X173216573Y-103144543D01*
X173224039Y-103126519D01*
X173224039Y-103116764D01*
X173375000Y-103116764D01*
X173375961Y-103626519D01*
X173383427Y-103644543D01*
X173397221Y-103658337D01*
X173415245Y-103665803D01*
X173434755Y-103665803D01*
X173452779Y-103658337D01*
X173466573Y-103644543D01*
X173474039Y-103626519D01*
X173475000Y-103616764D01*
X173474057Y-103116764D01*
X173732143Y-103116764D01*
X173733104Y-103626519D01*
X173740570Y-103644543D01*
X173754364Y-103658337D01*
X173772388Y-103665803D01*
X173791898Y-103665803D01*
X173809922Y-103658337D01*
X173823716Y-103644543D01*
X173831182Y-103626519D01*
X173832143Y-103616764D01*
X173831374Y-103209220D01*
X173845791Y-103194336D01*
X173899656Y-103166678D01*
X173983326Y-103165990D01*
X174030341Y-103188871D01*
X174053596Y-103234160D01*
X174054533Y-103626519D01*
X174061999Y-103644543D01*
X174075793Y-103658337D01*
X174093817Y-103665803D01*
X174113327Y-103665803D01*
X174131351Y-103658337D01*
X174145145Y-103644543D01*
X174152611Y-103626519D01*
X174153572Y-103616764D01*
X174152666Y-103237281D01*
X174175679Y-103189993D01*
X174221085Y-103166678D01*
X174304755Y-103165990D01*
X174351770Y-103188871D01*
X174375024Y-103234159D01*
X174375961Y-103626519D01*
X174383427Y-103644543D01*
X174397221Y-103658337D01*
X174415245Y-103665803D01*
X174434755Y-103665803D01*
X174452779Y-103658337D01*
X174466573Y-103644543D01*
X174474039Y-103626519D01*
X174475000Y-103616764D01*
X174474573Y-103438192D01*
X174696429Y-103438192D01*
X174697187Y-103502269D01*
X174696822Y-103503366D01*
X174697276Y-103509756D01*
X174697390Y-103519376D01*
X174698077Y-103521036D01*
X174698205Y-103522827D01*
X174701708Y-103531981D01*
X174737016Y-103600746D01*
X174738705Y-103605811D01*
X174740940Y-103608388D01*
X174742644Y-103611706D01*
X174747379Y-103615813D01*
X174751487Y-103620549D01*
X174756421Y-103623655D01*
X174757382Y-103624488D01*
X174758153Y-103624745D01*
X174759783Y-103625771D01*
X174824934Y-103657478D01*
X174825793Y-103658337D01*
X174831876Y-103660857D01*
X174840367Y-103664989D01*
X174842159Y-103665116D01*
X174843817Y-103665803D01*
X174853572Y-103666764D01*
X175024451Y-103665892D01*
X175025888Y-103666371D01*
X175033260Y-103665847D01*
X175041898Y-103665803D01*
X175043558Y-103665115D01*
X175045349Y-103664988D01*
X175054503Y-103661485D01*
X175070650Y-103653194D01*
X175075793Y-103658337D01*
X175093817Y-103665803D01*
X175113327Y-103665803D01*
X175131351Y-103658337D01*
X175145145Y-103644543D01*
X175152611Y-103626519D01*
X175153572Y-103616764D01*
X175152822Y-103302659D01*
X175153179Y-103301589D01*
X175152807Y-103296357D01*
X175152652Y-103231738D01*
X175153179Y-103230161D01*
X175152630Y-103222447D01*
X175152611Y-103214152D01*
X175151923Y-103212491D01*
X175151796Y-103210701D01*
X175148293Y-103201546D01*
X175112982Y-103132779D01*
X175111295Y-103127717D01*
X175109059Y-103125139D01*
X175107356Y-103121822D01*
X175102620Y-103117714D01*
X175101796Y-103116764D01*
X175410714Y-103116764D01*
X175411675Y-103626519D01*
X175419141Y-103644543D01*
X175432935Y-103658337D01*
X175450959Y-103665803D01*
X175470469Y-103665803D01*
X175488493Y-103658337D01*
X175502287Y-103644543D01*
X175509753Y-103626519D01*
X175510714Y-103616764D01*
X175510064Y-103272467D01*
X175535982Y-103219212D01*
X175560077Y-103194337D01*
X175614017Y-103166640D01*
X175684755Y-103165803D01*
X175702779Y-103158337D01*
X175716573Y-103144543D01*
X175724039Y-103126519D01*
X175724039Y-103107009D01*
X175716573Y-103088985D01*
X175702779Y-103075191D01*
X175684755Y-103067725D01*
X175675000Y-103066764D01*
X175610921Y-103067522D01*
X175609825Y-103067157D01*
X175603434Y-103067611D01*
X175593816Y-103067725D01*
X175592155Y-103068412D01*
X175590365Y-103068540D01*
X175581210Y-103072043D01*
X175510374Y-103108415D01*
X175509756Y-103108671D01*
X175509753Y-103107009D01*
X175502287Y-103088985D01*
X175488493Y-103075191D01*
X175470469Y-103067725D01*
X175450959Y-103067725D01*
X175432935Y-103075191D01*
X175419141Y-103088985D01*
X175411675Y-103107009D01*
X175410714Y-103116764D01*
X175101796Y-103116764D01*
X175098513Y-103112979D01*
X175093576Y-103109871D01*
X175092618Y-103109040D01*
X175091848Y-103108783D01*
X175090218Y-103107757D01*
X175025067Y-103076050D01*
X175024208Y-103075191D01*
X175018117Y-103072668D01*
X175009635Y-103068540D01*
X175007844Y-103068412D01*
X175006184Y-103067725D01*
X174996429Y-103066764D01*
X174861202Y-103067615D01*
X174859827Y-103067157D01*
X174852608Y-103067669D01*
X174843817Y-103067725D01*
X174842159Y-103068411D01*
X174840367Y-103068539D01*
X174831212Y-103072042D01*
X174751487Y-103112979D01*
X174738705Y-103127717D01*
X174732536Y-103146223D01*
X174733919Y-103165684D01*
X174742644Y-103183134D01*
X174757382Y-103195916D01*
X174775888Y-103202085D01*
X174795349Y-103200702D01*
X174804503Y-103197199D01*
X174863903Y-103166698D01*
X174983237Y-103165947D01*
X175030341Y-103188871D01*
X175053596Y-103234160D01*
X175053669Y-103264756D01*
X175021835Y-103281102D01*
X174861263Y-103281921D01*
X174859827Y-103281443D01*
X174852449Y-103281966D01*
X174843817Y-103282011D01*
X174842159Y-103282697D01*
X174840367Y-103282825D01*
X174831212Y-103286328D01*
X174762444Y-103321638D01*
X174757382Y-103323326D01*
X174754804Y-103325561D01*
X174751487Y-103327265D01*
X174747379Y-103332000D01*
X174742644Y-103336108D01*
X174739536Y-103341044D01*
X174738705Y-103342003D01*
X174738448Y-103342772D01*
X174737422Y-103344403D01*
X174705715Y-103409553D01*
X174704856Y-103410413D01*
X174702333Y-103416503D01*
X174698205Y-103424986D01*
X174698077Y-103426776D01*
X174697390Y-103428437D01*
X174696429Y-103438192D01*
X174474573Y-103438192D01*
X174474080Y-103231739D01*
X174474607Y-103230162D01*
X174474058Y-103222442D01*
X174474039Y-103214152D01*
X174473352Y-103212494D01*
X174473225Y-103210702D01*
X174469722Y-103201547D01*
X174434411Y-103132779D01*
X174432724Y-103127717D01*
X174430488Y-103125139D01*
X174428785Y-103121822D01*
X174424049Y-103117714D01*
X174419942Y-103112979D01*
X174415005Y-103109871D01*
X174414047Y-103109040D01*
X174413277Y-103108783D01*
X174411647Y-103107757D01*
X174346495Y-103076050D01*
X174345636Y-103075191D01*
X174339546Y-103072668D01*
X174331063Y-103068540D01*
X174329272Y-103068412D01*
X174327612Y-103067725D01*
X174317857Y-103066764D01*
X174218245Y-103067582D01*
X174216968Y-103067157D01*
X174210024Y-103067650D01*
X174200959Y-103067725D01*
X174199298Y-103068412D01*
X174197508Y-103068540D01*
X174188353Y-103072043D01*
X174119587Y-103107352D01*
X174114525Y-103109040D01*
X174111947Y-103111275D01*
X174108630Y-103112979D01*
X174104522Y-103117714D01*
X174103571Y-103118539D01*
X174102620Y-103117714D01*
X174098513Y-103112979D01*
X174093576Y-103109871D01*
X174092618Y-103109040D01*
X174091848Y-103108783D01*
X174090218Y-103107757D01*
X174025067Y-103076050D01*
X174024208Y-103075191D01*
X174018117Y-103072668D01*
X174009635Y-103068540D01*
X174007844Y-103068412D01*
X174006184Y-103067725D01*
X173996429Y-103066764D01*
X173896818Y-103067582D01*
X173895541Y-103067157D01*
X173888591Y-103067650D01*
X173879531Y-103067725D01*
X173877873Y-103068411D01*
X173876081Y-103068539D01*
X173866926Y-103072042D01*
X173825507Y-103093309D01*
X173823716Y-103088985D01*
X173809922Y-103075191D01*
X173791898Y-103067725D01*
X173772388Y-103067725D01*
X173754364Y-103075191D01*
X173740570Y-103088985D01*
X173733104Y-103107009D01*
X173732143Y-103116764D01*
X173474057Y-103116764D01*
X173474039Y-103107009D01*
X173466573Y-103088985D01*
X173452779Y-103075191D01*
X173434755Y-103067725D01*
X173415245Y-103067725D01*
X173397221Y-103075191D01*
X173383427Y-103088985D01*
X173375961Y-103107009D01*
X173375000Y-103116764D01*
X173224039Y-103116764D01*
X173224039Y-103107009D01*
X173216573Y-103088985D01*
X173202779Y-103075191D01*
X173184755Y-103067725D01*
X173175000Y-103066764D01*
X173110921Y-103067522D01*
X173109825Y-103067157D01*
X173103434Y-103067611D01*
X173093816Y-103067725D01*
X173092155Y-103068412D01*
X173090365Y-103068540D01*
X173081210Y-103072043D01*
X173010374Y-103108415D01*
X173009756Y-103108671D01*
X173009753Y-103107009D01*
X173002287Y-103088985D01*
X172988493Y-103075191D01*
X172970469Y-103067725D01*
X172950959Y-103067725D01*
X172932935Y-103075191D01*
X172919141Y-103088985D01*
X172911675Y-103107009D01*
X172910714Y-103116764D01*
X172689285Y-103116764D01*
X172688466Y-103017153D01*
X172688892Y-103015876D01*
X172688398Y-103008926D01*
X172688324Y-102999866D01*
X172687637Y-102998208D01*
X172687510Y-102996416D01*
X172684007Y-102987261D01*
X172647632Y-102916421D01*
X172645144Y-102910414D01*
X172643551Y-102908472D01*
X172643070Y-102907536D01*
X172642071Y-102906670D01*
X172638926Y-102902837D01*
X172628486Y-102892724D01*
X173340247Y-102892724D01*
X173340247Y-102912232D01*
X173347712Y-102930256D01*
X173353931Y-102937833D01*
X173397190Y-102979734D01*
X173397222Y-102979766D01*
X173407780Y-102984138D01*
X173415245Y-102987231D01*
X173415246Y-102987231D01*
X173434754Y-102987231D01*
X173434755Y-102987231D01*
X173442220Y-102984138D01*
X173452778Y-102979766D01*
X173460355Y-102973547D01*
X173502287Y-102930256D01*
X173509753Y-102912232D01*
X173509753Y-102892724D01*
X173502287Y-102874700D01*
X173496069Y-102867123D01*
X173452778Y-102825190D01*
X173442220Y-102820817D01*
X173434755Y-102817725D01*
X173415245Y-102817725D01*
X173407780Y-102820817D01*
X173397222Y-102825190D01*
X173397216Y-102825195D01*
X173389645Y-102831409D01*
X173347712Y-102874700D01*
X173340247Y-102892724D01*
X172628486Y-102892724D01*
X172602378Y-102867435D01*
X172598513Y-102862979D01*
X172596411Y-102861655D01*
X172595635Y-102860904D01*
X172594412Y-102860397D01*
X172590218Y-102857757D01*
X172525066Y-102826050D01*
X172524207Y-102825191D01*
X172518117Y-102822668D01*
X172509634Y-102818540D01*
X172507843Y-102818412D01*
X172506183Y-102817725D01*
X172496428Y-102816764D01*
X172200959Y-102817725D01*
X172182935Y-102825191D01*
X172169141Y-102838985D01*
X172161675Y-102857009D01*
X172160714Y-102866764D01*
X171244652Y-102866764D01*
X171241370Y-102862979D01*
X171239234Y-102861634D01*
X171238492Y-102860905D01*
X171237274Y-102860400D01*
X171233075Y-102857757D01*
X171167923Y-102826050D01*
X171167064Y-102825191D01*
X171160974Y-102822668D01*
X171152491Y-102818540D01*
X171150700Y-102818412D01*
X171149040Y-102817725D01*
X171139285Y-102816764D01*
X171004057Y-102817615D01*
X171002682Y-102817157D01*
X170995469Y-102817669D01*
X170986673Y-102817725D01*
X170985012Y-102818412D01*
X170983222Y-102818540D01*
X170974067Y-102822043D01*
X170903235Y-102858413D01*
X170897222Y-102860904D01*
X170895278Y-102862499D01*
X170894344Y-102862979D01*
X170893479Y-102863975D01*
X170889645Y-102867123D01*
X170822696Y-102935241D01*
X170819977Y-102936874D01*
X170816557Y-102941488D01*
X170811997Y-102946129D01*
X170810574Y-102949562D01*
X170808362Y-102952549D01*
X170805064Y-102961780D01*
X170770957Y-103101844D01*
X170768818Y-103107009D01*
X170768218Y-103113089D01*
X170767916Y-103114334D01*
X170768024Y-103115063D01*
X170767857Y-103116764D01*
X170472349Y-103116764D01*
X170649785Y-102850135D01*
X170653571Y-102830997D01*
X170649745Y-102811868D01*
X170638890Y-102795658D01*
X170622657Y-102784836D01*
X170603518Y-102781050D01*
X170584389Y-102784876D01*
X170568179Y-102795731D01*
X170561969Y-102803315D01*
X169914500Y-103776250D01*
X169910714Y-103795388D01*
X169577381Y-103795388D01*
X169577381Y-102866764D01*
X169660714Y-102866764D01*
X169661675Y-103626519D01*
X169669141Y-103644543D01*
X169682935Y-103658337D01*
X169700959Y-103665803D01*
X169720469Y-103665803D01*
X169738493Y-103658337D01*
X169752287Y-103644543D01*
X169759753Y-103626519D01*
X169760714Y-103616764D01*
X169759753Y-102857009D01*
X169752287Y-102838985D01*
X169738493Y-102825191D01*
X169720469Y-102817725D01*
X169700959Y-102817725D01*
X169682935Y-102825191D01*
X169669141Y-102838985D01*
X169661675Y-102857009D01*
X169660714Y-102866764D01*
X169577381Y-102866764D01*
X169577381Y-102697717D01*
X176343510Y-102697717D01*
X176343510Y-103999704D01*
G37*
D10*
X193327847Y-99694809D02*
X193327847Y-100099571D01*
X193327847Y-100099571D02*
X193351657Y-100147190D01*
X193351657Y-100147190D02*
X193375466Y-100171000D01*
X193375466Y-100171000D02*
X193423085Y-100194809D01*
X193423085Y-100194809D02*
X193518323Y-100194809D01*
X193518323Y-100194809D02*
X193565942Y-100171000D01*
X193565942Y-100171000D02*
X193589752Y-100147190D01*
X193589752Y-100147190D02*
X193613561Y-100099571D01*
X193613561Y-100099571D02*
X193613561Y-99694809D01*
X193875467Y-100194809D02*
X193970705Y-100194809D01*
X193970705Y-100194809D02*
X194018324Y-100171000D01*
X194018324Y-100171000D02*
X194042133Y-100147190D01*
X194042133Y-100147190D02*
X194089752Y-100075761D01*
X194089752Y-100075761D02*
X194113562Y-99980523D01*
X194113562Y-99980523D02*
X194113562Y-99790047D01*
X194113562Y-99790047D02*
X194089752Y-99742428D01*
X194089752Y-99742428D02*
X194065943Y-99718619D01*
X194065943Y-99718619D02*
X194018324Y-99694809D01*
X194018324Y-99694809D02*
X193923086Y-99694809D01*
X193923086Y-99694809D02*
X193875467Y-99718619D01*
X193875467Y-99718619D02*
X193851657Y-99742428D01*
X193851657Y-99742428D02*
X193827848Y-99790047D01*
X193827848Y-99790047D02*
X193827848Y-99909095D01*
X193827848Y-99909095D02*
X193851657Y-99956714D01*
X193851657Y-99956714D02*
X193875467Y-99980523D01*
X193875467Y-99980523D02*
X193923086Y-100004333D01*
X193923086Y-100004333D02*
X194018324Y-100004333D01*
X194018324Y-100004333D02*
X194065943Y-99980523D01*
X194065943Y-99980523D02*
X194089752Y-99956714D01*
X194089752Y-99956714D02*
X194113562Y-99909095D01*
D13*
X187462214Y-106932143D02*
X187462214Y-107075000D01*
X187462214Y-107075000D02*
X187497928Y-107146428D01*
X187497928Y-107146428D02*
X187533642Y-107182143D01*
X187533642Y-107182143D02*
X187640785Y-107253571D01*
X187640785Y-107253571D02*
X187783642Y-107289285D01*
X187783642Y-107289285D02*
X188069357Y-107289285D01*
X188069357Y-107289285D02*
X188140785Y-107253571D01*
X188140785Y-107253571D02*
X188176500Y-107217857D01*
X188176500Y-107217857D02*
X188212214Y-107146428D01*
X188212214Y-107146428D02*
X188212214Y-107003571D01*
X188212214Y-107003571D02*
X188176500Y-106932143D01*
X188176500Y-106932143D02*
X188140785Y-106896428D01*
X188140785Y-106896428D02*
X188069357Y-106860714D01*
X188069357Y-106860714D02*
X187890785Y-106860714D01*
X187890785Y-106860714D02*
X187819357Y-106896428D01*
X187819357Y-106896428D02*
X187783642Y-106932143D01*
X187783642Y-106932143D02*
X187747928Y-107003571D01*
X187747928Y-107003571D02*
X187747928Y-107146428D01*
X187747928Y-107146428D02*
X187783642Y-107217857D01*
X187783642Y-107217857D02*
X187819357Y-107253571D01*
X187819357Y-107253571D02*
X187890785Y-107289285D01*
X188212214Y-106539285D02*
X187462214Y-106539285D01*
X187462214Y-106539285D02*
X188212214Y-106110714D01*
X188212214Y-106110714D02*
X187462214Y-106110714D01*
X188212214Y-105360714D02*
X188212214Y-105789285D01*
X188212214Y-105575000D02*
X187462214Y-105575000D01*
X187462214Y-105575000D02*
X187569357Y-105646428D01*
X187569357Y-105646428D02*
X187640785Y-105717857D01*
X187640785Y-105717857D02*
X187676500Y-105789285D01*
X187462214Y-105110714D02*
X187462214Y-104646428D01*
X187462214Y-104646428D02*
X187747928Y-104896428D01*
X187747928Y-104896428D02*
X187747928Y-104789285D01*
X187747928Y-104789285D02*
X187783642Y-104717857D01*
X187783642Y-104717857D02*
X187819357Y-104682142D01*
X187819357Y-104682142D02*
X187890785Y-104646428D01*
X187890785Y-104646428D02*
X188069357Y-104646428D01*
X188069357Y-104646428D02*
X188140785Y-104682142D01*
X188140785Y-104682142D02*
X188176500Y-104717857D01*
X188176500Y-104717857D02*
X188212214Y-104789285D01*
X188212214Y-104789285D02*
X188212214Y-105003571D01*
X188212214Y-105003571D02*
X188176500Y-105074999D01*
X188176500Y-105074999D02*
X188140785Y-105110714D01*
X187462214Y-104396428D02*
X187462214Y-103896428D01*
X187462214Y-103896428D02*
X188212214Y-104217856D01*
X188497928Y-103396427D02*
X188462214Y-103432142D01*
X188462214Y-103432142D02*
X188355071Y-103503570D01*
X188355071Y-103503570D02*
X188283642Y-103539285D01*
X188283642Y-103539285D02*
X188176500Y-103574999D01*
X188176500Y-103574999D02*
X187997928Y-103610713D01*
X187997928Y-103610713D02*
X187855071Y-103610713D01*
X187855071Y-103610713D02*
X187676500Y-103574999D01*
X187676500Y-103574999D02*
X187569357Y-103539285D01*
X187569357Y-103539285D02*
X187497928Y-103503570D01*
X187497928Y-103503570D02*
X187390785Y-103432142D01*
X187390785Y-103432142D02*
X187355071Y-103396427D01*
X188212214Y-103110713D02*
X187462214Y-103110713D01*
X187462214Y-103110713D02*
X187462214Y-102932142D01*
X187462214Y-102932142D02*
X187497928Y-102824999D01*
X187497928Y-102824999D02*
X187569357Y-102753570D01*
X187569357Y-102753570D02*
X187640785Y-102717856D01*
X187640785Y-102717856D02*
X187783642Y-102682142D01*
X187783642Y-102682142D02*
X187890785Y-102682142D01*
X187890785Y-102682142D02*
X188033642Y-102717856D01*
X188033642Y-102717856D02*
X188105071Y-102753570D01*
X188105071Y-102753570D02*
X188176500Y-102824999D01*
X188176500Y-102824999D02*
X188212214Y-102932142D01*
X188212214Y-102932142D02*
X188212214Y-103110713D01*
X187462214Y-102467856D02*
X187462214Y-102039285D01*
X188212214Y-102253570D02*
X187462214Y-102253570D01*
X188497928Y-101860713D02*
X188462214Y-101824998D01*
X188462214Y-101824998D02*
X188355071Y-101753570D01*
X188355071Y-101753570D02*
X188283642Y-101717856D01*
X188283642Y-101717856D02*
X188176500Y-101682141D01*
X188176500Y-101682141D02*
X187997928Y-101646427D01*
X187997928Y-101646427D02*
X187855071Y-101646427D01*
X187855071Y-101646427D02*
X187676500Y-101682141D01*
X187676500Y-101682141D02*
X187569357Y-101717856D01*
X187569357Y-101717856D02*
X187497928Y-101753570D01*
X187497928Y-101753570D02*
X187390785Y-101824998D01*
X187390785Y-101824998D02*
X187355071Y-101860713D01*
D10*
X186802190Y-90308333D02*
X186826000Y-90332142D01*
X186826000Y-90332142D02*
X186849809Y-90403571D01*
X186849809Y-90403571D02*
X186849809Y-90451190D01*
X186849809Y-90451190D02*
X186826000Y-90522618D01*
X186826000Y-90522618D02*
X186778380Y-90570237D01*
X186778380Y-90570237D02*
X186730761Y-90594047D01*
X186730761Y-90594047D02*
X186635523Y-90617856D01*
X186635523Y-90617856D02*
X186564095Y-90617856D01*
X186564095Y-90617856D02*
X186468857Y-90594047D01*
X186468857Y-90594047D02*
X186421238Y-90570237D01*
X186421238Y-90570237D02*
X186373619Y-90522618D01*
X186373619Y-90522618D02*
X186349809Y-90451190D01*
X186349809Y-90451190D02*
X186349809Y-90403571D01*
X186349809Y-90403571D02*
X186373619Y-90332142D01*
X186373619Y-90332142D02*
X186397428Y-90308333D01*
X186349809Y-90141666D02*
X186349809Y-89832142D01*
X186349809Y-89832142D02*
X186540285Y-89998809D01*
X186540285Y-89998809D02*
X186540285Y-89927380D01*
X186540285Y-89927380D02*
X186564095Y-89879761D01*
X186564095Y-89879761D02*
X186587904Y-89855952D01*
X186587904Y-89855952D02*
X186635523Y-89832142D01*
X186635523Y-89832142D02*
X186754571Y-89832142D01*
X186754571Y-89832142D02*
X186802190Y-89855952D01*
X186802190Y-89855952D02*
X186826000Y-89879761D01*
X186826000Y-89879761D02*
X186849809Y-89927380D01*
X186849809Y-89927380D02*
X186849809Y-90070237D01*
X186849809Y-90070237D02*
X186826000Y-90117856D01*
X186826000Y-90117856D02*
X186802190Y-90141666D01*
D11*
X185560592Y-86110713D02*
X185524878Y-86074999D01*
X185524878Y-86074999D02*
X185489164Y-86003571D01*
X185489164Y-86003571D02*
X185489164Y-85824999D01*
X185489164Y-85824999D02*
X185524878Y-85753571D01*
X185524878Y-85753571D02*
X185560592Y-85717856D01*
X185560592Y-85717856D02*
X185632021Y-85682142D01*
X185632021Y-85682142D02*
X185703450Y-85682142D01*
X185703450Y-85682142D02*
X185810592Y-85717856D01*
X185810592Y-85717856D02*
X186239164Y-86146428D01*
X186239164Y-86146428D02*
X186239164Y-85682142D01*
X186167735Y-85360713D02*
X186203450Y-85324999D01*
X186203450Y-85324999D02*
X186239164Y-85360713D01*
X186239164Y-85360713D02*
X186203450Y-85396427D01*
X186203450Y-85396427D02*
X186167735Y-85360713D01*
X186167735Y-85360713D02*
X186239164Y-85360713D01*
X185560592Y-85039284D02*
X185524878Y-85003570D01*
X185524878Y-85003570D02*
X185489164Y-84932142D01*
X185489164Y-84932142D02*
X185489164Y-84753570D01*
X185489164Y-84753570D02*
X185524878Y-84682142D01*
X185524878Y-84682142D02*
X185560592Y-84646427D01*
X185560592Y-84646427D02*
X185632021Y-84610713D01*
X185632021Y-84610713D02*
X185703450Y-84610713D01*
X185703450Y-84610713D02*
X185810592Y-84646427D01*
X185810592Y-84646427D02*
X186239164Y-85074999D01*
X186239164Y-85074999D02*
X186239164Y-84610713D01*
X185739164Y-83967856D02*
X186239164Y-83967856D01*
X185739164Y-84289284D02*
X186132021Y-84289284D01*
X186132021Y-84289284D02*
X186203450Y-84253570D01*
X186203450Y-84253570D02*
X186239164Y-84182141D01*
X186239164Y-84182141D02*
X186239164Y-84074998D01*
X186239164Y-84074998D02*
X186203450Y-84003570D01*
X186203450Y-84003570D02*
X186167735Y-83967856D01*
X185846307Y-83360713D02*
X185846307Y-83610713D01*
X186239164Y-83610713D02*
X185489164Y-83610713D01*
X185489164Y-83610713D02*
X185489164Y-83253570D01*
D10*
X186399809Y-64596428D02*
X186161714Y-64763094D01*
X186399809Y-64882142D02*
X185899809Y-64882142D01*
X185899809Y-64882142D02*
X185899809Y-64691666D01*
X185899809Y-64691666D02*
X185923619Y-64644047D01*
X185923619Y-64644047D02*
X185947428Y-64620237D01*
X185947428Y-64620237D02*
X185995047Y-64596428D01*
X185995047Y-64596428D02*
X186066476Y-64596428D01*
X186066476Y-64596428D02*
X186114095Y-64620237D01*
X186114095Y-64620237D02*
X186137904Y-64644047D01*
X186137904Y-64644047D02*
X186161714Y-64691666D01*
X186161714Y-64691666D02*
X186161714Y-64882142D01*
X186399809Y-64120237D02*
X186399809Y-64405951D01*
X186399809Y-64263094D02*
X185899809Y-64263094D01*
X185899809Y-64263094D02*
X185971238Y-64310713D01*
X185971238Y-64310713D02*
X186018857Y-64358332D01*
X186018857Y-64358332D02*
X186042666Y-64405951D01*
X185899809Y-63810714D02*
X185899809Y-63763095D01*
X185899809Y-63763095D02*
X185923619Y-63715476D01*
X185923619Y-63715476D02*
X185947428Y-63691666D01*
X185947428Y-63691666D02*
X185995047Y-63667857D01*
X185995047Y-63667857D02*
X186090285Y-63644047D01*
X186090285Y-63644047D02*
X186209333Y-63644047D01*
X186209333Y-63644047D02*
X186304571Y-63667857D01*
X186304571Y-63667857D02*
X186352190Y-63691666D01*
X186352190Y-63691666D02*
X186376000Y-63715476D01*
X186376000Y-63715476D02*
X186399809Y-63763095D01*
X186399809Y-63763095D02*
X186399809Y-63810714D01*
X186399809Y-63810714D02*
X186376000Y-63858333D01*
X186376000Y-63858333D02*
X186352190Y-63882142D01*
X186352190Y-63882142D02*
X186304571Y-63905952D01*
X186304571Y-63905952D02*
X186209333Y-63929761D01*
X186209333Y-63929761D02*
X186090285Y-63929761D01*
X186090285Y-63929761D02*
X185995047Y-63905952D01*
X185995047Y-63905952D02*
X185947428Y-63882142D01*
X185947428Y-63882142D02*
X185923619Y-63858333D01*
X185923619Y-63858333D02*
X185899809Y-63810714D01*
D11*
X186491033Y-62700000D02*
X186491033Y-63100000D01*
X186491033Y-62900000D02*
X185791033Y-62900000D01*
X185791033Y-62900000D02*
X185891033Y-62966667D01*
X185891033Y-62966667D02*
X185957700Y-63033334D01*
X185957700Y-63033334D02*
X185991033Y-63100000D01*
X185791033Y-62266667D02*
X185791033Y-62200000D01*
X185791033Y-62200000D02*
X185824366Y-62133333D01*
X185824366Y-62133333D02*
X185857700Y-62100000D01*
X185857700Y-62100000D02*
X185924366Y-62066667D01*
X185924366Y-62066667D02*
X186057700Y-62033333D01*
X186057700Y-62033333D02*
X186224366Y-62033333D01*
X186224366Y-62033333D02*
X186357700Y-62066667D01*
X186357700Y-62066667D02*
X186424366Y-62100000D01*
X186424366Y-62100000D02*
X186457700Y-62133333D01*
X186457700Y-62133333D02*
X186491033Y-62200000D01*
X186491033Y-62200000D02*
X186491033Y-62266667D01*
X186491033Y-62266667D02*
X186457700Y-62333333D01*
X186457700Y-62333333D02*
X186424366Y-62366667D01*
X186424366Y-62366667D02*
X186357700Y-62400000D01*
X186357700Y-62400000D02*
X186224366Y-62433333D01*
X186224366Y-62433333D02*
X186057700Y-62433333D01*
X186057700Y-62433333D02*
X185924366Y-62400000D01*
X185924366Y-62400000D02*
X185857700Y-62366667D01*
X185857700Y-62366667D02*
X185824366Y-62333333D01*
X185824366Y-62333333D02*
X185791033Y-62266667D01*
X185791033Y-61600000D02*
X185791033Y-61533333D01*
X185791033Y-61533333D02*
X185824366Y-61466666D01*
X185824366Y-61466666D02*
X185857700Y-61433333D01*
X185857700Y-61433333D02*
X185924366Y-61400000D01*
X185924366Y-61400000D02*
X186057700Y-61366666D01*
X186057700Y-61366666D02*
X186224366Y-61366666D01*
X186224366Y-61366666D02*
X186357700Y-61400000D01*
X186357700Y-61400000D02*
X186424366Y-61433333D01*
X186424366Y-61433333D02*
X186457700Y-61466666D01*
X186457700Y-61466666D02*
X186491033Y-61533333D01*
X186491033Y-61533333D02*
X186491033Y-61600000D01*
X186491033Y-61600000D02*
X186457700Y-61666666D01*
X186457700Y-61666666D02*
X186424366Y-61700000D01*
X186424366Y-61700000D02*
X186357700Y-61733333D01*
X186357700Y-61733333D02*
X186224366Y-61766666D01*
X186224366Y-61766666D02*
X186057700Y-61766666D01*
X186057700Y-61766666D02*
X185924366Y-61733333D01*
X185924366Y-61733333D02*
X185857700Y-61700000D01*
X185857700Y-61700000D02*
X185824366Y-61666666D01*
X185824366Y-61666666D02*
X185791033Y-61600000D01*
X186491033Y-61066666D02*
X185791033Y-61066666D01*
X186224366Y-60999999D02*
X186491033Y-60799999D01*
X186024366Y-60799999D02*
X186291033Y-61066666D01*
D14*
%TO.C,U6*%
X191010000Y-71375000D02*
X191010000Y-81655000D01*
X191010000Y-81655000D02*
X192660000Y-81655000D01*
X194660000Y-81655000D02*
X196310000Y-81655000D01*
X196310000Y-71375000D02*
X191010000Y-71375000D01*
X196310000Y-81655000D02*
X196310000Y-71375000D01*
X192660000Y-81655000D02*
G75*
G02*
X194660000Y-81655000I1000000J0D01*
G01*
%TO.C,R15*%
X186877500Y-73829724D02*
X186877500Y-73320276D01*
X187922500Y-73829724D02*
X187922500Y-73320276D01*
%TO.C,J2*%
X204715000Y-75440000D02*
X204715000Y-95560000D01*
X204715000Y-95560000D02*
X210685000Y-95560000D01*
X205475000Y-76200000D02*
X205475000Y-85500000D01*
X205475000Y-94800000D02*
X205475000Y-85500000D01*
X208425000Y-75450000D02*
X208425000Y-76200000D01*
X208425000Y-76200000D02*
X205475000Y-76200000D01*
X208425000Y-94800000D02*
X205475000Y-94800000D01*
X208425000Y-95550000D02*
X208425000Y-94800000D01*
X209925000Y-75450000D02*
X209925000Y-77250000D01*
X209925000Y-77250000D02*
X210675000Y-77250000D01*
X209925000Y-78750000D02*
X209925000Y-92250000D01*
X209925000Y-92250000D02*
X210675000Y-92250000D01*
X209925000Y-93750000D02*
X209925000Y-95550000D01*
X209925000Y-95550000D02*
X210675000Y-95550000D01*
X210675000Y-75450000D02*
X209925000Y-75450000D01*
X210675000Y-77250000D02*
X210675000Y-75450000D01*
X210675000Y-78750000D02*
X209925000Y-78750000D01*
X210675000Y-92250000D02*
X210675000Y-78750000D01*
X210675000Y-93750000D02*
X209925000Y-93750000D01*
X210675000Y-95550000D02*
X210675000Y-93750000D01*
X210685000Y-75440000D02*
X204715000Y-75440000D01*
X210685000Y-95560000D02*
X210685000Y-75440000D01*
X210975000Y-75150000D02*
X209725000Y-75150000D01*
X210975000Y-76400000D02*
X210975000Y-75150000D01*
%TO.C,U7*%
X164100000Y-70475000D02*
X164100000Y-73135000D01*
X166700000Y-90795000D02*
X166700000Y-93455000D01*
X174320000Y-90795000D02*
X166700000Y-90795000D01*
X174320000Y-90795000D02*
X174320000Y-93455000D01*
X174320000Y-93455000D02*
X166700000Y-93455000D01*
X175590000Y-90795000D02*
X176920000Y-90795000D01*
X176860000Y-70475000D02*
X164100000Y-70475000D01*
X176860000Y-70475000D02*
X176860000Y-73135000D01*
X176860000Y-73135000D02*
X164100000Y-73135000D01*
X176920000Y-90795000D02*
X176920000Y-92125000D01*
X178130000Y-70475000D02*
X179460000Y-70475000D01*
X179460000Y-70475000D02*
X179460000Y-71805000D01*
%TO.C,C4*%
X186890000Y-68235567D02*
X186890000Y-67943033D01*
X187910000Y-68235567D02*
X187910000Y-67943033D01*
%TO.C,C5*%
X183665000Y-88144567D02*
X183665000Y-87852033D01*
X184685000Y-88144567D02*
X184685000Y-87852033D01*
%TO.C,J3*%
X161555000Y-59932500D02*
X161555000Y-68392500D01*
X161555000Y-68392500D02*
X183775000Y-68392500D01*
X179865000Y-69192500D02*
X180165000Y-68592500D01*
X180165000Y-68592500D02*
X180465000Y-69192500D01*
X180465000Y-69192500D02*
X179865000Y-69192500D01*
X183775000Y-59932500D02*
X161555000Y-59932500D01*
X183775000Y-68392500D02*
X183775000Y-59932500D01*
%TO.C,R8*%
X199752500Y-85032776D02*
X199752500Y-85542224D01*
X200797500Y-85032776D02*
X200797500Y-85542224D01*
%TO.C,C7*%
X205965000Y-68890000D02*
X207165000Y-68890000D01*
X205965000Y-72345563D02*
X205965000Y-68890000D01*
X207029437Y-73410000D02*
X205965000Y-72345563D01*
X207029437Y-73410000D02*
X207165000Y-73410000D01*
X209420563Y-73410000D02*
X209285000Y-73410000D01*
X209420563Y-73410000D02*
X210485000Y-72345563D01*
X210485000Y-68890000D02*
X209285000Y-68890000D01*
X210485000Y-72345563D02*
X210485000Y-68890000D01*
%TO.C,U4*%
X191010000Y-60100000D02*
X191010000Y-70380000D01*
X191010000Y-70380000D02*
X192660000Y-70380000D01*
X194660000Y-70380000D02*
X196310000Y-70380000D01*
X196310000Y-60100000D02*
X191010000Y-60100000D01*
X196310000Y-70380000D02*
X196310000Y-60100000D01*
X192660000Y-70380000D02*
G75*
G02*
X194660000Y-70380000I1000000J0D01*
G01*
%TO.C,C6*%
X161465000Y-97740000D02*
X162665000Y-97740000D01*
X161465000Y-101195563D02*
X161465000Y-97740000D01*
X162529437Y-102260000D02*
X161465000Y-101195563D01*
X162529437Y-102260000D02*
X162665000Y-102260000D01*
X164920563Y-102260000D02*
X164785000Y-102260000D01*
X164920563Y-102260000D02*
X165985000Y-101195563D01*
X165985000Y-97740000D02*
X164785000Y-97740000D01*
X165985000Y-101195563D02*
X165985000Y-97740000D01*
%TO.C,U8*%
X191010000Y-88174200D02*
X191010000Y-98454200D01*
X191010000Y-98454200D02*
X192660000Y-98454200D01*
X194660000Y-98454200D02*
X196310000Y-98454200D01*
X196310000Y-88174200D02*
X191010000Y-88174200D01*
X196310000Y-98454200D02*
X196310000Y-88174200D01*
X192660000Y-98454200D02*
G75*
G02*
X194660000Y-98454200I1000000J0D01*
G01*
%TO.C,J1*%
X163140000Y-104190000D02*
X163140000Y-110160000D01*
X163140000Y-110160000D02*
X183260000Y-110160000D01*
X163150000Y-107900000D02*
X163900000Y-107900000D01*
X163150000Y-109400000D02*
X163150000Y-110150000D01*
X163150000Y-110150000D02*
X164950000Y-110150000D01*
X163900000Y-104950000D02*
X173200000Y-104950000D01*
X163900000Y-107900000D02*
X163900000Y-104950000D01*
X164950000Y-109400000D02*
X163150000Y-109400000D01*
X164950000Y-110150000D02*
X164950000Y-109400000D01*
X166450000Y-109400000D02*
X166450000Y-110150000D01*
X166450000Y-110150000D02*
X179950000Y-110150000D01*
X179950000Y-109400000D02*
X166450000Y-109400000D01*
X179950000Y-110150000D02*
X179950000Y-109400000D01*
X181450000Y-109400000D02*
X181450000Y-110150000D01*
X181450000Y-110150000D02*
X183250000Y-110150000D01*
X182300000Y-110450000D02*
X183550000Y-110450000D01*
X182500000Y-104950000D02*
X173200000Y-104950000D01*
X182500000Y-107900000D02*
X182500000Y-104950000D01*
X183250000Y-107900000D02*
X182500000Y-107900000D01*
X183250000Y-109400000D02*
X181450000Y-109400000D01*
X183250000Y-110150000D02*
X183250000Y-109400000D01*
X183260000Y-104190000D02*
X163140000Y-104190000D01*
X183260000Y-110160000D02*
X183260000Y-104190000D01*
X183550000Y-110450000D02*
X183550000Y-109200000D01*
%TO.C,J4*%
X166635000Y-95875000D02*
X166635000Y-98535000D01*
X174315000Y-95875000D02*
X166635000Y-95875000D01*
X174315000Y-95875000D02*
X174315000Y-98535000D01*
X174315000Y-98535000D02*
X166635000Y-98535000D01*
X176915000Y-97205000D02*
X176915000Y-98535000D01*
X176915000Y-98535000D02*
X175585000Y-98535000D01*
%TO.C,U9*%
X191030000Y-99776600D02*
X191030000Y-110056600D01*
X191030000Y-110056600D02*
X196330000Y-110056600D01*
X192680000Y-99776600D02*
X191030000Y-99776600D01*
X196330000Y-99776600D02*
X194680000Y-99776600D01*
X196330000Y-110056600D02*
X196330000Y-99776600D01*
X194680000Y-99776600D02*
G75*
G02*
X192680000Y-99776600I-1000000J0D01*
G01*
D11*
%TO.C,U5*%
X190483588Y-87360000D02*
X190483588Y-82560000D01*
X190484928Y-82560020D02*
X196982248Y-82560020D01*
X190484928Y-87359980D02*
X196982248Y-87359980D01*
X196382808Y-86758000D02*
X196982248Y-86758000D01*
X196382808Y-87359980D02*
X196382808Y-86758000D01*
X196983588Y-87360000D02*
X196983588Y-82560000D01*
D14*
%TO.C,C3*%
X185515000Y-88146267D02*
X185515000Y-87853733D01*
X186535000Y-88146267D02*
X186535000Y-87853733D01*
%TO.C,R10*%
X186877500Y-62554724D02*
X186877500Y-62045276D01*
X187922500Y-62554724D02*
X187922500Y-62045276D01*
%TD*%
M02*
