%TF.GenerationSoftware,KiCad,Pcbnew,8.0.3*%
%TF.CreationDate,2024-06-13T16:05:25+05:30*%
%TF.ProjectId,OptoIsolation,4f70746f-4973-46f6-9c61-74696f6e2e6b,rev?*%
%TF.SameCoordinates,Original*%
%TF.FileFunction,Soldermask,Bot*%
%TF.FilePolarity,Negative*%
%FSLAX46Y46*%
G04 Gerber Fmt 4.6, Leading zero omitted, Abs format (unit mm)*
G04 Created by KiCad (PCBNEW 8.0.3) date 2024-06-13 16:05:25*
%MOMM*%
%LPD*%
G01*
G04 APERTURE LIST*
G04 Aperture macros list*
%AMRoundRect*
0 Rectangle with rounded corners*
0 $1 Rounding radius*
0 $2 $3 $4 $5 $6 $7 $8 $9 X,Y pos of 4 corners*
0 Add a 4 corners polygon primitive as box body*
4,1,4,$2,$3,$4,$5,$6,$7,$8,$9,$2,$3,0*
0 Add four circle primitives for the rounded corners*
1,1,$1+$1,$2,$3*
1,1,$1+$1,$4,$5*
1,1,$1+$1,$6,$7*
1,1,$1+$1,$8,$9*
0 Add four rect primitives between the rounded corners*
20,1,$1+$1,$2,$3,$4,$5,0*
20,1,$1+$1,$4,$5,$6,$7,0*
20,1,$1+$1,$6,$7,$8,$9,0*
20,1,$1+$1,$8,$9,$2,$3,0*%
G04 Aperture macros list end*
%ADD10R,1.600000X1.600000*%
%ADD11O,1.600000X1.600000*%
%ADD12RoundRect,0.250000X-0.725000X0.600000X-0.725000X-0.600000X0.725000X-0.600000X0.725000X0.600000X0*%
%ADD13O,1.950000X1.700000*%
%ADD14R,1.700000X1.700000*%
%ADD15O,1.700000X1.700000*%
%ADD16RoundRect,0.250000X0.750000X1.550000X-0.750000X1.550000X-0.750000X-1.550000X0.750000X-1.550000X0*%
%ADD17O,2.000000X3.600000*%
%ADD18RoundRect,0.250000X0.600000X0.725000X-0.600000X0.725000X-0.600000X-0.725000X0.600000X-0.725000X0*%
%ADD19O,1.700000X1.950000*%
%ADD20RoundRect,0.237500X-0.237500X0.250000X-0.237500X-0.250000X0.237500X-0.250000X0.237500X0.250000X0*%
%ADD21RoundRect,0.237500X0.237500X-0.250000X0.237500X0.250000X-0.237500X0.250000X-0.237500X-0.250000X0*%
%ADD22RoundRect,0.237500X0.237500X-0.300000X0.237500X0.300000X-0.237500X0.300000X-0.237500X-0.300000X0*%
%ADD23RoundRect,0.237500X-0.237500X0.300000X-0.237500X-0.300000X0.237500X-0.300000X0.237500X0.300000X0*%
%ADD24C,0.800000*%
G04 APERTURE END LIST*
D10*
%TO.C,U6*%
X197470000Y-80325000D03*
D11*
X197470000Y-77785000D03*
X197470000Y-75245000D03*
X197470000Y-72705000D03*
X189850000Y-72705000D03*
X189850000Y-75245000D03*
X189850000Y-77785000D03*
X189850000Y-80325000D03*
%TD*%
D12*
%TO.C,J2*%
X208225000Y-78000000D03*
D13*
X208225000Y-80500000D03*
X208225000Y-83000000D03*
X208225000Y-85500000D03*
X208225000Y-88000000D03*
X208225000Y-90500000D03*
X208225000Y-93000000D03*
%TD*%
D14*
%TO.C,U7*%
X178130000Y-71805000D03*
D15*
X175590000Y-71805000D03*
X173050000Y-71805000D03*
X170510000Y-71805000D03*
X167970000Y-71805000D03*
X165430000Y-71805000D03*
X167970000Y-92125000D03*
X170510000Y-92125000D03*
X173050000Y-92125000D03*
D14*
X175590000Y-92125000D03*
%TD*%
D16*
%TO.C,J3*%
X180165000Y-66282500D03*
D17*
X175165000Y-66282500D03*
X170165000Y-66282500D03*
X165165000Y-66282500D03*
%TD*%
D10*
%TO.C,U4*%
X197470000Y-69050000D03*
D11*
X197470000Y-66510000D03*
X197470000Y-63970000D03*
X197470000Y-61430000D03*
X189850000Y-61430000D03*
X189850000Y-63970000D03*
X189850000Y-66510000D03*
X189850000Y-69050000D03*
%TD*%
D10*
%TO.C,U8*%
X197470000Y-97124200D03*
D11*
X197470000Y-94584200D03*
X197470000Y-92044200D03*
X197470000Y-89504200D03*
X189850000Y-89504200D03*
X189850000Y-92044200D03*
X189850000Y-94584200D03*
X189850000Y-97124200D03*
%TD*%
D18*
%TO.C,J1*%
X180700000Y-107700000D03*
D19*
X178200000Y-107700000D03*
X175700000Y-107700000D03*
X173200000Y-107700000D03*
X170700000Y-107700000D03*
X168200000Y-107700000D03*
X165700000Y-107700000D03*
%TD*%
D14*
%TO.C,J4*%
X175585000Y-97205000D03*
D15*
X173045000Y-97205000D03*
X170505000Y-97205000D03*
X167965000Y-97205000D03*
%TD*%
D10*
%TO.C,U9*%
X189870000Y-101106600D03*
D11*
X189870000Y-103646600D03*
X189870000Y-106186600D03*
X189870000Y-108726600D03*
X197490000Y-108726600D03*
X197490000Y-106186600D03*
X197490000Y-103646600D03*
X197490000Y-101106600D03*
%TD*%
D20*
%TO.C,R19*%
X187400000Y-101978500D03*
X187400000Y-103803500D03*
%TD*%
%TO.C,R6*%
X199525000Y-64650000D03*
X199525000Y-66475000D03*
%TD*%
%TO.C,R11*%
X187400000Y-65045100D03*
X187400000Y-66870100D03*
%TD*%
D21*
%TO.C,R9*%
X187310400Y-63302000D03*
X187310400Y-61477000D03*
%TD*%
D22*
%TO.C,C11*%
X199550000Y-102620600D03*
X199550000Y-100895600D03*
%TD*%
D20*
%TO.C,R7*%
X186025000Y-87087500D03*
X186025000Y-88912500D03*
%TD*%
D21*
%TO.C,R18*%
X187400000Y-94233100D03*
X187400000Y-92408100D03*
%TD*%
%TO.C,R12*%
X199550000Y-79436000D03*
X199550000Y-77611000D03*
%TD*%
D23*
%TO.C,C10*%
X187400000Y-97067400D03*
X187400000Y-98792400D03*
%TD*%
D20*
%TO.C,R17*%
X199475000Y-92700000D03*
X199475000Y-94525000D03*
%TD*%
D21*
%TO.C,R14*%
X187400000Y-74500000D03*
X187400000Y-72675000D03*
%TD*%
D20*
%TO.C,R16*%
X187300000Y-76312500D03*
X187300000Y-78137500D03*
%TD*%
%TO.C,R20*%
X199550000Y-104986600D03*
X199550000Y-106811600D03*
%TD*%
D24*
X187498300Y-88412500D03*
X191521400Y-90475000D03*
X164300000Y-91425000D03*
X162375000Y-108950000D03*
X185875000Y-81975000D03*
X164175000Y-75050000D03*
X184675000Y-94400000D03*
X175325000Y-61350000D03*
X179750000Y-99025000D03*
X185525000Y-100450000D03*
X180775000Y-83825000D03*
X180325000Y-61350000D03*
X170775000Y-80600000D03*
X185100000Y-67250000D03*
X181475000Y-103175000D03*
X166850000Y-105575000D03*
X169250000Y-86500000D03*
X185550000Y-105800000D03*
X174075000Y-83900000D03*
X164950000Y-61800000D03*
X170800000Y-75150000D03*
X182200000Y-96675000D03*
X180825000Y-76600000D03*
X170925000Y-101125000D03*
X169950000Y-61650000D03*
X185675000Y-91350000D03*
X185625000Y-78775000D03*
X179475000Y-94175000D03*
X164225000Y-80775000D03*
X208550000Y-99300000D03*
X202750000Y-61525000D03*
X199750000Y-109425000D03*
X208925000Y-104025000D03*
X202675000Y-72200000D03*
X208925000Y-61450000D03*
X202600000Y-93800000D03*
X205025000Y-108650000D03*
X205100000Y-103700000D03*
X202625000Y-77475000D03*
X202525000Y-98000000D03*
X202700000Y-66600000D03*
X200600000Y-64275000D03*
X200075000Y-83050000D03*
X187450000Y-86575000D03*
X201125000Y-90550000D03*
X187446400Y-64198600D03*
X186150000Y-75300000D03*
M02*
